<svg width="320" height="200" viewBox="0 0 320 200" fill="none" xmlns="http://www.w3.org/2000/svg">
<g clip-path="url(#clip0_6424_76700)">
<path d="M320 0H0V200H320V0Z" fill="#DDF0FF"/>
<path d="M67.2613 8H21C14.3726 8 9 13.3726 9 20V163.612H67.2613V8Z" fill="#F4FAFF"/>
<path d="M129.093 8H70.0337V163.612H129.093V8Z" fill="#F4FAFF"/>
<path d="M189.749 8H131.487V163.612H189.749V8Z" fill="#F4FAFF"/>
<path d="M250.404 8H192.143V163.612H250.404V8Z" fill="#F4FAFF"/>
<path d="M299.06 8.04004H252.799V150.9H311.06V20.04C311.06 13.4126 305.687 8.04004 299.06 8.04004Z" fill="#F4FAFF"/>
<path d="M68.2925 183.409V58.3129H86.5977V89.3556H99.1079V55.5201H104.599V44.7888H106.426L107.494 24.5732L109.174 44.9806H110.472V55.7119H115.733V183.409H68.2925Z" fill="#DDF0FF"/>
<path d="M311.438 78.9462V183.409H310.085H310.075H309.546H281.014V112.59H292.866V78.7544H298.997V68.0232H301.045L302.237 47.8076L304.115 68.215H305.56V78.9462H311.438Z" fill="#DDF0FF"/>
<path d="M280.945 183.409V99.5788L276.563 97.4687V82.6977L257.94 73.834V97.4687L244.79 98.7325V183.409H280.945Z" fill="#DDF0FF"/>
<path d="M183.081 183.409V98.8174H193.557V76.8132L204.502 64.1581V86.1622H211.167V66.3585H219.263V59.21H240.685V66.3585H245.918V183.409H183.081Z" fill="#DDF0FF"/>
<path d="M68.2927 69.2362V183.409H9V101.689H18.8821V79.6853L29.2153 67.0358V89.0399H35.5027V69.2362H43.1386V62.082H63.3494V69.2362H68.2927Z" fill="#DDF0FF"/>
<path d="M141.951 73.1348H115.301V183.409H141.951V73.1348Z" fill="#DDF0FF"/>
<path d="M141.95 68.0898H121.505V78.1835H141.95V68.0898Z" fill="#DDF0FF"/>
<path d="M141.951 59.8867H133.219V71.4473H141.951V59.8867Z" fill="#DDF0FF"/>
<path d="M184.094 87.291H168.205V183.415H184.094V87.291Z" fill="#DDF0FF"/>
<path d="M169.494 81.0508H141.15V183.415H169.494V81.0508Z" fill="#DDF0FF"/>
<path d="M174.174 76.0566H158.286V183.414H174.174V76.0566Z" fill="#DDF0FF"/>
<path d="M170.773 68.085H161.688V84.6614H170.773V68.085Z" fill="#DDF0FF"/>
<path d="M152.357 69.7607H147.879V91.4094H152.357V69.7607Z" fill="#DDF0FF"/>
<path opacity="0.33" d="M68 62.5068H10V179.04C10 185.667 15.3726 191.04 22 191.04H68V62.5068Z" fill="white"/>
<path opacity="0.33" d="M128.867 8H70.271V191.04H128.867V8Z" fill="white"/>
<path opacity="0.33" d="M189.549 8H130.953V191.04H189.549V8Z" fill="white"/>
<path opacity="0.33" d="M250.23 8.04004H191.634V191.08H250.23V8.04004Z" fill="white"/>
<path opacity="0.33" d="M311 48.04H252V190.734H299C305.627 190.734 311 185.361 311 178.734V48.04Z" fill="white"/>
<path opacity="0.61" d="M78 32.04H110C110 32.04 104.589 30.9034 103.623 30.5446C102.657 30.1859 102.321 29.3699 101.315 29.3381C100.31 29.3064 99.9916 30.1668 99.0078 30.351C98.024 30.5351 95.7127 30.4589 94.8844 30.2049C94.0561 29.9541 93.9403 29.1318 93.0686 29.0461C92.1969 28.9603 91.7339 29.8176 90.7609 29.916C89.788 30.0144 88.5328 29.2397 87.0788 29.3381C85.6247 29.4366 78.0072 32.04 78.0072 32.04H78Z" fill="#DDF0FF"/>
<path opacity="0.61" d="M156 49.04H188C188 49.04 182.589 47.5077 181.623 47.024C180.657 46.5403 180.563 46.0695 179.554 46.0267C178.545 45.9839 177.988 46.5104 177.004 46.7629C176.451 46.9042 175.847 44.1006 174.957 44.0406C174.259 43.9936 173.242 46.7158 172.881 46.566C172.052 46.2279 171.821 45.817 170.949 45.7014C170.078 45.5858 169.73 46.0438 168.757 46.1765C167.784 46.3092 166.529 45.2648 165.075 45.3975C163.621 45.5302 156.004 49.04 156.004 49.04H156Z" fill="#DDF0FF"/>
<path opacity="0.61" d="M28.9962 40.0358H9V37.1996C9.99398 37.0473 10.4759 35.934 11.3682 36.0483C12.2756 36.1625 12.3961 37.2547 13.2583 37.5933C14.1205 37.9277 16.5264 38.0336 17.5505 37.788C18.5745 37.5383 18.9059 36.3911 19.9563 36.4335C21.0068 36.4758 21.3532 37.5637 22.3622 38.042C23.3675 38.5204 29 40.04 29 40.04L28.9962 40.0358Z" fill="#DDF0FF"/>
<path opacity="0.61" d="M201 35.7982L247 36.04C247 36.04 237.605 32.4597 236.35 32.4953C235.095 32.531 232.626 33.3082 231.367 33.3438C230.112 33.3795 229.721 32.4359 229.116 32.3764C228.511 32.3169 227.842 32.305 227.237 32.3169C226.632 32.3288 226.569 31.9204 225.93 32.0751C225.291 32.2297 225.039 33.102 223.998 33.3438C222.957 33.5857 222.014 32.3724 220.92 32.4953C219.827 32.6143 219.233 33.1297 218.211 33.3438C217.189 33.558 216.896 32.9592 215.855 32.9156C214.814 32.872 213.375 33.3597 211.879 33.3438C210.383 33.324 209.399 33.2764 207.464 33.098C205.652 32.9275 201.004 35.8021 201.004 35.8021L201 35.7982Z" fill="#DDF0FF"/>
<path opacity="0.61" d="M269 43.8586L303 44.04C303 44.04 296.056 41.3548 295.128 41.3815C294.201 41.4083 292.376 41.9911 291.445 42.0179C290.518 42.0447 290.229 41.3369 289.782 41.2923C289.334 41.2477 288.84 41.2388 288.393 41.2477C287.946 41.2566 287.898 40.9503 287.426 41.0663C286.954 41.1823 286.768 41.8365 285.999 42.0179C285.229 42.1993 284.532 41.2893 283.724 41.3815C282.916 41.4707 282.477 41.8573 281.721 42.0179C280.966 42.1785 280.749 41.7294 279.98 41.6967C279.21 41.664 278.146 42.0298 277.041 42.0179C275.936 42.003 275.208 41.9673 273.777 41.8335C272.439 41.7057 269.003 43.8616 269.003 43.8616L269 43.8586Z" fill="#DDF0FF"/>
<g clip-path="url(#clip1_6424_76700)">
<g clip-path="url(#clip2_6424_76700)">
<path d="M125.021 157.155C125.021 157.155 124.926 157.145 124.884 157.134L124.598 149.323L124.091 135.466H105.843L105.336 149.323L105.051 157.018C108.791 160.115 115.575 163.138 125.021 157.155Z" fill="#EFC6BB"/>
<path d="M166.388 180.706C166.789 181.34 167.18 181.974 167.55 182.63C167.18 181.974 166.789 181.34 166.388 180.706Z" fill="white"/>
<path d="M165.922 179.976C165.532 179.374 165.119 178.792 164.697 178.211C165.151 178.824 165.584 179.458 166.007 180.103C165.975 180.061 165.954 180.018 165.922 179.976Z" fill="white"/>
<path d="M72.2323 170.675C72.0949 170.781 71.9681 170.897 71.8413 171.014C72.0949 170.781 72.3485 170.558 72.6126 170.347C72.4858 170.453 72.3591 170.558 72.2323 170.675Z" fill="white"/>
<path d="M155.082 168.561C154.944 168.444 154.797 168.349 154.659 168.243C155.018 168.497 155.367 168.762 155.705 169.037C155.504 168.868 155.293 168.709 155.082 168.561Z" fill="white"/>
<path d="M157.702 170.675C157.597 170.579 157.491 170.484 157.385 170.399C157.66 170.622 157.924 170.855 158.178 171.098C158.019 170.95 157.861 170.802 157.702 170.675Z" fill="white"/>
<path d="M171.132 190.789C171.364 191.518 171.597 192.258 171.798 193.009C171.597 192.258 171.375 191.518 171.132 190.789Z" fill="white"/>
<path d="M113.176 200.091H119.336L127.99 157.59C127.99 157.59 127.937 157.59 127.905 157.579C127.673 157.537 127.451 157.505 127.219 157.473C126.638 157.378 126.056 157.294 125.465 157.23C125.317 157.198 125.169 157.188 125.021 157.167C115.575 163.149 108.791 160.126 105.051 157.029V157.146C104.195 157.251 103.339 157.368 102.483 157.505C102.473 157.494 102.452 157.494 102.441 157.505C102.399 157.516 102.367 157.516 102.325 157.526L110.757 198.77C111.549 199.214 112.352 199.658 113.176 200.091Z" fill="white"/>
<path d="M59.3206 189.31C59.2465 189.511 59.1724 189.712 59.1089 189.912C59.2571 189.479 59.4264 189.046 59.5852 188.612C59.4899 188.845 59.4053 189.077 59.3206 189.31Z" fill="white"/>
<path d="M170.625 189.31C170.498 188.951 170.361 188.602 170.223 188.253C170.477 188.877 170.699 189.521 170.921 190.156C170.825 189.87 170.73 189.585 170.625 189.31Z" fill="white"/>
<path d="M63.9803 180.029C63.9062 180.135 63.8427 180.241 63.7686 180.336C63.8215 180.262 63.8744 180.177 63.9273 180.103C63.9485 180.082 63.9591 180.05 63.9803 180.029Z" fill="#53A7BA"/>
<path d="M65.8088 177.461C65.6818 177.63 65.5548 177.8 65.4277 177.958C65.4489 177.927 65.4807 177.895 65.5018 177.863C65.6077 177.736 65.7029 177.599 65.8088 177.461Z" fill="#53A7BA"/>
<path d="M74.863 168.561C74.863 168.561 74.8947 168.529 74.9158 168.519C74.6411 168.72 74.3769 168.921 74.1128 169.143C74.3558 168.942 74.6094 168.762 74.863 168.561Z" fill="#53A7BA"/>
<path d="M61.7931 183.739C61.7931 183.739 61.8143 183.697 61.8249 183.686C61.8884 183.549 61.9625 183.412 62.0366 183.264C61.9307 183.443 61.8354 183.623 61.7402 183.803C61.6661 183.94 61.592 184.078 61.5391 184.215C61.6132 184.088 61.6767 183.951 61.7508 183.824C61.7613 183.792 61.7825 183.771 61.7931 183.739Z" fill="#53A7BA"/>
<path d="M70.7107 172.049L70.7318 172.028C70.8375 171.912 70.9643 171.795 71.0805 171.689C70.8903 171.859 70.7107 172.028 70.5205 172.208C70.5733 172.176 70.6367 172.113 70.6896 172.071L70.7107 172.049Z" fill="#53A7BA"/>
<path d="M73.9969 169.237C73.6059 169.544 73.2044 169.861 72.8135 170.189C72.7395 170.252 72.6761 170.305 72.6127 170.358C72.3486 170.569 72.095 170.791 71.8414 171.024C71.5772 171.246 71.3236 171.478 71.0806 171.7C70.9644 171.806 70.8376 171.922 70.7319 172.038C71.778 171.066 72.8663 170.125 73.9969 169.237Z" fill="#53A7BA"/>
<path d="M70.5203 172.218L70.3301 172.398C70.1188 172.588 69.918 172.8 69.7173 173.011C70.0448 172.694 70.3724 172.377 70.6894 172.07C70.6365 172.123 70.5731 172.176 70.5203 172.218Z" fill="#53A7BA"/>
<path d="M66.5688 176.499C66.3046 176.816 66.051 177.133 65.808 177.461C65.7024 177.598 65.6073 177.736 65.5016 177.862C65.4805 177.894 65.4488 177.926 65.4276 177.958C65.1952 178.264 64.9627 178.592 64.7408 178.909C64.6035 179.12 64.445 179.332 64.3076 179.543C65.0578 178.444 65.8503 177.387 66.6744 176.372C66.6322 176.414 66.6005 176.446 66.5688 176.488V176.499Z" fill="#53A7BA"/>
<path d="M61.0639 185.166L60.8311 185.685C60.9157 185.483 61.0004 185.293 61.1063 185.092C61.0957 185.113 61.0745 185.134 61.0639 185.166Z" fill="#53A7BA"/>
<path d="M61.5391 184.215C61.4123 184.448 61.3067 184.68 61.1904 184.924C61.3701 184.554 61.5602 184.184 61.7504 183.824C61.6765 183.951 61.6131 184.088 61.5391 184.215Z" fill="#53A7BA"/>
<path d="M63.7793 180.336C63.6313 180.547 63.494 180.78 63.3672 181.002C63.5574 180.706 63.7476 180.399 63.9378 180.104C63.8849 180.178 63.8321 180.262 63.7793 180.336Z" fill="#53A7BA"/>
<path d="M74.1131 169.142C75.6663 167.926 77.3041 166.806 79.0158 165.77C81.6996 171.171 86.1374 178.295 93.1111 185.335L99.6939 178.538H87.7224L101.321 157.694C100.898 157.768 100.465 157.832 100.053 157.906C99.9897 157.906 99.9263 157.916 99.8735 157.937C99.0599 158.096 98.2463 158.265 97.4433 158.445C96.7459 158.603 96.0485 158.772 95.3512 158.952C94.9919 159.037 94.6432 159.132 94.2945 159.238C93.8085 159.364 93.333 159.502 92.8575 159.65C92.699 159.692 92.5405 159.745 92.382 159.798C91.6741 160.009 90.9662 160.242 90.2794 160.485C90.142 160.527 90.0047 160.569 89.8673 160.622C89.6771 160.686 89.4869 160.76 89.2862 160.834C88.9586 160.95 88.6416 161.077 88.3141 161.204C88.0816 161.278 87.8492 161.373 87.6167 161.478C87.0356 161.7 86.465 161.933 85.905 162.187C85.3027 162.44 84.7004 162.715 84.1087 163C83.5698 163.254 83.0415 163.518 82.5132 163.793C81.8159 164.131 81.1396 164.501 80.4634 164.892C80.009 165.146 79.5653 165.41 79.1215 165.675C78.7728 165.875 78.4241 166.097 78.086 166.319C77.8324 166.478 77.5788 166.647 77.3252 166.806C76.8709 167.112 76.4165 167.419 75.9728 167.736C75.6135 167.989 75.2543 168.254 74.9056 168.518C74.8844 168.529 74.8739 168.55 74.8527 168.56C74.5992 168.751 74.3456 168.941 74.1025 169.131L74.1131 169.142Z" fill="#53A7BA"/>
<path d="M62.4587 182.534C62.3108 182.777 62.184 183.02 62.036 183.274C61.9621 183.411 61.8881 183.549 61.8247 183.697C62.0255 183.306 62.2474 182.925 62.4587 182.545V182.534Z" fill="#53A7BA"/>
<path d="M67.2976 175.622C67.2976 175.622 67.2025 175.728 67.1603 175.78C67.0123 175.95 66.8644 176.129 66.7271 176.309C67.0863 175.865 67.4667 175.442 67.8471 175.009C67.6569 175.21 67.4667 175.4 67.2976 175.622Z" fill="#53A7BA"/>
<path d="M68.7878 173.962C68.7878 173.962 68.7033 174.047 68.6716 174.089C68.5025 174.269 68.344 174.459 68.1749 174.639C68.1749 174.639 68.1538 174.66 68.1538 174.67C68.587 174.195 69.0308 173.719 69.4746 173.254C69.2421 173.476 69.0097 173.719 68.7878 173.962Z" fill="#53A7BA"/>
<path d="M170.224 188.252C170.065 187.851 169.906 187.459 169.737 187.068C169.737 187.089 169.737 187.1 169.758 187.121C169.917 187.491 170.076 187.872 170.224 188.252Z" fill="#53A7BA"/>
<path d="M164.698 178.212C164.56 178.032 164.423 177.842 164.274 177.651C164.327 177.725 164.38 177.8 164.433 177.863C164.528 177.98 164.613 178.096 164.698 178.212Z" fill="#53A7BA"/>
<path d="M170.91 190.166C170.984 190.378 171.058 190.579 171.122 190.801C171.048 190.589 170.974 190.378 170.91 190.166Z" fill="#53A7BA"/>
<path d="M166.007 180.104C166.134 180.294 166.261 180.495 166.388 180.696C166.261 180.495 166.134 180.294 166.007 180.104Z" fill="#53A7BA"/>
<path d="M130.632 178.539L138.398 186.551L129.829 200.091H173.182C173.15 199.816 173.118 199.552 173.076 199.277C173.055 199.044 173.023 198.822 172.971 198.6C172.971 198.548 172.96 198.484 172.949 198.431C172.875 197.903 172.78 197.385 172.685 196.867C172.664 196.772 172.654 196.687 172.632 196.592C172.558 196.201 172.474 195.81 172.4 195.419C172.389 195.366 172.368 195.313 172.358 195.26C172.284 194.901 172.199 194.541 172.104 194.182C172.009 193.791 171.903 193.4 171.798 193.009C171.597 192.258 171.375 191.518 171.132 190.789C171.058 190.578 170.984 190.366 170.921 190.155C170.699 189.51 170.477 188.876 170.223 188.252C170.075 187.872 169.917 187.491 169.758 187.121C169.748 187.1 169.748 187.09 169.737 187.069C169.568 186.667 169.399 186.286 169.209 185.895C169.04 185.504 168.85 185.124 168.66 184.743C168.512 184.426 168.353 184.109 168.195 183.802C167.983 183.401 167.772 183.01 167.55 182.619C167.18 181.963 166.789 181.329 166.388 180.695C166.261 180.494 166.134 180.293 166.007 180.103C165.585 179.458 165.152 178.824 164.697 178.211C164.613 178.095 164.528 177.978 164.433 177.862C164.38 177.799 164.327 177.725 164.275 177.651C163.281 176.34 162.214 175.093 161.084 173.898C160.904 173.698 160.714 173.497 160.513 173.306C159.763 172.545 158.981 171.805 158.178 171.097C157.924 170.854 157.66 170.622 157.385 170.4C157.185 170.231 156.984 170.061 156.783 169.903C156.572 169.713 156.35 169.544 156.128 169.364C155.991 169.258 155.853 169.142 155.705 169.036C155.367 168.761 155.019 168.497 154.659 168.243C154.469 168.095 154.268 167.947 154.068 167.81C153.645 167.503 153.212 167.208 152.779 166.922C152.567 166.774 152.345 166.637 152.123 166.499C151.659 166.193 151.183 165.897 150.708 165.622C150.137 165.273 149.556 164.935 148.975 164.618C148.647 164.438 148.32 164.259 147.992 164.089C147.58 163.867 147.157 163.656 146.735 163.445C146.703 163.434 146.671 163.413 146.64 163.402C146.291 163.223 145.942 163.054 145.583 162.895C145.287 162.747 144.991 162.61 144.695 162.483C144.273 162.293 143.85 162.113 143.427 161.933C143.216 161.838 142.994 161.753 142.783 161.669C142.339 161.489 141.885 161.309 141.43 161.14C141.209 161.045 140.976 160.971 140.754 160.887C140.3 160.718 139.846 160.559 139.381 160.4C138.778 160.189 138.165 159.999 137.553 159.809C137.014 159.639 136.485 159.481 135.936 159.333C135.365 159.164 134.774 159.005 134.193 158.857C133.601 158.709 132.999 158.561 132.396 158.424C131.678 158.265 130.949 158.107 130.22 157.98C129.998 157.927 129.765 157.885 129.543 157.853C129.374 157.821 129.205 157.8 129.047 157.769L142.603 178.539H130.632Z" fill="#53A7BA"/>
<g style="mix-blend-mode:multiply">
<path d="M101.332 157.695C101.67 157.642 101.997 157.578 102.325 157.525C101.997 157.568 101.659 157.642 101.332 157.695Z" fill="#53A7BA"/>
</g>
<path d="M99.6938 178.539L93.1111 185.335C97.7708 190.039 103.572 194.7 110.757 198.78L102.325 157.536C101.997 157.578 101.659 157.652 101.332 157.705L87.7329 178.549H99.7044L99.6938 178.539Z" fill="#53A7BA"/>
<g style="mix-blend-mode:multiply">
<path d="M99.6938 178.539L93.1111 185.335C97.7708 190.039 103.572 194.7 110.757 198.78L102.325 157.536C101.997 157.578 101.659 157.652 101.332 157.705L87.7329 178.549H99.7044L99.6938 178.539Z" fill="#53A7BA"/>
</g>
<g style="mix-blend-mode:multiply">
<path d="M129.047 157.769L129.004 157.695C128.666 157.642 128.339 157.578 128.011 157.525V157.578C128.011 157.578 128.032 157.578 128.043 157.578C128.381 157.631 128.719 157.695 129.057 157.758L129.047 157.769Z" fill="#53A7BA"/>
</g>
<path d="M119.347 200.091L128.032 157.589C128.032 157.589 128.001 157.589 127.99 157.589L119.336 200.091H119.347Z" fill="white"/>
<g style="mix-blend-mode:multiply">
<path d="M119.347 200.091L128.032 157.589C128.032 157.589 128.001 157.589 127.99 157.589L119.336 200.091H119.347Z" fill="#53A7BA"/>
</g>
<path d="M119.347 200.091H129.828L138.398 186.551L130.631 178.539H142.603L129.046 157.769C128.708 157.705 128.37 157.642 128.032 157.589L119.347 200.091Z" fill="#53A7BA"/>
<g style="mix-blend-mode:multiply">
<path d="M119.347 200.091H129.828L138.398 186.551L130.631 178.539H142.603L129.046 157.769C128.708 157.705 128.37 157.642 128.032 157.589L119.347 200.091Z" fill="#53A7BA"/>
</g>
<g style="mix-blend-mode:multiply" opacity="0.2">
<path d="M60.155 187.195C60.155 187.195 60.1762 187.142 60.1867 187.121C60.3452 186.741 60.5143 186.371 60.6834 185.99C60.6939 185.948 60.7151 185.906 60.7468 185.863L60.8313 185.684C60.8102 185.747 60.7785 185.8 60.7468 185.863C60.7151 185.906 60.6939 185.948 60.6834 185.99C60.5037 186.392 60.3241 186.793 60.155 187.195C59.986 187.597 59.8169 188.009 59.6584 188.421C59.6373 188.485 59.6162 188.548 59.5845 188.611C59.6056 188.548 59.6373 188.485 59.6584 188.421C59.8169 188.009 59.986 187.597 60.155 187.195Z" fill="#53A7BA"/>
</g>
<g style="mix-blend-mode:multiply" opacity="0.2">
<path d="M56.9747 198.548C57.0064 198.305 57.0486 198.051 57.0909 197.808C57.1543 197.396 57.2283 196.994 57.3128 196.592C57.3128 196.529 57.3339 196.466 57.3445 196.413C57.3445 196.37 57.355 196.328 57.3656 196.296C57.3973 196.159 57.4184 196.032 57.4501 195.895C57.5664 195.313 57.6932 194.743 57.8411 194.182C57.9362 193.791 58.0419 193.4 58.1475 193.009C58.2426 192.639 58.3483 192.28 58.4539 191.92C58.623 191.339 58.8132 190.768 59.0034 190.198C59.0139 190.155 59.0245 190.124 59.0456 190.081C59.0668 190.028 59.0879 189.976 59.109 189.912C59.0879 189.965 59.0668 190.018 59.0456 190.081C59.0245 190.124 59.0139 190.155 59.0034 190.198C58.8132 190.768 58.623 191.339 58.4539 191.92C58.3483 192.28 58.2426 192.639 58.1475 193.009C58.0419 193.4 57.9362 193.791 57.8411 194.182C57.6932 194.743 57.5664 195.313 57.4501 195.895C57.4184 196.032 57.3973 196.159 57.3656 196.296C57.355 196.328 57.3445 196.37 57.3445 196.413C57.2494 196.867 57.1649 197.343 57.0909 197.808C57.0486 198.051 57.0064 198.305 56.9747 198.548V198.569C56.9641 198.664 56.9535 198.77 56.9324 198.865C56.9113 198.981 56.9007 199.108 56.8901 199.224C56.9218 199.002 56.943 198.791 56.9747 198.569V198.548Z" fill="#53A7BA"/>
</g>
<g style="mix-blend-mode:multiply" opacity="0.2">
<path d="M61.1921 184.923C61.1921 184.923 61.1382 185.02 61.1167 185.074C61.1167 185.074 61.1705 184.966 61.1921 184.923Z" fill="#53A7BA"/>
</g>
<g style="mix-blend-mode:multiply" opacity="0.2">
<path d="M63.2298 181.213C63.2298 181.213 63.2615 181.171 63.2721 181.15C63.3038 181.097 63.3355 181.044 63.3672 181.002C63.3355 181.055 63.3038 181.108 63.2721 181.15C63.2615 181.171 63.2404 181.192 63.2298 181.213C62.9868 181.615 62.7438 182.017 62.5113 182.429C62.4902 182.461 62.4796 182.492 62.4585 182.524C62.4796 182.492 62.4902 182.461 62.5113 182.429C62.7438 182.017 62.9868 181.615 63.2298 181.213Z" fill="#53A7BA"/>
</g>
<g style="mix-blend-mode:multiply" opacity="0.2">
<path d="M69.6551 173.074C69.6551 173.074 69.6976 173.032 69.7189 173.011L69.6551 173.074C69.6551 173.074 69.5808 173.159 69.5277 173.202C69.5065 173.223 69.4958 173.244 69.4746 173.255C69.4958 173.234 69.5065 173.213 69.5277 173.202C69.5808 173.159 69.6127 173.117 69.6551 173.074Z" fill="#53A7BA"/>
</g>
<g style="mix-blend-mode:multiply" opacity="0.2">
<path d="M74.1152 169.142L74.0829 169.163C74.0829 169.163 74.0289 169.206 73.9966 169.228C74.0289 169.206 74.0505 169.185 74.0829 169.163L74.1152 169.142Z" fill="#53A7BA"/>
</g>
<g style="mix-blend-mode:multiply" opacity="0.2">
<path d="M64.2553 179.617C64.2553 179.617 64.2871 179.564 64.3083 179.543C64.2871 179.564 64.2765 179.596 64.2553 179.617C64.1813 179.723 64.1072 179.839 64.0331 179.956L63.9907 180.03C63.9907 180.03 64.0225 179.988 64.0331 179.956C64.1072 179.839 64.1813 179.723 64.2553 179.617Z" fill="#53A7BA"/>
</g>
<g style="mix-blend-mode:multiply" opacity="0.2">
<path d="M68.1435 174.67C68.0377 174.786 67.9424 174.903 67.8472 175.009C67.8895 174.966 67.9318 174.913 67.9742 174.871C68.0271 174.808 68.0906 174.733 68.1541 174.67H68.1435Z" fill="#53A7BA"/>
</g>
<g style="mix-blend-mode:multiply" opacity="0.2">
<path d="M66.7279 176.309C66.7279 176.309 66.7065 176.341 66.6957 176.351L66.6743 176.373C66.6743 176.373 66.685 176.351 66.6957 176.341L66.7279 176.298V176.309Z" fill="#53A7BA"/>
</g>
<path d="M59.6582 188.422C59.6371 188.485 59.6054 188.549 59.5843 188.612C59.4152 189.045 59.2567 189.479 59.1088 189.912C59.0877 189.965 59.0665 190.029 59.0454 190.081C59.2356 189.521 59.4469 188.972 59.6582 188.422Z" fill="white"/>
<g style="mix-blend-mode:multiply" opacity="0.2">
<path d="M59.6582 188.422C59.6371 188.485 59.6054 188.549 59.5843 188.612C59.4152 189.045 59.2567 189.479 59.1088 189.912C59.0877 189.965 59.0665 190.029 59.0454 190.081C59.2356 189.521 59.4469 188.972 59.6582 188.422Z" fill="#53A7BA"/>
</g>
<path d="M113.176 200.091C112.352 199.657 111.549 199.224 110.756 198.77L111.031 200.091H113.176Z" fill="white"/>
<g style="mix-blend-mode:multiply" opacity="0.2">
<path d="M113.176 200.091C112.352 199.657 111.549 199.224 110.756 198.77L111.031 200.091H113.176Z" fill="#53A7BA"/>
</g>
<path d="M60.1865 187.121C60.1865 187.121 60.1654 187.174 60.1548 187.195C60.3238 186.794 60.5035 186.392 60.6831 185.99C60.514 186.371 60.345 186.741 60.1865 187.121Z" fill="white"/>
<g style="mix-blend-mode:multiply" opacity="0.2">
<path d="M60.1865 187.121C60.1865 187.121 60.1654 187.174 60.1548 187.195C60.3238 186.794 60.5035 186.392 60.6831 185.99C60.514 186.371 60.345 186.741 60.1865 187.121Z" fill="#53A7BA"/>
</g>
<path d="M57.3447 196.412C57.3447 196.466 57.3125 196.53 57.3125 196.595C57.3125 196.53 57.334 196.476 57.3447 196.423V196.412Z" fill="#53A7BA"/>
<g style="mix-blend-mode:multiply" opacity="0.2">
<path d="M57.3447 196.412C57.3447 196.466 57.3125 196.53 57.3125 196.595C57.3125 196.53 57.334 196.476 57.3447 196.423V196.412Z" fill="#53A7BA"/>
</g>
<path d="M64.0236 179.977C64.0236 179.977 64.0344 179.966 64.0344 179.955C64.0129 179.977 64.0021 179.998 63.9913 180.03C63.9698 180.052 63.959 180.084 63.9375 180.106C63.9698 180.063 63.9913 180.02 64.0236 179.977Z" fill="#53A7BA"/>
<g style="mix-blend-mode:multiply" opacity="0.2">
<path d="M64.0236 179.977C64.0236 179.977 64.0344 179.966 64.0344 179.955C64.0129 179.977 64.0021 179.998 63.9913 180.03C63.9698 180.052 63.959 180.084 63.9375 180.106C63.9698 180.063 63.9913 180.02 64.0236 179.977Z" fill="#53A7BA"/>
</g>
<path d="M74.1148 169.142L74.0811 169.175C74.0811 169.175 74.1035 169.153 74.1148 169.142Z" fill="#53A7BA"/>
<g style="mix-blend-mode:multiply" opacity="0.2">
<path d="M74.1148 169.142L74.0811 169.175C74.0811 169.175 74.1035 169.153 74.1148 169.142Z" fill="#53A7BA"/>
</g>
<path d="M56.9752 198.6V198.568C56.9434 198.78 56.9222 199.002 56.8905 199.224C56.8799 199.319 56.8693 199.414 56.8481 199.509C56.8905 199.203 56.9222 198.896 56.9752 198.6Z" fill="#53A7BA"/>
<g style="mix-blend-mode:multiply" opacity="0.2">
<path d="M56.9752 198.6V198.568C56.9434 198.78 56.9222 199.002 56.8905 199.224C56.8799 199.319 56.8693 199.414 56.8481 199.509C56.8905 199.203 56.9222 198.896 56.9752 198.6Z" fill="#53A7BA"/>
</g>
<path d="M70.6895 172.07L70.7109 172.049L70.7323 172.027L70.7109 172.049L70.6895 172.07Z" fill="#53A7BA"/>
<g style="mix-blend-mode:multiply" opacity="0.2">
<path d="M70.6895 172.07L70.7109 172.049L70.7323 172.027L70.7109 172.049L70.6895 172.07Z" fill="#53A7BA"/>
</g>
<path d="M61.7505 183.826C61.7505 183.826 61.7828 183.773 61.7935 183.74C61.7935 183.719 61.8151 183.697 61.8258 183.687C61.8258 183.708 61.8043 183.73 61.7935 183.74C61.7828 183.773 61.7613 183.794 61.7505 183.826Z" fill="#53A7BA"/>
<g style="mix-blend-mode:multiply" opacity="0.2">
<path d="M61.7505 183.826C61.7505 183.826 61.7828 183.773 61.7935 183.74C61.7935 183.719 61.8151 183.697 61.8258 183.687C61.8258 183.708 61.8043 183.73 61.7935 183.74C61.7828 183.773 61.7613 183.794 61.7505 183.826Z" fill="#53A7BA"/>
</g>
<path d="M60.6834 185.991C60.5038 186.392 60.3242 186.794 60.1551 187.196C59.986 187.597 59.817 188.01 59.6585 188.422C59.4472 188.971 59.2358 189.521 59.0457 190.081C59.0245 190.124 59.014 190.155 59.0034 190.198C58.8132 190.768 58.623 191.339 58.4539 191.92C58.3483 192.28 58.2426 192.639 58.1475 193.009C58.0419 193.4 57.9362 193.791 57.8411 194.182C57.6932 194.743 57.5664 195.313 57.4502 195.895C57.4185 196.032 57.3973 196.159 57.3656 196.296C57.3551 196.328 57.3445 196.37 57.3445 196.413C57.3445 196.476 57.3128 196.529 57.3128 196.592C57.2283 196.994 57.1543 197.396 57.0909 197.808C57.0486 198.051 57.0064 198.305 56.9747 198.548V198.601C56.9219 198.897 56.8902 199.203 56.8479 199.51C56.8268 199.7 56.7951 199.89 56.7739 200.08H74.6519C74.2504 199.901 73.9651 199.499 73.9651 199.023C73.9651 198.379 74.4829 197.861 75.1274 197.861C75.7719 197.861 76.2897 198.379 76.2897 199.023C76.2897 199.499 76.0044 199.901 75.6029 200.08H100.729L91.9382 186.54L93.1216 185.325C86.1479 178.285 81.7101 171.161 79.0263 165.76C77.3146 166.796 75.6768 167.916 74.1236 169.132C74.113 169.132 74.1025 169.153 74.0919 169.163C74.0602 169.184 74.0391 169.206 74.0074 169.227C72.8768 170.115 71.7885 171.055 70.7424 172.028L70.7213 172.049L70.7002 172.07C70.3832 172.387 70.0451 172.704 69.7281 173.011C69.7069 173.032 69.6858 173.053 69.6647 173.074C69.6224 173.116 69.5907 173.159 69.5379 173.201C69.5168 173.222 69.5062 173.243 69.4851 173.254C69.0413 173.719 68.5975 174.184 68.1643 174.67C68.1009 174.734 68.0481 174.808 67.9847 174.871C67.9424 174.913 67.9001 174.966 67.8579 175.008C67.4775 175.431 67.1077 175.865 66.7378 176.309L66.7061 176.351C66.7061 176.351 66.6956 176.372 66.685 176.383C65.8608 177.397 65.0684 178.454 64.3182 179.554C64.2971 179.575 64.2865 179.606 64.2654 179.628C64.1914 179.733 64.1174 179.85 64.0435 179.966C64.0435 179.966 64.0329 179.966 64.0329 179.987C64.0012 180.029 63.9801 180.072 63.9484 180.114C63.7582 180.41 63.568 180.706 63.3778 181.012C63.3461 181.065 63.3144 181.118 63.2827 181.16C63.2721 181.181 63.251 181.202 63.2404 181.224C62.9974 181.625 62.7544 182.027 62.5219 182.439C62.5008 182.471 62.4902 182.503 62.4691 182.534C62.2578 182.915 62.0465 183.295 61.8351 183.686C61.8351 183.708 61.814 183.729 61.8034 183.739C61.7823 183.771 61.7717 183.792 61.7612 183.824C61.571 184.183 61.3808 184.553 61.2012 184.923C61.18 184.976 61.1483 185.029 61.1272 185.071V185.092C61.011 185.293 60.9264 185.483 60.8419 185.684L60.7574 185.864C60.7574 185.864 60.7045 185.948 60.694 185.991H60.6834ZM75.1274 179.945C75.7719 179.945 76.2897 180.463 76.2897 181.107C76.2897 181.752 75.7719 182.27 75.1274 182.27C74.4829 182.27 73.9651 181.752 73.9651 181.107C73.9651 180.463 74.4829 179.945 75.1274 179.945ZM65.6073 188.21C66.2518 188.21 66.7695 188.728 66.7695 189.373C66.7695 190.018 66.2518 190.536 65.6073 190.536C64.9627 190.536 64.445 190.018 64.445 189.373C64.445 188.728 64.9627 188.21 65.6073 188.21Z" fill="#53A7BA"/>
<g style="mix-blend-mode:multiply" opacity="0.2">
<path d="M60.6834 185.991C60.5038 186.392 60.3242 186.794 60.1551 187.196C59.986 187.597 59.817 188.01 59.6585 188.422C59.4472 188.971 59.2358 189.521 59.0457 190.081C59.0245 190.124 59.014 190.155 59.0034 190.198C58.8132 190.768 58.623 191.339 58.4539 191.92C58.3483 192.28 58.2426 192.639 58.1475 193.009C58.0419 193.4 57.9362 193.791 57.8411 194.182C57.6932 194.743 57.5664 195.313 57.4502 195.895C57.4185 196.032 57.3973 196.159 57.3656 196.296C57.3551 196.328 57.3445 196.37 57.3445 196.413C57.3445 196.476 57.3128 196.529 57.3128 196.592C57.2283 196.994 57.1543 197.396 57.0909 197.808C57.0486 198.051 57.0064 198.305 56.9747 198.548V198.601C56.9219 198.897 56.8902 199.203 56.8479 199.51C56.8268 199.7 56.7951 199.89 56.7739 200.08H74.6519C74.2504 199.901 73.9651 199.499 73.9651 199.023C73.9651 198.379 74.4829 197.861 75.1274 197.861C75.7719 197.861 76.2897 198.379 76.2897 199.023C76.2897 199.499 76.0044 199.901 75.6029 200.08H100.729L91.9382 186.54L93.1216 185.325C86.1479 178.285 81.7101 171.161 79.0263 165.76C77.3146 166.796 75.6768 167.916 74.1236 169.132C74.113 169.132 74.1025 169.153 74.0919 169.163C74.0602 169.184 74.0391 169.206 74.0074 169.227C72.8768 170.115 71.7885 171.055 70.7424 172.028L70.7213 172.049L70.7002 172.07C70.3832 172.387 70.0451 172.704 69.7281 173.011C69.7069 173.032 69.6858 173.053 69.6647 173.074C69.6224 173.116 69.5907 173.159 69.5379 173.201C69.5168 173.222 69.5062 173.243 69.4851 173.254C69.0413 173.719 68.5975 174.184 68.1643 174.67C68.1009 174.734 68.0481 174.808 67.9847 174.871C67.9424 174.913 67.9001 174.966 67.8579 175.008C67.4775 175.431 67.1077 175.865 66.7378 176.309L66.7061 176.351C66.7061 176.351 66.6956 176.372 66.685 176.383C65.8608 177.397 65.0684 178.454 64.3182 179.554C64.2971 179.575 64.2865 179.606 64.2654 179.628C64.1914 179.733 64.1174 179.85 64.0435 179.966C64.0435 179.966 64.0329 179.966 64.0329 179.987C64.0012 180.029 63.9801 180.072 63.9484 180.114C63.7582 180.41 63.568 180.706 63.3778 181.012C63.3461 181.065 63.3144 181.118 63.2827 181.16C63.2721 181.181 63.251 181.202 63.2404 181.224C62.9974 181.625 62.7544 182.027 62.5219 182.439C62.5008 182.471 62.4902 182.503 62.4691 182.534C62.2578 182.915 62.0465 183.295 61.8351 183.686C61.8351 183.708 61.814 183.729 61.8034 183.739C61.7823 183.771 61.7717 183.792 61.7612 183.824C61.571 184.183 61.3808 184.553 61.2012 184.923C61.18 184.976 61.1483 185.029 61.1272 185.071V185.092C61.011 185.293 60.9264 185.483 60.8419 185.684L60.7574 185.864C60.7574 185.864 60.7045 185.948 60.694 185.991H60.6834ZM75.1274 179.945C75.7719 179.945 76.2897 180.463 76.2897 181.107C76.2897 181.752 75.7719 182.27 75.1274 182.27C74.4829 182.27 73.9651 181.752 73.9651 181.107C73.9651 180.463 74.4829 179.945 75.1274 179.945ZM65.6073 188.21C66.2518 188.21 66.7695 188.728 66.7695 189.373C66.7695 190.018 66.2518 190.536 65.6073 190.536C64.9627 190.536 64.445 190.018 64.445 189.373C64.445 188.728 64.9627 188.21 65.6073 188.21Z" fill="#53A7BA"/>
</g>
<path d="M75.1271 182.27C75.7717 182.27 76.2894 181.752 76.2894 181.107C76.2894 180.462 75.7717 179.944 75.1271 179.944C74.4826 179.944 73.9648 180.462 73.9648 181.107C73.9648 181.752 74.4826 182.27 75.1271 182.27Z" fill="#53A7BA"/>
<g style="mix-blend-mode:multiply" opacity="0.2">
<path d="M75.1271 182.27C75.7717 182.27 76.2894 181.752 76.2894 181.107C76.2894 180.462 75.7717 179.944 75.1271 179.944C74.4826 179.944 73.9648 180.462 73.9648 181.107C73.9648 181.752 74.4826 182.27 75.1271 182.27Z" fill="#53A7BA"/>
</g>
<path d="M76.2792 199.034C76.2792 198.389 75.7614 197.871 75.1169 197.871C74.4723 197.871 73.9546 198.389 73.9546 199.034C73.9546 199.509 74.2399 199.911 74.6414 200.091H75.5818C75.9833 199.911 76.2686 199.509 76.2686 199.034H76.2792Z" fill="#53A7BA"/>
<g style="mix-blend-mode:multiply" opacity="0.2">
<path d="M76.2792 199.034C76.2792 198.389 75.7614 197.871 75.1169 197.871C74.4723 197.871 73.9546 198.389 73.9546 199.034C73.9546 199.509 74.2399 199.911 74.6414 200.091H75.5818C75.9833 199.911 76.2686 199.509 76.2686 199.034H76.2792Z" fill="#53A7BA"/>
</g>
<path d="M65.5969 190.535C66.2414 190.535 66.7591 190.017 66.7591 189.373C66.7591 188.728 66.2414 188.21 65.5969 188.21C64.9523 188.21 64.4346 188.728 64.4346 189.373C64.4346 190.017 64.9523 190.535 65.5969 190.535Z" fill="#53A7BA"/>
<g style="mix-blend-mode:multiply" opacity="0.2">
<path d="M65.5969 190.535C66.2414 190.535 66.7591 190.017 66.7591 189.373C66.7591 188.728 66.2414 188.21 65.5969 188.21C64.9523 188.21 64.4346 188.728 64.4346 189.373C64.4346 190.017 64.9523 190.535 65.5969 190.535Z" fill="#53A7BA"/>
</g>
<path d="M110.757 198.769C103.572 194.689 97.7708 190.028 93.1112 185.324L91.9277 186.54L100.719 200.08H111.021L110.746 198.759L110.757 198.769Z" fill="#53A7BA"/>
<g style="mix-blend-mode:multiply">
<path d="M110.757 198.769C103.572 194.689 97.7708 190.028 93.1112 185.324L91.9277 186.54L100.719 200.08H111.021L110.746 198.759L110.757 198.769Z" fill="#53A7BA"/>
</g>
<g style="mix-blend-mode:multiply" opacity="0.2">
<path d="M110.757 198.769C103.572 194.689 97.7708 190.028 93.1112 185.324L91.9277 186.54L100.719 200.08H111.021L110.746 198.759L110.757 198.769Z" fill="#53A7BA"/>
</g>
<path d="M114.898 143.69C131.448 143.69 144.864 128.532 144.864 109.834C144.864 91.1362 131.448 75.9785 114.898 75.9785C98.3487 75.9785 84.9326 91.1362 84.9326 109.834C84.9326 128.532 98.3487 143.69 114.898 143.69Z" fill="#1A1A1A"/>
<path d="M124.598 149.334C121.682 150.718 118.417 151.49 114.962 151.49C111.507 151.49 108.242 150.708 105.326 149.334L105.833 135.466H124.081L124.588 149.334H124.598Z" fill="#CEAAA3"/>
<path d="M117.329 82.7959H112.605C101.465 82.7959 92.4346 91.8299 92.4346 102.974V125.403C92.4346 136.548 101.465 145.582 112.605 145.582H117.329C128.469 145.582 137.499 136.548 137.499 125.403V102.974C137.499 91.8299 128.469 82.7959 117.329 82.7959Z" fill="#EFC6BB"/>
<path d="M91.8007 110.045C91.8007 110.045 88.43 85.9564 101.564 91.6536C114.698 97.3508 122.147 98.1013 132.607 88.8208C135.407 89.0957 133.632 111.842 140.606 116.461C143.924 106.896 144.737 96.8435 144.737 96.8435C144.737 96.8435 159.308 89.7721 154.543 77.6907C152.208 71.0316 139.338 68.1883 131.033 79.8047C136.379 66.645 134.023 49.3103 111.211 74.8791C109.827 61.7406 93.2799 67.9663 96.08 84.0749C90.8286 78.2509 71.1015 88.1655 91.8112 110.045H91.8007Z" fill="#1A1A1A"/>
<path d="M144.767 120.049C145.483 116.002 143.818 112.324 141.048 111.833C138.279 111.343 135.453 114.226 134.737 118.272C134.021 122.319 135.685 125.997 138.455 126.488C141.225 126.978 144.05 124.095 144.767 120.049Z" fill="#EFC6BB"/>
<path d="M89.9602 126.522C92.7388 126.085 94.4744 122.44 93.8367 118.38C93.1989 114.32 90.4294 111.383 87.6508 111.82C84.8722 112.256 83.1366 115.902 83.7743 119.961C84.412 124.021 87.1815 126.958 89.9602 126.522Z" fill="#EFC6BB"/>
<path d="M126.606 102.953C121.914 102.953 117.92 106.039 116.557 110.289C115.332 109.718 114.053 109.919 113.049 110.341C111.707 106.061 107.703 102.953 102.98 102.953C97.1577 102.953 92.4346 107.688 92.4346 113.502C92.4346 119.315 97.1682 124.051 102.98 124.051C108.791 124.051 113.525 119.315 113.525 113.502C113.525 113.153 113.504 112.815 113.472 112.476C114.074 112.128 115.141 111.715 116.092 112.476C116.061 112.815 116.039 113.142 116.039 113.491C116.039 119.315 120.773 124.04 126.585 124.04C132.396 124.04 137.13 119.305 137.13 113.491C137.13 107.678 132.396 102.942 126.585 102.942L126.606 102.953ZM102.99 121.947C98.3411 121.947 94.5584 118.163 94.5584 113.512C94.5584 108.862 98.3411 105.078 102.99 105.078C107.639 105.078 111.422 108.862 111.422 113.512C111.422 118.163 107.639 121.947 102.99 121.947ZM126.606 121.947C121.957 121.947 118.174 118.163 118.174 113.512C118.174 108.862 121.957 105.078 126.606 105.078C131.255 105.078 135.037 108.862 135.037 113.512C135.037 118.163 131.255 121.947 126.606 121.947Z" fill="#1A1A1A"/>
<path d="M109.372 131.27H120.551C120.551 131.27 118.766 136.375 114.296 136.375C109.827 136.375 109.362 131.27 109.362 131.27H109.372Z" fill="white"/>
<path d="M172.601 196.423C172.538 196.085 172.463 195.757 172.4 195.419C172.474 195.81 172.559 196.201 172.633 196.592C172.622 196.539 172.612 196.476 172.601 196.423Z" fill="white"/>
<path d="M173.076 199.278C173.044 198.993 173.002 198.717 172.949 198.432C172.96 198.485 172.97 198.548 172.97 198.601C173.023 198.823 173.055 199.046 173.076 199.278Z" fill="#53A7BA"/>
<path d="M172.199 194.553C172.168 194.426 172.136 194.299 172.104 194.183C172.199 194.542 172.284 194.901 172.358 195.261C172.305 195.028 172.252 194.785 172.199 194.553Z" fill="#53A7BA"/>
<path fill-rule="evenodd" clip-rule="evenodd" d="M218.292 136.572C203.312 140.778 179.64 133.667 167.868 117.704C162.715 110.72 159.997 102.22 159.068 93.6419C155.705 62.5278 182.544 40.5395 211.936 40.833C243.714 41.1558 256.689 63.7015 257.774 92.4779C258.762 118.76 233.281 132.366 218.292 136.572Z" fill="#1A9DFD"/>
<path d="M194.521 78.4768V92.079H221.476V78.4768C221.476 71.0461 215.429 65 207.997 65C200.565 65 194.521 71.0461 194.521 78.4768ZM196.788 78.4768C196.788 72.2856 201.806 67.2658 207.997 67.2658C214.188 67.2658 219.207 72.2856 219.207 78.4768V89.8117H196.788V78.4768Z" fill="#F3F3F3"/>
<path d="M196.788 78.4766V89.8115H219.208V78.4766C219.208 72.2854 214.19 67.2656 207.999 67.2656C201.807 67.2656 196.788 72.2854 196.788 78.4766ZM199.055 78.4766C199.055 73.546 203.066 69.5344 207.999 69.5344C212.931 69.5344 216.942 73.546 216.942 78.4766V87.5442H199.055V78.4766Z" fill="#E5E5E5"/>
<path d="M192.956 113H223.043C224.712 113 226.066 111.647 226.066 109.977V88.1275C226.066 86.4588 224.712 85.1045 223.043 85.1045H192.956C191.286 85.1045 189.933 86.4588 189.933 88.1275V109.977C189.933 111.647 191.286 113 192.956 113Z" fill="#FFCC5B"/>
<path d="M213.262 100.987H214.406C215.377 100.987 216.163 100.196 216.157 99.2257V99.1048V99.0791C216.163 98.0573 215.331 97.2214 214.311 97.2214H212.831C211.701 97.2214 210.686 96.375 210.627 95.2459C210.564 94.0412 211.522 93.0451 212.713 93.0451H218.052C219.062 93.0451 219.815 92.1971 219.802 91.1874C219.802 91.1798 219.802 91.1708 219.802 91.1617C219.802 91.1526 219.802 91.1451 219.802 91.136C219.815 90.1263 219.062 89.2799 218.052 89.2799H216.326C215.195 89.2799 214.181 88.4334 214.122 87.3043C214.059 86.0996 215.017 85.1035 216.208 85.1035H223.043C224.712 85.1035 226.066 86.4563 226.066 88.1266V109.976C226.066 111.646 224.712 112.999 223.043 112.999H214.19C213.037 112.999 212.101 112.063 212.101 110.91C212.101 109.756 213.037 108.821 214.19 108.821H216.983C217.949 108.821 218.735 108.03 218.731 107.064V107.042C218.731 106.999 218.732 106.957 218.735 106.915C218.793 105.963 218.037 105.16 217.083 105.16H213.38C212.249 105.16 211.235 104.313 211.176 103.184C211.114 101.983 212.073 100.987 213.262 100.987Z" fill="#FDBC4B"/>
<path d="M203.457 96.4777C203.457 93.9685 205.491 91.9355 207.999 91.9355C210.508 91.9355 212.541 93.9701 212.541 96.4777C212.541 98.1525 211.623 99.6005 210.274 100.388L210.896 106.17H205.1L205.722 100.388C204.373 99.6005 203.457 98.154 203.457 96.4777Z" fill="#464646"/>
<path d="M194.52 96.3262C195.355 96.3262 196.032 97.0018 196.032 97.8377V106.535C196.032 107.371 195.355 108.047 194.52 108.047C193.686 108.047 193.009 107.371 193.009 106.535V97.8377C193.009 97.0033 193.686 96.3262 194.52 96.3262Z" fill="#FFD769"/>
<path d="M194.52 90.0576C195.355 90.0576 196.032 90.7333 196.032 91.5691V93.3391C196.032 94.175 195.355 94.8507 194.52 94.8507C193.686 94.8507 193.009 94.175 193.009 93.3391V91.5691C193.009 90.7333 193.686 90.0576 194.52 90.0576Z" fill="#FFD769"/>
</g>
</g>
</g>
<defs>
<clipPath id="clip0_6424_76700">
<rect width="320" height="200" rx="17" fill="white"/>
</clipPath>
<clipPath id="clip1_6424_76700">
<rect width="211" height="159.906" fill="white" transform="translate(55.8799 39.7676)"/>
</clipPath>
<clipPath id="clip2_6424_76700">
<rect width="208.947" height="159.906" fill="white" transform="translate(56.9453 39.7676)"/>
</clipPath>
</defs>
</svg>
