<svg width="320" height="200" viewBox="0 0 320 200" fill="none" xmlns="http://www.w3.org/2000/svg">
<g clip-path="url(#clip0_1864_41030)">
<path d="M320 0H0V200H320V0Z" fill="#DDF0FF"/>
<path d="M67.2613 8H21C14.3726 8 9 13.3726 9 20V163.612H67.2613V8Z" fill="#F4FAFF"/>
<path d="M129.093 8H70.0337V163.612H129.093V8Z" fill="#F4FAFF"/>
<path d="M189.749 8H131.487V163.612H189.749V8Z" fill="#F4FAFF"/>
<path d="M250.404 8H192.143V163.612H250.404V8Z" fill="#F4FAFF"/>
<path d="M299.06 8.03998H252.799V150.9H311.06V20.04C311.06 13.4126 305.688 8.03998 299.06 8.03998Z" fill="#F4FAFF"/>
<path d="M68.2925 183.409V58.3132H86.5977V89.356H99.1079V55.5204H104.599V44.7892H106.426L107.494 24.5736L109.174 44.981H110.472V55.7122H115.733V183.409H68.2925Z" fill="#DDF0FF"/>
<path d="M311.438 78.9465V183.41H310.085H310.075H309.546H281.014V112.59H292.866V78.7546H298.997V68.0234H301.045L302.237 47.8078L304.115 68.2152H305.56V78.9465H311.438Z" fill="#DDF0FF"/>
<path d="M280.945 183.409V99.5794L276.563 97.4693V82.6983L257.94 73.8346V97.4693L244.79 98.7331V183.409H280.945Z" fill="#DDF0FF"/>
<path d="M183.081 183.409V98.8178H193.557V76.8136L204.502 64.1585V86.1626H211.167V66.3589H219.263V59.2104H240.685V66.3589H245.918V183.409H183.081Z" fill="#DDF0FF"/>
<path d="M68.2927 69.2364V183.409H9V101.69H18.8821V79.6855L29.2153 67.036V89.0401H35.5027V69.2364H43.1386V62.0822H63.3494V69.2364H68.2927Z" fill="#DDF0FF"/>
<path d="M141.951 73.1349H115.301V183.409H141.951V73.1349Z" fill="#DDF0FF"/>
<path d="M141.95 68.0908H121.505V78.1845H141.95V68.0908Z" fill="#DDF0FF"/>
<path d="M141.951 59.8872H133.219V71.4478H141.951V59.8872Z" fill="#DDF0FF"/>
<path d="M184.094 87.291H168.205V183.415H184.094V87.291Z" fill="#DDF0FF"/>
<path d="M169.494 81.0508H141.15V183.415H169.494V81.0508Z" fill="#DDF0FF"/>
<path d="M174.174 76.0574H158.286V183.415H174.174V76.0574Z" fill="#DDF0FF"/>
<path d="M170.773 68.0853H161.688V84.6617H170.773V68.0853Z" fill="#DDF0FF"/>
<path d="M152.357 69.7609H147.879V91.4096H152.357V69.7609Z" fill="#DDF0FF"/>
<path opacity="0.33" d="M68 62.5068H10V179.04C10 185.667 15.3726 191.04 22 191.04H68V62.5068Z" fill="white"/>
<path opacity="0.33" d="M128.867 8H70.271V191.04H128.867V8Z" fill="white"/>
<path opacity="0.33" d="M189.549 8H130.953V191.04H189.549V8Z" fill="white"/>
<path opacity="0.33" d="M250.23 8.03998H191.634V191.08H250.23V8.03998Z" fill="white"/>
<path opacity="0.33" d="M311 48.04H252V190.734H299C305.627 190.734 311 185.361 311 178.734V48.04Z" fill="white"/>
<path opacity="0.61" d="M78 32.04H110C110 32.04 104.589 30.9033 103.623 30.5446C102.657 30.1858 102.321 29.3698 101.315 29.3381C100.31 29.3063 99.9916 30.1668 99.0078 30.3509C98.024 30.535 95.7127 30.4589 94.8844 30.2049C94.0561 29.954 93.9403 29.1317 93.0686 29.046C92.1969 28.9603 91.7339 29.8175 90.7609 29.9159C89.788 30.0144 88.5328 29.2397 87.0788 29.3381C85.6247 29.4365 78.0072 32.04 78.0072 32.04H78Z" fill="#DDF0FF"/>
<path opacity="0.61" d="M156 49.04H188C188 49.04 182.589 47.5076 181.623 47.024C180.657 46.5403 180.563 46.0694 179.554 46.0266C178.545 45.9838 177.988 46.5103 177.004 46.7629C176.451 46.9041 175.847 44.1005 174.957 44.0406C174.259 43.9935 173.242 46.7158 172.881 46.566C172.052 46.2278 171.821 45.8169 170.949 45.7013C170.078 45.5858 169.73 46.0438 168.757 46.1765C167.784 46.3091 166.529 45.2647 165.075 45.3974C163.621 45.5301 156.004 49.04 156.004 49.04H156Z" fill="#DDF0FF"/>
<path opacity="0.61" d="M28.9962 40.0357H9V37.1996C9.99398 37.0472 10.4759 35.9339 11.3682 36.0482C12.2756 36.1625 12.3961 37.2546 13.2583 37.5933C14.1205 37.9277 16.5264 38.0335 17.5505 37.788C18.5745 37.5382 18.9059 36.3911 19.9563 36.4334C21.0068 36.4757 21.3532 37.5636 22.3622 38.042C23.3675 38.5203 29 40.04 29 40.04L28.9962 40.0357Z" fill="#DDF0FF"/>
<path opacity="0.61" d="M201 35.7981L247 36.04C247 36.04 237.605 32.4596 236.35 32.4953C235.095 32.531 232.626 33.3081 231.367 33.3438C230.112 33.3795 229.721 32.4358 229.116 32.3763C228.511 32.3169 227.842 32.305 227.237 32.3169C226.632 32.3287 226.569 31.9204 225.93 32.075C225.291 32.2296 225.039 33.1019 223.998 33.3438C222.957 33.5856 222.014 32.3724 220.92 32.4953C219.827 32.6142 219.233 33.1297 218.211 33.3438C217.189 33.5579 216.896 32.9592 215.855 32.9156C214.814 32.872 213.375 33.3596 211.879 33.3438C210.383 33.324 209.399 33.2764 207.464 33.098C205.652 32.9275 201.004 35.8021 201.004 35.8021L201 35.7981Z" fill="#DDF0FF"/>
<path opacity="0.61" d="M269 43.8586L303 44.04C303 44.04 296.056 41.3547 295.128 41.3815C294.201 41.4082 292.376 41.9911 291.445 42.0178C290.518 42.0446 290.229 41.3368 289.782 41.2922C289.334 41.2476 288.84 41.2387 288.393 41.2476C287.946 41.2566 287.898 40.9503 287.426 41.0662C286.954 41.1822 286.768 41.8364 285.999 42.0178C285.229 42.1992 284.532 41.2893 283.724 41.3815C282.916 41.4707 282.477 41.8573 281.721 42.0178C280.966 42.1784 280.749 41.7294 279.98 41.6967C279.21 41.664 278.146 42.0297 277.041 42.0178C275.936 42.003 275.208 41.9673 273.777 41.8335C272.439 41.7056 269.003 43.8616 269.003 43.8616L269 43.8586Z" fill="#DDF0FF"/>
<g clip-path="url(#clip1_1864_41030)">
<path d="M158.129 131.158C148.107 77.3029 119.235 82.4017 119.235 82.4017C119.235 82.4017 119.127 87.9311 119.019 96.0735C118.912 87.9311 118.804 82.4017 118.804 82.4017C118.804 82.4017 89.9321 77.3029 79.9103 131.168C77.0065 142.834 73.1934 151.886 73.1934 151.886C73.1934 151.886 89.0717 161.428 118.482 159.715C118.726 157.69 118.902 154.401 119.019 150.301C119.137 154.401 119.313 157.69 119.557 159.715C148.977 161.428 164.846 151.886 164.846 151.886C164.846 151.886 161.023 142.834 158.129 131.168V131.158Z" fill="#1A1A1A"/>
<path d="M73.1932 191.757C73.7872 191.757 74.2687 191.275 74.2687 190.68C74.2687 190.085 73.7872 189.604 73.1932 189.604C72.5992 189.604 72.1177 190.085 72.1177 190.68C72.1177 191.275 72.5992 191.757 73.1932 191.757Z" fill="#007AB3"/>
<path d="M82.0027 184.103C82.5967 184.103 83.0782 183.621 83.0782 183.027C83.0782 182.432 82.5967 181.95 82.0027 181.95C81.4088 181.95 80.9272 182.432 80.9272 183.027C80.9272 183.621 81.4088 184.103 82.0027 184.103Z" fill="#007AB3"/>
<path d="M128.171 160.851C128.171 160.851 128.083 160.841 128.044 160.831L127.78 153.599L127.311 140.769H110.425L109.956 153.599L109.692 160.723C113.153 163.591 119.43 166.39 128.171 160.851Z" fill="#EFC6BB"/>
<path d="M155.987 171.411C155.86 171.303 155.723 171.215 155.596 171.117C155.929 171.352 156.251 171.597 156.564 171.852C156.378 171.695 156.183 171.548 155.987 171.411Z" fill="white"/>
<path d="M158.412 173.368C158.314 173.28 158.216 173.192 158.119 173.113C158.373 173.319 158.617 173.535 158.852 173.76C158.705 173.623 158.559 173.486 158.412 173.368Z" fill="white"/>
<path d="M117.103 200.545H122.921L130.918 161.242C130.918 161.242 130.87 161.242 130.84 161.232C130.625 161.193 130.42 161.164 130.205 161.134C129.667 161.046 129.129 160.968 128.582 160.909C128.445 160.88 128.308 160.87 128.171 160.851C119.43 166.39 113.153 163.591 109.692 160.723V160.831C108.9 160.929 108.108 161.037 107.316 161.164C107.306 161.154 107.287 161.154 107.277 161.164C107.238 161.174 107.209 161.174 107.169 161.183L114.972 199.37C115.666 199.762 116.38 200.153 117.103 200.535V200.545Z" fill="white"/>
<path d="M67.3761 190.621C67.3075 190.807 67.2389 190.993 67.1802 191.179C67.3173 190.778 67.4642 190.386 67.6209 189.985C67.5426 190.2 67.4544 190.406 67.3761 190.621Z" fill="white"/>
<path d="M79.3237 173.368C79.1966 173.466 79.0792 173.574 78.9619 173.682C79.1966 173.466 79.4312 173.26 79.6757 173.064C79.5583 173.162 79.441 173.26 79.3237 173.368Z" fill="white"/>
<path d="M71.6887 182.019C71.6199 182.117 71.5609 182.206 71.502 182.304C71.5511 182.235 71.6002 182.166 71.6494 182.088C71.669 182.068 71.6788 182.039 71.6985 182.019H71.6887Z" fill="#53A7BA"/>
<path d="M73.38 179.651C73.2624 179.807 73.1449 179.964 73.0273 180.111C73.0469 180.082 73.0763 180.052 73.0959 180.023C73.1939 179.905 73.282 179.778 73.38 179.651Z" fill="#53A7BA"/>
<path d="M81.7582 171.41C81.7582 171.41 81.7875 171.381 81.807 171.371C81.5528 171.557 81.3084 171.744 81.064 171.94C81.2888 171.753 81.5235 171.587 81.7484 171.41H81.7582Z" fill="#53A7BA"/>
<path d="M65.0881 200.075C65.0979 199.987 65.1077 199.899 65.1272 199.811C65.0979 200.056 65.0587 200.301 65.0293 200.546C65.0489 200.389 65.0685 200.232 65.0979 200.075H65.0881Z" fill="#53A7BA"/>
<path d="M69.6643 185.464C69.6643 185.464 69.6839 185.425 69.6937 185.405C69.7524 185.278 69.821 185.151 69.8896 185.023C69.7916 185.19 69.7035 185.356 69.6153 185.522C69.5467 185.65 69.4782 185.777 69.4292 185.904C69.4978 185.787 69.5565 185.669 69.6251 185.542C69.6349 185.513 69.6545 185.483 69.6643 185.464Z" fill="#53A7BA"/>
<path d="M77.9157 174.64L77.9353 174.621C78.0331 174.513 78.1504 174.405 78.2579 174.307C78.082 174.464 77.9157 174.621 77.7397 174.787C77.7886 174.758 77.8375 174.709 77.8962 174.66L77.9157 174.64Z" fill="#53A7BA"/>
<path d="M81.0737 171.939C82.511 170.813 84.0265 169.776 85.6006 168.817C88.084 173.818 92.1905 180.414 98.6435 186.932L104.735 180.639H93.6571L106.24 161.34C105.849 161.408 105.448 161.467 105.067 161.536C105.009 161.536 104.95 161.545 104.901 161.565C104.148 161.712 103.395 161.868 102.652 162.035C102.007 162.182 101.362 162.338 100.716 162.505C100.384 162.583 100.061 162.671 99.7386 162.769C99.2888 162.886 98.8488 163.013 98.4089 163.15C98.2622 163.19 98.1155 163.239 97.9689 163.287C97.3138 163.483 96.6587 163.699 96.0232 163.924C95.8961 163.963 95.769 164.002 95.6419 164.051C95.4659 164.11 95.2899 164.178 95.1041 164.247C94.801 164.354 94.5077 164.472 94.2046 164.589C93.9895 164.658 93.7744 164.746 93.5593 164.844C93.0216 165.049 92.4936 165.264 91.9754 165.499C91.4181 165.734 90.8608 165.989 90.3133 166.253C89.8146 166.488 89.3258 166.732 88.8369 166.987C88.1916 167.3 87.5659 167.643 86.9401 168.005C86.5197 168.239 86.109 168.484 85.6984 168.729C85.3757 168.915 85.0531 169.12 84.7402 169.326C84.5056 169.473 84.2709 169.629 84.0363 169.776C83.6158 170.06 83.1954 170.344 82.7848 170.637C82.4523 170.872 82.1199 171.117 81.7973 171.361C81.7777 171.371 81.7679 171.391 81.7484 171.401C81.5137 171.577 81.2791 171.743 81.064 171.929L81.0737 171.939Z" fill="#53A7BA"/>
<path d="M76.1364 176.411C76.0876 176.45 76.0582 176.489 76.0289 176.529C75.8725 176.695 75.7258 176.871 75.5694 177.038C75.5694 177.038 75.5596 177.057 75.5498 177.067C75.9507 176.626 76.3515 176.186 76.772 175.765C76.5569 175.971 76.3515 176.186 76.1364 176.411Z" fill="#53A7BA"/>
<path d="M74.758 177.948C74.7091 177.997 74.67 178.046 74.6308 178.095C74.494 178.251 74.3571 178.417 74.23 178.584C74.5624 178.183 74.9144 177.781 75.2566 177.39C75.0806 177.576 74.9046 177.752 74.7482 177.958L74.758 177.948Z" fill="#53A7BA"/>
<path d="M80.9562 172.027C80.5945 172.311 80.2327 172.604 79.8612 172.898C79.7927 172.957 79.7341 173.006 79.6754 173.054C79.431 173.25 79.1963 173.456 78.9617 173.671C78.7172 173.877 78.4826 174.092 78.2577 174.297C78.1502 174.395 78.0426 174.503 77.9351 174.611C78.903 173.71 79.9003 172.839 80.9465 172.027H80.9562Z" fill="#53A7BA"/>
<path d="M74.0831 178.76C73.8386 179.054 73.604 179.347 73.3791 179.651C73.2813 179.778 73.1933 179.905 73.0956 180.022C73.076 180.052 73.0467 180.081 73.0271 180.111C72.812 180.394 72.5969 180.698 72.3916 180.991C72.2645 181.187 72.1276 181.373 71.9907 181.579C72.6849 180.571 73.4084 179.592 74.1808 178.652C74.1417 178.691 74.1222 178.721 74.0831 178.76Z" fill="#53A7BA"/>
<path d="M68.9894 186.785C68.9208 186.942 68.8425 187.099 68.7739 187.255C68.8523 187.079 68.9306 186.893 69.0286 186.716C69.0188 186.736 68.9992 186.756 68.9894 186.785Z" fill="#53A7BA"/>
<path d="M77.7397 174.796L77.5637 174.963C77.3681 175.139 77.1824 175.325 76.9966 175.53C77.2899 175.247 77.593 174.943 77.8961 174.659C77.8472 174.708 77.7983 174.757 77.7397 174.796Z" fill="#53A7BA"/>
<path d="M69.4291 185.904C69.3215 186.119 69.214 186.335 69.1064 186.55C69.2727 186.208 69.4389 185.875 69.6149 185.542C69.5464 185.659 69.4878 185.777 69.4193 185.904H69.4291Z" fill="#53A7BA"/>
<path d="M70.2697 184.338C70.1328 184.563 70.0155 184.788 69.8884 185.014C69.82 185.141 69.7515 185.268 69.6929 185.395C69.8786 185.033 70.0742 184.681 70.2795 184.329L70.2697 184.338Z" fill="#53A7BA"/>
<path d="M71.5019 182.313C71.365 182.508 71.2477 182.714 71.1206 182.919C71.2868 182.645 71.4628 182.371 71.6388 182.097C71.5899 182.166 71.541 182.244 71.4921 182.313H71.5019Z" fill="#53A7BA"/>
<path d="M133.363 180.639L140.549 188.057L132.649 200.545H172.726C172.697 200.31 172.677 200.085 172.638 199.85C172.618 199.635 172.589 199.429 172.54 199.224C172.54 199.175 172.53 199.116 172.521 199.067C172.452 198.578 172.364 198.098 172.276 197.619C172.257 197.531 172.247 197.452 172.227 197.364C172.159 197.002 172.081 196.64 172.012 196.278C172.002 196.229 171.983 196.18 171.973 196.131C171.905 195.798 171.826 195.466 171.738 195.133C171.65 194.771 171.553 194.409 171.455 194.047C171.269 193.352 171.064 192.667 170.839 191.991C170.77 191.796 170.702 191.6 170.643 191.404C170.438 190.807 170.233 190.22 169.998 189.643C169.861 189.29 169.714 188.938 169.568 188.595C169.558 188.576 169.558 188.566 169.548 188.547C169.392 188.175 169.235 187.822 169.059 187.46C168.903 187.098 168.727 186.746 168.551 186.394C168.414 186.1 168.267 185.806 168.121 185.523C167.925 185.151 167.73 184.789 167.524 184.426C167.182 183.82 166.82 183.232 166.449 182.645C166.332 182.459 166.214 182.273 166.097 182.097C165.706 181.5 165.305 180.913 164.885 180.345C164.806 180.238 164.728 180.13 164.64 180.022C164.591 179.964 164.542 179.895 164.493 179.827C163.574 178.613 162.587 177.458 161.541 176.353C161.374 176.167 161.198 175.981 161.013 175.804C160.319 175.1 159.595 174.415 158.852 173.759C158.617 173.534 158.373 173.319 158.119 173.113C157.933 172.957 157.747 172.8 157.561 172.653C157.366 172.477 157.16 172.32 156.955 172.154C156.828 172.056 156.701 171.949 156.564 171.851C156.251 171.596 155.929 171.352 155.596 171.117C155.42 170.98 155.234 170.843 155.049 170.715C154.657 170.432 154.257 170.158 153.856 169.893C153.66 169.756 153.455 169.629 153.25 169.502C152.819 169.218 152.379 168.944 151.939 168.69C151.411 168.367 150.874 168.054 150.336 167.76C150.033 167.594 149.73 167.427 149.427 167.271C149.045 167.065 148.654 166.869 148.263 166.674C148.234 166.664 148.204 166.644 148.175 166.634C147.853 166.468 147.53 166.312 147.197 166.165C146.924 166.028 146.65 165.9 146.376 165.783C145.985 165.607 145.594 165.441 145.203 165.274C145.007 165.186 144.802 165.108 144.606 165.029C144.196 164.863 143.775 164.697 143.355 164.54C143.15 164.452 142.935 164.384 142.729 164.305C142.309 164.149 141.888 164.002 141.458 163.855C140.901 163.659 140.334 163.483 139.767 163.307C139.268 163.15 138.779 163.004 138.271 162.867C137.743 162.71 137.195 162.563 136.658 162.426C136.11 162.289 135.553 162.152 134.995 162.025C134.331 161.878 133.656 161.731 132.981 161.614C132.776 161.565 132.561 161.526 132.356 161.497C132.199 161.467 132.043 161.448 131.896 161.418L144.44 180.649H133.363V180.639Z" fill="#53A7BA"/>
<g style="mix-blend-mode:multiply">
<path d="M106.25 161.34C106.563 161.291 106.866 161.232 107.169 161.183C106.866 161.223 106.553 161.291 106.25 161.34Z" fill="#53A7BA"/>
</g>
<path d="M104.735 180.639L98.6436 186.932C102.955 191.287 108.323 195.603 114.972 199.38L107.169 161.193C106.866 161.232 106.553 161.301 106.25 161.35L93.667 180.649H104.745L104.735 180.639Z" fill="#53A7BA"/>
<g style="mix-blend-mode:multiply">
<path d="M104.735 180.639L98.6436 186.932C102.955 191.287 108.323 195.603 114.972 199.38L107.169 161.193C106.866 161.232 106.553 161.301 106.25 161.35L93.667 180.649H104.745L104.735 180.639Z" fill="#53A7BA"/>
</g>
<g style="mix-blend-mode:multiply">
<path d="M131.896 161.409L131.847 161.34C131.534 161.291 131.231 161.232 130.928 161.183V161.232C130.928 161.232 130.948 161.232 130.958 161.232C131.27 161.281 131.583 161.34 131.896 161.399V161.409Z" fill="#53A7BA"/>
</g>
<path d="M122.93 200.545L130.957 161.252C130.957 161.252 130.928 161.252 130.918 161.252L122.92 200.555H122.93V200.545Z" fill="white"/>
<g style="mix-blend-mode:multiply">
<path d="M122.93 200.545L130.957 161.252C130.957 161.252 130.928 161.252 130.918 161.252L122.92 200.555H122.93V200.545Z" fill="#53A7BA"/>
</g>
<path d="M122.93 200.545H132.649L140.549 188.057L133.363 180.639H144.44L131.896 161.408C131.583 161.35 131.27 161.291 130.957 161.242L122.93 200.535V200.545Z" fill="#53A7BA"/>
<g style="mix-blend-mode:multiply">
<path d="M122.93 200.545H132.649L140.549 188.057L133.363 180.639H144.44L131.896 161.408C131.583 161.35 131.27 161.291 130.957 161.242L122.93 200.535V200.545Z" fill="#53A7BA"/>
</g>
<g style="mix-blend-mode:multiply" opacity="0.2">
<path d="M75.5511 177.057C75.4528 177.165 75.3644 177.273 75.2661 177.382C75.3054 177.342 75.3447 177.293 75.384 177.254C75.4332 177.195 75.4921 177.126 75.5511 177.067V177.057Z" fill="#53A7BA"/>
</g>
<g style="mix-blend-mode:multiply" opacity="0.2">
<path d="M68.1481 188.664C68.1481 188.664 68.1676 188.615 68.1774 188.595C68.3241 188.243 68.4805 187.901 68.637 187.548C68.6467 187.509 68.6663 187.47 68.6956 187.431L68.7738 187.255C68.7445 187.313 68.7152 187.372 68.6956 187.431C68.6663 187.47 68.6467 187.509 68.637 187.548C68.4707 187.92 68.3045 188.292 68.1481 188.664C67.9917 189.036 67.8352 189.418 67.6886 189.799C67.669 189.858 67.6397 189.926 67.6201 189.985C67.6397 189.926 67.669 189.858 67.6886 189.799C67.8352 189.418 67.9917 189.036 68.1481 188.664Z" fill="#53A7BA"/>
</g>
<g style="mix-blend-mode:multiply" opacity="0.2">
<path d="M69.1067 186.55C69.0871 186.599 69.0577 186.648 69.0283 186.697V186.717V186.697C69.0479 186.648 69.0773 186.599 69.0969 186.55H69.1067Z" fill="#53A7BA"/>
</g>
<g style="mix-blend-mode:multiply" opacity="0.2">
<path d="M76.939 175.589C76.939 175.589 76.9783 175.55 76.998 175.53L76.939 175.589C76.939 175.589 76.8702 175.668 76.8211 175.707C76.8015 175.727 76.7916 175.747 76.772 175.766C76.7916 175.747 76.8113 175.727 76.8211 175.707C76.8702 175.668 76.8997 175.629 76.939 175.589Z" fill="#53A7BA"/>
</g>
<g style="mix-blend-mode:multiply" opacity="0.2">
<path d="M71.9421 181.647C71.9421 181.647 71.9715 181.598 71.9911 181.579C71.9715 181.598 71.9519 181.628 71.9421 181.647C71.8736 181.745 71.805 181.853 71.7364 181.961C71.7266 181.98 71.7071 182.01 71.6973 182.029C71.7169 182.01 71.7267 181.98 71.7462 181.961C71.8148 181.853 71.8834 181.745 71.9519 181.647H71.9421Z" fill="#53A7BA"/>
</g>
<g style="mix-blend-mode:multiply" opacity="0.2">
<path d="M70.9935 183.125C70.9935 183.125 71.0229 183.086 71.0326 183.066C71.062 183.017 71.0913 182.968 71.1206 182.919C71.0913 182.968 71.0522 183.017 71.0229 183.066C71.0131 183.086 70.9935 183.105 70.9838 183.125C70.7589 183.497 70.534 183.869 70.3189 184.25C70.2994 184.28 70.2798 184.319 70.27 184.348C70.2896 184.319 70.3091 184.28 70.3287 184.25C70.5438 183.869 70.7687 183.497 70.9935 183.125Z" fill="#53A7BA"/>
</g>
<g style="mix-blend-mode:multiply" opacity="0.2">
<path d="M81.0645 171.939C81.0645 171.939 81.0449 171.958 81.0253 171.968C80.9958 171.988 80.9762 172.017 80.9468 172.037C80.9762 172.017 81.0057 171.988 81.0253 171.968L81.0547 171.939H81.0645Z" fill="#53A7BA"/>
</g>
<g style="mix-blend-mode:multiply" opacity="0.2">
<path d="M65.2057 199.175C65.235 198.95 65.2741 198.715 65.3132 198.49C65.3719 198.108 65.4403 197.736 65.5185 197.364C65.5185 197.306 65.5381 197.247 65.5479 197.198C65.5479 197.159 65.5577 197.12 65.5674 197.09C65.5968 196.963 65.6163 196.846 65.6456 196.718C65.7532 196.18 65.8705 195.652 66.0074 195.133C66.0954 194.771 66.1932 194.409 66.2909 194.047C66.3789 193.704 66.4767 193.371 66.5745 193.039C66.7309 192.5 66.9069 191.972 67.0829 191.443C67.0927 191.404 67.1025 191.375 67.122 191.336C67.1416 191.287 67.1611 191.228 67.1807 191.179C67.1611 191.238 67.1416 191.287 67.122 191.336C67.1025 191.375 67.0927 191.404 67.0829 191.443C66.9069 191.972 66.7309 192.5 66.5745 193.039C66.4767 193.371 66.3789 193.704 66.2909 194.047C66.1932 194.409 66.0954 194.771 66.0074 195.133C65.8705 195.652 65.7532 196.18 65.6456 196.718C65.6163 196.846 65.5968 196.963 65.5674 197.09C65.5577 197.12 65.5479 197.159 65.5479 197.198C65.4599 197.619 65.3817 198.059 65.3132 198.49C65.2741 198.715 65.235 198.95 65.2057 199.175V199.194C65.1959 199.282 65.1861 199.38 65.1666 199.468C65.147 199.586 65.1372 199.693 65.1177 199.811C65.147 199.605 65.1666 199.4 65.2057 199.194V199.175Z" fill="#53A7BA"/>
</g>
<g style="mix-blend-mode:multiply" opacity="0.2">
<path d="M74.2303 178.574C74.2303 178.574 74.2105 178.604 74.1907 178.614L74.1709 178.643C74.1709 178.643 74.1808 178.623 74.1907 178.614C74.2006 178.604 74.2105 178.584 74.2204 178.574H74.2303Z" fill="#53A7BA"/>
</g>
<path d="M68.1778 188.596C68.1778 188.596 68.1582 188.644 68.1484 188.664C68.3049 188.292 68.4711 187.92 68.6373 187.548C68.4809 187.901 68.3244 188.243 68.1778 188.596Z" fill="white"/>
<g style="mix-blend-mode:multiply" opacity="0.2">
<path d="M68.1778 188.596C68.1778 188.596 68.1582 188.644 68.1484 188.664C68.3049 188.292 68.4711 187.92 68.6373 187.548C68.4809 187.901 68.3244 188.243 68.1778 188.596Z" fill="#53A7BA"/>
</g>
<path d="M117.103 200.545C116.38 200.163 115.666 199.772 114.972 199.38L115.206 200.545H117.103Z" fill="white"/>
<g style="mix-blend-mode:multiply" opacity="0.2">
<path d="M117.103 200.545C116.38 200.163 115.666 199.772 114.972 199.38L115.206 200.545H117.103Z" fill="#53A7BA"/>
</g>
<path d="M67.6887 189.799C67.6691 189.858 67.6398 189.926 67.6202 189.985C67.4638 190.377 67.3171 190.778 67.1802 191.179C67.1607 191.228 67.1411 191.287 67.1216 191.336C67.2976 190.817 67.4931 190.308 67.6887 189.799Z" fill="white"/>
<g style="mix-blend-mode:multiply" opacity="0.2">
<path d="M67.6887 189.799C67.6691 189.858 67.6398 189.926 67.6202 189.985C67.4638 190.377 67.3171 190.778 67.1802 191.179C67.1607 191.228 67.1411 191.287 67.1216 191.336C67.2976 190.817 67.4931 190.308 67.6887 189.799Z" fill="#53A7BA"/>
</g>
<path d="M65.5475 197.198C65.5475 197.247 65.5181 197.306 65.5181 197.364C65.5181 197.306 65.5377 197.257 65.5475 197.208V197.198Z" fill="#53A7BA"/>
<g style="mix-blend-mode:multiply" opacity="0.2">
<path d="M65.5475 197.198C65.5475 197.247 65.5181 197.306 65.5181 197.364C65.5181 197.306 65.5377 197.257 65.5475 197.208V197.198Z" fill="#53A7BA"/>
</g>
<path d="M71.727 181.98C71.727 181.98 71.7368 181.97 71.7368 181.96C71.7172 181.98 71.7074 182.009 71.6877 182.029C71.6681 182.048 71.6583 182.078 71.6387 182.097C71.6681 182.058 71.6877 182.019 71.7172 181.98H71.727Z" fill="#53A7BA"/>
<g style="mix-blend-mode:multiply" opacity="0.2">
<path d="M71.727 181.98C71.727 181.98 71.7368 181.97 71.7368 181.96C71.7172 181.98 71.7074 182.009 71.6877 182.029C71.6681 182.048 71.6583 182.078 71.6387 182.097C71.6681 182.058 71.6877 182.019 71.7172 181.98H71.727Z" fill="#53A7BA"/>
</g>
<path d="M81.0747 171.939L81.0444 171.969C81.0444 171.969 81.0646 171.949 81.0847 171.939H81.0747Z" fill="#53A7BA"/>
<g style="mix-blend-mode:multiply" opacity="0.2">
<path d="M81.0747 171.939L81.0444 171.969C81.0444 171.969 81.0646 171.949 81.0847 171.939H81.0747Z" fill="#53A7BA"/>
</g>
<path d="M65.2055 199.224V199.194C65.1761 199.4 65.1467 199.605 65.1173 199.811C65.1075 199.899 65.0977 199.987 65.0781 200.075C65.1173 199.791 65.1467 199.508 65.1957 199.224H65.2055Z" fill="#53A7BA"/>
<g style="mix-blend-mode:multiply" opacity="0.2">
<path d="M65.2055 199.224V199.194C65.1761 199.4 65.1467 199.605 65.1173 199.811C65.1075 199.899 65.0977 199.987 65.0781 200.075C65.1173 199.791 65.1467 199.508 65.1957 199.224H65.2055Z" fill="#53A7BA"/>
</g>
<path d="M69.6245 185.542C69.6245 185.542 69.654 185.484 69.6638 185.464C69.6638 185.444 69.6834 185.425 69.6932 185.405C69.6834 185.425 69.6736 185.444 69.6638 185.464C69.654 185.493 69.6343 185.523 69.6245 185.542Z" fill="#53A7BA"/>
<g style="mix-blend-mode:multiply" opacity="0.2">
<path d="M69.6245 185.542C69.6245 185.542 69.654 185.484 69.6638 185.464C69.6638 185.444 69.6834 185.425 69.6932 185.405C69.6834 185.425 69.6736 185.444 69.6638 185.464C69.654 185.493 69.6343 185.523 69.6245 185.542Z" fill="#53A7BA"/>
</g>
<path d="M77.896 174.661L77.9161 174.64L77.9363 174.62L77.9161 174.64L77.896 174.661Z" fill="#53A7BA"/>
<g style="mix-blend-mode:multiply" opacity="0.2">
<path d="M77.896 174.661L77.9161 174.64L77.9363 174.62L77.9161 174.64L77.896 174.661Z" fill="#53A7BA"/>
</g>
<path d="M68.6371 187.548C68.4709 187.92 68.3047 188.292 68.1482 188.664C67.9918 189.036 67.8354 189.418 67.6887 189.799C67.4932 190.308 67.2976 190.817 67.1216 191.336C67.1021 191.375 67.0923 191.404 67.0825 191.443C66.9065 191.972 66.7305 192.5 66.5741 193.039C66.4763 193.371 66.3786 193.704 66.2906 194.047C66.1928 194.409 66.095 194.771 66.007 195.133C65.8701 195.652 65.7528 196.18 65.6453 196.718C65.6159 196.846 65.5964 196.963 65.567 197.09C65.5573 197.12 65.5475 197.159 65.5475 197.198C65.5475 197.257 65.5182 197.306 65.5182 197.364C65.4399 197.736 65.3715 198.108 65.3128 198.49C65.2737 198.715 65.2346 198.95 65.2053 199.175V199.224C65.1564 199.508 65.1271 199.791 65.088 200.075C65.0684 200.232 65.0489 200.388 65.0293 200.545H81.4845C81.1618 200.359 80.9271 200.026 80.9271 199.625C80.9271 199.028 81.4062 198.548 82.0026 198.548C82.5991 198.548 83.0781 199.028 83.0781 199.625C83.0781 200.026 82.8435 200.369 82.5208 200.545H105.654L97.5485 188.057L98.6436 186.932C92.1906 180.414 88.0841 173.818 85.6007 168.817C84.0168 169.776 82.5111 170.813 81.0738 171.939C81.064 171.939 81.0543 171.958 81.0347 171.968C81.0054 171.988 80.976 172.017 80.9565 172.037C79.9103 172.849 78.9033 173.72 77.9451 174.62L77.9255 174.64L77.906 174.659C77.6127 174.943 77.3096 175.237 77.0065 175.53C76.9869 175.55 76.9674 175.57 76.9478 175.589C76.9087 175.628 76.8794 175.667 76.8305 175.707C76.8109 175.726 76.7914 175.746 76.7816 175.765C76.3709 176.186 75.9603 176.627 75.5594 177.067C75.5008 177.126 75.4519 177.194 75.3932 177.253C75.3541 177.302 75.315 177.341 75.2759 177.38C74.9239 177.772 74.5817 178.173 74.2493 178.574C74.2395 178.584 74.2297 178.603 74.2199 178.613C74.2199 178.613 74.2102 178.633 74.2004 178.643C73.4378 179.582 72.7045 180.561 72.0103 181.569C71.9907 181.588 71.9809 181.618 71.9614 181.637C71.8929 181.735 71.8245 181.843 71.7561 181.95C71.7561 181.95 71.7463 181.95 71.7463 181.97C71.717 182.009 71.6876 182.048 71.6681 182.087C71.4921 182.361 71.3161 182.636 71.1499 182.91C71.1205 182.958 71.0912 183.007 71.0619 183.056C71.0521 183.076 71.0325 183.095 71.0228 183.115C70.7979 183.487 70.573 183.859 70.3579 184.24C70.3384 184.27 70.3188 184.309 70.2992 184.338C70.1037 184.691 69.9082 185.043 69.7126 185.405C69.7126 185.425 69.6931 185.444 69.6833 185.464C69.6637 185.493 69.6539 185.523 69.6442 185.542C69.4682 185.875 69.2922 186.208 69.1358 186.55C69.1162 186.599 69.0869 186.648 69.0673 186.697C69.0673 186.697 69.0673 186.716 69.0575 186.716C68.9695 186.893 68.8815 187.079 68.8033 187.255L68.7251 187.431C68.7251 187.431 68.6762 187.509 68.6664 187.548H68.6371Z" fill="#53A7BA"/>
<g style="mix-blend-mode:multiply" opacity="0.2">
<path d="M68.6371 187.548C68.4709 187.92 68.3047 188.292 68.1482 188.664C67.9918 189.036 67.8354 189.418 67.6887 189.799C67.4932 190.308 67.2976 190.817 67.1216 191.336C67.1021 191.375 67.0923 191.404 67.0825 191.443C66.9065 191.972 66.7305 192.5 66.5741 193.039C66.4763 193.371 66.3786 193.704 66.2906 194.047C66.1928 194.409 66.095 194.771 66.007 195.133C65.8701 195.652 65.7528 196.18 65.6453 196.718C65.6159 196.846 65.5964 196.963 65.567 197.09C65.5573 197.12 65.5475 197.159 65.5475 197.198C65.5475 197.257 65.5182 197.306 65.5182 197.364C65.4399 197.736 65.3715 198.108 65.3128 198.49C65.2737 198.715 65.2346 198.95 65.2053 199.175V199.224C65.1564 199.508 65.1271 199.791 65.088 200.075C65.0684 200.232 65.0489 200.388 65.0293 200.545H81.4845C81.1618 200.359 80.9271 200.026 80.9271 199.625C80.9271 199.028 81.4062 198.548 82.0026 198.548C82.5991 198.548 83.0781 199.028 83.0781 199.625C83.0781 200.026 82.8435 200.369 82.5208 200.545H105.654L97.5485 188.057L98.6436 186.932C92.1906 180.414 88.0841 173.818 85.6007 168.817C84.0168 169.776 82.5111 170.813 81.0738 171.939C81.064 171.939 81.0543 171.958 81.0347 171.968C81.0054 171.988 80.976 172.017 80.9565 172.037C79.9103 172.849 78.9033 173.72 77.9451 174.62L77.9255 174.64L77.906 174.659C77.6127 174.943 77.3096 175.237 77.0065 175.53C76.9869 175.55 76.9674 175.57 76.9478 175.589C76.9087 175.628 76.8794 175.667 76.8305 175.707C76.8109 175.726 76.7914 175.746 76.7816 175.765C76.3709 176.186 75.9603 176.627 75.5594 177.067C75.5008 177.126 75.4519 177.194 75.3932 177.253C75.3541 177.302 75.315 177.341 75.2759 177.38C74.9239 177.772 74.5817 178.173 74.2493 178.574C74.2395 178.584 74.2297 178.603 74.2199 178.613C74.2199 178.613 74.2102 178.633 74.2004 178.643C73.4378 179.582 72.7045 180.561 72.0103 181.569C71.9907 181.588 71.9809 181.618 71.9614 181.637C71.8929 181.735 71.8245 181.843 71.7561 181.95C71.7561 181.95 71.7463 181.95 71.7463 181.97C71.717 182.009 71.6876 182.048 71.6681 182.087C71.4921 182.361 71.3161 182.636 71.1499 182.91C71.1205 182.958 71.0912 183.007 71.0619 183.056C71.0521 183.076 71.0325 183.095 71.0228 183.115C70.7979 183.487 70.573 183.859 70.3579 184.24C70.3384 184.27 70.3188 184.309 70.2992 184.338C70.1037 184.691 69.9082 185.043 69.7126 185.405C69.7126 185.425 69.6931 185.444 69.6833 185.464C69.6637 185.493 69.6539 185.523 69.6442 185.542C69.4682 185.875 69.2922 186.208 69.1358 186.55C69.1162 186.599 69.0869 186.648 69.0673 186.697C69.0673 186.697 69.0673 186.716 69.0575 186.716C68.9695 186.893 68.8815 187.079 68.8033 187.255L68.7251 187.431C68.7251 187.431 68.6762 187.509 68.6664 187.548H68.6371Z" fill="#53A7BA"/>
</g>
<path d="M83.0782 199.615C83.0782 199.018 82.5992 198.539 82.0027 198.539C81.4063 198.539 80.9272 199.018 80.9272 199.615C80.9272 200.016 81.1619 200.359 81.4846 200.535H82.5209C82.8436 200.349 83.0782 200.016 83.0782 199.615Z" fill="#53A7BA"/>
<g style="mix-blend-mode:multiply" opacity="0.2">
<path d="M83.0782 199.615C83.0782 199.018 82.5992 198.539 82.0027 198.539C81.4063 198.539 80.9272 199.018 80.9272 199.615C80.9272 200.016 81.1619 200.359 81.4846 200.535H82.5209C82.8436 200.349 83.0782 200.016 83.0782 199.615Z" fill="#53A7BA"/>
</g>
<path d="M114.971 199.37C108.323 195.593 102.955 191.277 98.6434 186.922L97.5483 188.047L105.654 200.535H115.216L114.981 199.37H114.971Z" fill="#53A7BA"/>
<g style="mix-blend-mode:multiply">
<path d="M114.971 199.37C108.323 195.593 102.955 191.277 98.6434 186.922L97.5483 188.047L105.654 200.535H115.216L114.981 199.37H114.971Z" fill="#53A7BA"/>
</g>
<g style="mix-blend-mode:multiply" opacity="0.2">
<path d="M114.971 199.37C108.323 195.593 102.955 191.277 98.6434 186.922L97.5483 188.047L105.654 200.535H115.216L114.981 199.37H114.971Z" fill="#53A7BA"/>
</g>
<path d="M118.805 148.363C134.118 148.363 146.533 133.597 146.533 115.383C146.533 97.1678 134.118 82.4019 118.805 82.4019C103.491 82.4019 91.0762 97.1678 91.0762 115.383C91.0762 133.597 103.491 148.363 118.805 148.363Z" fill="#1A1A1A"/>
<path d="M127.78 153.599C125.082 154.881 122.06 155.595 118.863 155.595C115.666 155.595 112.645 154.871 109.946 153.599L110.416 140.759H127.301L127.77 153.599H127.78Z" fill="#CEAAA3"/>
<path d="M121.053 91.9925H116.682C106.374 91.9925 98.0176 100.357 98.0176 110.675V131.442C98.0176 141.76 106.374 150.125 116.682 150.125H121.053C131.361 150.125 139.718 141.76 139.718 131.442V110.675C139.718 100.357 131.361 91.9925 121.053 91.9925Z" fill="#EFC6BB"/>
<path d="M102.144 93.9009C102.144 93.9009 115.118 105.889 127.839 105.4C140.559 104.911 140.246 121.068 140.246 121.068C140.246 121.068 144.988 113.102 143.873 103.619C142.759 94.1358 120.027 72.3705 103.161 93.9009" fill="#1A1A1A"/>
<path d="M146.45 126.488C147.112 122.741 145.572 119.336 143.009 118.881C140.446 118.427 137.831 121.096 137.169 124.843C136.506 128.59 138.046 131.996 140.609 132.45C143.172 132.904 145.787 130.235 146.45 126.488Z" fill="#EFC6BB"/>
<path d="M95.7402 132.473C98.3114 132.069 99.9174 128.694 99.3273 124.935C98.7372 121.176 96.1745 118.456 93.6033 118.861C91.0321 119.265 89.4261 122.64 90.0162 126.399C90.6063 130.158 93.169 132.877 95.7402 132.473Z" fill="#EFC6BB"/>
<path d="M104.099 95.545C104.099 95.545 104.598 112.769 97.793 121.059C96.3264 108.816 95.7398 97.6785 104.099 95.545Z" fill="#1A1A1A"/>
<path d="M113.691 136.032H124.035C124.035 136.032 122.383 140.759 118.247 140.759C114.111 140.759 113.681 136.032 113.681 136.032H113.691Z" fill="white"/>
<path d="M166.019 181.98C165.657 181.422 165.276 180.884 164.885 180.345C165.305 180.913 165.706 181.5 166.097 182.097C166.068 182.058 166.048 182.019 166.019 181.98Z" fill="white"/>
<path d="M166.449 182.645C166.82 183.232 167.182 183.82 167.524 184.426C167.182 183.82 166.82 183.232 166.449 182.645Z" fill="white"/>
<path d="M170.839 191.982C171.054 192.657 171.269 193.342 171.455 194.037C171.269 193.342 171.064 192.657 170.839 191.982Z" fill="white"/>
<path d="M172.198 197.208C172.14 196.895 172.071 196.591 172.012 196.278C172.081 196.64 172.159 197.002 172.228 197.364C172.218 197.315 172.208 197.257 172.198 197.208Z" fill="white"/>
<path d="M170.37 190.621C170.252 190.289 170.125 189.966 169.998 189.643C170.233 190.22 170.438 190.817 170.643 191.404C170.555 191.14 170.467 190.876 170.37 190.621Z" fill="white"/>
<path d="M172.638 199.851C172.609 199.587 172.569 199.332 172.521 199.067C172.53 199.116 172.54 199.175 172.54 199.224C172.589 199.43 172.618 199.636 172.638 199.851Z" fill="#53A7BA"/>
<path d="M170.644 191.404C170.712 191.6 170.781 191.786 170.839 191.992C170.771 191.796 170.702 191.6 170.644 191.404Z" fill="#53A7BA"/>
<path d="M169.999 189.643C169.852 189.271 169.705 188.909 169.548 188.547C169.558 188.566 169.558 188.576 169.568 188.595C169.715 188.938 169.862 189.29 169.999 189.643Z" fill="#53A7BA"/>
<path d="M166.097 182.097C166.215 182.274 166.332 182.46 166.45 182.646C166.332 182.46 166.215 182.274 166.097 182.097Z" fill="#53A7BA"/>
<path d="M164.885 180.346C164.758 180.18 164.631 180.003 164.494 179.827C164.543 179.895 164.592 179.964 164.641 180.023C164.729 180.131 164.807 180.238 164.885 180.346Z" fill="#53A7BA"/>
<path d="M171.826 195.475C171.797 195.358 171.768 195.241 171.738 195.133C171.826 195.466 171.905 195.798 171.973 196.131C171.924 195.916 171.875 195.691 171.826 195.475Z" fill="#53A7BA"/>
<path fill-rule="evenodd" clip-rule="evenodd" d="M219.54 135.791C204.553 139.999 180.869 132.884 169.091 116.913C163.935 109.926 161.215 101.421 160.286 92.8389C156.921 61.7088 183.774 39.7093 213.181 40.0029C244.975 40.3258 257.957 62.8832 259.043 91.6743C260.031 117.97 234.537 131.583 219.54 135.791Z" fill="#41C973"/>
<path d="M202.078 115.934C200.307 115.934 198.595 115.23 197.323 113.967L184.459 101.098C181.837 98.4758 181.837 94.209 184.459 91.5862C187.081 88.9635 191.326 88.9537 193.968 91.5862L200.777 98.3975L220.303 66.2398C222.22 63.0691 226.349 62.0611 229.538 63.9792C232.708 65.9071 233.725 70.0467 231.788 73.2174L207.82 112.695C206.754 114.457 204.934 115.631 202.88 115.876C202.606 115.905 202.342 115.925 202.078 115.925V115.934Z" fill="white"/>
</g>
</g>
<defs>
<clipPath id="clip0_1864_41030">
<rect width="320" height="200" rx="17" fill="white"/>
</clipPath>
<clipPath id="clip1_1864_41030">
<rect width="211" height="160" fill="white" transform="translate(56 40)"/>
</clipPath>
</defs>
</svg>
