<svg width="400" height="201" viewBox="0 0 400 201" fill="none" xmlns="http://www.w3.org/2000/svg">
<g clip-path="url(#clip0_737_23653)">
<path d="M400 0H0V200H400V0Z" fill="#DDF0FF"/>
<path d="M84 21H11V200H84V21Z" fill="#F4FAFF"/>
<path d="M161 21H87V200H161V21Z" fill="#F4FAFF"/>
<path d="M237 21H164V200H237V21Z" fill="#F4FAFF"/>
<path d="M313 21H240V200H313V21Z" fill="#F4FAFF"/>
<path d="M389 21H316V200H389V21Z" fill="#F4FAFF"/>
<path d="M85.2617 200.28V72.3753H108.204V104.115H123.883V69.5198H130.765V58.5477H133.056L134.394 37.8783L136.5 58.7438H138.126V69.7159H144.72V200.28H85.2617Z" fill="#DDF0FF"/>
<path d="M390 93.4717V200.28H388.304H388.293H387.63H351.869V127.871H366.724V93.2755H374.408V82.3034H376.975L378.469 61.634L380.822 82.4995H382.634V93.4717H390Z" fill="#DDF0FF"/>
<path d="M351.784 200.28V114.568L346.292 112.41V97.3078L322.952 88.2451V112.41L306.471 113.703V200.28H351.784Z" fill="#DDF0FF"/>
<path d="M229.129 200.28V113.789H242.259V91.291L255.977 78.3518V100.85H264.33V80.6016H274.477V73.2926H301.325V80.6016H307.884V200.28H229.129Z" fill="#DDF0FF"/>
<path d="M85.262 83.5436V200.28H10.9492V116.725H23.3347V94.2273L36.2855 81.2938V103.792H44.1656V83.5436H53.7359V76.2289H79.0664V83.5436H85.262Z" fill="#DDF0FF"/>
<path d="M177.579 87.5298H144.178V200.28H177.579V87.5298Z" fill="#DDF0FF"/>
<path d="M177.578 82.3724H151.953V92.6927H177.578V82.3724Z" fill="#DDF0FF"/>
<path d="M177.578 73.9847H166.635V85.8049H177.578V73.9847Z" fill="#DDF0FF"/>
<path d="M230.398 102.004H210.484V200.285H230.398V102.004Z" fill="#DDF0FF"/>
<path d="M212.1 95.6233H176.576V200.285H212.1V95.6233Z" fill="#DDF0FF"/>
<path d="M217.966 90.5179H198.053V200.285H217.966V90.5179Z" fill="#DDF0FF"/>
<path d="M213.702 82.3667H202.314V99.3152H213.702V82.3667Z" fill="#DDF0FF"/>
<path d="M190.623 84.0801H185.01V106.215H190.623V84.0801Z" fill="#DDF0FF"/>
<g opacity="0.33">
<path opacity="0.33" d="M84.6844 21H11.2656V200.006H84.6844V21Z" fill="white"/>
</g>
<g opacity="0.33">
<path opacity="0.33" d="M160.716 21H87.2969V200.006H160.716V21Z" fill="white"/>
</g>
<g opacity="0.33">
<path opacity="0.33" d="M236.749 21H163.33V200.006H236.749V21Z" fill="white"/>
</g>
<g opacity="0.33">
<path opacity="0.33" d="M312.782 21H239.363V200.006H312.782V21Z" fill="white"/>
</g>
<g opacity="0.33">
<path opacity="0.33" d="M389.034 21H315.615V200.006H389.034V21Z" fill="white"/>
</g>
<g opacity="0.17">
<path opacity="0.17" d="M61.5513 21L11.2656 59.9234V50.4318L49.2865 21H61.5513Z" fill="#DDF0FF"/>
<path opacity="0.17" d="M11.2656 106.303L84.6844 49.4657V65.7427L11.2656 122.58V106.303Z" fill="#DDF0FF"/>
<path opacity="0.17" d="M142.486 21L87.2988 63.7209V47.4439L121.457 21H142.486Z" fill="#DDF0FF"/>
<path opacity="0.17" d="M11.2656 168.955L84.6844 112.118V121.614L11.2656 178.451V168.955Z" fill="#DDF0FF"/>
<path opacity="0.17" d="M87.2988 110.101L160.718 53.2632V62.7592L87.2988 119.597V110.101Z" fill="#DDF0FF"/>
<path opacity="0.17" d="M214.664 21L163.336 60.7374V51.2414L202.395 21H214.664Z" fill="#DDF0FF"/>
<path opacity="0.17" d="M43.3242 200.006L84.6846 167.994V184.271L64.3535 200.006H43.3242Z" fill="#DDF0FF"/>
<path opacity="0.17" d="M87.2988 165.972L160.718 109.135V125.411L87.2988 182.244V165.972Z" fill="#DDF0FF"/>
<path opacity="0.17" d="M163.336 107.108L236.75 50.2797V66.5566L163.336 123.385V107.108Z" fill="#DDF0FF"/>
<path opacity="0.17" d="M295.597 21L239.367 64.5305V48.2535L274.572 21H295.597Z" fill="#DDF0FF"/>
<path opacity="0.17" d="M163.336 169.765L236.75 112.932V122.428L163.336 179.261V169.765Z" fill="#DDF0FF"/>
<path opacity="0.17" d="M312.786 54.0728V63.5688L239.367 120.402V110.906L312.786 54.0728Z" fill="#DDF0FF"/>
<path opacity="0.17" d="M196.441 200.006L236.75 168.808V185.085L217.471 200.006H196.441Z" fill="#DDF0FF"/>
<path opacity="0.17" d="M312.786 109.949V126.226L239.367 183.059V166.782L312.786 109.949Z" fill="#DDF0FF"/>
<path opacity="0.17" d="M312.787 172.601V182.097L289.64 200.006H277.375L312.787 172.601Z" fill="#DDF0FF"/>
</g>
<path opacity="0.61" d="M83 56H123C123 56 116.236 54.4845 115.029 54.0061C113.822 53.5278 113.401 52.4398 112.144 52.3975C110.887 52.3551 110.49 53.5024 109.26 53.7479C108.03 53.9934 105.141 53.8918 104.105 53.5532C103.07 53.2187 102.925 52.1223 101.836 52.008C100.746 51.8937 100.167 53.0367 98.9512 53.1679C97.7349 53.2992 96.166 52.2662 94.3485 52.3975C92.5309 52.5287 83.009 56 83.009 56H83Z" fill="#DDF0FF"/>
<path opacity="0.61" d="M181 78H221C221 78 214.236 76.1612 213.029 75.5808C211.822 75.0004 211.704 74.4354 210.443 74.384C209.181 74.3326 208.485 74.9644 207.255 75.2675C206.563 75.437 205.808 72.0726 204.696 72.0007C203.824 71.9442 202.553 75.211 202.101 75.0312C201.066 74.6254 200.776 74.1323 199.687 73.9936C198.597 73.855 198.163 74.4045 196.947 74.5638C195.73 74.723 194.162 73.4697 192.344 73.629C190.526 73.7882 181.005 78 181.005 78H181Z" fill="#DDF0FF"/>
<path opacity="0.61" d="M35.9953 66.9947H11V63.4495C12.2425 63.259 12.8449 61.8674 13.9603 62.0103C15.0945 62.1531 15.2451 63.5183 16.3229 63.9416C17.4006 64.3596 20.4079 64.4919 21.6881 64.185C22.9682 63.8728 23.3823 62.4389 24.6954 62.4918C26.0085 62.5447 26.4415 63.9046 27.7027 64.5025C28.9593 65.1004 36 67 36 67L35.9953 66.9947Z" fill="#DDF0FF"/>
<path opacity="0.61" d="M239 61.6977L296 62C296 62 284.359 57.5245 282.804 57.5691C281.248 57.6137 278.189 58.5852 276.629 58.6298C275.074 58.6744 274.59 57.4948 273.84 57.4204C273.09 57.3461 272.261 57.3312 271.512 57.3461C270.762 57.361 270.683 56.8505 269.891 57.0438C269.1 57.2371 268.788 58.3274 267.498 58.6298C266.208 58.9321 265.039 57.4155 263.684 57.5691C262.329 57.7178 261.593 58.3621 260.327 58.6298C259.06 58.8974 258.697 58.149 257.407 58.0945C256.117 58.04 254.334 58.6496 252.481 58.6298C250.627 58.605 249.407 58.5455 247.009 58.3225C244.765 58.1094 239.005 61.7026 239.005 61.7026L239 61.6977Z" fill="#DDF0FF"/>
<path opacity="0.61" d="M324 71.7581L366 72C366 72 357.422 68.4196 356.276 68.4553C355.13 68.491 352.876 69.2681 351.727 69.3038C350.581 69.3395 350.224 68.3958 349.671 68.3363C349.119 68.2769 348.508 68.265 347.956 68.2769C347.403 68.2888 347.345 67.8804 346.762 68.035C346.179 68.1896 345.949 69.0619 344.998 69.3038C344.048 69.5457 343.187 68.3324 342.188 68.4553C341.19 68.5742 340.648 69.0897 339.714 69.3038C338.781 69.5179 338.514 68.9192 337.563 68.8756C336.613 68.832 335.299 69.3197 333.933 69.3038C332.567 69.284 331.668 69.2364 329.901 69.058C328.248 68.8875 324.003 71.7621 324.003 71.7621L324 71.7581Z" fill="#DDF0FF"/>
<g clip-path="url(#clip1_737_23653)">
<path d="M197.097 120.868C185.601 59.0336 152.478 64.8878 152.478 64.8878C152.478 64.8878 152.355 71.2364 152.232 80.5851C152.108 71.2364 151.985 64.8878 151.985 64.8878C151.985 64.8878 118.863 59.0336 107.366 120.879C104.035 134.273 99.6602 144.667 99.6602 144.667C99.6602 144.667 117.876 155.622 151.615 153.656C151.895 151.33 152.097 147.555 152.232 142.846C152.366 147.555 152.568 151.33 152.849 153.656C186.599 155.622 204.803 144.667 204.803 144.667C204.803 144.667 200.418 134.273 197.097 120.879V120.868Z" fill="#1A1A1A"/>
<path d="M99.6615 190.444C100.343 190.444 100.895 189.891 100.895 189.208C100.895 188.526 100.343 187.972 99.6615 187.972C98.9801 187.972 98.4277 188.526 98.4277 189.208C98.4277 189.891 98.9801 190.444 99.6615 190.444Z" fill="#007AB3"/>
<path d="M109.767 181.657C110.448 181.657 111.001 181.104 111.001 180.421C111.001 179.739 110.448 179.185 109.767 179.185C109.086 179.185 108.533 179.739 108.533 180.421C108.533 181.104 109.086 181.657 109.767 181.657Z" fill="#007AB3"/>
<path d="M162.73 154.959C162.73 154.959 162.629 154.948 162.585 154.937L162.282 146.633L161.743 131.902H142.372L141.834 146.633L141.531 154.813C145.502 158.106 152.703 161.319 162.73 154.959Z" fill="#EFC6BB"/>
<path d="M194.642 167.084C194.496 166.96 194.339 166.859 194.193 166.746C194.575 167.016 194.945 167.297 195.304 167.589C195.091 167.409 194.866 167.241 194.642 167.084Z" fill="white"/>
<path d="M197.424 169.331C197.312 169.23 197.2 169.129 197.088 169.039C197.38 169.275 197.66 169.522 197.929 169.78C197.761 169.623 197.593 169.466 197.424 169.331Z" fill="white"/>
<path d="M150.035 200.534H156.708L165.883 155.409C165.883 155.409 165.827 155.409 165.794 155.398C165.547 155.353 165.311 155.319 165.065 155.285C164.448 155.184 163.831 155.094 163.203 155.027C163.046 154.993 162.889 154.982 162.732 154.959C152.704 161.319 145.503 158.106 141.533 154.813V154.937C140.624 155.049 139.715 155.173 138.807 155.319C138.796 155.308 138.773 155.308 138.762 155.319C138.717 155.33 138.684 155.33 138.639 155.341L147.589 199.186C148.386 199.636 149.205 200.085 150.035 200.523V200.534Z" fill="white"/>
<path d="M92.9884 189.141C92.9097 189.354 92.8311 189.568 92.7637 189.781C92.921 189.321 93.0895 188.871 93.2693 188.41C93.1794 188.658 93.0783 188.894 92.9884 189.141Z" fill="white"/>
<path d="M106.694 169.331C106.548 169.443 106.414 169.567 106.279 169.69C106.548 169.443 106.818 169.207 107.098 168.983C106.964 169.095 106.829 169.207 106.694 169.331Z" fill="white"/>
<path d="M97.9342 179.264C97.8555 179.376 97.7881 179.477 97.7207 179.59C97.7769 179.511 97.8331 179.432 97.8893 179.343C97.9117 179.32 97.923 179.286 97.9454 179.264H97.9342Z" fill="#53A7BA"/>
<path d="M99.8752 176.545C99.7404 176.724 99.6055 176.904 99.4707 177.073C99.4932 177.039 99.5269 177.005 99.5494 176.972C99.6617 176.837 99.7629 176.691 99.8752 176.545Z" fill="#53A7BA"/>
<path d="M109.486 167.084C109.486 167.084 109.519 167.05 109.542 167.039C109.25 167.252 108.97 167.466 108.689 167.69C108.947 167.477 109.217 167.286 109.475 167.084H109.486Z" fill="#53A7BA"/>
<path d="M90.3623 199.995C90.3736 199.894 90.3848 199.793 90.4073 199.692C90.3736 199.973 90.3286 200.254 90.2949 200.535C90.3174 200.355 90.3399 200.175 90.3736 199.995H90.3623Z" fill="#53A7BA"/>
<path d="M95.6115 183.219C95.6115 183.219 95.6339 183.174 95.6452 183.152C95.7126 183.006 95.7913 182.86 95.8699 182.714C95.7575 182.905 95.6564 183.096 95.5553 183.287C95.4766 183.433 95.398 183.579 95.3418 183.725C95.4205 183.59 95.4879 183.455 95.5665 183.309C95.5778 183.275 95.6002 183.242 95.6115 183.219Z" fill="#53A7BA"/>
<path d="M105.079 170.792L105.101 170.769C105.213 170.646 105.348 170.522 105.471 170.41C105.27 170.589 105.079 170.769 104.877 170.96C104.933 170.926 104.989 170.87 105.056 170.814L105.079 170.792Z" fill="#53A7BA"/>
<path d="M108.701 167.69C110.349 166.398 112.088 165.207 113.894 164.106C116.743 169.848 121.454 177.421 128.857 184.905L135.844 177.68H123.136L137.572 155.521C137.123 155.6 136.663 155.667 136.226 155.746C136.159 155.746 136.091 155.757 136.035 155.78C135.171 155.948 134.308 156.128 133.455 156.319C132.715 156.488 131.975 156.667 131.235 156.858C130.853 156.948 130.483 157.049 130.113 157.162C129.597 157.297 129.092 157.443 128.587 157.6C128.419 157.645 128.251 157.701 128.083 157.757C127.331 157.982 126.58 158.229 125.851 158.488C125.705 158.533 125.559 158.578 125.413 158.634C125.211 158.701 125.009 158.78 124.796 158.858C124.449 158.982 124.112 159.117 123.764 159.252C123.518 159.33 123.271 159.432 123.024 159.544C122.407 159.78 121.801 160.027 121.207 160.297C120.568 160.566 119.928 160.859 119.3 161.162C118.728 161.432 118.167 161.713 117.607 162.005C116.866 162.364 116.148 162.758 115.431 163.173C114.948 163.443 114.477 163.724 114.006 164.005C113.636 164.218 113.266 164.454 112.907 164.69C112.638 164.859 112.368 165.039 112.099 165.207C111.617 165.533 111.135 165.859 110.664 166.196C110.282 166.466 109.901 166.746 109.531 167.027C109.508 167.039 109.497 167.061 109.475 167.072C109.205 167.275 108.936 167.466 108.689 167.679L108.701 167.69Z" fill="#53A7BA"/>
<path d="M90.3638 199.995C90.3413 200.175 90.3076 200.355 90.2852 200.534C90.3076 200.355 90.3301 200.175 90.3526 199.995H90.3638Z" fill="#53A7BA"/>
<path d="M103.038 172.825C102.982 172.87 102.948 172.915 102.915 172.96C102.735 173.151 102.567 173.353 102.388 173.544C102.388 173.544 102.376 173.567 102.365 173.578C102.825 173.073 103.285 172.567 103.767 172.084C103.521 172.32 103.285 172.567 103.038 172.825Z" fill="#53A7BA"/>
<path d="M101.455 174.589C101.399 174.646 101.354 174.702 101.309 174.758C101.152 174.938 100.995 175.129 100.85 175.32C101.231 174.859 101.635 174.398 102.027 173.949C101.825 174.162 101.624 174.365 101.444 174.601L101.455 174.589Z" fill="#53A7BA"/>
<path d="M108.567 167.791C108.152 168.117 107.737 168.454 107.311 168.791C107.233 168.859 107.165 168.915 107.098 168.971C106.818 169.196 106.548 169.432 106.279 169.679C105.999 169.915 105.73 170.162 105.472 170.398C105.348 170.511 105.225 170.634 105.102 170.758C106.212 169.724 107.356 168.724 108.556 167.791H108.567Z" fill="#53A7BA"/>
<path d="M100.682 175.522C100.401 175.859 100.132 176.196 99.874 176.545C99.7618 176.691 99.6609 176.837 99.5487 176.972C99.5263 177.005 99.4926 177.039 99.4702 177.073C99.2234 177.399 98.9767 177.747 98.7411 178.084C98.5953 178.309 98.4383 178.522 98.2812 178.758C99.0776 177.601 99.9076 176.477 100.794 175.399C100.749 175.444 100.726 175.477 100.682 175.522Z" fill="#53A7BA"/>
<path d="M94.839 184.736C94.7603 184.916 94.6705 185.096 94.5918 185.275C94.6817 185.073 94.7716 184.86 94.8839 184.657C94.8727 184.68 94.8502 184.702 94.839 184.736Z" fill="#53A7BA"/>
<path d="M104.876 170.971L104.674 171.162C104.45 171.365 104.237 171.578 104.023 171.814C104.36 171.488 104.708 171.14 105.055 170.814C104.999 170.87 104.943 170.926 104.876 170.971Z" fill="#53A7BA"/>
<path d="M95.3428 183.725C95.2194 183.972 95.096 184.219 94.9727 184.466C95.1633 184.073 95.354 183.691 95.5559 183.309C95.4774 183.444 95.4101 183.579 95.3316 183.725H95.3428Z" fill="#53A7BA"/>
<path d="M96.3083 181.927C96.1512 182.185 96.0166 182.444 95.8708 182.702C95.7923 182.848 95.7138 182.994 95.6465 183.14C95.8596 182.725 96.0839 182.32 96.3195 181.916L96.3083 181.927Z" fill="#53A7BA"/>
<path d="M97.7206 179.601C97.5636 179.826 97.429 180.062 97.2832 180.298C97.4739 179.983 97.6758 179.668 97.8777 179.354C97.8216 179.432 97.7655 179.522 97.7094 179.601H97.7206Z" fill="#53A7BA"/>
<path d="M168.686 177.68L176.93 186.197L167.868 200.535H213.844C213.81 200.265 213.788 200.006 213.743 199.737C213.72 199.49 213.687 199.254 213.631 199.018C213.631 198.961 213.619 198.894 213.608 198.838C213.53 198.276 213.429 197.725 213.328 197.175C213.305 197.074 213.294 196.984 213.272 196.883C213.193 196.467 213.104 196.051 213.025 195.635C213.014 195.579 212.991 195.523 212.98 195.467C212.902 195.085 212.812 194.703 212.711 194.321C212.61 193.905 212.498 193.489 212.386 193.073C212.173 192.276 211.937 191.489 211.679 190.714C211.601 190.489 211.522 190.264 211.455 190.04C211.219 189.354 210.984 188.68 210.714 188.017C210.557 187.613 210.389 187.208 210.221 186.815C210.21 186.792 210.21 186.781 210.198 186.759C210.019 186.332 209.84 185.927 209.638 185.511C209.458 185.096 209.256 184.691 209.054 184.287C208.897 183.949 208.729 183.612 208.561 183.287C208.337 182.86 208.112 182.444 207.877 182.028C207.484 181.331 207.069 180.657 206.643 179.983C206.508 179.77 206.374 179.556 206.239 179.354C205.79 178.668 205.331 177.994 204.848 177.342C204.758 177.219 204.669 177.095 204.568 176.972C204.512 176.904 204.456 176.826 204.4 176.747C203.345 175.354 202.212 174.028 201.012 172.758C200.821 172.544 200.62 172.331 200.406 172.129C199.61 171.32 198.78 170.533 197.928 169.78C197.658 169.522 197.378 169.275 197.086 169.039C196.873 168.859 196.66 168.679 196.447 168.511C196.223 168.308 195.987 168.129 195.752 167.938C195.606 167.825 195.46 167.702 195.303 167.589C194.944 167.297 194.574 167.016 194.193 166.746C193.991 166.589 193.778 166.432 193.564 166.286C193.116 165.96 192.656 165.645 192.196 165.342C191.972 165.185 191.736 165.038 191.501 164.892C191.007 164.567 190.502 164.252 189.998 163.96C189.392 163.589 188.775 163.229 188.158 162.892C187.81 162.701 187.463 162.51 187.115 162.331C186.678 162.095 186.229 161.87 185.78 161.645C185.747 161.634 185.713 161.611 185.679 161.6C185.309 161.409 184.939 161.229 184.558 161.061C184.244 160.903 183.93 160.757 183.615 160.623C183.167 160.42 182.718 160.229 182.269 160.038C182.045 159.937 181.81 159.847 181.585 159.757C181.114 159.566 180.632 159.375 180.15 159.196C179.914 159.094 179.667 159.016 179.432 158.926C178.949 158.746 178.467 158.578 177.974 158.409C177.334 158.184 176.684 157.982 176.033 157.78C175.461 157.6 174.9 157.431 174.317 157.274C173.711 157.094 173.083 156.926 172.466 156.768C171.838 156.611 171.199 156.454 170.56 156.308C169.797 156.139 169.023 155.971 168.249 155.836C168.013 155.78 167.767 155.735 167.531 155.701C167.352 155.667 167.172 155.645 167.004 155.611L181.395 177.691H168.686V177.68Z" fill="#53A7BA"/>
<g style="mix-blend-mode:multiply">
<path d="M137.584 155.521C137.943 155.465 138.291 155.398 138.638 155.341C138.291 155.386 137.932 155.465 137.584 155.521Z" fill="#53A7BA"/>
</g>
<path d="M135.845 177.68L128.858 184.905C133.804 189.905 139.962 194.86 147.589 199.197L138.638 155.353C138.291 155.398 137.932 155.476 137.584 155.532L123.148 177.691H135.857L135.845 177.68Z" fill="#53A7BA"/>
<g style="mix-blend-mode:multiply">
<path d="M135.845 177.68L128.858 184.905C133.804 189.905 139.962 194.86 147.589 199.197L138.638 155.353C138.291 155.398 137.932 155.476 137.584 155.532L123.148 177.691H135.857L135.845 177.68Z" fill="#53A7BA"/>
</g>
<g style="mix-blend-mode:multiply">
<path d="M167.005 155.6L166.949 155.521C166.59 155.465 166.242 155.398 165.895 155.341V155.398C165.895 155.398 165.917 155.398 165.928 155.398C166.287 155.454 166.646 155.521 167.005 155.589V155.6Z" fill="#53A7BA"/>
</g>
<path d="M156.718 200.534L165.927 155.42C165.927 155.42 165.893 155.42 165.882 155.42L156.707 200.546H156.718V200.534Z" fill="white"/>
<g style="mix-blend-mode:multiply">
<path d="M156.718 200.534L165.927 155.42C165.927 155.42 165.893 155.42 165.882 155.42L156.707 200.546H156.718V200.534Z" fill="#53A7BA"/>
</g>
<path d="M156.719 200.535H167.868L176.931 186.197L168.687 177.68H181.395L167.004 155.6C166.645 155.532 166.286 155.465 165.927 155.409L156.719 200.523V200.535Z" fill="#53A7BA"/>
<g style="mix-blend-mode:multiply">
<path d="M156.719 200.535H167.868L176.931 186.197L168.687 177.68H181.395L167.004 155.6C166.645 155.532 166.286 155.465 165.927 155.409L156.719 200.523V200.535Z" fill="#53A7BA"/>
</g>
<g style="mix-blend-mode:multiply" opacity="0.2">
<path d="M102.365 173.567C102.253 173.69 102.151 173.814 102.039 173.938C102.084 173.893 102.129 173.837 102.174 173.792C102.23 173.724 102.298 173.646 102.365 173.578V173.567Z" fill="#53A7BA"/>
</g>
<g style="mix-blend-mode:multiply" opacity="0.2">
<path d="M93.8733 186.893C93.8733 186.893 93.8957 186.837 93.9069 186.815C94.0752 186.41 94.2546 186.017 94.4341 185.612C94.4453 185.568 94.4677 185.523 94.5014 185.478L94.5911 185.275C94.5575 185.343 94.5238 185.41 94.5014 185.478C94.4677 185.523 94.4453 185.568 94.4341 185.612C94.2434 186.039 94.0527 186.466 93.8733 186.893C93.6938 187.32 93.5143 187.759 93.3461 188.197C93.3237 188.264 93.29 188.343 93.2676 188.41C93.29 188.343 93.3237 188.264 93.3461 188.197C93.5143 187.759 93.6938 187.32 93.8733 186.893Z" fill="#53A7BA"/>
</g>
<g style="mix-blend-mode:multiply" opacity="0.2">
<path d="M94.9727 184.466C94.9502 184.522 94.9165 184.579 94.8828 184.635V184.657V184.635C94.9053 184.579 94.939 184.522 94.9615 184.466H94.9727Z" fill="#53A7BA"/>
</g>
<g style="mix-blend-mode:multiply" opacity="0.2">
<path d="M103.957 171.882C103.957 171.882 104.002 171.837 104.024 171.814L103.957 171.882C103.957 171.882 103.878 171.971 103.822 172.016C103.799 172.039 103.788 172.061 103.766 172.084C103.788 172.061 103.811 172.039 103.822 172.016C103.878 171.971 103.912 171.926 103.957 171.882Z" fill="#53A7BA"/>
</g>
<g style="mix-blend-mode:multiply" opacity="0.2">
<path d="M98.2262 178.837C98.2262 178.837 98.2599 178.781 98.2824 178.758C98.2599 178.781 98.2375 178.814 98.2262 178.837C98.1476 178.949 98.0689 179.073 97.9903 179.196C97.979 179.219 97.9565 179.253 97.9453 179.275C97.9678 179.253 97.979 179.219 98.0015 179.196C98.0802 179.073 98.1588 178.949 98.2375 178.837H98.2262Z" fill="#53A7BA"/>
</g>
<g style="mix-blend-mode:multiply" opacity="0.2">
<path d="M97.1367 180.534C97.1367 180.534 97.1703 180.489 97.1815 180.466C97.2152 180.41 97.2488 180.354 97.2825 180.298C97.2488 180.354 97.204 180.41 97.1703 180.466C97.1591 180.489 97.1367 180.511 97.1254 180.534C96.8675 180.961 96.6095 181.388 96.3627 181.826C96.3403 181.859 96.3179 181.904 96.3066 181.938C96.3291 181.904 96.3515 181.859 96.3739 181.826C96.6207 181.388 96.8787 180.961 97.1367 180.534Z" fill="#53A7BA"/>
</g>
<g style="mix-blend-mode:multiply" opacity="0.2">
<path d="M108.691 167.69C108.691 167.69 108.669 167.713 108.647 167.724C108.613 167.746 108.59 167.78 108.557 167.803C108.59 167.78 108.624 167.746 108.647 167.724L108.68 167.69H108.691Z" fill="#53A7BA"/>
</g>
<g style="mix-blend-mode:multiply" opacity="0.2">
<path d="M90.4974 198.961C90.5311 198.703 90.5759 198.433 90.6208 198.175C90.6881 197.737 90.7666 197.31 90.8564 196.883C90.8564 196.815 90.8788 196.748 90.89 196.692C90.89 196.647 90.9012 196.602 90.9124 196.568C90.9461 196.422 90.9685 196.287 91.0022 196.141C91.1256 195.523 91.2602 194.916 91.4172 194.321C91.5181 193.905 91.6303 193.489 91.7425 193.074C91.8434 192.68 91.9556 192.298 92.0677 191.916C92.2472 191.298 92.4491 190.691 92.651 190.085C92.6622 190.04 92.6734 190.006 92.6959 189.961C92.7183 189.905 92.7407 189.837 92.7632 189.781C92.7407 189.849 92.7183 189.905 92.6959 189.961C92.6734 190.006 92.6622 190.04 92.651 190.085C92.4491 190.691 92.2472 191.298 92.0677 191.916C91.9556 192.298 91.8434 192.68 91.7425 193.074C91.6303 193.489 91.5181 193.905 91.4172 194.321C91.2602 194.916 91.1256 195.523 91.0022 196.141C90.9685 196.287 90.9461 196.422 90.9124 196.568C90.9012 196.602 90.89 196.647 90.89 196.692C90.7891 197.175 90.6993 197.68 90.6208 198.175C90.5759 198.433 90.5311 198.703 90.4974 198.961V198.984C90.4862 199.085 90.475 199.197 90.4526 199.299C90.4301 199.433 90.4189 199.557 90.3965 199.692C90.4301 199.456 90.4526 199.22 90.4974 198.984V198.961Z" fill="#53A7BA"/>
</g>
<g style="mix-blend-mode:multiply" opacity="0.2">
<path d="M100.851 175.309C100.851 175.309 100.829 175.343 100.806 175.354L100.783 175.388C100.783 175.388 100.795 175.365 100.806 175.354C100.817 175.343 100.829 175.32 100.84 175.309H100.851Z" fill="#53A7BA"/>
</g>
<path d="M93.9067 186.815C93.9067 186.815 93.8843 186.871 93.873 186.893C94.0525 186.466 94.2432 186.039 94.4339 185.612C94.2544 186.017 94.0749 186.41 93.9067 186.815Z" fill="white"/>
<g style="mix-blend-mode:multiply" opacity="0.2">
<path d="M93.9067 186.815C93.9067 186.815 93.8843 186.871 93.873 186.893C94.0525 186.466 94.2432 186.039 94.4339 185.612C94.2544 186.017 94.0749 186.41 93.9067 186.815Z" fill="#53A7BA"/>
</g>
<path d="M150.035 200.535C149.205 200.096 148.386 199.647 147.59 199.197L147.859 200.535H150.035Z" fill="white"/>
<g style="mix-blend-mode:multiply" opacity="0.2">
<path d="M150.035 200.535C149.205 200.096 148.386 199.647 147.59 199.197L147.859 200.535H150.035Z" fill="#53A7BA"/>
</g>
<path d="M93.3459 188.197C93.3234 188.264 93.2898 188.343 93.2674 188.41C93.0879 188.86 92.9196 189.321 92.7626 189.781C92.7402 189.837 92.7177 189.905 92.6953 189.961C92.8972 189.366 93.1215 188.781 93.3459 188.197Z" fill="white"/>
<g style="mix-blend-mode:multiply" opacity="0.2">
<path d="M93.3459 188.197C93.3234 188.264 93.2898 188.343 93.2674 188.41C93.0879 188.86 92.9196 189.321 92.7626 189.781C92.7402 189.837 92.7177 189.905 92.6953 189.961C92.8972 189.366 93.1215 188.781 93.3459 188.197Z" fill="#53A7BA"/>
</g>
<path d="M90.8892 196.692C90.8892 196.748 90.8555 196.815 90.8555 196.883C90.8555 196.815 90.8779 196.759 90.8892 196.703V196.692Z" fill="#53A7BA"/>
<g style="mix-blend-mode:multiply" opacity="0.2">
<path d="M90.8892 196.692C90.8892 196.748 90.8555 196.815 90.8555 196.883C90.8555 196.815 90.8779 196.759 90.8892 196.703V196.692Z" fill="#53A7BA"/>
</g>
<path d="M97.9781 179.219C97.9781 179.219 97.9893 179.208 97.9893 179.196C97.9668 179.219 97.9556 179.253 97.9331 179.275C97.9107 179.298 97.8994 179.331 97.877 179.354C97.9107 179.309 97.9331 179.264 97.9668 179.219H97.9781Z" fill="#53A7BA"/>
<g style="mix-blend-mode:multiply" opacity="0.2">
<path d="M97.9781 179.219C97.9781 179.219 97.9893 179.208 97.9893 179.196C97.9668 179.219 97.9556 179.253 97.9331 179.275C97.9107 179.298 97.8994 179.331 97.877 179.354C97.9107 179.309 97.9331 179.264 97.9668 179.219H97.9781Z" fill="#53A7BA"/>
</g>
<path d="M108.702 167.69L108.668 167.724C108.668 167.724 108.691 167.702 108.713 167.69H108.702Z" fill="#53A7BA"/>
<g style="mix-blend-mode:multiply" opacity="0.2">
<path d="M108.702 167.69L108.668 167.724C108.668 167.724 108.691 167.702 108.713 167.69H108.702Z" fill="#53A7BA"/>
</g>
<path d="M90.4976 199.018V198.984C90.4639 199.22 90.4302 199.456 90.3965 199.692C90.3853 199.793 90.374 199.894 90.3516 199.995C90.3965 199.669 90.4302 199.343 90.4864 199.018H90.4976Z" fill="#53A7BA"/>
<g style="mix-blend-mode:multiply" opacity="0.2">
<path d="M90.4976 199.018V198.984C90.4639 199.22 90.4302 199.456 90.3965 199.692C90.3853 199.793 90.374 199.894 90.3516 199.995C90.3965 199.669 90.4302 199.343 90.4864 199.018H90.4976Z" fill="#53A7BA"/>
</g>
<path d="M95.5664 183.309C95.5664 183.309 95.6001 183.242 95.6114 183.219C95.6114 183.197 95.6338 183.174 95.6451 183.152C95.6338 183.174 95.6226 183.197 95.6114 183.219C95.6001 183.253 95.5776 183.286 95.5664 183.309Z" fill="#53A7BA"/>
<g style="mix-blend-mode:multiply" opacity="0.2">
<path d="M95.5664 183.309C95.5664 183.309 95.6001 183.242 95.6114 183.219C95.6114 183.197 95.6338 183.174 95.6451 183.152C95.6338 183.174 95.6226 183.197 95.6114 183.219C95.6001 183.253 95.5776 183.286 95.5664 183.309Z" fill="#53A7BA"/>
</g>
<path d="M105.057 170.814L105.079 170.792L105.102 170.769L105.079 170.792L105.057 170.814Z" fill="#53A7BA"/>
<g style="mix-blend-mode:multiply" opacity="0.2">
<path d="M105.057 170.814L105.079 170.792L105.102 170.769L105.079 170.792L105.057 170.814Z" fill="#53A7BA"/>
</g>
<path d="M94.4338 185.612C94.2431 186.039 94.0524 186.466 93.873 186.893C93.6935 187.32 93.514 187.759 93.3458 188.197C93.1215 188.781 92.8971 189.365 92.6952 189.961C92.6728 190.006 92.6616 190.04 92.6504 190.085C92.4485 190.691 92.2466 191.298 92.0671 191.916C91.955 192.298 91.8428 192.68 91.7418 193.073C91.6297 193.489 91.5175 193.905 91.4166 194.321C91.2595 194.916 91.1249 195.523 91.0016 196.141C90.9679 196.287 90.9455 196.422 90.9118 196.568C90.9006 196.602 90.8894 196.647 90.8894 196.692C90.8894 196.759 90.8557 196.815 90.8557 196.883C90.766 197.31 90.6875 197.737 90.6202 198.175C90.5753 198.433 90.5305 198.703 90.4968 198.961V199.018C90.4407 199.343 90.4071 199.669 90.3622 199.995C90.3398 200.175 90.3174 200.355 90.2949 200.534H109.172C108.802 200.321 108.533 199.939 108.533 199.478C108.533 198.793 109.082 198.242 109.767 198.242C110.451 198.242 111 198.793 111 199.478C111 199.939 110.731 200.332 110.361 200.534H136.899L127.601 186.197L128.857 184.905C121.454 177.421 116.743 169.848 113.894 164.106C112.077 165.207 110.35 166.398 108.701 167.69C108.69 167.69 108.679 167.713 108.656 167.724C108.623 167.746 108.589 167.78 108.567 167.803C107.366 168.735 106.211 169.735 105.112 170.769L105.089 170.792L105.067 170.814C104.73 171.14 104.383 171.477 104.035 171.814C104.013 171.837 103.99 171.859 103.968 171.881C103.923 171.926 103.889 171.971 103.833 172.016C103.811 172.039 103.788 172.061 103.777 172.084C103.306 172.567 102.835 173.073 102.375 173.578C102.308 173.646 102.252 173.724 102.184 173.792C102.139 173.848 102.095 173.893 102.05 173.938C101.646 174.387 101.253 174.848 100.872 175.309C100.861 175.32 100.85 175.342 100.838 175.354C100.838 175.354 100.827 175.376 100.816 175.387C99.9411 176.466 99.0998 177.59 98.3035 178.747C98.281 178.769 98.2698 178.803 98.2474 178.826C98.1689 178.938 98.0904 179.062 98.0118 179.185C98.0118 179.185 98.0006 179.185 98.0006 179.208C97.967 179.253 97.9333 179.298 97.9109 179.342C97.709 179.657 97.5071 179.972 97.3164 180.286C97.2828 180.343 97.2491 180.399 97.2155 180.455C97.2043 180.477 97.1818 180.5 97.1706 180.522C96.9126 180.949 96.6546 181.376 96.4079 181.815C96.3855 181.848 96.363 181.893 96.3406 181.927C96.1163 182.331 95.8919 182.736 95.6676 183.152C95.6676 183.174 95.6452 183.197 95.634 183.219C95.6115 183.253 95.6003 183.286 95.5891 183.309C95.3872 183.691 95.1853 184.073 95.0058 184.466C94.9834 184.523 94.9497 184.579 94.9273 184.635C94.9273 184.635 94.9273 184.657 94.9161 184.657C94.8152 184.86 94.7142 185.073 94.6245 185.275L94.5347 185.478C94.5347 185.478 94.4787 185.568 94.4674 185.612H94.4338Z" fill="#53A7BA"/>
<g style="mix-blend-mode:multiply" opacity="0.2">
<path d="M94.4338 185.612C94.2431 186.039 94.0524 186.466 93.873 186.893C93.6935 187.32 93.514 187.759 93.3458 188.197C93.1215 188.781 92.8971 189.365 92.6952 189.961C92.6728 190.006 92.6616 190.04 92.6504 190.085C92.4485 190.691 92.2466 191.298 92.0671 191.916C91.955 192.298 91.8428 192.68 91.7418 193.073C91.6297 193.489 91.5175 193.905 91.4166 194.321C91.2595 194.916 91.1249 195.523 91.0016 196.141C90.9679 196.287 90.9455 196.422 90.9118 196.568C90.9006 196.602 90.8894 196.647 90.8894 196.692C90.8894 196.759 90.8557 196.815 90.8557 196.883C90.766 197.31 90.6875 197.737 90.6202 198.175C90.5753 198.433 90.5305 198.703 90.4968 198.961V199.018C90.4407 199.343 90.4071 199.669 90.3622 199.995C90.3398 200.175 90.3174 200.355 90.2949 200.534H109.172C108.802 200.321 108.533 199.939 108.533 199.478C108.533 198.793 109.082 198.242 109.767 198.242C110.451 198.242 111 198.793 111 199.478C111 199.939 110.731 200.332 110.361 200.534H136.899L127.601 186.197L128.857 184.905C121.454 177.421 116.743 169.848 113.894 164.106C112.077 165.207 110.35 166.398 108.701 167.69C108.69 167.69 108.679 167.713 108.656 167.724C108.623 167.746 108.589 167.78 108.567 167.803C107.366 168.735 106.211 169.735 105.112 170.769L105.089 170.792L105.067 170.814C104.73 171.14 104.383 171.477 104.035 171.814C104.013 171.837 103.99 171.859 103.968 171.881C103.923 171.926 103.889 171.971 103.833 172.016C103.811 172.039 103.788 172.061 103.777 172.084C103.306 172.567 102.835 173.073 102.375 173.578C102.308 173.646 102.252 173.724 102.184 173.792C102.139 173.848 102.095 173.893 102.05 173.938C101.646 174.387 101.253 174.848 100.872 175.309C100.861 175.32 100.85 175.342 100.838 175.354C100.838 175.354 100.827 175.376 100.816 175.387C99.9411 176.466 99.0998 177.59 98.3035 178.747C98.281 178.769 98.2698 178.803 98.2474 178.826C98.1689 178.938 98.0904 179.062 98.0118 179.185C98.0118 179.185 98.0006 179.185 98.0006 179.208C97.967 179.253 97.9333 179.298 97.9109 179.342C97.709 179.657 97.5071 179.972 97.3164 180.286C97.2828 180.343 97.2491 180.399 97.2155 180.455C97.2043 180.477 97.1818 180.5 97.1706 180.522C96.9126 180.949 96.6546 181.376 96.4079 181.815C96.3855 181.848 96.363 181.893 96.3406 181.927C96.1163 182.331 95.8919 182.736 95.6676 183.152C95.6676 183.174 95.6452 183.197 95.634 183.219C95.6115 183.253 95.6003 183.286 95.5891 183.309C95.3872 183.691 95.1853 184.073 95.0058 184.466C94.9834 184.523 94.9497 184.579 94.9273 184.635C94.9273 184.635 94.9273 184.657 94.9161 184.657C94.8152 184.86 94.7142 185.073 94.6245 185.275L94.5347 185.478C94.5347 185.478 94.4787 185.568 94.4674 185.612H94.4338Z" fill="#53A7BA"/>
</g>
<path d="M111.001 199.467C111.001 198.782 110.451 198.231 109.767 198.231C109.083 198.231 108.533 198.782 108.533 199.467C108.533 199.928 108.802 200.321 109.173 200.523H110.361C110.732 200.31 111.001 199.928 111.001 199.467Z" fill="#53A7BA"/>
<g style="mix-blend-mode:multiply" opacity="0.2">
<path d="M111.001 199.467C111.001 198.782 110.451 198.231 109.767 198.231C109.083 198.231 108.533 198.782 108.533 199.467C108.533 199.928 108.802 200.321 109.173 200.523H110.361C110.732 200.31 111.001 199.928 111.001 199.467Z" fill="#53A7BA"/>
</g>
<path d="M147.589 199.186C139.962 194.849 133.804 189.894 128.858 184.893L127.602 186.186L136.9 200.523H147.87L147.6 199.186H147.589Z" fill="#53A7BA"/>
<g style="mix-blend-mode:multiply">
<path d="M147.589 199.186C139.962 194.849 133.804 189.894 128.858 184.893L127.602 186.186L136.9 200.523H147.87L147.6 199.186H147.589Z" fill="#53A7BA"/>
</g>
<g style="mix-blend-mode:multiply" opacity="0.2">
<path d="M147.589 199.186C139.962 194.849 133.804 189.894 128.858 184.893L127.602 186.186L136.9 200.523H147.87L147.6 199.186H147.589Z" fill="#53A7BA"/>
</g>
<path d="M151.986 140.622C169.554 140.622 183.795 123.668 183.795 102.755C183.795 81.8413 169.554 64.8877 151.986 64.8877C134.418 64.8877 120.176 81.8413 120.176 102.755C120.176 123.668 134.418 140.622 151.986 140.622Z" fill="#1A1A1A"/>
<path d="M162.283 146.633C159.187 148.105 155.721 148.925 152.054 148.925C148.386 148.925 144.92 148.094 141.824 146.633L142.363 131.891H161.733L162.272 146.633H162.283Z" fill="#CEAAA3"/>
<path d="M154.567 75.8995H149.553C137.727 75.8995 128.141 85.5032 128.141 97.35V121.194C128.141 133.041 137.727 142.644 149.553 142.644H154.567C166.392 142.644 175.979 133.041 175.979 121.194V97.35C175.979 85.5032 166.392 75.8995 154.567 75.8995Z" fill="#EFC6BB"/>
<path d="M132.873 78.0906C132.873 78.0906 147.757 91.8552 162.35 91.2934C176.942 90.7316 176.584 109.283 176.584 109.283C176.584 109.283 182.024 100.137 180.745 89.2484C179.466 78.3602 153.388 53.3703 134.04 78.0906" fill="#1A1A1A"/>
<path d="M183.699 115.506C184.46 111.204 182.693 107.293 179.753 106.772C176.812 106.251 173.813 109.315 173.052 113.617C172.292 117.919 174.059 121.829 176.999 122.351C179.939 122.872 182.939 119.807 183.699 115.506Z" fill="#EFC6BB"/>
<path d="M125.527 122.377C128.476 121.913 130.319 118.038 129.642 113.722C128.965 109.406 126.025 106.284 123.075 106.748C120.126 107.213 118.283 111.088 118.96 115.404C119.637 119.719 122.577 122.842 125.527 122.377Z" fill="#EFC6BB"/>
<path d="M135.117 79.9784C135.117 79.9784 135.689 99.7546 127.882 109.272C126.2 95.2151 125.527 82.4279 135.117 79.9784Z" fill="#1A1A1A"/>
<path d="M146.121 126.464H157.988C157.988 126.464 156.092 131.891 151.347 131.891C146.603 131.891 146.109 126.464 146.109 126.464H146.121Z" fill="white"/>
<path d="M206.151 179.219C205.736 178.578 205.298 177.96 204.85 177.342C205.332 177.994 205.792 178.668 206.24 179.354C206.207 179.309 206.184 179.264 206.151 179.219Z" fill="white"/>
<path d="M206.645 179.983C207.071 180.657 207.486 181.331 207.878 182.028C207.486 181.331 207.071 180.657 206.645 179.983Z" fill="white"/>
<path d="M211.68 190.703C211.926 191.478 212.173 192.265 212.386 193.062C212.173 192.265 211.938 191.478 211.68 190.703Z" fill="white"/>
<path d="M213.239 196.703C213.171 196.343 213.093 195.995 213.025 195.635C213.104 196.051 213.194 196.467 213.273 196.883C213.261 196.826 213.25 196.759 213.239 196.703Z" fill="white"/>
<path d="M211.141 189.141C211.006 188.759 210.861 188.388 210.715 188.017C210.984 188.68 211.22 189.365 211.455 190.04C211.354 189.736 211.253 189.433 211.141 189.141Z" fill="white"/>
<path d="M213.744 199.737C213.71 199.433 213.666 199.141 213.609 198.838C213.621 198.894 213.632 198.961 213.632 199.018C213.688 199.254 213.722 199.489 213.744 199.737Z" fill="#53A7BA"/>
<path d="M211.455 190.04C211.534 190.264 211.612 190.478 211.68 190.714C211.601 190.489 211.522 190.264 211.455 190.04Z" fill="#53A7BA"/>
<path d="M210.716 188.017C210.548 187.59 210.379 187.174 210.199 186.759C210.21 186.781 210.21 186.792 210.222 186.815C210.39 187.208 210.559 187.613 210.716 188.017Z" fill="#53A7BA"/>
<path d="M206.24 179.354C206.375 179.556 206.51 179.77 206.645 179.983C206.51 179.77 206.375 179.556 206.24 179.354Z" fill="#53A7BA"/>
<path d="M204.85 177.342C204.704 177.151 204.558 176.949 204.4 176.747C204.457 176.826 204.513 176.904 204.569 176.972C204.67 177.095 204.76 177.219 204.85 177.342Z" fill="#53A7BA"/>
<path d="M212.812 194.714C212.778 194.579 212.745 194.444 212.711 194.321C212.812 194.703 212.902 195.085 212.981 195.467C212.924 195.22 212.868 194.961 212.812 194.714Z" fill="#53A7BA"/>
<path fill-rule="evenodd" clip-rule="evenodd" d="M266.998 141.116C249.815 145.948 222.66 137.779 209.155 119.441C203.244 111.418 200.126 101.653 199.06 91.7991C195.202 56.0558 225.991 30.7962 259.708 31.1333C296.161 31.5041 311.045 57.4042 312.29 90.4619C313.423 120.654 284.193 136.284 266.998 141.116Z" fill="#EDAD2D"/>
<path d="M277.486 72.0117C276.869 79.5513 273.392 84.8213 267.032 87.8439C262.254 90.0799 259.562 92.507 258.956 95.1363C258.81 95.8218 258.676 96.5184 258.564 97.2038C258.295 97.8219 257.734 98.0915 256.859 98.0241C253.808 97.7769 251.598 97.7769 250.241 98.0241C249.961 98.0915 249.748 98.1252 249.591 98.114C248.503 98.0241 248.076 96.4959 248.323 93.5295C248.536 90.9564 250.275 87.8888 253.561 84.3381C256.848 80.7874 258.597 77.7198 258.799 75.1466C259.113 71.2363 257.206 69.1239 253.068 68.7868C250.443 68.5733 246.943 69.3261 242.569 71.0341C240.651 71.978 236.535 69.8543 237.881 62.2359C238.587 58.2245 240.573 57.3144 240.707 56.8986C243.421 54.6176 245.093 54.0445 249.804 53.3029C253.225 52.7636 256.489 52.6175 259.607 52.8647C265.08 53.3142 269.489 55.2131 272.831 58.5616C276.375 62.1123 277.923 66.5957 277.486 72.0117ZM262.03 110.058C261.839 112.384 260.863 114.339 259.113 115.901C257.364 117.463 255.322 118.149 252.989 117.958C250.656 117.767 248.761 116.755 247.28 114.935C245.799 113.103 245.16 111.025 245.351 108.699C245.541 106.373 246.506 104.44 248.256 102.923C250.006 101.406 252.047 100.743 254.369 100.934C256.691 101.125 258.597 102.114 260.078 103.89C261.558 105.676 262.209 107.732 262.018 110.058H262.03Z" fill="white"/>
</g>
</g>
<defs>
<clipPath id="clip0_737_23653">
<path d="M0 12C0 5.37257 5.37258 0 12 0H388C394.627 0 400 5.37258 400 12V188.285C400 194.913 394.627 200.285 388 200.285H12C5.37257 200.285 0 194.913 0 188.285V12Z" fill="white"/>
</clipPath>
<clipPath id="clip1_737_23653">
<rect width="224" height="170" fill="white" transform="translate(88 30)"/>
</clipPath>
</defs>
</svg>
