<svg width="400" height="201" viewBox="0 0 400 201" fill="none" xmlns="http://www.w3.org/2000/svg">
<g clip-path="url(#clip0_737_23389)">
<path d="M400 0H0V200H400V0Z" fill="#DDF0FF"/>
<path d="M84 21H11V200H84V21Z" fill="#F4FAFF"/>
<path d="M161 21H87V200H161V21Z" fill="#F4FAFF"/>
<path d="M237 21H164V200H237V21Z" fill="#F4FAFF"/>
<path d="M313 21H240V200H313V21Z" fill="#F4FAFF"/>
<path d="M389 21H316V200H389V21Z" fill="#F4FAFF"/>
<path d="M85.2617 200.28V72.3753H108.204V104.115H123.883V69.5198H130.765V58.5477H133.056L134.394 37.8783L136.5 58.7438H138.126V69.7159H144.72V200.28H85.2617Z" fill="#DDF0FF"/>
<path d="M390 93.4717V200.28H388.304H388.293H387.63H351.869V127.871H366.724V93.2755H374.408V82.3034H376.975L378.469 61.634L380.822 82.4995H382.634V93.4717H390Z" fill="#DDF0FF"/>
<path d="M351.784 200.28V114.568L346.292 112.41V97.3078L322.952 88.2451V112.41L306.471 113.703V200.28H351.784Z" fill="#DDF0FF"/>
<path d="M229.129 200.28V113.789H242.259V91.291L255.977 78.3518V100.85H264.33V80.6016H274.477V73.2926H301.325V80.6016H307.884V200.28H229.129Z" fill="#DDF0FF"/>
<path d="M85.262 83.5436V200.28H10.9492V116.725H23.3347V94.2273L36.2855 81.2938V103.792H44.1656V83.5436H53.7359V76.2289H79.0664V83.5436H85.262Z" fill="#DDF0FF"/>
<path d="M177.579 87.5298H144.178V200.28H177.579V87.5298Z" fill="#DDF0FF"/>
<path d="M177.578 82.3724H151.953V92.6927H177.578V82.3724Z" fill="#DDF0FF"/>
<path d="M177.578 73.9847H166.635V85.8049H177.578V73.9847Z" fill="#DDF0FF"/>
<path d="M230.398 102.004H210.484V200.285H230.398V102.004Z" fill="#DDF0FF"/>
<path d="M212.1 95.6233H176.576V200.285H212.1V95.6233Z" fill="#DDF0FF"/>
<path d="M217.966 90.5179H198.053V200.285H217.966V90.5179Z" fill="#DDF0FF"/>
<path d="M213.702 82.3667H202.314V99.3152H213.702V82.3667Z" fill="#DDF0FF"/>
<path d="M190.623 84.0801H185.01V106.215H190.623V84.0801Z" fill="#DDF0FF"/>
<g opacity="0.33">
<path opacity="0.33" d="M84.6844 21H11.2656V200.006H84.6844V21Z" fill="white"/>
</g>
<g opacity="0.33">
<path opacity="0.33" d="M160.716 21H87.2969V200.006H160.716V21Z" fill="white"/>
</g>
<g opacity="0.33">
<path opacity="0.33" d="M236.749 21H163.33V200.006H236.749V21Z" fill="white"/>
</g>
<g opacity="0.33">
<path opacity="0.33" d="M312.782 21H239.363V200.006H312.782V21Z" fill="white"/>
</g>
<g opacity="0.33">
<path opacity="0.33" d="M389.034 21H315.615V200.006H389.034V21Z" fill="white"/>
</g>
<g opacity="0.17">
<path opacity="0.17" d="M61.5513 21L11.2656 59.9234V50.4318L49.2865 21H61.5513Z" fill="#DDF0FF"/>
<path opacity="0.17" d="M11.2656 106.303L84.6844 49.4657V65.7427L11.2656 122.58V106.303Z" fill="#DDF0FF"/>
<path opacity="0.17" d="M142.486 21L87.2988 63.7209V47.4439L121.457 21H142.486Z" fill="#DDF0FF"/>
<path opacity="0.17" d="M11.2656 168.955L84.6844 112.118V121.614L11.2656 178.451V168.955Z" fill="#DDF0FF"/>
<path opacity="0.17" d="M87.2988 110.101L160.718 53.2632V62.7592L87.2988 119.597V110.101Z" fill="#DDF0FF"/>
<path opacity="0.17" d="M214.664 21L163.336 60.7374V51.2414L202.395 21H214.664Z" fill="#DDF0FF"/>
<path opacity="0.17" d="M43.3242 200.006L84.6846 167.994V184.271L64.3535 200.006H43.3242Z" fill="#DDF0FF"/>
<path opacity="0.17" d="M87.2988 165.972L160.718 109.135V125.411L87.2988 182.244V165.972Z" fill="#DDF0FF"/>
<path opacity="0.17" d="M163.336 107.108L236.75 50.2797V66.5566L163.336 123.385V107.108Z" fill="#DDF0FF"/>
<path opacity="0.17" d="M295.597 21L239.367 64.5305V48.2535L274.572 21H295.597Z" fill="#DDF0FF"/>
<path opacity="0.17" d="M163.336 169.765L236.75 112.932V122.428L163.336 179.261V169.765Z" fill="#DDF0FF"/>
<path opacity="0.17" d="M312.786 54.0728V63.5688L239.367 120.402V110.906L312.786 54.0728Z" fill="#DDF0FF"/>
<path opacity="0.17" d="M196.441 200.006L236.75 168.808V185.085L217.471 200.006H196.441Z" fill="#DDF0FF"/>
<path opacity="0.17" d="M312.786 109.949V126.226L239.367 183.059V166.782L312.786 109.949Z" fill="#DDF0FF"/>
<path opacity="0.17" d="M312.787 172.601V182.097L289.64 200.006H277.375L312.787 172.601Z" fill="#DDF0FF"/>
</g>
<path opacity="0.61" d="M83 56H123C123 56 116.236 54.4845 115.029 54.0061C113.822 53.5278 113.401 52.4398 112.144 52.3975C110.887 52.3551 110.49 53.5024 109.26 53.7479C108.03 53.9934 105.141 53.8918 104.105 53.5532C103.07 53.2187 102.925 52.1223 101.836 52.008C100.746 51.8937 100.167 53.0367 98.9512 53.1679C97.7349 53.2992 96.166 52.2662 94.3485 52.3975C92.5309 52.5287 83.009 56 83.009 56H83Z" fill="#DDF0FF"/>
<path opacity="0.61" d="M181 78H221C221 78 214.236 76.1612 213.029 75.5808C211.822 75.0004 211.704 74.4354 210.443 74.384C209.181 74.3326 208.485 74.9644 207.255 75.2675C206.563 75.437 205.808 72.0726 204.696 72.0007C203.824 71.9442 202.553 75.211 202.101 75.0312C201.066 74.6254 200.776 74.1323 199.687 73.9936C198.597 73.855 198.163 74.4045 196.947 74.5638C195.73 74.723 194.162 73.4697 192.344 73.629C190.526 73.7882 181.005 78 181.005 78H181Z" fill="#DDF0FF"/>
<path opacity="0.61" d="M35.9953 66.9947H11V63.4495C12.2425 63.259 12.8449 61.8674 13.9603 62.0103C15.0945 62.1531 15.2451 63.5183 16.3229 63.9416C17.4006 64.3596 20.4079 64.4919 21.6881 64.185C22.9682 63.8728 23.3823 62.4389 24.6954 62.4918C26.0085 62.5447 26.4415 63.9046 27.7027 64.5025C28.9593 65.1004 36 67 36 67L35.9953 66.9947Z" fill="#DDF0FF"/>
<path opacity="0.61" d="M239 61.6977L296 62C296 62 284.359 57.5245 282.804 57.5691C281.248 57.6137 278.189 58.5852 276.629 58.6298C275.074 58.6744 274.59 57.4948 273.84 57.4204C273.09 57.3461 272.261 57.3312 271.512 57.3461C270.762 57.361 270.683 56.8505 269.891 57.0438C269.1 57.2371 268.788 58.3274 267.498 58.6298C266.208 58.9321 265.039 57.4155 263.684 57.5691C262.329 57.7178 261.593 58.3621 260.327 58.6298C259.06 58.8974 258.697 58.149 257.407 58.0945C256.117 58.04 254.334 58.6496 252.481 58.6298C250.627 58.605 249.407 58.5455 247.009 58.3225C244.765 58.1094 239.005 61.7026 239.005 61.7026L239 61.6977Z" fill="#DDF0FF"/>
<path opacity="0.61" d="M324 71.7581L366 72C366 72 357.422 68.4196 356.276 68.4553C355.13 68.491 352.876 69.2681 351.727 69.3038C350.581 69.3395 350.224 68.3958 349.671 68.3363C349.119 68.2769 348.508 68.265 347.956 68.2769C347.403 68.2888 347.345 67.8804 346.762 68.035C346.179 68.1896 345.949 69.0619 344.998 69.3038C344.048 69.5457 343.187 68.3324 342.188 68.4553C341.19 68.5742 340.648 69.0897 339.714 69.3038C338.781 69.5179 338.514 68.9192 337.563 68.8756C336.613 68.832 335.299 69.3197 333.933 69.3038C332.567 69.284 331.668 69.2364 329.901 69.058C328.248 68.8875 324.003 71.7621 324.003 71.7621L324 71.7581Z" fill="#DDF0FF"/>
</g>
<defs>
<clipPath id="clip0_737_23389">
<path d="M0 12C0 5.37257 5.37258 0 12 0H388C394.627 0 400 5.37258 400 12V188.285C400 194.913 394.627 200.285 388 200.285H12C5.37257 200.285 0 194.913 0 188.285V12Z" fill="white"/>
</clipPath>
</defs>
</svg>
