<svg width="400" height="201" viewBox="0 0 400 201" fill="none" xmlns="http://www.w3.org/2000/svg">
<g clip-path="url(#clip0_737_24037)">
<path d="M400 0H0V200H400V0Z" fill="#DDF0FF"/>
<path d="M84 21H11V200H84V21Z" fill="#F4FAFF"/>
<path d="M161 21H87V200H161V21Z" fill="#F4FAFF"/>
<path d="M237 21H164V200H237V21Z" fill="#F4FAFF"/>
<path d="M313 21H240V200H313V21Z" fill="#F4FAFF"/>
<path d="M389 21H316V200H389V21Z" fill="#F4FAFF"/>
<path d="M85.2617 200.28V72.3753H108.204V104.115H123.883V69.5198H130.765V58.5477H133.056L134.394 37.8783L136.5 58.7438H138.126V69.7159H144.72V200.28H85.2617Z" fill="#DDF0FF"/>
<path d="M390 93.4717V200.28H388.304H388.293H387.63H351.869V127.871H366.724V93.2755H374.408V82.3034H376.975L378.469 61.634L380.822 82.4995H382.634V93.4717H390Z" fill="#DDF0FF"/>
<path d="M351.784 200.28V114.568L346.292 112.41V97.3078L322.952 88.2451V112.41L306.471 113.703V200.28H351.784Z" fill="#DDF0FF"/>
<path d="M229.129 200.28V113.789H242.259V91.291L255.977 78.3518V100.85H264.33V80.6016H274.477V73.2926H301.325V80.6016H307.884V200.28H229.129Z" fill="#DDF0FF"/>
<path d="M85.262 83.5436V200.28H10.9492V116.725H23.3347V94.2273L36.2855 81.2938V103.792H44.1656V83.5436H53.7359V76.2289H79.0664V83.5436H85.262Z" fill="#DDF0FF"/>
<path d="M177.579 87.5298H144.178V200.28H177.579V87.5298Z" fill="#DDF0FF"/>
<path d="M177.578 82.3724H151.953V92.6927H177.578V82.3724Z" fill="#DDF0FF"/>
<path d="M177.578 73.9847H166.635V85.8049H177.578V73.9847Z" fill="#DDF0FF"/>
<path d="M230.398 102.004H210.484V200.285H230.398V102.004Z" fill="#DDF0FF"/>
<path d="M212.1 95.6233H176.576V200.285H212.1V95.6233Z" fill="#DDF0FF"/>
<path d="M217.966 90.5179H198.053V200.285H217.966V90.5179Z" fill="#DDF0FF"/>
<path d="M213.702 82.3667H202.314V99.3152H213.702V82.3667Z" fill="#DDF0FF"/>
<path d="M190.623 84.0801H185.01V106.215H190.623V84.0801Z" fill="#DDF0FF"/>
<g opacity="0.33">
<path opacity="0.33" d="M84.6844 21H11.2656V200.006H84.6844V21Z" fill="white"/>
</g>
<g opacity="0.33">
<path opacity="0.33" d="M160.716 21H87.2969V200.006H160.716V21Z" fill="white"/>
</g>
<g opacity="0.33">
<path opacity="0.33" d="M236.749 21H163.33V200.006H236.749V21Z" fill="white"/>
</g>
<g opacity="0.33">
<path opacity="0.33" d="M312.782 21H239.363V200.006H312.782V21Z" fill="white"/>
</g>
<g opacity="0.33">
<path opacity="0.33" d="M389.034 21H315.615V200.006H389.034V21Z" fill="white"/>
</g>
<g opacity="0.17">
<path opacity="0.17" d="M61.5513 21L11.2656 59.9234V50.4318L49.2865 21H61.5513Z" fill="#DDF0FF"/>
<path opacity="0.17" d="M11.2656 106.303L84.6844 49.4657V65.7427L11.2656 122.58V106.303Z" fill="#DDF0FF"/>
<path opacity="0.17" d="M142.486 21L87.2988 63.7209V47.4439L121.457 21H142.486Z" fill="#DDF0FF"/>
<path opacity="0.17" d="M11.2656 168.955L84.6844 112.118V121.614L11.2656 178.451V168.955Z" fill="#DDF0FF"/>
<path opacity="0.17" d="M87.2988 110.101L160.718 53.2632V62.7592L87.2988 119.597V110.101Z" fill="#DDF0FF"/>
<path opacity="0.17" d="M214.664 21L163.336 60.7374V51.2414L202.395 21H214.664Z" fill="#DDF0FF"/>
<path opacity="0.17" d="M43.3242 200.006L84.6846 167.994V184.271L64.3535 200.006H43.3242Z" fill="#DDF0FF"/>
<path opacity="0.17" d="M87.2988 165.972L160.718 109.135V125.411L87.2988 182.244V165.972Z" fill="#DDF0FF"/>
<path opacity="0.17" d="M163.336 107.108L236.75 50.2797V66.5566L163.336 123.385V107.108Z" fill="#DDF0FF"/>
<path opacity="0.17" d="M295.597 21L239.367 64.5305V48.2535L274.572 21H295.597Z" fill="#DDF0FF"/>
<path opacity="0.17" d="M163.336 169.765L236.75 112.932V122.428L163.336 179.261V169.765Z" fill="#DDF0FF"/>
<path opacity="0.17" d="M312.786 54.0728V63.5688L239.367 120.402V110.906L312.786 54.0728Z" fill="#DDF0FF"/>
<path opacity="0.17" d="M196.441 200.006L236.75 168.808V185.085L217.471 200.006H196.441Z" fill="#DDF0FF"/>
<path opacity="0.17" d="M312.786 109.949V126.226L239.367 183.059V166.782L312.786 109.949Z" fill="#DDF0FF"/>
<path opacity="0.17" d="M312.787 172.601V182.097L289.64 200.006H277.375L312.787 172.601Z" fill="#DDF0FF"/>
</g>
<path opacity="0.61" d="M83 56H123C123 56 116.236 54.4845 115.029 54.0061C113.822 53.5278 113.401 52.4398 112.144 52.3975C110.887 52.3551 110.49 53.5024 109.26 53.7479C108.03 53.9934 105.141 53.8918 104.105 53.5532C103.07 53.2187 102.925 52.1223 101.836 52.008C100.746 51.8937 100.167 53.0367 98.9512 53.1679C97.7349 53.2992 96.166 52.2662 94.3485 52.3975C92.5309 52.5287 83.009 56 83.009 56H83Z" fill="#DDF0FF"/>
<path opacity="0.61" d="M181 78H221C221 78 214.236 76.1612 213.029 75.5808C211.822 75.0004 211.704 74.4354 210.443 74.384C209.181 74.3326 208.485 74.9644 207.255 75.2675C206.563 75.437 205.808 72.0726 204.696 72.0007C203.824 71.9442 202.553 75.211 202.101 75.0312C201.066 74.6254 200.776 74.1323 199.687 73.9936C198.597 73.855 198.163 74.4045 196.947 74.5638C195.73 74.723 194.162 73.4697 192.344 73.629C190.526 73.7882 181.005 78 181.005 78H181Z" fill="#DDF0FF"/>
<path opacity="0.61" d="M35.9953 66.9947H11V63.4495C12.2425 63.259 12.8449 61.8674 13.9603 62.0103C15.0945 62.1531 15.2451 63.5183 16.3229 63.9416C17.4006 64.3596 20.4079 64.4919 21.6881 64.185C22.9682 63.8728 23.3823 62.4389 24.6954 62.4918C26.0085 62.5447 26.4415 63.9046 27.7027 64.5025C28.9593 65.1004 36 67 36 67L35.9953 66.9947Z" fill="#DDF0FF"/>
<path opacity="0.61" d="M239 61.6977L296 62C296 62 284.359 57.5245 282.804 57.5691C281.248 57.6137 278.189 58.5852 276.629 58.6298C275.074 58.6744 274.59 57.4948 273.84 57.4204C273.09 57.3461 272.261 57.3312 271.512 57.3461C270.762 57.361 270.683 56.8505 269.891 57.0438C269.1 57.2371 268.788 58.3274 267.498 58.6298C266.208 58.9321 265.039 57.4155 263.684 57.5691C262.329 57.7178 261.593 58.3621 260.327 58.6298C259.06 58.8974 258.697 58.149 257.407 58.0945C256.117 58.04 254.334 58.6496 252.481 58.6298C250.627 58.605 249.407 58.5455 247.009 58.3225C244.765 58.1094 239.005 61.7026 239.005 61.7026L239 61.6977Z" fill="#DDF0FF"/>
<path opacity="0.61" d="M324 71.7581L366 72C366 72 357.422 68.4196 356.276 68.4553C355.13 68.491 352.876 69.2681 351.727 69.3038C350.581 69.3395 350.224 68.3958 349.671 68.3363C349.119 68.2769 348.508 68.265 347.956 68.2769C347.403 68.2888 347.345 67.8804 346.762 68.035C346.179 68.1896 345.949 69.0619 344.998 69.3038C344.048 69.5457 343.187 68.3324 342.188 68.4553C341.19 68.5742 340.648 69.0897 339.714 69.3038C338.781 69.5179 338.514 68.9192 337.563 68.8756C336.613 68.832 335.299 69.3197 333.933 69.3038C332.567 69.284 331.668 69.2364 329.901 69.058C328.248 68.8875 324.003 71.7621 324.003 71.7621L324 71.7581Z" fill="#DDF0FF"/>
<g clip-path="url(#clip1_737_24037)">
<path d="M161.4 154.799C161.4 154.799 161.299 154.788 161.254 154.776L160.951 146.472L160.413 131.74H141.041L140.502 146.472L140.199 154.653C144.17 157.945 151.372 161.159 161.4 154.799Z" fill="#EFC6BB"/>
<path d="M205.316 179.835C205.743 180.51 206.158 181.184 206.55 181.881C206.158 181.184 205.743 180.51 205.316 179.835Z" fill="white"/>
<path d="M204.823 179.06C204.408 178.42 203.97 177.802 203.521 177.183C204.004 177.835 204.464 178.509 204.912 179.195C204.879 179.15 204.856 179.105 204.823 179.06Z" fill="white"/>
<path d="M105.358 169.171C105.213 169.284 105.078 169.407 104.943 169.531C105.213 169.284 105.482 169.048 105.762 168.823C105.628 168.935 105.493 169.048 105.358 169.171Z" fill="white"/>
<path d="M193.314 166.924C193.168 166.8 193.011 166.699 192.865 166.587C193.247 166.856 193.617 167.137 193.976 167.43C193.763 167.25 193.538 167.081 193.314 166.924Z" fill="white"/>
<path d="M196.094 169.171C195.982 169.07 195.87 168.969 195.758 168.879C196.049 169.115 196.33 169.362 196.599 169.621C196.431 169.463 196.263 169.306 196.094 169.171Z" fill="white"/>
<path d="M210.352 190.556C210.598 191.331 210.845 192.118 211.058 192.916C210.845 192.118 210.61 191.331 210.352 190.556Z" fill="white"/>
<path d="M148.827 200.444H155.366L164.553 155.26C164.553 155.26 164.497 155.26 164.463 155.248C164.217 155.203 163.981 155.17 163.734 155.136C163.117 155.035 162.5 154.945 161.872 154.878C161.715 154.844 161.558 154.833 161.401 154.81C151.373 161.17 144.172 157.957 140.201 154.664V154.788C139.292 154.9 138.383 155.024 137.475 155.17C137.464 155.158 137.441 155.158 137.43 155.17C137.385 155.181 137.352 155.181 137.307 155.192L146.258 199.04C147.099 199.512 147.952 199.984 148.827 200.444Z" fill="white"/>
<path d="M91.6525 188.983C91.5738 189.196 91.4952 189.41 91.4277 189.623C91.5851 189.162 91.7649 188.702 91.9334 188.241C91.8323 188.488 91.7424 188.735 91.6525 188.983Z" fill="white"/>
<path d="M209.813 188.983C209.678 188.601 209.533 188.23 209.387 187.859C209.656 188.522 209.891 189.207 210.127 189.882C210.026 189.578 209.925 189.275 209.813 188.983Z" fill="white"/>
<path d="M96.5997 179.116C96.5211 179.229 96.4537 179.341 96.375 179.442C96.4312 179.363 96.4874 179.274 96.5436 179.195C96.566 179.172 96.5773 179.139 96.5997 179.116Z" fill="#53A7BA"/>
<path d="M98.5393 176.386C98.4045 176.565 98.2696 176.745 98.1348 176.914C98.1572 176.88 98.191 176.846 98.2134 176.813C98.3258 176.678 98.4269 176.532 98.5393 176.386Z" fill="#53A7BA"/>
<path d="M108.152 166.924C108.152 166.924 108.186 166.89 108.208 166.879C107.916 167.092 107.636 167.306 107.355 167.542C107.613 167.328 107.883 167.137 108.152 166.924Z" fill="#53A7BA"/>
<path d="M94.2775 183.06C94.2775 183.06 94.3 183.016 94.3112 183.004C94.3786 182.858 94.4573 182.712 94.536 182.555C94.4236 182.746 94.3225 182.937 94.2213 183.128C94.1427 183.274 94.064 183.42 94.0078 183.566C94.0865 183.431 94.1539 183.285 94.2326 183.15C94.2438 183.117 94.2663 183.094 94.2775 183.06Z" fill="#53A7BA"/>
<path d="M103.745 170.632L103.767 170.61C103.879 170.486 104.014 170.362 104.137 170.25C103.936 170.43 103.745 170.61 103.543 170.801C103.599 170.767 103.666 170.7 103.722 170.655L103.745 170.632Z" fill="#53A7BA"/>
<path d="M107.232 167.643C106.817 167.969 106.39 168.306 105.975 168.654C105.897 168.722 105.83 168.778 105.762 168.834C105.482 169.059 105.213 169.295 104.943 169.542C104.663 169.778 104.394 170.025 104.136 170.261C104.012 170.374 103.878 170.497 103.766 170.621C104.876 169.587 106.031 168.587 107.232 167.643Z" fill="#53A7BA"/>
<path d="M103.542 170.812L103.34 171.003C103.116 171.205 102.903 171.43 102.689 171.655C103.037 171.318 103.385 170.981 103.721 170.655C103.665 170.711 103.598 170.767 103.542 170.812Z" fill="#53A7BA"/>
<path d="M99.3477 175.363C99.0673 175.7 98.7981 176.037 98.5401 176.386C98.4279 176.532 98.327 176.678 98.2148 176.813C98.1924 176.846 98.1587 176.88 98.1363 176.914C97.8895 177.24 97.6427 177.588 97.4072 177.925C97.2613 178.15 97.0931 178.375 96.9473 178.599C97.7437 177.431 98.585 176.307 99.4599 175.228C99.415 175.273 99.3814 175.307 99.3477 175.352V175.363Z" fill="#53A7BA"/>
<path d="M93.5031 184.578L93.2559 185.128C93.3458 184.915 93.4357 184.712 93.548 184.499C93.5368 184.521 93.5143 184.544 93.5031 184.578Z" fill="#53A7BA"/>
<path d="M94.0069 183.566C93.8723 183.813 93.7601 184.061 93.6367 184.319C93.8274 183.926 94.0293 183.532 94.2312 183.15C94.1527 183.285 94.0854 183.431 94.0069 183.566Z" fill="#53A7BA"/>
<path d="M96.3847 179.442C96.2277 179.667 96.0819 179.914 95.9473 180.15C96.1492 179.835 96.3511 179.51 96.553 179.195C96.4969 179.274 96.4408 179.364 96.3847 179.442Z" fill="#53A7BA"/>
<path d="M107.357 167.542C109.006 166.25 110.745 165.059 112.562 163.957C115.411 169.7 120.122 177.273 127.525 184.757L134.514 177.532H121.805L136.241 155.372C135.792 155.451 135.333 155.518 134.895 155.597C134.828 155.597 134.761 155.608 134.704 155.631C133.841 155.799 132.977 155.979 132.124 156.17C131.384 156.338 130.644 156.518 129.903 156.709C129.522 156.799 129.152 156.9 128.782 157.013C128.266 157.148 127.761 157.294 127.256 157.451C127.088 157.496 126.92 157.552 126.751 157.608C126 157.833 125.248 158.08 124.519 158.339C124.373 158.384 124.228 158.429 124.082 158.485C123.88 158.552 123.678 158.631 123.465 158.71C123.117 158.833 122.781 158.968 122.433 159.103C122.186 159.181 121.939 159.283 121.692 159.395C121.076 159.631 120.47 159.878 119.875 160.148C119.236 160.418 118.597 160.71 117.968 161.013C117.396 161.283 116.835 161.564 116.275 161.856C115.534 162.216 114.816 162.609 114.098 163.025C113.616 163.294 113.145 163.575 112.674 163.856C112.304 164.07 111.934 164.306 111.575 164.542C111.305 164.71 111.036 164.89 110.767 165.059C110.285 165.384 109.802 165.71 109.331 166.047C108.95 166.317 108.568 166.598 108.198 166.879C108.176 166.89 108.165 166.913 108.142 166.924C107.873 167.126 107.604 167.328 107.346 167.531L107.357 167.542Z" fill="#53A7BA"/>
<path d="M94.9836 181.78C94.8265 182.038 94.6919 182.296 94.5349 182.566C94.4564 182.712 94.3779 182.858 94.3105 183.016C94.5237 182.6 94.7592 182.195 94.9836 181.791V181.78Z" fill="#53A7BA"/>
<path d="M100.121 174.43C100.121 174.43 100.02 174.543 99.9755 174.599C99.8185 174.779 99.6614 174.97 99.5156 175.161C99.897 174.689 100.301 174.239 100.705 173.779C100.503 173.992 100.301 174.194 100.121 174.43Z" fill="#53A7BA"/>
<path d="M101.702 172.666C101.702 172.666 101.613 172.756 101.579 172.801C101.399 172.992 101.231 173.194 101.052 173.385C101.052 173.385 101.029 173.408 101.029 173.419C101.489 172.913 101.96 172.408 102.431 171.913C102.185 172.149 101.938 172.408 101.702 172.666Z" fill="#53A7BA"/>
<path d="M209.388 187.859C209.219 187.432 209.051 187.016 208.871 186.6C208.871 186.623 208.871 186.634 208.894 186.656C209.062 187.05 209.231 187.454 209.388 187.859Z" fill="#53A7BA"/>
<path d="M203.522 177.183C203.376 176.992 203.23 176.79 203.072 176.588C203.128 176.667 203.185 176.745 203.241 176.813C203.342 176.936 203.432 177.06 203.522 177.183Z" fill="#53A7BA"/>
<path d="M210.117 189.893C210.196 190.118 210.275 190.331 210.342 190.567C210.263 190.342 210.185 190.118 210.117 189.893Z" fill="#53A7BA"/>
<path d="M204.912 179.195C205.047 179.397 205.182 179.611 205.317 179.824C205.182 179.611 205.047 179.397 204.912 179.195Z" fill="#53A7BA"/>
<path d="M167.356 177.532L175.601 186.05L166.504 200.445H212.528C212.494 200.152 212.461 199.871 212.416 199.579C212.393 199.332 212.36 199.096 212.304 198.86C212.304 198.804 212.292 198.736 212.281 198.68C212.203 198.118 212.102 197.568 212.001 197.017C211.978 196.916 211.967 196.826 211.945 196.725C211.866 196.309 211.776 195.893 211.698 195.478C211.687 195.421 211.664 195.365 211.653 195.309C211.575 194.927 211.485 194.545 211.384 194.163C211.283 193.747 211.171 193.331 211.059 192.916C210.845 192.118 210.61 191.331 210.352 190.556C210.273 190.331 210.195 190.106 210.128 189.882C209.892 189.196 209.656 188.522 209.387 187.859C209.23 187.454 209.062 187.05 208.894 186.656C208.882 186.634 208.882 186.623 208.871 186.6C208.692 186.173 208.512 185.769 208.31 185.353C208.131 184.937 207.929 184.533 207.727 184.128C207.57 183.791 207.402 183.454 207.234 183.128C207.009 182.701 206.785 182.285 206.549 181.869C206.157 181.173 205.742 180.498 205.315 179.824C205.181 179.611 205.046 179.397 204.912 179.195C204.463 178.509 204.003 177.835 203.521 177.183C203.431 177.06 203.341 176.936 203.24 176.813C203.184 176.745 203.128 176.667 203.072 176.588C202.018 175.194 200.885 173.868 199.684 172.599C199.494 172.385 199.292 172.172 199.079 171.969C198.282 171.16 197.452 170.374 196.6 169.621C196.33 169.362 196.05 169.115 195.758 168.879C195.545 168.699 195.332 168.52 195.119 168.351C194.895 168.149 194.659 167.969 194.423 167.778C194.278 167.666 194.132 167.542 193.975 167.43C193.616 167.137 193.246 166.856 192.864 166.587C192.662 166.429 192.449 166.272 192.236 166.126C191.787 165.8 191.328 165.486 190.868 165.182C190.643 165.025 190.408 164.879 190.172 164.733C189.679 164.407 189.174 164.092 188.669 163.8C188.063 163.429 187.446 163.07 186.829 162.732C186.482 162.541 186.134 162.35 185.786 162.171C185.349 161.935 184.9 161.71 184.451 161.485C184.418 161.474 184.384 161.451 184.35 161.44C183.98 161.249 183.61 161.069 183.229 160.901C182.915 160.743 182.601 160.597 182.286 160.462C181.838 160.26 181.389 160.069 180.94 159.878C180.716 159.777 180.481 159.687 180.256 159.597C179.785 159.406 179.303 159.215 178.82 159.035C178.585 158.934 178.338 158.856 178.102 158.766C177.62 158.586 177.138 158.417 176.644 158.249C176.005 158.024 175.354 157.822 174.704 157.619C174.132 157.44 173.571 157.271 172.987 157.114C172.382 156.934 171.754 156.765 171.137 156.608C170.508 156.451 169.869 156.293 169.23 156.147C168.467 155.979 167.693 155.81 166.919 155.675C166.683 155.619 166.437 155.574 166.201 155.541C166.022 155.507 165.842 155.484 165.674 155.451L180.065 177.532H167.356Z" fill="#53A7BA"/>
<g style="mix-blend-mode:multiply">
<path d="M136.252 155.372C136.611 155.316 136.959 155.248 137.306 155.192C136.959 155.237 136.6 155.316 136.252 155.372Z" fill="#53A7BA"/>
</g>
<path d="M134.512 177.532L127.524 184.757C132.471 189.758 138.629 194.714 146.257 199.051L137.305 155.203C136.958 155.248 136.599 155.327 136.251 155.383L121.814 177.543H134.524L134.512 177.532Z" fill="#53A7BA"/>
<g style="mix-blend-mode:multiply">
<path d="M134.512 177.532L127.524 184.757C132.471 189.758 138.629 194.714 146.257 199.051L137.305 155.203C136.958 155.248 136.599 155.327 136.251 155.383L121.814 177.543H134.524L134.512 177.532Z" fill="#53A7BA"/>
</g>
<g style="mix-blend-mode:multiply">
<path d="M165.674 155.451L165.629 155.372C165.27 155.316 164.922 155.248 164.574 155.192V155.248C164.574 155.248 164.597 155.248 164.608 155.248C164.967 155.305 165.326 155.372 165.685 155.439L165.674 155.451Z" fill="#53A7BA"/>
</g>
<path d="M155.376 200.445L164.597 155.26C164.597 155.26 164.563 155.26 164.552 155.26L155.365 200.445H155.376Z" fill="white"/>
<g style="mix-blend-mode:multiply">
<path d="M155.376 200.445L164.597 155.26C164.597 155.26 164.563 155.26 164.552 155.26L155.365 200.445H155.376Z" fill="#53A7BA"/>
</g>
<path d="M155.377 200.445H166.504L175.602 186.05L167.357 177.532H180.066L165.674 155.451C165.315 155.383 164.956 155.316 164.597 155.26L155.377 200.445Z" fill="#53A7BA"/>
<g style="mix-blend-mode:multiply">
<path d="M155.377 200.445H166.504L175.602 186.05L167.357 177.532H180.066L165.674 155.451C165.315 155.383 164.956 155.316 164.597 155.26L155.377 200.445Z" fill="#53A7BA"/>
</g>
<g style="mix-blend-mode:multiply" opacity="0.2">
<path d="M92.5374 186.735C92.5374 186.735 92.5598 186.679 92.571 186.656C92.7393 186.252 92.9188 185.859 93.0982 185.454C93.1094 185.409 93.1319 185.364 93.1655 185.319L93.2553 185.128C93.2328 185.196 93.1992 185.252 93.1655 185.319C93.1319 185.364 93.1094 185.409 93.0982 185.454C92.9075 185.881 92.7168 186.308 92.5374 186.735C92.3579 187.162 92.1784 187.6 92.0102 188.039C91.9877 188.106 91.9653 188.173 91.9316 188.241C91.9541 188.173 91.9877 188.106 92.0102 188.039C92.1784 187.6 92.3579 187.162 92.5374 186.735Z" fill="#53A7BA"/>
</g>
<g style="mix-blend-mode:multiply" opacity="0.2">
<path d="M89.162 198.804C89.1957 198.545 89.2405 198.276 89.2854 198.017C89.3527 197.579 89.4312 197.152 89.521 196.725C89.521 196.658 89.5434 196.59 89.5546 196.534C89.5546 196.489 89.5658 196.444 89.577 196.41C89.6107 196.264 89.6331 196.129 89.6668 195.983C89.7902 195.365 89.9248 194.758 90.0818 194.163C90.1828 193.747 90.2949 193.331 90.4071 192.916C90.5081 192.522 90.6202 192.14 90.7324 191.758C90.9119 191.14 91.1138 190.533 91.3157 189.926C91.3269 189.882 91.3381 189.848 91.3606 189.803C91.383 189.747 91.4054 189.69 91.4279 189.623C91.4054 189.679 91.383 189.735 91.3606 189.803C91.3381 189.848 91.3269 189.882 91.3157 189.926C91.1138 190.533 90.9119 191.14 90.7324 191.758C90.6202 192.14 90.5081 192.522 90.4071 192.916C90.2949 193.331 90.1828 193.747 90.0818 194.163C89.9248 194.758 89.7902 195.365 89.6668 195.983C89.6331 196.129 89.6107 196.264 89.577 196.41C89.5658 196.444 89.5546 196.489 89.5546 196.534C89.4537 197.017 89.3639 197.523 89.2854 198.017C89.2405 198.276 89.1957 198.545 89.162 198.804V198.826C89.1508 198.927 89.1396 199.04 89.1171 199.141C89.0947 199.265 89.0835 199.399 89.0723 199.523C89.1059 199.287 89.1284 199.062 89.162 198.826V198.804Z" fill="#53A7BA"/>
</g>
<g style="mix-blend-mode:multiply" opacity="0.2">
<path d="M93.6373 184.319C93.6373 184.319 93.5811 184.42 93.5586 184.476C93.5586 184.476 93.6148 184.364 93.6373 184.319Z" fill="#53A7BA"/>
</g>
<g style="mix-blend-mode:multiply" opacity="0.2">
<path d="M95.8032 180.375C95.8032 180.375 95.8369 180.33 95.8481 180.307C95.8818 180.251 95.9154 180.195 95.9491 180.15C95.9154 180.206 95.8818 180.263 95.8481 180.307C95.8369 180.33 95.8144 180.352 95.8032 180.375C95.5452 180.802 95.2872 181.229 95.0405 181.667C95.018 181.701 95.0068 181.735 94.9844 181.768C95.0068 181.735 95.018 181.701 95.0405 181.667C95.2872 181.229 95.5452 180.802 95.8032 180.375Z" fill="#53A7BA"/>
</g>
<g style="mix-blend-mode:multiply" opacity="0.2">
<path d="M102.623 171.722C102.623 171.722 102.668 171.677 102.69 171.655L102.623 171.722C102.623 171.722 102.544 171.812 102.488 171.857C102.465 171.88 102.454 171.902 102.432 171.913C102.454 171.891 102.465 171.868 102.488 171.857C102.544 171.812 102.578 171.767 102.623 171.722Z" fill="#53A7BA"/>
</g>
<g style="mix-blend-mode:multiply" opacity="0.2">
<path d="M107.357 167.542L107.323 167.565C107.323 167.565 107.266 167.61 107.232 167.633C107.266 167.61 107.289 167.587 107.323 167.565L107.357 167.542Z" fill="#53A7BA"/>
</g>
<g style="mix-blend-mode:multiply" opacity="0.2">
<path d="M96.8903 178.678C96.8903 178.678 96.924 178.622 96.9465 178.599C96.924 178.622 96.9128 178.656 96.8903 178.678C96.8116 178.79 96.733 178.914 96.6543 179.038L96.6094 179.116C96.6094 179.116 96.6431 179.071 96.6543 179.038C96.733 178.914 96.8116 178.79 96.8903 178.678Z" fill="#53A7BA"/>
</g>
<g style="mix-blend-mode:multiply" opacity="0.2">
<path d="M101.02 173.419C100.907 173.543 100.806 173.666 100.705 173.779C100.75 173.734 100.795 173.677 100.84 173.632C100.896 173.565 100.964 173.486 101.031 173.419H101.02Z" fill="#53A7BA"/>
</g>
<g style="mix-blend-mode:multiply" opacity="0.2">
<path d="M99.5157 175.161C99.5157 175.161 99.493 175.195 99.4817 175.206L99.459 175.229C99.459 175.229 99.4703 175.206 99.4817 175.195L99.5157 175.15V175.161Z" fill="#53A7BA"/>
</g>
<path d="M92.01 188.039C91.9875 188.106 91.9539 188.173 91.9315 188.241C91.752 188.702 91.5837 189.162 91.4267 189.623C91.4042 189.679 91.3818 189.747 91.3594 189.803C91.5613 189.207 91.7856 188.623 92.01 188.039Z" fill="white"/>
<g style="mix-blend-mode:multiply" opacity="0.2">
<path d="M92.01 188.039C91.9875 188.106 91.9539 188.173 91.9315 188.241C91.752 188.702 91.5837 189.162 91.4267 189.623C91.4042 189.679 91.3818 189.747 91.3594 189.803C91.5613 189.207 91.7856 188.623 92.01 188.039Z" fill="#53A7BA"/>
</g>
<path d="M148.827 200.445C147.952 199.984 147.099 199.523 146.258 199.04L146.549 200.445H148.827Z" fill="white"/>
<g style="mix-blend-mode:multiply" opacity="0.2">
<path d="M148.827 200.445C147.952 199.984 147.099 199.523 146.258 199.04L146.549 200.445H148.827Z" fill="#53A7BA"/>
</g>
<path d="M92.5727 186.656C92.5727 186.656 92.5503 186.713 92.5391 186.735C92.7185 186.308 92.9092 185.881 93.0999 185.454C92.9204 185.859 92.741 186.252 92.5727 186.656Z" fill="white"/>
<g style="mix-blend-mode:multiply" opacity="0.2">
<path d="M92.5727 186.656C92.5727 186.656 92.5503 186.713 92.5391 186.735C92.7185 186.308 92.9092 185.881 93.0999 185.454C92.9204 185.859 92.741 186.252 92.5727 186.656Z" fill="#53A7BA"/>
</g>
<path d="M89.5552 196.534C89.5552 196.59 89.5215 196.658 89.5215 196.725C89.5215 196.658 89.544 196.601 89.5552 196.545V196.534Z" fill="#53A7BA"/>
<g style="mix-blend-mode:multiply" opacity="0.2">
<path d="M89.5552 196.534C89.5552 196.59 89.5215 196.658 89.5215 196.725C89.5215 196.658 89.544 196.601 89.5552 196.545V196.534Z" fill="#53A7BA"/>
</g>
<path d="M96.6446 179.06C96.6446 179.06 96.6558 179.049 96.6558 179.038C96.6333 179.06 96.6221 179.083 96.6109 179.116C96.5884 179.139 96.5772 179.172 96.5547 179.195C96.5884 179.15 96.6109 179.105 96.6446 179.06Z" fill="#53A7BA"/>
<g style="mix-blend-mode:multiply" opacity="0.2">
<path d="M96.6446 179.06C96.6446 179.06 96.6558 179.049 96.6558 179.038C96.6333 179.06 96.6221 179.083 96.6109 179.116C96.5884 179.139 96.5772 179.172 96.5547 179.195C96.5884 179.15 96.6109 179.105 96.6446 179.06Z" fill="#53A7BA"/>
</g>
<path d="M107.356 167.542L107.322 167.576C107.322 167.576 107.345 167.553 107.356 167.542Z" fill="#53A7BA"/>
<g style="mix-blend-mode:multiply" opacity="0.2">
<path d="M107.356 167.542L107.322 167.576C107.322 167.576 107.345 167.553 107.356 167.542Z" fill="#53A7BA"/>
</g>
<path d="M89.1622 198.86V198.826C89.1285 199.051 89.106 199.287 89.0723 199.523C89.0611 199.624 89.0498 199.725 89.0273 199.826C89.0723 199.501 89.106 199.175 89.1622 198.86Z" fill="#53A7BA"/>
<g style="mix-blend-mode:multiply" opacity="0.2">
<path d="M89.1622 198.86V198.826C89.1285 199.051 89.106 199.287 89.0723 199.523C89.0611 199.624 89.0498 199.725 89.0273 199.826C89.0723 199.501 89.106 199.175 89.1622 198.86Z" fill="#53A7BA"/>
</g>
<path d="M103.721 170.655L103.743 170.632L103.766 170.61L103.743 170.632L103.721 170.655Z" fill="#53A7BA"/>
<g style="mix-blend-mode:multiply" opacity="0.2">
<path d="M103.721 170.655L103.743 170.632L103.766 170.61L103.743 170.632L103.721 170.655Z" fill="#53A7BA"/>
</g>
<path d="M94.2324 183.15C94.2324 183.15 94.2661 183.094 94.2774 183.061C94.2774 183.038 94.2998 183.016 94.3111 183.004C94.3111 183.027 94.2886 183.049 94.2774 183.061C94.2661 183.094 94.2437 183.117 94.2324 183.15Z" fill="#53A7BA"/>
<g style="mix-blend-mode:multiply" opacity="0.2">
<path d="M94.2324 183.15C94.2324 183.15 94.2661 183.094 94.2774 183.061C94.2774 183.038 94.2998 183.016 94.3111 183.004C94.3111 183.027 94.2886 183.049 94.2774 183.061C94.2661 183.094 94.2437 183.117 94.2324 183.15Z" fill="#53A7BA"/>
</g>
<path d="M93.0996 185.454C92.9089 185.881 92.7182 186.308 92.5387 186.735C92.3592 187.162 92.1798 187.6 92.0115 188.039C91.7872 188.623 91.5628 189.207 91.3609 189.803C91.3385 189.848 91.3273 189.882 91.316 189.926C91.1141 190.533 90.9122 191.14 90.7328 191.758C90.6206 192.14 90.5084 192.522 90.4075 192.916C90.2953 193.331 90.1831 193.747 90.0822 194.163C89.9251 194.759 89.7905 195.365 89.6671 195.983C89.6335 196.129 89.611 196.264 89.5774 196.41C89.5662 196.444 89.5549 196.489 89.5549 196.534C89.5549 196.601 89.5213 196.658 89.5213 196.725C89.4316 197.152 89.353 197.579 89.2857 198.017C89.2409 198.276 89.196 198.545 89.1623 198.804V198.86C89.1063 199.175 89.0726 199.501 89.0277 199.826C89.0053 200.029 88.9717 200.231 88.9492 200.433H107.929C107.502 200.242 107.2 199.815 107.2 199.31C107.2 198.624 107.749 198.073 108.433 198.073C109.118 198.073 109.667 198.624 109.667 199.31C109.667 199.815 109.365 200.242 108.938 200.433H135.613L126.28 186.038L127.536 184.746C120.133 177.262 115.422 169.688 112.573 163.946C110.755 165.047 109.017 166.238 107.368 167.531C107.357 167.531 107.345 167.553 107.334 167.564C107.301 167.587 107.278 167.609 107.244 167.632C106.044 168.576 104.889 169.576 103.778 170.61L103.756 170.632L103.733 170.655C103.397 170.992 103.038 171.329 102.701 171.655C102.679 171.677 102.657 171.7 102.634 171.722C102.589 171.767 102.556 171.812 102.5 171.857C102.477 171.88 102.466 171.902 102.443 171.913C101.972 172.408 101.501 172.902 101.041 173.419C100.974 173.486 100.918 173.565 100.851 173.633C100.806 173.677 100.761 173.734 100.716 173.779C100.312 174.228 99.9196 174.689 99.527 175.161L99.4934 175.206C99.4934 175.206 99.4822 175.228 99.4709 175.239C98.596 176.318 97.7547 177.442 96.9583 178.611C96.9359 178.633 96.9246 178.667 96.9022 178.689C96.8237 178.802 96.7452 178.925 96.6666 179.049C96.6666 179.049 96.6554 179.049 96.6554 179.071C96.6218 179.116 96.5993 179.161 96.5657 179.206C96.3638 179.521 96.1619 179.835 95.96 180.161C95.9263 180.218 95.8927 180.274 95.859 180.319C95.8478 180.341 95.8254 180.364 95.8141 180.386C95.5561 180.813 95.2981 181.24 95.0514 181.678C95.0289 181.712 95.0177 181.746 94.9953 181.78C94.7709 182.184 94.5466 182.589 94.3223 183.004C94.3223 183.027 94.2998 183.049 94.2886 183.061C94.2662 183.094 94.2549 183.117 94.2437 183.15C94.0418 183.533 93.8399 183.926 93.6492 184.319C93.6268 184.375 93.5931 184.432 93.5707 184.476V184.499C93.4473 184.712 93.3576 184.915 93.2678 185.128L93.1781 185.319C93.1781 185.319 93.122 185.409 93.1108 185.454H93.0996ZM108.433 179.026C109.118 179.026 109.667 179.577 109.667 180.262C109.667 180.948 109.118 181.499 108.433 181.499C107.749 181.499 107.2 180.948 107.2 180.262C107.2 179.577 107.749 179.026 108.433 179.026ZM98.3268 187.814C99.011 187.814 99.5607 188.365 99.5607 189.05C99.5607 189.735 99.011 190.286 98.3268 190.286C97.6425 190.286 97.0929 189.735 97.0929 189.05C97.0929 188.365 97.6425 187.814 98.3268 187.814Z" fill="#53A7BA"/>
<g style="mix-blend-mode:multiply" opacity="0.2">
<path d="M93.0996 185.454C92.9089 185.881 92.7182 186.308 92.5387 186.735C92.3592 187.162 92.1798 187.6 92.0115 188.039C91.7872 188.623 91.5628 189.207 91.3609 189.803C91.3385 189.848 91.3273 189.882 91.316 189.926C91.1141 190.533 90.9122 191.14 90.7328 191.758C90.6206 192.14 90.5084 192.522 90.4075 192.916C90.2953 193.331 90.1831 193.747 90.0822 194.163C89.9251 194.759 89.7905 195.365 89.6671 195.983C89.6335 196.129 89.611 196.264 89.5774 196.41C89.5662 196.444 89.5549 196.489 89.5549 196.534C89.5549 196.601 89.5213 196.658 89.5213 196.725C89.4316 197.152 89.353 197.579 89.2857 198.017C89.2409 198.276 89.196 198.545 89.1623 198.804V198.86C89.1063 199.175 89.0726 199.501 89.0277 199.826C89.0053 200.029 88.9717 200.231 88.9492 200.433H107.929C107.502 200.242 107.2 199.815 107.2 199.31C107.2 198.624 107.749 198.073 108.433 198.073C109.118 198.073 109.667 198.624 109.667 199.31C109.667 199.815 109.365 200.242 108.938 200.433H135.613L126.28 186.038L127.536 184.746C120.133 177.262 115.422 169.688 112.573 163.946C110.755 165.047 109.017 166.238 107.368 167.531C107.357 167.531 107.345 167.553 107.334 167.564C107.301 167.587 107.278 167.609 107.244 167.632C106.044 168.576 104.889 169.576 103.778 170.61L103.756 170.632L103.733 170.655C103.397 170.992 103.038 171.329 102.701 171.655C102.679 171.677 102.657 171.7 102.634 171.722C102.589 171.767 102.556 171.812 102.5 171.857C102.477 171.88 102.466 171.902 102.443 171.913C101.972 172.408 101.501 172.902 101.041 173.419C100.974 173.486 100.918 173.565 100.851 173.633C100.806 173.677 100.761 173.734 100.716 173.779C100.312 174.228 99.9196 174.689 99.527 175.161L99.4934 175.206C99.4934 175.206 99.4822 175.228 99.4709 175.239C98.596 176.318 97.7547 177.442 96.9583 178.611C96.9359 178.633 96.9246 178.667 96.9022 178.689C96.8237 178.802 96.7452 178.925 96.6666 179.049C96.6666 179.049 96.6554 179.049 96.6554 179.071C96.6218 179.116 96.5993 179.161 96.5657 179.206C96.3638 179.521 96.1619 179.835 95.96 180.161C95.9263 180.218 95.8927 180.274 95.859 180.319C95.8478 180.341 95.8254 180.364 95.8141 180.386C95.5561 180.813 95.2981 181.24 95.0514 181.678C95.0289 181.712 95.0177 181.746 94.9953 181.78C94.7709 182.184 94.5466 182.589 94.3223 183.004C94.3223 183.027 94.2998 183.049 94.2886 183.061C94.2662 183.094 94.2549 183.117 94.2437 183.15C94.0418 183.533 93.8399 183.926 93.6492 184.319C93.6268 184.375 93.5931 184.432 93.5707 184.476V184.499C93.4473 184.712 93.3576 184.915 93.2678 185.128L93.1781 185.319C93.1781 185.319 93.122 185.409 93.1108 185.454H93.0996ZM108.433 179.026C109.118 179.026 109.667 179.577 109.667 180.262C109.667 180.948 109.118 181.499 108.433 181.499C107.749 181.499 107.2 180.948 107.2 180.262C107.2 179.577 107.749 179.026 108.433 179.026ZM98.3268 187.814C99.011 187.814 99.5607 188.365 99.5607 189.05C99.5607 189.735 99.011 190.286 98.3268 190.286C97.6425 190.286 97.0929 189.735 97.0929 189.05C97.0929 188.365 97.6425 187.814 98.3268 187.814Z" fill="#53A7BA"/>
</g>
<path d="M108.433 181.499C109.117 181.499 109.667 180.948 109.667 180.262C109.667 179.577 109.117 179.026 108.433 179.026C107.749 179.026 107.199 179.577 107.199 180.262C107.199 180.948 107.749 181.499 108.433 181.499Z" fill="#53A7BA"/>
<g style="mix-blend-mode:multiply" opacity="0.2">
<path d="M108.433 181.499C109.117 181.499 109.667 180.948 109.667 180.262C109.667 179.577 109.117 179.026 108.433 179.026C107.749 179.026 107.199 179.577 107.199 180.262C107.199 180.948 107.749 181.499 108.433 181.499Z" fill="#53A7BA"/>
</g>
<path d="M109.655 199.321C109.655 198.635 109.106 198.085 108.421 198.085C107.737 198.085 107.188 198.635 107.188 199.321C107.188 199.826 107.49 200.253 107.917 200.445H108.915C109.341 200.253 109.644 199.826 109.644 199.321H109.655Z" fill="#53A7BA"/>
<g style="mix-blend-mode:multiply" opacity="0.2">
<path d="M109.655 199.321C109.655 198.635 109.106 198.085 108.421 198.085C107.737 198.085 107.188 198.635 107.188 199.321C107.188 199.826 107.49 200.253 107.917 200.445H108.915C109.341 200.253 109.644 199.826 109.644 199.321H109.655Z" fill="#53A7BA"/>
</g>
<path d="M98.3159 190.286C99.0002 190.286 99.5498 189.735 99.5498 189.05C99.5498 188.364 99.0002 187.814 98.3159 187.814C97.6317 187.814 97.082 188.364 97.082 189.05C97.082 189.735 97.6317 190.286 98.3159 190.286Z" fill="#53A7BA"/>
<g style="mix-blend-mode:multiply" opacity="0.2">
<path d="M98.3159 190.286C99.0002 190.286 99.5498 189.735 99.5498 189.05C99.5498 188.364 99.0002 187.814 98.3159 187.814C97.6317 187.814 97.082 188.364 97.082 189.05C97.082 189.735 97.6317 190.286 98.3159 190.286Z" fill="#53A7BA"/>
</g>
<path d="M146.257 199.04C138.629 194.702 132.471 189.747 127.524 184.746L126.268 186.038L135.6 200.433H146.537L146.245 199.029L146.257 199.04Z" fill="#53A7BA"/>
<g style="mix-blend-mode:multiply">
<path d="M146.257 199.04C138.629 194.702 132.471 189.747 127.524 184.746L126.268 186.038L135.6 200.433H146.537L146.245 199.029L146.257 199.04Z" fill="#53A7BA"/>
</g>
<g style="mix-blend-mode:multiply" opacity="0.2">
<path d="M146.257 199.04C138.629 194.702 132.471 189.747 127.524 184.746L126.268 186.038L135.6 200.433H146.537L146.245 199.029L146.257 199.04Z" fill="#53A7BA"/>
</g>
<path d="M150.654 140.483C168.223 140.483 182.466 124.368 182.466 104.49C182.466 84.6116 168.223 68.4971 150.654 68.4971C133.084 68.4971 118.842 84.6116 118.842 104.49C118.842 124.368 133.084 140.483 150.654 140.483Z" fill="#1A1A1A"/>
<path d="M160.952 146.483C157.856 147.955 154.39 148.776 150.722 148.776C147.054 148.776 143.588 147.944 140.492 146.483L141.031 131.74H160.403L160.941 146.483H160.952Z" fill="#CEAAA3"/>
<path d="M153.234 75.7451H148.22C136.394 75.7451 126.807 85.3494 126.807 97.197V121.042C126.807 132.89 136.394 142.494 148.22 142.494H153.234C165.061 142.494 174.648 132.89 174.648 121.042V97.197C174.648 85.3494 165.061 75.7451 153.234 75.7451Z" fill="#EFC6BB"/>
<path d="M126.134 104.715C126.134 104.715 122.555 79.105 136.498 85.1619C150.441 91.2187 158.349 92.0166 169.454 82.1503C172.427 82.4425 170.542 106.625 177.946 111.536C181.468 101.366 182.332 90.6793 182.332 90.6793C182.332 90.6793 197.8 83.1616 192.741 70.3175C190.262 63.2381 176.6 60.2152 167.783 72.5649C173.459 58.5746 170.957 40.1456 146.74 67.3284C145.27 53.3605 127.704 59.9793 130.677 77.1048C125.102 70.9131 104.159 81.4536 126.145 104.715H126.134Z" fill="#1A1A1A"/>
<path d="M182.362 115.35C183.123 111.048 181.356 107.137 178.415 106.616C175.475 106.094 172.475 109.159 171.715 113.461C170.954 117.764 172.721 121.674 175.662 122.195C178.602 122.717 181.602 119.652 182.362 115.35Z" fill="#EFC6BB"/>
<path d="M124.18 122.231C127.129 121.766 128.972 117.891 128.295 113.575C127.618 109.259 124.678 106.136 121.728 106.6C118.778 107.065 116.936 110.94 117.613 115.256C118.29 119.572 121.23 122.695 124.18 122.231Z" fill="#EFC6BB"/>
<path d="M163.083 97.1744C158.103 97.1744 153.863 100.456 152.415 104.973C151.114 104.366 149.757 104.58 148.691 105.029C147.267 100.478 143.015 97.1744 138.001 97.1744C131.821 97.1744 126.807 102.209 126.807 108.389C126.807 114.57 131.832 119.604 138.001 119.604C144.171 119.604 149.196 114.57 149.196 108.389C149.196 108.018 149.174 107.659 149.14 107.299C149.779 106.928 150.912 106.49 151.922 107.299C151.888 107.659 151.866 108.007 151.866 108.378C151.866 114.57 156.891 119.593 163.061 119.593C169.23 119.593 174.255 114.558 174.255 108.378C174.255 102.197 169.23 97.1632 163.061 97.1632L163.083 97.1744ZM138.013 117.368C133.077 117.368 129.061 113.345 129.061 108.4C129.061 103.456 133.077 99.4331 138.013 99.4331C142.948 99.4331 146.964 103.456 146.964 108.4C146.964 113.345 142.948 117.368 138.013 117.368ZM163.083 117.368C158.147 117.368 154.132 113.345 154.132 108.4C154.132 103.456 158.147 99.4331 163.083 99.4331C168.019 99.4331 172.034 103.456 172.034 108.4C172.034 113.345 168.019 117.368 163.083 117.368Z" fill="#1A1A1A"/>
<path d="M144.789 127.279H156.656C156.656 127.279 154.761 132.707 150.016 132.707C145.271 132.707 144.777 127.279 144.777 127.279H144.789Z" fill="white"/>
<path d="M211.913 196.545C211.845 196.186 211.767 195.837 211.699 195.478C211.778 195.893 211.868 196.309 211.946 196.725C211.935 196.669 211.924 196.601 211.913 196.545Z" fill="white"/>
<path d="M212.416 199.579C212.382 199.276 212.337 198.984 212.281 198.68C212.292 198.736 212.304 198.804 212.304 198.86C212.36 199.096 212.394 199.332 212.416 199.579Z" fill="#53A7BA"/>
<path d="M211.486 194.556C211.452 194.421 211.418 194.287 211.385 194.163C211.486 194.545 211.576 194.927 211.654 195.309C211.598 195.062 211.542 194.803 211.486 194.556Z" fill="#53A7BA"/>
<path fill-rule="evenodd" clip-rule="evenodd" d="M265.51 141.118C248.326 145.95 221.17 137.781 207.665 119.443C201.754 111.42 198.636 101.655 197.57 91.8003C193.712 56.0563 224.501 30.7962 258.219 31.1333C294.673 31.5041 309.557 57.4047 310.802 90.4631C311.935 120.656 282.705 136.286 265.51 141.118Z" fill="#1A9DFD"/>
<g clip-path="url(#clip2_737_24037)">
<path d="M262.583 96.243C262.712 94.887 262.673 93.536 262.477 92.217L265.526 90.858C265.238 89.381 264.785 87.924 264.157 86.514C263.529 85.105 262.749 83.794 261.845 82.591L258.794 83.949C257.945 82.922 256.967 81.99 255.873 81.178L257.069 78.062C255.82 77.222 254.47 76.512 253.029 75.959C251.594 75.408 250.12 75.027 248.621 74.816L247.424 77.935C246.068 77.806 244.717 77.845 243.398 78.041L242.047 75.007C239.029 75.6 236.209 76.88 233.788 78.709L235.13 81.723C234.101 82.572 233.169 83.551 232.357 84.644L229.249 83.452C228.401 84.698 227.69 86.049 227.136 87.489C226.587 88.929 226.211 90.407 226 91.896L229.116 93.092C228.987 94.448 229.026 95.799 229.222 97.118L226.173 98.476C226.461 99.954 226.914 101.41 227.542 102.82C228.171 104.23 228.95 105.54 229.855 106.743L232.904 105.385C233.753 106.413 234.731 107.345 235.826 108.157L234.63 111.275C235.879 112.116 237.229 112.825 238.67 113.378C240.105 113.929 241.579 114.31 243.078 114.521L244.275 111.402C245.631 111.53 246.982 111.491 248.301 111.295L249.652 114.328C252.67 113.735 255.492 112.455 257.912 110.626L256.569 107.612C257.597 106.763 258.53 105.785 259.342 104.691L262.448 105.883C263.296 104.637 264.007 103.286 264.561 101.847C265.114 100.407 265.489 98.928 265.7 97.438L262.583 96.243ZM254.3 97.91C252.509 102.578 247.274 104.908 242.605 103.117C237.942 101.327 235.609 96.093 237.399 91.426C239.19 86.759 244.425 84.429 249.091 86.218C253.758 88.008 256.09 93.244 254.3 97.91Z" fill="white"/>
<path d="M279.464 71.395C279.464 70.791 279.402 70.2 279.296 69.626L281.633 68.276C281.067 66.124 279.943 64.197 278.406 62.675L276.063 64.028C275.169 63.262 274.133 62.662 273 62.262V59.559C271.968 59.276 270.887 59.114 269.768 59.114C268.649 59.114 267.569 59.278 266.536 59.559V62.263C265.403 62.663 264.368 63.264 263.473 64.029L261.129 62.676C259.594 64.198 258.469 66.125 257.902 68.277L260.24 69.627C260.134 70.202 260.071 70.791 260.071 71.396C260.071 72.001 260.134 72.591 260.24 73.165L257.902 74.515C258.469 76.667 259.594 78.595 261.129 80.116L263.472 78.763C264.367 79.529 265.402 80.129 266.535 80.529V83.233C267.568 83.515 268.648 83.678 269.767 83.678C270.886 83.678 271.968 83.514 272.999 83.233V80.529C274.132 80.129 275.168 79.528 276.062 78.763L278.405 80.116C279.942 78.594 281.066 76.667 281.632 74.515L279.295 73.165C279.402 72.589 279.464 72 279.464 71.395ZM269.769 75.921C267.269 75.921 265.242 73.895 265.242 71.396C265.242 68.897 267.269 66.87 269.769 66.87C272.266 66.87 274.293 68.896 274.293 71.395C274.293 73.894 272.266 75.921 269.769 75.921Z" fill="white"/>
</g>
</g>
</g>
<defs>
<clipPath id="clip0_737_24037">
<path d="M0 12C0 5.37257 5.37258 0 12 0H388C394.627 0 400 5.37258 400 12V188.285C400 194.913 394.627 200.285 388 200.285H12C5.37257 200.285 0 194.913 0 188.285V12Z" fill="white"/>
</clipPath>
<clipPath id="clip1_737_24037">
<rect width="221.821" height="170" fill="white" transform="translate(89.1309 30)"/>
</clipPath>
<clipPath id="clip2_737_24037">
<rect width="55.634" height="55.634" fill="white" transform="translate(226 59)"/>
</clipPath>
</defs>
</svg>
