<svg width="400" height="201" viewBox="0 0 400 201" fill="none" xmlns="http://www.w3.org/2000/svg">
<g clip-path="url(#clip0_737_25363)">
<path d="M400 0H0V200H400V0Z" fill="#DDF0FF"/>
<path d="M84 21H11V200H84V21Z" fill="#F4FAFF"/>
<path d="M161 21H87V200H161V21Z" fill="#F4FAFF"/>
<path d="M237 21H164V200H237V21Z" fill="#F4FAFF"/>
<path d="M313 21H240V200H313V21Z" fill="#F4FAFF"/>
<path d="M389 21H316V200H389V21Z" fill="#F4FAFF"/>
<path d="M85.2617 200.28V72.3753H108.204V104.115H123.883V69.5198H130.765V58.5477H133.056L134.394 37.8783L136.5 58.7438H138.126V69.7159H144.72V200.28H85.2617Z" fill="#DDF0FF"/>
<path d="M390 93.4717V200.28H388.304H388.293H387.63H351.869V127.871H366.724V93.2755H374.408V82.3034H376.975L378.469 61.634L380.822 82.4995H382.634V93.4717H390Z" fill="#DDF0FF"/>
<path d="M351.784 200.28V114.568L346.292 112.41V97.3078L322.952 88.2451V112.41L306.471 113.703V200.28H351.784Z" fill="#DDF0FF"/>
<path d="M229.129 200.28V113.789H242.259V91.291L255.977 78.3518V100.85H264.33V80.6016H274.477V73.2926H301.325V80.6016H307.884V200.28H229.129Z" fill="#DDF0FF"/>
<path d="M85.262 83.5436V200.28H10.9492V116.725H23.3347V94.2273L36.2855 81.2938V103.792H44.1656V83.5436H53.7359V76.2289H79.0664V83.5436H85.262Z" fill="#DDF0FF"/>
<path d="M177.579 87.5298H144.178V200.28H177.579V87.5298Z" fill="#DDF0FF"/>
<path d="M177.578 82.3724H151.953V92.6927H177.578V82.3724Z" fill="#DDF0FF"/>
<path d="M177.578 73.9847H166.635V85.8049H177.578V73.9847Z" fill="#DDF0FF"/>
<path d="M230.398 102.004H210.484V200.285H230.398V102.004Z" fill="#DDF0FF"/>
<path d="M212.1 95.6233H176.576V200.285H212.1V95.6233Z" fill="#DDF0FF"/>
<path d="M217.966 90.5179H198.053V200.285H217.966V90.5179Z" fill="#DDF0FF"/>
<path d="M213.702 82.3667H202.314V99.3152H213.702V82.3667Z" fill="#DDF0FF"/>
<path d="M190.623 84.0801H185.01V106.215H190.623V84.0801Z" fill="#DDF0FF"/>
<g opacity="0.33">
<path opacity="0.33" d="M84.6844 21H11.2656V200.006H84.6844V21Z" fill="white"/>
</g>
<g opacity="0.33">
<path opacity="0.33" d="M160.716 21H87.2969V200.006H160.716V21Z" fill="white"/>
</g>
<g opacity="0.33">
<path opacity="0.33" d="M236.749 21H163.33V200.006H236.749V21Z" fill="white"/>
</g>
<g opacity="0.33">
<path opacity="0.33" d="M312.782 21H239.363V200.006H312.782V21Z" fill="white"/>
</g>
<g opacity="0.33">
<path opacity="0.33" d="M389.034 21H315.615V200.006H389.034V21Z" fill="white"/>
</g>
<g opacity="0.17">
<path opacity="0.17" d="M61.5513 21L11.2656 59.9234V50.4318L49.2865 21H61.5513Z" fill="#DDF0FF"/>
<path opacity="0.17" d="M11.2656 106.303L84.6844 49.4657V65.7427L11.2656 122.58V106.303Z" fill="#DDF0FF"/>
<path opacity="0.17" d="M142.486 21L87.2988 63.7209V47.4439L121.457 21H142.486Z" fill="#DDF0FF"/>
<path opacity="0.17" d="M11.2656 168.955L84.6844 112.118V121.614L11.2656 178.451V168.955Z" fill="#DDF0FF"/>
<path opacity="0.17" d="M87.2988 110.101L160.718 53.2632V62.7592L87.2988 119.597V110.101Z" fill="#DDF0FF"/>
<path opacity="0.17" d="M214.664 21L163.336 60.7374V51.2414L202.395 21H214.664Z" fill="#DDF0FF"/>
<path opacity="0.17" d="M43.3242 200.006L84.6846 167.994V184.271L64.3535 200.006H43.3242Z" fill="#DDF0FF"/>
<path opacity="0.17" d="M87.2988 165.972L160.718 109.135V125.411L87.2988 182.244V165.972Z" fill="#DDF0FF"/>
<path opacity="0.17" d="M163.336 107.108L236.75 50.2797V66.5566L163.336 123.385V107.108Z" fill="#DDF0FF"/>
<path opacity="0.17" d="M295.597 21L239.367 64.5305V48.2535L274.572 21H295.597Z" fill="#DDF0FF"/>
<path opacity="0.17" d="M163.336 169.765L236.75 112.932V122.428L163.336 179.261V169.765Z" fill="#DDF0FF"/>
<path opacity="0.17" d="M312.786 54.0728V63.5688L239.367 120.402V110.906L312.786 54.0728Z" fill="#DDF0FF"/>
<path opacity="0.17" d="M196.441 200.006L236.75 168.808V185.085L217.471 200.006H196.441Z" fill="#DDF0FF"/>
<path opacity="0.17" d="M312.786 109.949V126.226L239.367 183.059V166.782L312.786 109.949Z" fill="#DDF0FF"/>
<path opacity="0.17" d="M312.787 172.601V182.097L289.64 200.006H277.375L312.787 172.601Z" fill="#DDF0FF"/>
</g>
<path opacity="0.61" d="M83 56H123C123 56 116.236 54.4845 115.029 54.0061C113.822 53.5278 113.401 52.4398 112.144 52.3975C110.887 52.3551 110.49 53.5024 109.26 53.7479C108.03 53.9934 105.141 53.8918 104.105 53.5532C103.07 53.2187 102.925 52.1223 101.836 52.008C100.746 51.8937 100.167 53.0367 98.9512 53.1679C97.7349 53.2992 96.166 52.2662 94.3485 52.3975C92.5309 52.5287 83.009 56 83.009 56H83Z" fill="#DDF0FF"/>
<path opacity="0.61" d="M181 78H221C221 78 214.236 76.1612 213.029 75.5808C211.822 75.0004 211.704 74.4354 210.443 74.384C209.181 74.3326 208.485 74.9644 207.255 75.2675C206.563 75.437 205.808 72.0726 204.696 72.0007C203.824 71.9442 202.553 75.211 202.101 75.0312C201.066 74.6254 200.776 74.1323 199.687 73.9936C198.597 73.855 198.163 74.4045 196.947 74.5638C195.73 74.723 194.162 73.4697 192.344 73.629C190.526 73.7882 181.005 78 181.005 78H181Z" fill="#DDF0FF"/>
<path opacity="0.61" d="M35.9953 66.9947H11V63.4495C12.2425 63.259 12.8449 61.8674 13.9603 62.0103C15.0945 62.1531 15.2451 63.5183 16.3229 63.9416C17.4006 64.3596 20.4079 64.4919 21.6881 64.185C22.9682 63.8728 23.3823 62.4389 24.6954 62.4918C26.0085 62.5447 26.4415 63.9046 27.7027 64.5025C28.9593 65.1004 36 67 36 67L35.9953 66.9947Z" fill="#DDF0FF"/>
<path opacity="0.61" d="M239 61.6977L296 62C296 62 284.359 57.5245 282.804 57.5691C281.248 57.6137 278.189 58.5852 276.629 58.6298C275.074 58.6744 274.59 57.4948 273.84 57.4204C273.09 57.3461 272.261 57.3312 271.512 57.3461C270.762 57.361 270.683 56.8505 269.891 57.0438C269.1 57.2371 268.788 58.3274 267.498 58.6298C266.208 58.9321 265.039 57.4155 263.684 57.5691C262.329 57.7178 261.593 58.3621 260.327 58.6298C259.06 58.8974 258.697 58.149 257.407 58.0945C256.117 58.04 254.334 58.6496 252.481 58.6298C250.627 58.605 249.407 58.5455 247.009 58.3225C244.765 58.1094 239.005 61.7026 239.005 61.7026L239 61.6977Z" fill="#DDF0FF"/>
<path opacity="0.61" d="M324 71.7581L366 72C366 72 357.422 68.4196 356.276 68.4553C355.13 68.491 352.876 69.2681 351.727 69.3038C350.581 69.3395 350.224 68.3958 349.671 68.3363C349.119 68.2769 348.508 68.265 347.956 68.2769C347.403 68.2888 347.345 67.8804 346.762 68.035C346.179 68.1896 345.949 69.0619 344.998 69.3038C344.048 69.5457 343.187 68.3324 342.188 68.4553C341.19 68.5742 340.648 69.0897 339.714 69.3038C338.781 69.5179 338.514 68.9192 337.563 68.8756C336.613 68.832 335.299 69.3197 333.933 69.3038C332.567 69.284 331.668 69.2364 329.901 69.058C328.248 68.8875 324.003 71.7621 324.003 71.7621L324 71.7581Z" fill="#DDF0FF"/>
<g clip-path="url(#clip1_737_25363)">
<g clip-path="url(#clip2_737_25363)">
<path d="M161.125 154.793C161.125 154.793 161.024 154.782 160.979 154.771L160.677 146.467L160.138 131.735H140.767L140.229 146.467L139.926 154.647C143.896 157.939 151.098 161.153 161.125 154.793Z" fill="#EFC6BB"/>
<path d="M205.039 179.828C205.465 180.503 205.88 181.177 206.273 181.874C205.88 181.177 205.465 180.503 205.039 179.828Z" fill="white"/>
<path d="M204.545 179.053C204.13 178.413 203.693 177.795 203.244 177.177C203.726 177.828 204.186 178.503 204.635 179.188C204.601 179.143 204.579 179.098 204.545 179.053Z" fill="white"/>
<path d="M105.087 169.165C104.941 169.277 104.806 169.401 104.672 169.524C104.941 169.277 105.21 169.041 105.491 168.817C105.356 168.929 105.221 169.041 105.087 169.165Z" fill="white"/>
<path d="M193.037 166.918C192.891 166.794 192.734 166.693 192.588 166.58C192.969 166.85 193.339 167.131 193.698 167.423C193.485 167.243 193.261 167.075 193.037 166.918Z" fill="white"/>
<path d="M195.819 169.165C195.707 169.064 195.595 168.963 195.482 168.873C195.774 169.109 196.054 169.356 196.324 169.614C196.155 169.457 195.987 169.3 195.819 169.165Z" fill="white"/>
<path d="M210.074 190.548C210.321 191.324 210.568 192.11 210.781 192.908C210.568 192.11 210.332 191.324 210.074 190.548Z" fill="white"/>
<path d="M148.551 200.437H155.09L164.277 155.254C164.277 155.254 164.22 155.254 164.187 155.243C163.94 155.198 163.704 155.164 163.458 155.13C162.841 155.029 162.224 154.939 161.596 154.872C161.439 154.838 161.282 154.827 161.125 154.804C151.097 161.164 143.896 157.951 139.925 154.658V154.782C139.017 154.894 138.108 155.018 137.2 155.164C137.188 155.153 137.166 155.153 137.155 155.164C137.11 155.175 137.076 155.175 137.031 155.186L145.982 199.032C146.823 199.504 147.676 199.976 148.551 200.437Z" fill="white"/>
<path d="M91.381 188.975C91.3023 189.189 91.2237 189.402 91.1562 189.616C91.3136 189.155 91.4934 188.694 91.6619 188.234C91.5608 188.481 91.4709 188.728 91.381 188.975Z" fill="white"/>
<path d="M209.538 188.975C209.403 188.593 209.257 188.222 209.111 187.851C209.381 188.514 209.616 189.2 209.852 189.874C209.751 189.571 209.65 189.267 209.538 188.975Z" fill="white"/>
<path d="M96.3282 179.109C96.2496 179.222 96.1822 179.334 96.1035 179.435C96.1597 179.357 96.2159 179.267 96.2721 179.188C96.2945 179.166 96.3058 179.132 96.3282 179.109Z" fill="#53A7BA"/>
<path d="M98.2678 176.379C98.133 176.559 97.9981 176.738 97.8633 176.907C97.8858 176.873 97.9195 176.839 97.9419 176.806C98.0543 176.671 98.1554 176.525 98.2678 176.379Z" fill="#53A7BA"/>
<path d="M107.88 166.917C107.88 166.917 107.914 166.884 107.936 166.873C107.645 167.086 107.364 167.3 107.084 167.536C107.342 167.322 107.611 167.131 107.88 166.917Z" fill="#53A7BA"/>
<path d="M94.006 183.053C94.006 183.053 94.0285 183.008 94.0397 182.997C94.1071 182.851 94.1858 182.705 94.2645 182.548C94.1521 182.739 94.051 182.93 93.9498 183.121C93.8712 183.267 93.7925 183.413 93.7363 183.559C93.815 183.424 93.8824 183.278 93.9611 183.143C93.9723 183.11 93.9948 183.087 94.006 183.053Z" fill="#53A7BA"/>
<path d="M103.471 170.626L103.494 170.603C103.606 170.48 103.741 170.356 103.864 170.244C103.662 170.423 103.471 170.603 103.27 170.794C103.326 170.76 103.393 170.693 103.449 170.648L103.471 170.626Z" fill="#53A7BA"/>
<path d="M106.96 167.637C106.545 167.963 106.119 168.3 105.704 168.648C105.625 168.715 105.558 168.772 105.491 168.828C105.21 169.053 104.941 169.289 104.672 169.536C104.391 169.772 104.122 170.019 103.864 170.255C103.741 170.367 103.606 170.491 103.494 170.614C104.605 169.581 105.76 168.581 106.96 167.637Z" fill="#53A7BA"/>
<path d="M103.27 170.805L103.069 170.996C102.844 171.199 102.631 171.423 102.418 171.648C102.766 171.311 103.113 170.974 103.45 170.648C103.394 170.704 103.327 170.76 103.27 170.805Z" fill="#53A7BA"/>
<path d="M99.0742 175.356C98.7938 175.693 98.5246 176.03 98.2666 176.379C98.1544 176.525 98.0535 176.671 97.9413 176.806C97.9189 176.84 97.8852 176.873 97.8628 176.907C97.616 177.233 97.3693 177.581 97.1337 177.918C96.9879 178.143 96.8196 178.368 96.6738 178.592C97.4702 177.424 98.3115 176.3 99.1864 175.221C99.1415 175.266 99.1078 175.3 99.0742 175.345V175.356Z" fill="#53A7BA"/>
<path d="M93.2316 184.57L92.9844 185.121C93.0743 184.907 93.1642 184.705 93.2765 184.492C93.2653 184.514 93.2428 184.537 93.2316 184.57Z" fill="#53A7BA"/>
<path d="M93.7354 183.559C93.6008 183.806 93.4886 184.053 93.3652 184.312C93.5559 183.919 93.7578 183.525 93.9597 183.143C93.8812 183.278 93.8139 183.424 93.7354 183.559Z" fill="#53A7BA"/>
<path d="M96.1132 179.435C95.9562 179.66 95.8104 179.907 95.6758 180.143C95.8777 179.828 96.0796 179.503 96.2815 179.188C96.2254 179.267 96.1693 179.357 96.1132 179.435Z" fill="#53A7BA"/>
<path d="M107.083 167.536C108.732 166.243 110.471 165.052 112.288 163.951C115.137 169.693 119.848 177.267 127.251 184.75L134.239 177.525H121.531L135.966 155.366C135.518 155.445 135.058 155.512 134.62 155.591C134.553 155.591 134.486 155.602 134.43 155.625C133.566 155.793 132.702 155.973 131.85 156.164C131.11 156.333 130.369 156.512 129.629 156.703C129.248 156.793 128.877 156.894 128.507 157.007C127.991 157.142 127.487 157.288 126.982 157.445C126.814 157.49 126.645 157.546 126.477 157.602C125.726 157.827 124.974 158.074 124.245 158.333C124.099 158.378 123.953 158.423 123.808 158.479C123.606 158.546 123.404 158.625 123.191 158.704C122.843 158.827 122.506 158.962 122.159 159.097C121.912 159.175 121.665 159.277 121.418 159.389C120.801 159.625 120.196 159.872 119.601 160.142C118.962 160.411 118.323 160.704 117.694 161.007C117.122 161.277 116.562 161.558 116.001 161.85C115.26 162.209 114.543 162.603 113.825 163.018C113.342 163.288 112.871 163.569 112.4 163.85C112.03 164.063 111.66 164.299 111.301 164.535C111.032 164.704 110.763 164.884 110.493 165.052C110.011 165.378 109.529 165.704 109.058 166.041C108.676 166.311 108.295 166.592 107.925 166.873C107.902 166.884 107.891 166.906 107.869 166.918C107.599 167.12 107.33 167.322 107.072 167.524L107.083 167.536Z" fill="#53A7BA"/>
<path d="M94.7121 181.772C94.555 182.031 94.4204 182.289 94.2634 182.559C94.1849 182.705 94.1064 182.851 94.0391 183.009C94.2522 182.593 94.4877 182.188 94.7121 181.784V181.772Z" fill="#53A7BA"/>
<path d="M99.8498 174.424C99.8498 174.424 99.7489 174.536 99.704 174.592C99.547 174.772 99.39 174.963 99.2441 175.154C99.6255 174.682 100.029 174.233 100.433 173.772C100.231 173.985 100.029 174.188 99.8498 174.424Z" fill="#53A7BA"/>
<path d="M101.431 172.659C101.431 172.659 101.341 172.749 101.307 172.794C101.128 172.985 100.96 173.188 100.78 173.379C100.78 173.379 100.758 173.401 100.758 173.412C101.218 172.907 101.689 172.401 102.16 171.907C101.913 172.143 101.666 172.401 101.431 172.659Z" fill="#53A7BA"/>
<path d="M209.111 187.852C208.942 187.425 208.774 187.009 208.594 186.593C208.594 186.615 208.594 186.627 208.616 186.649C208.785 187.042 208.953 187.447 209.111 187.852Z" fill="#53A7BA"/>
<path d="M203.244 177.177C203.098 176.986 202.952 176.783 202.795 176.581C202.851 176.66 202.907 176.738 202.963 176.806C203.065 176.929 203.154 177.053 203.244 177.177Z" fill="#53A7BA"/>
<path d="M209.84 189.885C209.919 190.11 209.997 190.323 210.065 190.559C209.986 190.335 209.907 190.11 209.84 189.885Z" fill="#53A7BA"/>
<path d="M204.635 179.188C204.77 179.39 204.904 179.604 205.039 179.817C204.904 179.604 204.77 179.39 204.635 179.188Z" fill="#53A7BA"/>
<path d="M167.081 177.525L175.325 186.042L166.228 200.437H212.25C212.217 200.144 212.183 199.863 212.138 199.571C212.116 199.324 212.082 199.088 212.026 198.852C212.026 198.796 212.015 198.729 212.004 198.672C211.925 198.111 211.824 197.56 211.723 197.009C211.701 196.908 211.69 196.818 211.667 196.717C211.589 196.301 211.499 195.886 211.42 195.47C211.409 195.414 211.387 195.358 211.376 195.301C211.297 194.919 211.207 194.537 211.106 194.155C211.005 193.739 210.893 193.324 210.781 192.908C210.568 192.11 210.332 191.324 210.074 190.548C209.996 190.324 209.917 190.099 209.85 189.874C209.615 189.189 209.379 188.514 209.11 187.851C208.953 187.447 208.785 187.042 208.616 186.649C208.605 186.627 208.605 186.615 208.594 186.593C208.414 186.166 208.235 185.761 208.033 185.346C207.854 184.93 207.652 184.525 207.45 184.121C207.293 183.784 207.124 183.447 206.956 183.121C206.732 182.694 206.508 182.278 206.272 181.862C205.879 181.166 205.464 180.491 205.038 179.817C204.904 179.604 204.769 179.39 204.634 179.188C204.186 178.503 203.726 177.828 203.243 177.177C203.154 177.053 203.064 176.929 202.963 176.806C202.907 176.738 202.851 176.66 202.795 176.581C201.74 175.188 200.608 173.862 199.407 172.592C199.217 172.379 199.015 172.165 198.802 171.963C198.005 171.154 197.175 170.367 196.323 169.614C196.054 169.356 195.773 169.109 195.482 168.873C195.268 168.693 195.055 168.513 194.842 168.345C194.618 168.142 194.382 167.963 194.147 167.771C194.001 167.659 193.855 167.536 193.698 167.423C193.339 167.131 192.969 166.85 192.588 166.58C192.386 166.423 192.173 166.266 191.96 166.12C191.511 165.794 191.051 165.479 190.591 165.176C190.367 165.018 190.131 164.872 189.896 164.726C189.402 164.4 188.897 164.086 188.393 163.794C187.787 163.423 187.17 163.063 186.553 162.726C186.205 162.535 185.858 162.344 185.51 162.164C185.072 161.928 184.624 161.704 184.175 161.479C184.141 161.468 184.108 161.445 184.074 161.434C183.704 161.243 183.334 161.063 182.953 160.895C182.638 160.737 182.324 160.591 182.01 160.456C181.562 160.254 181.113 160.063 180.664 159.872C180.44 159.771 180.204 159.681 179.98 159.591C179.509 159.4 179.027 159.209 178.544 159.029C178.309 158.928 178.062 158.85 177.826 158.76C177.344 158.58 176.862 158.411 176.368 158.243C175.729 158.018 175.078 157.816 174.428 157.614C173.856 157.434 173.295 157.265 172.712 157.108C172.106 156.928 171.478 156.76 170.861 156.602C170.233 156.445 169.593 156.288 168.954 156.142C168.191 155.973 167.417 155.804 166.643 155.67C166.408 155.613 166.161 155.568 165.926 155.535C165.746 155.501 165.567 155.479 165.398 155.445L179.789 177.525H167.081Z" fill="#53A7BA"/>
<g style="mix-blend-mode:multiply">
<path d="M135.979 155.366C136.337 155.31 136.685 155.243 137.033 155.186C136.685 155.231 136.326 155.31 135.979 155.366Z" fill="#53A7BA"/>
</g>
<path d="M134.238 177.525L127.25 184.75C132.197 189.75 138.355 194.706 145.982 199.043L137.031 155.198C136.684 155.243 136.325 155.321 135.977 155.377L121.541 177.536H134.25L134.238 177.525Z" fill="#53A7BA"/>
<g style="mix-blend-mode:multiply">
<path d="M134.238 177.525L127.25 184.75C132.197 189.75 138.355 194.706 145.982 199.043L137.031 155.198C136.684 155.243 136.325 155.321 135.977 155.377L121.541 177.536H134.25L134.238 177.525Z" fill="#53A7BA"/>
</g>
<g style="mix-blend-mode:multiply">
<path d="M165.4 155.445L165.355 155.366C164.996 155.31 164.648 155.243 164.301 155.186V155.243C164.301 155.243 164.323 155.243 164.334 155.243C164.693 155.299 165.052 155.366 165.411 155.434L165.4 155.445Z" fill="#53A7BA"/>
</g>
<path d="M155.103 200.437L164.323 155.254C164.323 155.254 164.289 155.254 164.278 155.254L155.092 200.437H155.103Z" fill="white"/>
<g style="mix-blend-mode:multiply">
<path d="M155.103 200.437L164.323 155.254C164.323 155.254 164.289 155.254 164.278 155.254L155.092 200.437H155.103Z" fill="#53A7BA"/>
</g>
<path d="M155.102 200.437H166.229L175.325 186.042L167.081 177.525H179.789L165.398 155.445C165.04 155.377 164.681 155.31 164.322 155.254L155.102 200.437Z" fill="#53A7BA"/>
<g style="mix-blend-mode:multiply">
<path d="M155.102 200.437H166.229L175.325 186.042L167.081 177.525H179.789L165.398 155.445C165.04 155.377 164.681 155.31 164.322 155.254L155.102 200.437Z" fill="#53A7BA"/>
</g>
<g style="mix-blend-mode:multiply" opacity="0.2">
<path d="M92.2659 186.728C92.2659 186.728 92.2883 186.672 92.2995 186.649C92.4678 186.245 92.6472 185.851 92.8267 185.447C92.8379 185.402 92.8603 185.357 92.894 185.312L92.9837 185.121C92.9613 185.188 92.9276 185.245 92.894 185.312C92.8603 185.357 92.8379 185.402 92.8267 185.447C92.636 185.874 92.4453 186.301 92.2659 186.728C92.0864 187.155 91.9069 187.593 91.7387 188.031C91.7162 188.099 91.6938 188.166 91.6602 188.234C91.6826 188.166 91.7162 188.099 91.7387 188.031C91.9069 187.593 92.0864 187.155 92.2659 186.728Z" fill="#53A7BA"/>
</g>
<g style="mix-blend-mode:multiply" opacity="0.2">
<path d="M88.8905 198.796C88.9242 198.538 88.969 198.268 89.0139 198.009C89.0812 197.571 89.1597 197.144 89.2494 196.717C89.2494 196.65 89.2719 196.582 89.2831 196.526C89.2831 196.481 89.2943 196.436 89.3055 196.403C89.3392 196.256 89.3616 196.122 89.3953 195.976C89.5186 195.358 89.6532 194.751 89.8103 194.155C89.9112 193.739 90.0234 193.324 90.1356 192.908C90.2365 192.515 90.3487 192.133 90.4608 191.751C90.6403 191.133 90.8422 190.526 91.0441 189.919C91.0553 189.874 91.0665 189.84 91.089 189.795C91.1114 189.739 91.1338 189.683 91.1563 189.616C91.1338 189.672 91.1114 189.728 91.089 189.795C91.0665 189.84 91.0553 189.874 91.0441 189.919C90.8422 190.526 90.6403 191.133 90.4608 191.751C90.3487 192.133 90.2365 192.515 90.1356 192.908C90.0234 193.324 89.9112 193.739 89.8103 194.155C89.6532 194.751 89.5186 195.358 89.3953 195.976C89.3616 196.122 89.3392 196.256 89.3055 196.403C89.2943 196.436 89.2831 196.481 89.2831 196.526C89.1821 197.009 89.0924 197.515 89.0139 198.009C88.969 198.268 88.9242 198.538 88.8905 198.796V198.818C88.8793 198.92 88.8681 199.032 88.8456 199.133C88.8232 199.257 88.812 199.392 88.8008 199.515C88.8344 199.279 88.8569 199.054 88.8905 198.818V198.796Z" fill="#53A7BA"/>
</g>
<g style="mix-blend-mode:multiply" opacity="0.2">
<path d="M93.3658 184.312C93.3658 184.312 93.3096 184.413 93.2871 184.469C93.2871 184.469 93.3433 184.357 93.3658 184.312Z" fill="#53A7BA"/>
</g>
<g style="mix-blend-mode:multiply" opacity="0.2">
<path d="M95.5298 180.368C95.5298 180.368 95.5634 180.323 95.5746 180.3C95.6083 180.244 95.6419 180.188 95.6756 180.143C95.6419 180.199 95.6083 180.255 95.5746 180.3C95.5634 180.323 95.541 180.345 95.5298 180.368C95.2718 180.795 95.0138 181.222 94.767 181.66C94.7446 181.694 94.7334 181.727 94.7109 181.761C94.7334 181.727 94.7446 181.694 94.767 181.66C95.0138 181.222 95.2718 180.795 95.5298 180.368Z" fill="#53A7BA"/>
</g>
<g style="mix-blend-mode:multiply" opacity="0.2">
<path d="M102.351 171.716C102.351 171.716 102.396 171.671 102.419 171.648L102.351 171.716C102.351 171.716 102.273 171.806 102.216 171.85C102.194 171.873 102.183 171.895 102.16 171.907C102.183 171.884 102.194 171.862 102.216 171.85C102.273 171.806 102.306 171.761 102.351 171.716Z" fill="#53A7BA"/>
</g>
<g style="mix-blend-mode:multiply" opacity="0.2">
<path d="M107.086 167.536L107.052 167.558C107.052 167.558 106.995 167.604 106.961 167.626C106.995 167.604 107.018 167.581 107.052 167.558L107.086 167.536Z" fill="#53A7BA"/>
</g>
<g style="mix-blend-mode:multiply" opacity="0.2">
<path d="M96.6188 178.671C96.6188 178.671 96.6525 178.615 96.675 178.592C96.6525 178.615 96.6413 178.649 96.6188 178.671C96.5402 178.783 96.4615 178.907 96.3828 179.031L96.3379 179.109C96.3379 179.109 96.3716 179.064 96.3828 179.031C96.4615 178.907 96.5402 178.783 96.6188 178.671Z" fill="#53A7BA"/>
</g>
<g style="mix-blend-mode:multiply" opacity="0.2">
<path d="M100.746 173.412C100.634 173.536 100.533 173.66 100.432 173.772C100.477 173.727 100.522 173.671 100.566 173.626C100.623 173.558 100.69 173.48 100.758 173.412H100.746Z" fill="#53A7BA"/>
</g>
<g style="mix-blend-mode:multiply" opacity="0.2">
<path d="M99.2442 175.154C99.2442 175.154 99.2215 175.188 99.2102 175.199L99.1875 175.222C99.1875 175.222 99.1988 175.199 99.2102 175.188L99.2442 175.143V175.154Z" fill="#53A7BA"/>
</g>
<path d="M91.7385 188.031C91.716 188.099 91.6824 188.166 91.6599 188.234C91.4805 188.694 91.3122 189.155 91.1552 189.616C91.1328 189.672 91.1103 189.739 91.0879 189.795C91.2898 189.2 91.5141 188.616 91.7385 188.031Z" fill="white"/>
<g style="mix-blend-mode:multiply" opacity="0.2">
<path d="M91.7385 188.031C91.716 188.099 91.6824 188.166 91.6599 188.234C91.4805 188.694 91.3122 189.155 91.1552 189.616C91.1328 189.672 91.1103 189.739 91.0879 189.795C91.2898 189.2 91.5141 188.616 91.7385 188.031Z" fill="#53A7BA"/>
</g>
<path d="M148.551 200.437C147.676 199.976 146.824 199.515 145.982 199.032L146.274 200.437H148.551Z" fill="white"/>
<g style="mix-blend-mode:multiply" opacity="0.2">
<path d="M148.551 200.437C147.676 199.976 146.824 199.515 145.982 199.032L146.274 200.437H148.551Z" fill="#53A7BA"/>
</g>
<path d="M92.2993 186.649C92.2993 186.649 92.2768 186.705 92.2656 186.728C92.4451 186.301 92.6358 185.874 92.8265 185.447C92.647 185.851 92.4675 186.245 92.2993 186.649Z" fill="white"/>
<g style="mix-blend-mode:multiply" opacity="0.2">
<path d="M92.2993 186.649C92.2993 186.649 92.2768 186.705 92.2656 186.728C92.4451 186.301 92.6358 185.874 92.8265 185.447C92.647 185.851 92.4675 186.245 92.2993 186.649Z" fill="#53A7BA"/>
</g>
<path d="M89.2837 196.526C89.2837 196.582 89.25 196.65 89.25 196.717C89.25 196.65 89.2725 196.594 89.2837 196.537V196.526Z" fill="#53A7BA"/>
<g style="mix-blend-mode:multiply" opacity="0.2">
<path d="M89.2837 196.526C89.2837 196.582 89.25 196.65 89.25 196.717C89.25 196.65 89.2725 196.594 89.2837 196.537V196.526Z" fill="#53A7BA"/>
</g>
<path d="M96.3711 179.053C96.3711 179.053 96.3824 179.042 96.3824 179.031C96.3599 179.053 96.3487 179.076 96.3374 179.109C96.315 179.132 96.3037 179.165 96.2812 179.188C96.315 179.143 96.3374 179.098 96.3711 179.053Z" fill="#53A7BA"/>
<g style="mix-blend-mode:multiply" opacity="0.2">
<path d="M96.3711 179.053C96.3711 179.053 96.3824 179.042 96.3824 179.031C96.3599 179.053 96.3487 179.076 96.3374 179.109C96.315 179.132 96.3037 179.165 96.2812 179.188C96.315 179.143 96.3374 179.098 96.3711 179.053Z" fill="#53A7BA"/>
</g>
<path d="M107.085 167.536L107.051 167.57C107.051 167.57 107.073 167.547 107.085 167.536Z" fill="#53A7BA"/>
<g style="mix-blend-mode:multiply" opacity="0.2">
<path d="M107.085 167.536L107.051 167.57C107.051 167.57 107.073 167.547 107.085 167.536Z" fill="#53A7BA"/>
</g>
<path d="M103.449 170.648L103.472 170.626L103.495 170.603L103.472 170.626L103.449 170.648Z" fill="#53A7BA"/>
<g style="mix-blend-mode:multiply" opacity="0.2">
<path d="M103.449 170.648L103.472 170.626L103.495 170.603L103.472 170.626L103.449 170.648Z" fill="#53A7BA"/>
</g>
<path d="M93.9609 183.143C93.9609 183.143 93.9946 183.087 94.0059 183.053C94.0059 183.031 94.0284 183.008 94.0396 182.997C94.0396 183.02 94.0171 183.042 94.0059 183.053C93.9946 183.087 93.9722 183.11 93.9609 183.143Z" fill="#53A7BA"/>
<g style="mix-blend-mode:multiply" opacity="0.2">
<path d="M93.9609 183.143C93.9609 183.143 93.9946 183.087 94.0059 183.053C94.0059 183.031 94.0284 183.008 94.0396 182.997C94.0396 183.02 94.0171 183.042 94.0059 183.053C93.9946 183.087 93.9722 183.11 93.9609 183.143Z" fill="#53A7BA"/>
</g>
<path d="M92.8279 185.447C92.6372 185.874 92.4465 186.301 92.2671 186.728C92.0876 187.155 91.9081 187.593 91.7399 188.031C91.5156 188.616 91.2912 189.2 91.0893 189.795C91.0669 189.84 91.0557 189.874 91.0445 189.919C90.8426 190.526 90.6407 191.133 90.4612 191.751C90.349 192.133 90.2369 192.515 90.1359 192.908C90.0237 193.324 89.9116 193.74 89.8106 194.155C89.6536 194.751 89.519 195.358 89.3956 195.976C89.362 196.122 89.3395 196.257 89.3059 196.403C89.2947 196.436 89.2834 196.481 89.2834 196.526C89.2834 196.594 89.2498 196.65 89.2498 196.717C89.1601 197.144 89.0815 197.571 89.0142 198.009C88.9694 198.268 88.9245 198.538 88.8909 198.796V198.852C88.8348 199.167 88.8011 199.493 88.7563 199.819C88.7338 200.021 88.7002 200.223 88.6777 200.425H107.656C107.23 200.234 106.927 199.807 106.927 199.302C106.927 198.616 107.477 198.066 108.161 198.066C108.845 198.066 109.395 198.616 109.395 199.302C109.395 199.807 109.092 200.234 108.666 200.425H135.339L126.007 186.031L127.263 184.739C119.86 177.255 115.149 169.682 112.3 163.94C110.483 165.041 108.744 166.232 107.096 167.524C107.084 167.524 107.073 167.547 107.062 167.558C107.028 167.581 107.006 167.603 106.972 167.625C105.772 168.569 104.617 169.569 103.506 170.603L103.484 170.626L103.461 170.648C103.125 170.985 102.766 171.322 102.429 171.648C102.407 171.671 102.385 171.693 102.362 171.716C102.317 171.761 102.284 171.806 102.227 171.85C102.205 171.873 102.194 171.895 102.171 171.907C101.7 172.401 101.229 172.895 100.769 173.412C100.702 173.48 100.646 173.558 100.579 173.626C100.534 173.671 100.489 173.727 100.444 173.772C100.04 174.221 99.6476 174.682 99.2551 175.154L99.2214 175.199C99.2214 175.199 99.2102 175.221 99.199 175.233C98.3241 176.311 97.4828 177.435 96.6864 178.604C96.664 178.626 96.6528 178.66 96.6304 178.682C96.5518 178.795 96.4733 178.918 96.3948 179.042C96.3948 179.042 96.3836 179.042 96.3836 179.064C96.3499 179.109 96.3275 179.154 96.2939 179.199C96.092 179.514 95.8901 179.829 95.6882 180.154C95.6545 180.211 95.6209 180.267 95.5872 180.312C95.576 180.334 95.5536 180.357 95.5423 180.379C95.2844 180.806 95.0264 181.233 94.7796 181.671C94.7572 181.705 94.746 181.739 94.7235 181.772C94.4992 182.177 94.2749 182.581 94.0505 182.997C94.0505 183.02 94.0281 183.042 94.0169 183.053C93.9944 183.087 93.9832 183.11 93.972 183.143C93.7701 183.525 93.5682 183.919 93.3775 184.312C93.3551 184.368 93.3214 184.424 93.299 184.469V184.492C93.1756 184.705 93.0859 184.907 92.9962 185.121L92.9064 185.312C92.9064 185.312 92.8503 185.402 92.8391 185.447H92.8279ZM108.161 179.019C108.845 179.019 109.395 179.57 109.395 180.256C109.395 180.941 108.845 181.492 108.161 181.492C107.477 181.492 106.927 180.941 106.927 180.256C106.927 179.57 107.477 179.019 108.161 179.019ZM98.0549 187.807C98.7391 187.807 99.2887 188.357 99.2887 189.043C99.2887 189.728 98.7391 190.279 98.0549 190.279C97.3707 190.279 96.821 189.728 96.821 189.043C96.821 188.357 97.3707 187.807 98.0549 187.807Z" fill="#53A7BA"/>
<g style="mix-blend-mode:multiply" opacity="0.2">
<path d="M92.8279 185.447C92.6372 185.874 92.4465 186.301 92.2671 186.728C92.0876 187.155 91.9081 187.593 91.7399 188.031C91.5156 188.616 91.2912 189.2 91.0893 189.795C91.0669 189.84 91.0557 189.874 91.0445 189.919C90.8426 190.526 90.6407 191.133 90.4612 191.751C90.349 192.133 90.2369 192.515 90.1359 192.908C90.0237 193.324 89.9116 193.74 89.8106 194.155C89.6536 194.751 89.519 195.358 89.3956 195.976C89.362 196.122 89.3395 196.257 89.3059 196.403C89.2947 196.436 89.2834 196.481 89.2834 196.526C89.2834 196.594 89.2498 196.65 89.2498 196.717C89.1601 197.144 89.0815 197.571 89.0142 198.009C88.9694 198.268 88.9245 198.538 88.8909 198.796V198.852C88.8348 199.167 88.8011 199.493 88.7563 199.819C88.7338 200.021 88.7002 200.223 88.6777 200.425H107.656C107.23 200.234 106.927 199.807 106.927 199.302C106.927 198.616 107.477 198.066 108.161 198.066C108.845 198.066 109.395 198.616 109.395 199.302C109.395 199.807 109.092 200.234 108.666 200.425H135.339L126.007 186.031L127.263 184.739C119.86 177.255 115.149 169.682 112.3 163.94C110.483 165.041 108.744 166.232 107.096 167.524C107.084 167.524 107.073 167.547 107.062 167.558C107.028 167.581 107.006 167.603 106.972 167.625C105.772 168.569 104.617 169.569 103.506 170.603L103.484 170.626L103.461 170.648C103.125 170.985 102.766 171.322 102.429 171.648C102.407 171.671 102.385 171.693 102.362 171.716C102.317 171.761 102.284 171.806 102.227 171.85C102.205 171.873 102.194 171.895 102.171 171.907C101.7 172.401 101.229 172.895 100.769 173.412C100.702 173.48 100.646 173.558 100.579 173.626C100.534 173.671 100.489 173.727 100.444 173.772C100.04 174.221 99.6476 174.682 99.2551 175.154L99.2214 175.199C99.2214 175.199 99.2102 175.221 99.199 175.233C98.3241 176.311 97.4828 177.435 96.6864 178.604C96.664 178.626 96.6528 178.66 96.6304 178.682C96.5518 178.795 96.4733 178.918 96.3948 179.042C96.3948 179.042 96.3836 179.042 96.3836 179.064C96.3499 179.109 96.3275 179.154 96.2939 179.199C96.092 179.514 95.8901 179.829 95.6882 180.154C95.6545 180.211 95.6209 180.267 95.5872 180.312C95.576 180.334 95.5536 180.357 95.5423 180.379C95.2844 180.806 95.0264 181.233 94.7796 181.671C94.7572 181.705 94.746 181.739 94.7235 181.772C94.4992 182.177 94.2749 182.581 94.0505 182.997C94.0505 183.02 94.0281 183.042 94.0169 183.053C93.9944 183.087 93.9832 183.11 93.972 183.143C93.7701 183.525 93.5682 183.919 93.3775 184.312C93.3551 184.368 93.3214 184.424 93.299 184.469V184.492C93.1756 184.705 93.0859 184.907 92.9962 185.121L92.9064 185.312C92.9064 185.312 92.8503 185.402 92.8391 185.447H92.8279ZM108.161 179.019C108.845 179.019 109.395 179.57 109.395 180.256C109.395 180.941 108.845 181.492 108.161 181.492C107.477 181.492 106.927 180.941 106.927 180.256C106.927 179.57 107.477 179.019 108.161 179.019ZM98.0549 187.807C98.7391 187.807 99.2887 188.357 99.2887 189.043C99.2887 189.728 98.7391 190.279 98.0549 190.279C97.3707 190.279 96.821 189.728 96.821 189.043C96.821 188.357 97.3707 187.807 98.0549 187.807Z" fill="#53A7BA"/>
</g>
<path d="M108.16 181.491C108.844 181.491 109.393 180.941 109.393 180.255C109.393 179.57 108.844 179.019 108.16 179.019C107.475 179.019 106.926 179.57 106.926 180.255C106.926 180.941 107.475 181.491 108.16 181.491Z" fill="#53A7BA"/>
<g style="mix-blend-mode:multiply" opacity="0.2">
<path d="M108.16 181.491C108.844 181.491 109.393 180.941 109.393 180.255C109.393 179.57 108.844 179.019 108.16 179.019C107.475 179.019 106.926 179.57 106.926 180.255C106.926 180.941 107.475 181.491 108.16 181.491Z" fill="#53A7BA"/>
</g>
<path d="M109.384 199.313C109.384 198.627 108.834 198.077 108.15 198.077C107.466 198.077 106.916 198.627 106.916 199.313C106.916 199.819 107.219 200.246 107.645 200.437H108.643C109.07 200.246 109.372 199.819 109.372 199.313H109.384Z" fill="#53A7BA"/>
<g style="mix-blend-mode:multiply" opacity="0.2">
<path d="M109.384 199.313C109.384 198.627 108.834 198.077 108.15 198.077C107.466 198.077 106.916 198.627 106.916 199.313C106.916 199.819 107.219 200.246 107.645 200.437H108.643C109.07 200.246 109.372 199.819 109.372 199.313H109.384Z" fill="#53A7BA"/>
</g>
<path d="M98.0424 190.279C98.7266 190.279 99.2763 189.728 99.2763 189.043C99.2763 188.357 98.7266 187.807 98.0424 187.807C97.3582 187.807 96.8086 188.357 96.8086 189.043C96.8086 189.728 97.3582 190.279 98.0424 190.279Z" fill="#53A7BA"/>
<g style="mix-blend-mode:multiply" opacity="0.2">
<path d="M98.0424 190.279C98.7266 190.279 99.2763 189.728 99.2763 189.043C99.2763 188.357 98.7266 187.807 98.0424 187.807C97.3582 187.807 96.8086 188.357 96.8086 189.043C96.8086 189.728 97.3582 190.279 98.0424 190.279Z" fill="#53A7BA"/>
</g>
<path d="M145.982 199.032C138.355 194.695 132.197 189.739 127.25 184.739L125.994 186.031L135.326 200.425H146.263L145.971 199.021L145.982 199.032Z" fill="#53A7BA"/>
<g style="mix-blend-mode:multiply">
<path d="M145.982 199.032C138.355 194.695 132.197 189.739 127.25 184.739L125.994 186.031L135.326 200.425H146.263L145.971 199.021L145.982 199.032Z" fill="#53A7BA"/>
</g>
<g style="mix-blend-mode:multiply" opacity="0.2">
<path d="M145.982 199.032C138.355 194.695 132.197 189.739 127.25 184.739L125.994 186.031L135.326 200.425H146.263L145.971 199.021L145.982 199.032Z" fill="#53A7BA"/>
</g>
<path d="M150.381 140.478C167.949 140.478 182.191 124.364 182.191 104.486C182.191 84.609 167.949 68.4952 150.381 68.4952C132.812 68.4952 118.57 84.609 118.57 104.486C118.57 124.364 132.812 140.478 150.381 140.478Z" fill="#1A1A1A"/>
<path d="M160.676 146.478C157.58 147.95 154.114 148.77 150.446 148.77C146.779 148.77 143.313 147.939 140.217 146.478L140.755 131.735H160.126L160.665 146.478H160.676Z" fill="#CEAAA3"/>
<path d="M152.96 75.7429H147.946C136.12 75.7429 126.533 85.3468 126.533 97.1938V121.038C126.533 132.885 136.12 142.489 147.946 142.489H152.96C164.786 142.489 174.372 132.885 174.372 121.038V97.1938C174.372 85.3468 164.786 75.7429 152.96 75.7429Z" fill="#EFC6BB"/>
<path d="M125.86 104.711C125.86 104.711 122.282 79.1027 136.224 85.1593C150.166 91.2159 158.074 92.0137 169.178 82.1479C172.151 82.44 170.266 106.621 177.669 111.532C181.191 101.363 182.055 90.6765 182.055 90.6765C182.055 90.6765 197.523 83.1592 192.464 70.3156C189.985 63.2365 176.323 60.2138 167.507 72.563C173.183 58.5733 170.681 40.1451 146.465 67.3267C144.995 53.3594 127.43 59.9779 130.402 77.1026C124.828 70.9112 103.886 81.4512 125.871 104.711H125.86Z" fill="#1A1A1A"/>
<path d="M182.086 115.346C182.847 111.044 181.08 107.134 178.139 106.612C175.199 106.091 172.199 109.155 171.439 113.457C170.679 117.759 172.446 121.67 175.386 122.191C178.326 122.713 181.326 119.648 182.086 115.346Z" fill="#EFC6BB"/>
<path d="M123.908 122.226C126.857 121.762 128.7 117.887 128.023 113.571C127.346 109.255 124.406 106.132 121.456 106.597C118.506 107.061 116.664 110.936 117.341 115.252C118.018 119.568 120.958 122.691 123.908 122.226Z" fill="#EFC6BB"/>
<path d="M162.808 97.1713C157.828 97.1713 153.588 100.452 152.141 104.97C150.84 104.363 149.483 104.576 148.417 105.026C146.992 100.475 142.741 97.1713 137.727 97.1713C131.547 97.1713 126.533 102.205 126.533 108.385C126.533 114.566 131.558 119.6 137.727 119.6C143.897 119.6 148.922 114.566 148.922 108.385C148.922 108.015 148.899 107.655 148.866 107.296C149.505 106.925 150.638 106.486 151.647 107.296C151.614 107.655 151.591 108.003 151.591 108.374C151.591 114.566 156.616 119.588 162.785 119.588C168.955 119.588 173.98 114.554 173.98 108.374C173.98 102.194 168.955 97.16 162.785 97.16L162.808 97.1713ZM137.739 117.364C132.803 117.364 128.788 113.341 128.788 108.397C128.788 103.453 132.803 99.4298 137.739 99.4298C142.674 99.4298 146.69 103.453 146.69 108.397C146.69 113.341 142.674 117.364 137.739 117.364ZM162.808 117.364C157.873 117.364 153.857 113.341 153.857 108.397C153.857 103.453 157.873 99.4298 162.808 99.4298C167.743 99.4298 171.759 103.453 171.759 108.397C171.759 113.341 167.743 117.364 162.808 117.364Z" fill="#1A1A1A"/>
<path d="M211.635 196.537C211.568 196.178 211.489 195.83 211.422 195.47C211.501 195.886 211.59 196.301 211.669 196.717C211.658 196.661 211.647 196.594 211.635 196.537Z" fill="white"/>
<path d="M212.139 199.571C212.105 199.268 212.06 198.976 212.004 198.672C212.015 198.729 212.026 198.796 212.026 198.852C212.083 199.088 212.116 199.324 212.139 199.571Z" fill="#53A7BA"/>
<path d="M211.209 194.549C211.175 194.414 211.141 194.279 211.107 194.155C211.209 194.537 211.298 194.919 211.377 195.301C211.321 195.054 211.265 194.796 211.209 194.549Z" fill="#53A7BA"/>
<path fill-rule="evenodd" clip-rule="evenodd" d="M150.929 132.69C149.482 132.926 147.183 132.522 146.05 131.612C145.556 131.207 145.287 130.724 145.198 130.23C144.872 128.454 147.474 127.196 150.312 127.207C153.386 127.229 154.642 128.51 154.754 130.162C154.855 131.668 152.387 132.443 150.929 132.69Z" fill="white"/>
<path fill-rule="evenodd" clip-rule="evenodd" d="M265.328 141.118C248.144 145.95 220.988 137.781 207.484 119.442C201.572 111.419 198.454 101.655 197.389 91.8002C193.53 56.0562 224.32 30.7961 258.037 31.1332C294.491 31.504 309.376 57.4046 310.621 90.463C311.754 120.656 282.523 136.286 265.328 141.118Z" fill="#F24D4D"/>
<path d="M265.059 86.8111L278.081 73.4956C280.919 70.5966 280.885 65.9446 277.98 63.1017C275.075 60.2588 270.431 60.3037 267.605 63.2028L254.773 76.316L241.941 63.2028C239.115 60.3037 234.471 60.2588 231.566 63.1017C228.672 65.9446 228.627 70.5966 231.465 73.4956L244.487 86.8111L231.465 100.127C228.627 103.026 228.661 107.678 231.566 110.521C233.001 111.925 234.852 112.622 236.703 112.622C238.554 112.622 240.505 111.88 241.941 110.419L254.773 97.3062L267.605 110.419C269.041 111.891 270.936 112.622 272.843 112.622C274.75 112.622 276.556 111.925 277.98 110.521C280.874 107.678 280.919 103.026 278.081 100.127L265.059 86.8111Z" fill="white"/>
</g>
</g>
</g>
<defs>
<clipPath id="clip0_737_25363">
<path d="M0 12C0 5.37257 5.37258 0 12 0H388C394.627 0 400 5.37258 400 12V188.285C400 194.913 394.627 200.285 388 200.285H12C5.37257 200.285 0 194.913 0 188.285V12Z" fill="white"/>
</clipPath>
<clipPath id="clip1_737_25363">
<rect width="221.821" height="170" fill="white" transform="translate(89.1309 30)"/>
</clipPath>
<clipPath id="clip2_737_25363">
<rect width="221.821" height="170" fill="white" transform="translate(88.5879 31.1333)"/>
</clipPath>
</defs>
</svg>
