<svg width="182" height="68" viewBox="0 0 182 68" fill="none" xmlns="http://www.w3.org/2000/svg">
<path d="M54.6882 26.1481C54.8524 26.1394 55.0169 26.1394 55.1811 26.1481C55.3038 26.1604 55.4235 26.1937 55.5348 26.2467C55.6482 26.3011 55.752 26.3735 55.8422 26.4612C55.9598 26.5781 56.0702 26.702 56.1727 26.8324L68.6987 42.7915C68.6523 42.4029 68.6234 42.026 68.606 41.6606C68.5886 41.2953 68.606 40.9473 68.606 40.6284V26.1307H72.5145V49.9939H70.2239C69.9237 50.0041 69.6248 49.9487 69.3482 49.8315C69.0808 49.6925 68.8488 49.4941 68.6697 49.2516L56.1959 33.3621C56.2249 33.7159 56.2539 34.0638 56.2713 34.4118C56.2887 34.7597 56.2713 35.0729 56.2713 35.3628V50.0171H52.3569V26.1481H54.6882ZM81.4219 33.107V50.0403H77.3626V33.107H81.4219ZM82.0018 28.172C82.0069 28.5127 81.9335 28.85 81.7873 29.1578C81.6453 29.4617 81.4488 29.7369 81.2073 29.9697C80.9669 30.2125 80.6838 30.4091 80.3723 30.5496C80.0499 30.6882 79.7025 30.7592 79.3516 30.7584C79.0082 30.7592 78.6685 30.6881 78.3542 30.5496C77.7395 30.2886 77.2492 29.8004 76.9856 29.1868C76.8467 28.8768 76.7756 28.5407 76.7769 28.201C76.776 27.8482 76.8471 27.499 76.9856 27.1745C77.1219 26.864 77.3191 26.584 77.5655 26.3511C77.8005 26.117 78.078 25.93 78.3832 25.8001C78.6975 25.6617 79.0372 25.5906 79.3806 25.5914C79.7334 25.5906 80.0826 25.6616 80.4071 25.8001C80.7157 25.9299 80.9971 26.1168 81.2363 26.3511C81.4817 26.5849 81.6788 26.8647 81.8163 27.1745C81.962 27.4969 82.0352 27.8472 82.0308 28.201L82.0018 28.172ZM85.9974 50.0345V33.0838H88.491C88.7233 33.0679 88.9539 33.1332 89.1432 33.2686C89.3326 33.404 89.469 33.6011 89.529 33.8261L89.79 35.0787C90.0808 34.7549 90.3927 34.4508 90.7236 34.1682C91.0428 33.8952 91.3909 33.658 91.7617 33.4607C92.1384 33.2586 92.5373 33.101 92.9505 32.991C93.4043 32.8697 93.8726 32.8112 94.3423 32.817C95.2973 32.7767 96.2346 33.0837 96.9809 33.6811C97.6916 34.3039 98.224 35.1044 98.5234 36.0007C98.7685 35.4674 99.1018 34.9792 99.5092 34.5568C99.8934 34.1674 100.333 33.8372 100.814 33.5767C101.289 33.3179 101.796 33.1229 102.322 32.9968C102.851 32.8791 103.392 32.8188 103.934 32.817C104.785 32.8019 105.631 32.9475 106.428 33.2462C107.129 33.5131 107.757 33.9424 108.26 34.4988C108.794 35.0859 109.197 35.7797 109.443 36.5342C109.716 37.4164 109.848 38.3364 109.832 39.2598V50.0345H105.772V39.2366C105.835 38.3654 105.582 37.5009 105.059 36.801C104.795 36.52 104.471 36.301 104.113 36.1597C103.754 36.0183 103.368 35.9581 102.983 35.9833C102.586 35.9823 102.193 36.055 101.823 36.1979C101.459 36.3423 101.13 36.5629 100.858 36.845C100.585 37.127 100.377 37.464 100.246 37.8332C100.082 38.2825 100.003 38.7585 100.014 39.2366V50.0113H95.9254V39.2366C96.0004 38.356 95.7577 37.4776 95.2411 36.7604C94.9806 36.4915 94.6645 36.2827 94.3149 36.1485C93.9654 36.0143 93.5908 35.9579 93.2172 35.9833C92.6409 35.9831 92.0748 36.1351 91.5761 36.4241C91.0365 36.7389 90.5542 37.1428 90.1495 37.6187V50.0113L85.9974 50.0345ZM113.833 50.0345V25.516H117.892V35.1831C118.544 34.4832 119.316 33.9058 120.171 33.4781C121.097 33.0338 122.114 32.8152 123.14 32.8402C124.017 32.8227 124.884 33.0158 125.671 33.4033C126.457 33.7908 127.138 34.3614 127.658 35.0671C128.251 35.8762 128.687 36.7887 128.945 37.7578C129.264 38.9569 129.416 40.194 129.398 41.4345C129.409 42.6251 129.237 43.8104 128.887 44.9487C128.576 45.9675 128.08 46.9206 127.426 47.7613C126.798 48.5418 126.006 49.1752 125.106 49.617C124.169 50.0711 123.138 50.2995 122.097 50.2839C121.618 50.2898 121.141 50.2372 120.676 50.1273C119.875 49.9411 119.134 49.5539 118.524 49.0023C118.211 48.7279 117.921 48.4293 117.655 48.1092L117.475 49.269C117.439 49.5056 117.32 49.7216 117.138 49.8779C116.947 50.0105 116.716 50.0757 116.483 50.0635L113.833 50.0345ZM121.749 36.0065C120.991 35.9893 120.242 36.1756 119.58 36.5458C118.936 36.945 118.369 37.4555 117.904 38.0536V45.6446C118.298 46.1629 118.817 46.5737 119.412 46.8392C119.974 47.071 120.578 47.1874 121.186 47.1813C121.762 47.1881 122.332 47.0693 122.856 46.8334C123.36 46.5941 123.794 46.2285 124.115 45.7722C124.497 45.2369 124.771 44.6321 124.921 43.9919C125.123 43.1569 125.217 42.2992 125.199 41.4403C125.216 40.595 125.136 39.7506 124.961 38.9235C124.84 38.327 124.608 37.7585 124.277 37.2475C124.009 36.8424 123.637 36.5177 123.198 36.3081C122.756 36.0988 122.273 35.988 121.784 35.9833L121.749 36.0065ZM136.322 33.107V43.8411C136.27 44.7012 136.525 45.5519 137.041 46.2419C137.312 46.5364 137.647 46.766 138.019 46.9136C138.392 47.0612 138.793 47.123 139.192 47.0944C139.882 47.0946 140.561 46.9317 141.176 46.6189C141.821 46.2832 142.408 45.8466 142.915 45.3257V33.0838H146.975V50.0171H144.481C144.248 50.0328 144.017 49.9666 143.827 49.83C143.638 49.6935 143.502 49.4951 143.443 49.269L143.165 47.9178C142.822 48.2634 142.458 48.5868 142.074 48.8863C141.704 49.1761 141.304 49.4249 140.88 49.6286C140.44 49.836 139.979 49.9955 139.505 50.1041C138.991 50.2255 138.463 50.284 137.934 50.2781C137.092 50.2942 136.257 50.1342 135.481 49.8083C134.789 49.51 134.176 49.0555 133.689 48.4804C133.191 47.8819 132.819 47.1897 132.593 46.4449C132.337 45.601 132.212 44.7229 132.222 43.8411V33.0838L136.322 33.107ZM161.409 36.4067C161.319 36.553 161.201 36.6793 161.061 36.7778C160.918 36.8526 160.758 36.8886 160.597 36.8822C160.375 36.8757 160.157 36.8203 159.959 36.7198C159.733 36.6096 159.472 36.482 159.17 36.3487C158.842 36.1984 158.503 36.0743 158.155 35.9775C157.719 35.8598 157.268 35.8051 156.816 35.8152C156.145 35.775 155.479 35.9541 154.919 36.3255C154.702 36.4723 154.524 36.6711 154.402 36.9041C154.281 37.137 154.219 37.3966 154.224 37.6593C154.217 37.828 154.246 37.9962 154.306 38.1537C154.367 38.3112 154.459 38.4547 154.577 38.5755C154.85 38.847 155.168 39.0688 155.517 39.2308C155.947 39.4286 156.391 39.5953 156.845 39.7295C157.343 39.8803 157.848 40.0427 158.364 40.2167C158.88 40.3906 159.385 40.5936 159.883 40.7966C160.365 41.0177 160.812 41.3067 161.211 41.6548C161.638 42.0259 161.975 42.4879 162.199 43.0069C162.423 43.5258 162.527 44.0883 162.505 44.653C162.516 45.4254 162.365 46.1917 162.064 46.903C161.768 47.5869 161.322 48.1955 160.759 48.6833C160.136 49.2077 159.414 49.6021 158.637 49.8431C157.699 50.1406 156.72 50.2836 155.737 50.2665C155.163 50.2667 154.591 50.2143 154.026 50.1099C153.483 50.0059 152.948 49.8605 152.426 49.675C151.936 49.495 151.463 49.2738 151.011 49.0139C150.597 48.7773 150.209 48.4995 149.851 48.1846L150.79 46.6363C150.898 46.4619 151.045 46.3149 151.22 46.2071C151.413 46.1024 151.631 46.0504 151.852 46.0563C152.106 46.057 152.355 46.1338 152.565 46.2767C152.791 46.4159 153.052 46.5725 153.348 46.7406C153.686 46.9212 154.037 47.0762 154.398 47.2045C154.891 47.3596 155.406 47.4321 155.923 47.4191C156.345 47.4252 156.765 47.3665 157.169 47.2451C157.481 47.1463 157.772 46.991 158.028 46.787C158.244 46.6153 158.413 46.3919 158.521 46.1375C158.624 45.8956 158.677 45.6352 158.677 45.372C158.686 45.1943 158.66 45.0165 158.599 44.8492C158.538 44.6818 158.444 44.5284 158.324 44.3978C158.056 44.1184 157.737 43.8938 157.384 43.7367C156.953 43.5336 156.507 43.3649 156.05 43.2322C155.552 43.0814 155.041 42.9248 154.513 42.7451C153.991 42.5698 153.48 42.3626 152.983 42.1246C152.491 41.8983 152.039 41.5948 151.643 41.2257C151.243 40.8493 150.923 40.3955 150.703 39.8919C150.454 39.2856 150.333 38.6338 150.35 37.9782C150.349 37.2958 150.489 36.6207 150.761 35.9949C151.038 35.3626 151.452 34.8 151.974 34.348C152.56 33.8504 153.238 33.4704 153.968 33.2288C154.86 32.9322 155.795 32.7891 156.735 32.8054C157.823 32.7938 158.904 32.9907 159.918 33.3853C160.81 33.7271 161.624 34.2437 162.313 34.9047L161.409 36.4067ZM172.346 40.5124C171.519 40.5122 170.698 40.367 169.922 40.0833C169.135 39.7989 168.413 39.3591 167.799 38.7901C167.16 38.1854 166.652 37.4548 166.309 36.6444C165.909 35.6963 165.711 34.6752 165.729 33.6463C165.721 32.6183 165.918 31.599 166.309 30.6482C166.697 29.7259 167.265 28.89 167.979 28.1894C168.717 27.4662 169.592 26.8983 170.554 26.5192C171.609 26.1007 172.736 25.8938 173.871 25.9103C174.994 25.893 176.11 26.0898 177.159 26.4902C178.095 26.8481 178.944 27.3995 179.653 28.1082C180.353 28.8171 180.895 29.6672 181.241 30.6018C181.619 31.6203 181.805 32.6995 181.792 33.7855C181.792 34.4877 181.728 35.1884 181.601 35.8789C181.477 36.53 181.295 37.1686 181.056 37.7868C180.818 38.4013 180.533 38.9965 180.203 39.5672C179.879 40.1471 179.508 40.727 179.102 41.3069L173.639 49.0951C173.419 49.3817 173.132 49.6105 172.804 49.7619C172.411 49.9473 171.98 50.0405 171.545 50.0345H167.799L175.205 40.756C175.396 40.524 175.57 40.3036 175.732 40.0833C175.895 39.8629 176.057 39.6426 176.214 39.4222C175.653 39.7801 175.041 40.0499 174.399 40.2225C173.72 40.4084 173.02 40.5001 172.317 40.495L172.346 40.5124ZM177.907 33.3679C177.919 32.7746 177.819 32.1842 177.611 31.6282C177.429 31.1405 177.142 30.699 176.77 30.335C176.4 29.978 175.96 29.7015 175.477 29.5232C174.951 29.3329 174.395 29.2386 173.836 29.2448C173.265 29.2341 172.697 29.3365 172.166 29.5464C171.689 29.7387 171.259 30.0292 170.902 30.3988C170.552 30.7728 170.28 31.2123 170.101 31.692C169.911 32.2199 169.816 32.7777 169.823 33.339C169.797 33.8895 169.88 34.4397 170.067 34.9582C170.254 35.4766 170.542 35.953 170.913 36.3603C171.304 36.7248 171.766 37.0054 172.27 37.1849C172.773 37.3644 173.308 37.439 173.842 37.4041C174.437 37.4149 175.028 37.3085 175.582 37.091C176.07 36.8993 176.513 36.6069 176.881 36.2327C177.235 35.8649 177.508 35.4261 177.681 34.9453C177.862 34.4314 177.952 33.8897 177.948 33.3448L177.907 33.3679Z" fill="white"/>
<path d="M20.0442 68H1V29.3549L10.5279 23.6022V13.5814L33.9968 0V59.7595L20.0442 68ZM5.95242 63.0476H18.7104L29.0676 56.9296V8.58264L15.4977 16.4346V20.6099L25.0256 14.8572V53.6705L10.5279 62.2879V29.3839L5.95242 32.1501V63.0476ZM15.4977 26.3974V53.5835L20.0732 50.8637V23.6081L15.4977 26.3974Z" fill="white"/>
</svg>
