<svg width="290" height="40" viewBox="0 0 290 40" fill="none" xmlns="http://www.w3.org/2000/svg">
<path d="M55.5813 15.3812C55.6779 15.3761 55.7746 15.3761 55.8712 15.3812C55.9434 15.3884 56.0138 15.408 56.0793 15.4392C56.146 15.4712 56.2071 15.5138 56.2601 15.5654C56.3293 15.6341 56.3943 15.707 56.4545 15.7837L63.8228 25.1714C63.7955 24.9429 63.7784 24.7211 63.7682 24.5062C63.758 24.2913 63.7682 24.0866 63.7682 23.899V15.371H66.0674V29.4081H64.7199C64.5433 29.4142 64.3675 29.3816 64.2048 29.3126C64.0475 29.2308 63.911 29.1141 63.8057 28.9715L56.4682 19.6248C56.4852 19.8328 56.5023 20.0375 56.5125 20.2422C56.5228 20.4469 56.5125 20.6311 56.5125 20.8016V29.4218H54.21V15.3812H55.5813ZM71.307 19.4747V29.4354H68.9192V19.4747H71.307ZM71.6481 16.5717C71.6511 16.7721 71.6079 16.9706 71.5219 17.1516C71.4384 17.3304 71.3228 17.4922 71.1808 17.6292C71.0393 17.772 70.8728 17.8877 70.6896 17.9703C70.4999 18.0518 70.2956 18.0936 70.0892 18.0931C69.8872 18.0936 69.6873 18.0518 69.5025 17.9703C69.1409 17.8168 68.8525 17.5296 68.6974 17.1687C68.6157 16.9863 68.5739 16.7886 68.5746 16.5888C68.5741 16.3813 68.6159 16.1758 68.6974 15.985C68.7776 15.8023 68.8936 15.6376 69.0385 15.5006C69.1768 15.3629 69.34 15.2529 69.5195 15.1765C69.7044 15.0951 69.9043 15.0532 70.1063 15.0537C70.3138 15.0532 70.5192 15.095 70.71 15.1765C70.8916 15.2528 71.0571 15.3628 71.1979 15.5006C71.3422 15.6381 71.4581 15.8027 71.539 15.985C71.6247 16.1746 71.6678 16.3807 71.6652 16.5888L71.6481 16.5717ZM73.9985 29.432V19.461H75.4653C75.6019 19.4516 75.7376 19.4901 75.849 19.5697C75.9604 19.6494 76.0406 19.7653 76.0759 19.8977L76.2294 20.6345C76.4005 20.444 76.5839 20.2651 76.7786 20.0989C76.9663 19.9383 77.1711 19.7988 77.3892 19.6827C77.6108 19.5638 77.8455 19.4711 78.0885 19.4064C78.3555 19.3351 78.6309 19.3007 78.9072 19.3041C79.469 19.2804 80.0204 19.4609 80.4593 19.8124C80.8774 20.1787 81.1906 20.6496 81.3667 21.1769C81.5109 20.8631 81.7069 20.576 81.9466 20.3275C82.1726 20.0985 82.4312 19.9042 82.7141 19.751C82.9935 19.5987 83.2917 19.484 83.6011 19.4098C83.9124 19.3406 84.2304 19.3051 84.5494 19.3041C85.0498 19.2952 85.5475 19.3808 86.0162 19.5565C86.4287 19.7135 86.7981 19.9661 87.0941 20.2934C87.4082 20.6387 87.6454 21.0468 87.79 21.4907C87.9508 22.0096 88.028 22.5508 88.0186 23.094V29.432H85.6307V23.0803C85.6675 22.5679 85.5186 22.0593 85.2112 21.6476C85.0557 21.4823 84.8655 21.3535 84.6544 21.2704C84.4433 21.1872 84.2164 21.1518 83.9899 21.1666C83.7567 21.166 83.5253 21.2088 83.3077 21.2928C83.0934 21.3778 82.8998 21.5076 82.7397 21.6735C82.5797 21.8394 82.457 22.0376 82.3798 22.2548C82.2833 22.5191 82.237 22.7991 82.2434 23.0803V29.4184H79.8385V23.0803C79.8826 22.5623 79.7398 22.0456 79.436 21.6237C79.2827 21.4656 79.0968 21.3427 78.8911 21.2638C78.6855 21.1848 78.4652 21.1517 78.2454 21.1666C77.9064 21.1665 77.5734 21.2559 77.2801 21.4259C76.9627 21.6111 76.6789 21.8487 76.4409 22.1286V29.4184L73.9985 29.432ZM90.3723 29.432V15.0094H92.7602V20.6959C93.1436 20.2842 93.5976 19.9446 94.1008 19.693C94.6451 19.4316 95.2437 19.303 95.8473 19.3177C96.3628 19.3074 96.8732 19.421 97.3356 19.649C97.798 19.8769 98.199 20.2125 98.5047 20.6277C98.8533 21.1036 99.1101 21.6404 99.262 22.2105C99.4492 22.9158 99.5387 23.6435 99.5281 24.3732C99.5347 25.0736 99.4334 25.7708 99.2279 26.4404C99.0446 27.0397 98.7532 27.6003 98.3682 28.0948C97.9986 28.554 97.5328 28.9266 97.0038 29.1864C96.4523 29.4535 95.846 29.5879 95.2333 29.5787C94.952 29.5822 94.6714 29.5513 94.3976 29.4866C93.9264 29.3771 93.4908 29.1493 93.132 28.8248C92.9479 28.6635 92.7768 28.4878 92.6203 28.2995L92.5146 28.9817C92.4935 29.1209 92.4233 29.2479 92.3167 29.3399C92.2038 29.4179 92.0683 29.4563 91.9313 29.4491L90.3723 29.432ZM95.0287 21.1803C94.5827 21.1702 94.1422 21.2797 93.7529 21.4975C93.3742 21.7323 93.0404 22.0326 92.767 22.3844V26.8497C92.9991 27.1546 93.3041 27.3962 93.6539 27.5524C93.9849 27.6888 94.3398 27.7572 94.6978 27.7537C95.0362 27.7576 95.3715 27.6878 95.6802 27.549C95.9766 27.4082 96.2316 27.1932 96.4204 26.9248C96.6451 26.6099 96.8062 26.2541 96.8946 25.8775C97.0137 25.3864 97.0688 24.8819 97.0583 24.3766C97.0683 23.8794 97.0214 23.3827 96.9185 22.8961C96.8471 22.5452 96.7105 22.2109 96.5159 21.9103C96.3584 21.672 96.1391 21.481 95.8815 21.3577C95.6211 21.2346 95.3371 21.1694 95.0491 21.1666L95.0287 21.1803ZM103.601 19.4747V25.7888C103.571 26.2948 103.72 26.7952 104.024 27.2011C104.184 27.3743 104.381 27.5094 104.6 27.5962C104.819 27.683 105.055 27.7193 105.29 27.7025C105.695 27.7027 106.095 27.6068 106.456 27.4228C106.836 27.2254 107.181 26.9686 107.48 26.6621V19.461H109.867V29.4218H108.401C108.264 29.431 108.128 29.3921 108.016 29.3117C107.905 29.2314 107.825 29.1147 107.79 28.9817L107.626 28.1869C107.425 28.3902 107.211 28.5805 106.985 28.7566C106.767 28.9271 106.532 29.0735 106.282 29.1932C106.024 29.3153 105.753 29.4091 105.474 29.473C105.171 29.5444 104.861 29.5788 104.549 29.5753C104.054 29.5848 103.563 29.4907 103.106 29.299C102.699 29.1235 102.339 28.8561 102.052 28.5178C101.76 28.1658 101.54 27.7586 101.408 27.3205C101.257 26.8241 101.183 26.3075 101.189 25.7888V19.461L103.601 19.4747ZM118.358 21.4156C118.306 21.5017 118.236 21.576 118.153 21.634C118.069 21.6779 117.975 21.6991 117.88 21.6954C117.75 21.6916 117.622 21.6589 117.505 21.5999C117.372 21.535 117.219 21.46 117.041 21.3815C116.848 21.2931 116.649 21.2201 116.444 21.1632C116.188 21.0939 115.922 21.0618 115.656 21.0677C115.262 21.0441 114.87 21.1495 114.541 21.3679C114.413 21.4542 114.308 21.5712 114.237 21.7082C114.165 21.8453 114.129 21.998 114.132 22.1525C114.128 22.2517 114.144 22.3507 114.18 22.4433C114.216 22.536 114.27 22.6204 114.34 22.6914C114.5 22.8512 114.687 22.9816 114.892 23.0769C115.145 23.1933 115.406 23.2913 115.673 23.3703C115.967 23.459 116.264 23.5545 116.567 23.6568C116.871 23.7592 117.167 23.8786 117.461 23.9979C117.744 24.128 118.007 24.298 118.242 24.5028C118.493 24.7211 118.691 24.9929 118.823 25.2981C118.955 25.6033 119.016 25.9343 119.003 26.2664C119.009 26.7208 118.921 27.1716 118.743 27.59C118.57 27.9923 118.307 28.3502 117.976 28.6372C117.609 28.9457 117.185 29.1776 116.727 29.3195C116.176 29.4944 115.6 29.5785 115.022 29.5685C114.684 29.5686 114.347 29.5378 114.016 29.4764C113.696 29.4152 113.381 29.3296 113.074 29.2205C112.786 29.1147 112.508 28.9846 112.242 28.8316C111.998 28.6925 111.77 28.5291 111.559 28.3438L112.112 27.4331C112.175 27.3305 112.262 27.244 112.364 27.1806C112.479 27.119 112.607 27.0884 112.736 27.0919C112.886 27.0923 113.032 27.1375 113.156 27.2215C113.289 27.3034 113.442 27.3955 113.616 27.4945C113.815 27.6007 114.022 27.6919 114.234 27.7673C114.524 27.8586 114.827 27.9012 115.131 27.8936C115.379 27.8971 115.627 27.8626 115.864 27.7912C116.048 27.7331 116.219 27.6418 116.369 27.5217C116.496 27.4207 116.596 27.2893 116.659 27.1397C116.72 26.9974 116.751 26.8442 116.751 26.6894C116.757 26.5848 116.741 26.4802 116.705 26.3818C116.669 26.2834 116.614 26.1931 116.543 26.1163C116.386 25.9519 116.198 25.8199 115.991 25.7274C115.737 25.6079 115.475 25.5087 115.206 25.4307C114.913 25.342 114.612 25.2499 114.302 25.1441C113.995 25.041 113.694 24.9192 113.401 24.7791C113.112 24.646 112.846 24.4675 112.614 24.2504C112.378 24.0289 112.19 23.762 112.061 23.4658C111.914 23.1091 111.843 22.7257 111.853 22.3401C111.852 21.9387 111.935 21.5415 112.095 21.1735C112.258 20.8015 112.501 20.4705 112.808 20.2047C113.153 19.9119 113.552 19.6884 113.981 19.5463C114.506 19.3718 115.056 19.2876 115.609 19.2973C116.249 19.2905 116.885 19.4062 117.481 19.6384C118.006 19.8394 118.485 20.1433 118.89 20.5321L118.358 21.4156ZM124.792 23.8308C124.305 23.8307 123.823 23.7453 123.366 23.5784C122.903 23.4111 122.478 23.1524 122.117 22.8177C121.741 22.4619 121.443 22.0322 121.24 21.5555C121.005 20.9978 120.889 20.3971 120.899 19.7919C120.895 19.1872 121.011 18.5876 121.24 18.0283C121.469 17.4858 121.803 16.9941 122.223 16.5819C122.657 16.1565 123.172 15.8225 123.738 15.5995C124.358 15.3533 125.021 15.2316 125.689 15.2413C126.349 15.2311 127.006 15.3469 127.623 15.5825C128.173 15.793 128.673 16.1173 129.09 16.5342C129.502 16.9512 129.821 17.4512 130.024 18.001C130.246 18.6002 130.356 19.2349 130.348 19.8738C130.349 20.2868 130.311 20.699 130.236 21.1052C130.163 21.4882 130.056 21.8638 129.915 22.2275C129.775 22.5889 129.608 22.9391 129.414 23.2748C129.223 23.6159 129.004 23.957 128.766 24.2981L125.552 28.8794C125.423 29.048 125.254 29.1826 125.061 29.2717C124.83 29.3807 124.577 29.4356 124.321 29.432H122.117L126.473 23.9741C126.586 23.8376 126.688 23.708 126.784 23.5784C126.879 23.4487 126.975 23.3191 127.067 23.1895C126.737 23.4 126.377 23.5588 125.999 23.6602C125.6 23.7696 125.188 23.8236 124.775 23.8206L124.792 23.8308ZM128.063 19.6282C128.07 19.2791 128.011 18.9319 127.889 18.6048C127.782 18.3179 127.613 18.0582 127.394 17.8441C127.176 17.6341 126.917 17.4715 126.634 17.3665C126.324 17.2546 125.997 17.1992 125.668 17.2028C125.332 17.1965 124.998 17.2568 124.686 17.3802C124.406 17.4933 124.152 17.6642 123.942 17.8816C123.737 18.1016 123.577 18.3601 123.471 18.6423C123.359 18.9528 123.304 19.281 123.308 19.6111C123.293 19.935 123.341 20.2586 123.451 20.5636C123.561 20.8685 123.731 21.1488 123.949 21.3884C124.179 21.6028 124.451 21.7678 124.747 21.8734C125.043 21.979 125.358 22.0229 125.672 22.0024C126.022 22.0087 126.369 21.9461 126.695 21.8182C126.982 21.7054 127.243 21.5334 127.459 21.3133C127.668 21.0969 127.828 20.8389 127.93 20.556C128.037 20.2537 128.09 19.9351 128.087 19.6145L128.063 19.6282Z" fill="#105767"/>
<path d="M35.2025 40H24V17.2676L29.6046 13.8837V7.98908L43.4099 0V35.1526L35.2025 40ZM26.9132 37.0868H34.4179L40.5103 33.488V5.04861L32.5281 9.6674V12.1235L38.1327 8.73955V31.5709L29.6046 36.6399V17.2847L26.9132 18.9118V37.0868ZM32.5281 15.5279V31.5197L35.2195 29.9198V13.8871L32.5281 15.5279Z" fill="#105767"/>
</svg>
