<svg width="24" height="24" viewBox="0 0 24 24" fill="none" xmlns="http://www.w3.org/2000/svg">
<path d="M0 4C0 1.79086 1.79086 0 4 0H20C22.2091 0 24 1.79086 24 4V20C24 22.2091 22.2091 24 20 24H4C1.79086 24 0 22.2091 0 20V4Z" fill="#F4F8FB"/>
<path d="M13.6875 3H5.06262C3.9225 3 3 3.9225 3 5.06262V16.6874C3 17.8275 3.9225 18.75 5.06262 18.75H10.0049C9.59988 17.895 9.37488 16.9426 9.37488 15.9375C9.37488 15.0751 9.53977 14.25 9.84738 13.4924C9.8175 13.4998 9.78727 13.4998 9.75 13.4998H5.99988C5.5875 13.4998 5.25 13.1623 5.25 12.7499C5.25 12.3375 5.5875 12 5.99988 12H9.75C10.0351 12 10.29 12.1649 10.4099 12.405C10.8975 11.6474 11.5275 11.0026 12.27 10.4999H5.99988C5.5875 10.4999 5.25 10.1624 5.25 9.75C5.25 9.33762 5.5875 9.00012 5.99988 9.00012H12.7499C13.1623 9.00012 13.4998 9.33762 13.4998 9.75C13.4998 9.78762 13.4998 9.8175 13.4924 9.84738C14.1899 9.56227 14.9549 9.39738 15.7498 9.38227V5.06262C15.7498 3.9225 14.8273 3 13.6871 3H13.6875ZM9.00012 7.5H5.99988C5.5875 7.5 5.25 7.1625 5.25 6.75012C5.25 6.33773 5.5875 6.00023 5.99988 6.00023H8.99977C9.41215 6.00023 9.74965 6.33773 9.74965 6.75012C9.74965 7.1625 9.41215 7.5 8.99977 7.5H9.00012Z" fill="#53A7BA"/>
<path d="M16.2832 16.5334V17.2489C16.5824 17.2162 16.7191 17.1058 16.7191 16.917V16.904C16.7191 16.7282 16.6218 16.6308 16.2832 16.5331V16.5334Z" fill="#81BFCC"/>
<path d="M15.2361 14.9137V14.9267C15.2361 15.0958 15.3271 15.1935 15.6784 15.2909V14.5885C15.3595 14.6145 15.2361 14.7446 15.2361 14.9137Z" fill="#81BFCC"/>
<path d="M15.9375 10.875C13.1461 10.875 10.875 13.1461 10.875 15.9375C10.875 18.7289 13.1461 21 15.9375 21C18.7289 21 21 18.7289 21 15.9375C21 13.1461 18.7289 10.875 15.9375 10.875ZM17.8444 16.8326C17.8444 17.6261 17.233 18.114 16.3095 18.1984V18.3183C16.3095 18.4775 16.1804 18.6066 16.0212 18.6066H15.9213C15.7621 18.6066 15.633 18.4775 15.633 18.3183V18.1854C15.1402 18.1351 14.6508 17.9875 14.2289 17.7607C14.0324 17.6552 13.9709 17.4025 14.0957 17.2179L14.256 16.9809C14.3678 16.8157 14.5879 16.7682 14.7601 16.8684C15.0677 17.0477 15.3662 17.1606 15.6717 17.2098V16.4293C14.6244 16.1885 14.0911 15.831 14.0911 15.0245V15.0115C14.0911 14.244 14.6504 13.7107 15.6457 13.639V13.4994C15.6457 13.3718 15.7494 13.2681 15.877 13.2681H16.0908C16.2184 13.2681 16.3221 13.3718 16.3221 13.4994V13.6583C16.7123 13.7012 17.0576 13.8102 17.3673 13.9702C17.5505 14.0647 17.6159 14.2939 17.5083 14.4697L17.3438 14.7387C17.2467 14.8972 17.0442 14.9521 16.879 14.8673C16.6863 14.7682 16.4835 14.6947 16.2891 14.6473V15.4017C17.3234 15.6425 17.8437 16.0131 17.8437 16.8196V16.8326H17.8444Z" fill="#81BFCC"/>
</svg>
