<svg width="24" height="24" viewBox="0 0 24 24" fill="none" xmlns="http://www.w3.org/2000/svg">
<path d="M13.1562 2H5.34375C4.05156 2 3 3.05156 3 4.34375V19.6562C3 20.9484 4.05156 22 5.34375 22H11.2187C11.6504 22 12 21.6504 12 21.2188C12 20.7871 11.6504 20.4375 11.2187 20.4375H5.34375C4.91289 20.4375 4.5625 20.0871 4.5625 19.6562V4.34375C4.5625 3.91289 4.91289 3.5625 5.34375 3.5625H10.8125V4.34375C10.8125 5.63594 11.8641 6.6875 13.1562 6.6875H15.5V10.3242C15.5 10.7559 15.8496 11.1055 16.2812 11.1055C16.7129 11.1055 17.0625 10.7559 17.0625 10.3242V5.90625C17.0625 3.75234 15.3102 2 13.1562 2ZM12.375 4.34375V3.5625H13.1562C14.1746 3.5625 15.043 4.21563 15.3656 5.125H13.1562C12.7254 5.125 12.375 4.77461 12.375 4.34375Z" fill="#1A9DFD"/>
<path d="M13.1562 11.0625H6.90625C6.47461 11.0625 6.125 10.7129 6.125 10.2812C6.125 9.84961 6.47461 9.5 6.90625 9.5H13.1562C13.5879 9.5 13.9375 9.84961 13.9375 10.2812C13.9375 10.7129 13.5879 11.0625 13.1562 11.0625Z" fill="#1A9DFD"/>
<path d="M10.8125 14.1875H6.90625C6.47461 14.1875 6.125 13.8379 6.125 13.4062C6.125 12.9746 6.47461 12.625 6.90625 12.625H10.8125C11.2441 12.625 11.5937 12.9746 11.5937 13.4062C11.5937 13.8379 11.2441 14.1875 10.8125 14.1875Z" fill="#1A9DFD"/>
<path d="M10.0312 17.3125H6.90625C6.47461 17.3125 6.125 16.9629 6.125 16.5312C6.125 16.0996 6.47461 15.75 6.90625 15.75H10.0312C10.4629 15.75 10.8125 16.0996 10.8125 16.5312C10.8125 16.9629 10.4629 17.3125 10.0312 17.3125Z" fill="#1A9DFD"/>
<path d="M19.0554 14.1875C19.0599 14.141 19.0599 14.0943 19.0554 14.0479C19.0401 13.8923 18.9683 13.7347 18.8521 13.6185L17.4404 12.2068C17.1647 11.9311 16.7177 11.9311 16.4421 12.2068C16.1664 12.4824 16.1664 12.9294 16.4421 13.205L16.6488 13.4118H15.5294C13.5833 13.4118 12 14.9951 12 16.9412V18.353C12 18.7429 12.316 19.0589 12.7059 19.0589C13.0958 19.0589 13.4118 18.7429 13.4118 18.353V16.9412C13.4118 15.7735 14.3618 14.8236 15.5294 14.8236H16.6488L16.4421 15.0303C16.1664 15.306 16.1664 15.7529 16.4421 16.0286C16.7178 16.3043 17.1647 16.3043 17.4404 16.0286L18.8521 14.6168C18.9705 14.4984 19.0404 14.3403 19.0554 14.1875Z" fill="#1A9DFD"/>
<path d="M21.2941 14.9412C20.9042 14.9412 20.5882 15.2572 20.5882 15.6471V17.0588C20.5882 18.2265 19.6382 19.1765 18.4705 19.1765H17.3511L17.5579 18.9698C17.8336 18.6941 17.8336 18.2471 17.5579 17.9715C17.2822 17.6958 16.8352 17.6958 16.5596 17.9715L15.1479 19.3832C15.0324 19.4987 14.96 19.6559 14.9446 19.8128C14.94 19.8591 14.94 19.9057 14.9446 19.952C14.9602 20.1114 15.0321 20.2658 15.1479 20.3816L16.5596 21.7933C16.8352 22.069 17.2822 22.069 17.5579 21.7933C17.8336 21.5176 17.8336 21.0707 17.5579 20.795L17.3511 20.5883H18.4705C20.4167 20.5883 22 19.005 22 17.0588V15.6471C22 15.2572 21.6839 14.9412 21.2941 14.9412Z" fill="#1A9DFD"/>
</svg>
