<svg width="307" height="111" viewBox="0 0 307 111" fill="none" xmlns="http://www.w3.org/2000/svg">
<path d="M6.85574 121.776C16.0582 104.145 32.2923 91.8503 47.9478 80.2093C66.5842 66.3563 85.2074 52.5041 103.843 38.6373C123.879 23.7387 144.606 8.51066 168.331 2.75232C205.044 -6.15723 243.522 9.82192 270.19 36.3783C296.872 62.934 313.377 98.8287 326.13 135.244C331.22 149.786 335.756 166.193 329.754 180.745C323.927 194.888 309.521 203.329 295.335 207.115C262.907 215.789 229.394 205.735 196.183 206.423C147.634 207.423 95.8916 230.913 52.4888 209.64C21.2226 194.303 -14.5881 162.808 6.85574 121.776Z" fill="#626BDD"/>
</svg>
