<svg width="120" height="120" viewBox="0 0 120 120" fill="none" xmlns="http://www.w3.org/2000/svg">
<rect width="120" height="120" fill="#EEF2F5"/>
<path fill-rule="evenodd" clip-rule="evenodd" d="M90 54.9431V40.928C90 37.1686 89.8026 33.9429 89.2035 31.2474C88.5969 28.518 87.5394 26.152 85.6938 24.3063C83.8482 22.4606 81.4821 21.4032 78.7524 20.7966C76.0572 20.1975 72.8313 20 69.072 20H50.928C47.1686 20 43.9429 20.1975 41.2474 20.7966C38.518 21.4032 36.152 22.4606 34.3063 24.3063C32.4606 26.152 31.4032 28.518 30.7966 31.2474C30.1975 33.9429 30 37.1686 30 40.928V59.072C30 62.8313 30.1975 66.0572 30.7966 68.7524C31.4032 71.4821 32.4606 73.8482 34.3063 75.6938C36.152 77.5394 38.518 78.5969 41.2474 79.2035C43.9429 79.8026 47.1686 80 50.928 80H69.072C72.8313 80 76.0572 79.8026 78.7524 79.2035C81.4821 78.5969 83.8482 77.5394 85.6938 75.6938C87.5394 73.8482 88.5969 71.4821 89.2035 68.7524C89.8026 66.0572 90 62.8313 90 59.072V55.0826C90.0012 55.0361 90.0012 54.9896 90 54.9431ZM36.6536 32.5492C36.198 34.5993 36 37.3055 36 40.928V47.288C38.1596 45.2114 40.17 43.5124 42.1168 42.2736C44.4758 40.7725 46.8966 39.8472 49.5067 39.8472C52.1169 39.8472 54.5376 40.7725 56.8968 42.2736C59.2263 43.756 61.6467 45.8972 64.305 48.5555L69.1809 53.4314C72.1308 50.9996 75.0234 49.3205 78.1368 48.9326C80.1876 48.677 82.1217 49.0019 84 49.7594V40.928C84 37.3055 83.802 34.5993 83.3463 32.5492C82.8984 30.533 82.242 29.3398 81.4512 28.5489C80.6601 27.7581 79.467 27.1017 77.4507 26.6536C75.4008 26.198 72.6945 26 69.072 26H50.928C47.3055 26 44.5993 26.198 42.5492 26.6536C40.533 27.1017 39.3398 27.7581 38.5489 28.5489C37.7581 29.3398 37.1017 30.533 36.6536 32.5492Z" fill="#D3DBE0"/>
<path fill-rule="evenodd" clip-rule="evenodd" d="M66 38.001C66 34.6873 68.6862 32.001 72 32.001C75.3138 32.001 78 34.6873 78 38.001C78 41.3147 75.3138 44.001 72 44.001C68.6862 44.001 66 41.3147 66 38.001Z" fill="#D3DBE0"/>
<path d="M35.1416 90.1331V99.8669H33.3641L29.1293 93.7405H29.058V99.8669H27V90.1331H28.8061L33.0076 96.2548H33.0932V90.1331H35.1416Z" fill="#D3DBE0"/>
<path d="M45.7868 95C45.7868 96.0615 45.5856 96.9645 45.1832 97.7091C44.784 98.4537 44.239 99.0225 43.5482 99.4154C42.8607 99.8051 42.0875 100 41.2288 100C40.3638 100 39.5875 99.8035 38.9 99.4106C38.2124 99.0177 37.669 98.449 37.2697 97.7044C36.8705 96.9598 36.6709 96.0583 36.6709 95C36.6709 93.9385 36.8705 93.0355 37.2697 92.2909C37.669 91.5463 38.2124 90.9791 38.9 90.5894C39.5875 90.1965 40.3638 90 41.2288 90C42.0875 90 42.8607 90.1965 43.5482 90.5894C44.239 90.9791 44.784 91.5463 45.1832 92.2909C45.5856 93.0355 45.7868 93.9385 45.7868 95ZM43.7003 95C43.7003 94.3124 43.5974 93.7326 43.3914 93.2605C43.1886 92.7883 42.9019 92.4303 42.5311 92.1863C42.1604 91.9423 41.7263 91.8203 41.2288 91.8203C40.7314 91.8203 40.2973 91.9423 39.9266 92.1863C39.5558 92.4303 39.2675 92.7883 39.0615 93.2605C38.8588 93.7326 38.7574 94.3124 38.7574 95C38.7574 95.6876 38.8588 96.2674 39.0615 96.7395C39.2675 97.2117 39.5558 97.5697 39.9266 97.8137C40.2973 98.0577 40.7314 98.1797 41.2288 98.1797C41.7263 98.1797 42.1604 98.0577 42.5311 97.8137C42.9019 97.5697 43.1886 97.2117 43.3914 96.7395C43.5974 96.2674 43.7003 95.6876 43.7003 95Z" fill="#D3DBE0"/>
<path d="M52.467 90.1331V99.8669H50.409V90.1331H52.467Z" fill="#D3DBE0"/>
<path d="M54.1602 90.1331H56.6982L59.3788 96.673H59.4929L62.1735 90.1331H64.7115V99.8669H62.7153V93.5314H62.6345L60.1155 99.8194H58.7562L56.2372 93.5076H56.1564V99.8669H54.1602V90.1331Z" fill="#D3DBE0"/>
<path d="M68.0848 99.8669H65.8795L69.2398 90.1331H71.8919L75.2474 99.8669H73.0421L70.6039 92.3574H70.5278L68.0848 99.8669ZM67.947 96.0409H73.1561V97.6473H67.947V96.0409Z" fill="#D3DBE0"/>
<path d="M82.4159 93.2795C82.3493 93.0482 82.2559 92.8438 82.1355 92.6663C82.015 92.4857 81.8677 92.3337 81.6934 92.2101C81.5223 92.0833 81.3259 91.9867 81.1041 91.9202C80.8855 91.8536 80.6431 91.8203 80.3769 91.8203C79.8794 91.8203 79.4422 91.9439 79.0651 92.1911C78.6912 92.4382 78.3997 92.7978 78.1906 93.27C77.9815 93.7389 77.8769 94.3124 77.8769 94.9905C77.8769 95.6686 77.9799 96.2452 78.1858 96.7205C78.3918 97.1958 78.6833 97.5586 79.0604 97.8089C79.4374 98.0561 79.8826 98.1797 80.3959 98.1797C80.8617 98.1797 81.2593 98.0973 81.5889 97.9325C81.9216 97.7646 82.1751 97.5285 82.3493 97.2243C82.5268 96.9202 82.6155 96.5605 82.6155 96.1454L83.0337 96.2072H80.5242V94.6578H84.5974V95.884C84.5974 96.7395 84.4168 97.4747 84.0556 98.0894C83.6944 98.7009 83.1969 99.173 82.5632 99.5057C81.9295 99.8352 81.2039 100 80.3864 100C79.4739 100 78.6722 99.7988 77.9815 99.3964C77.2907 98.9908 76.7521 98.4157 76.3655 97.6711C75.9821 96.9233 75.7904 96.0361 75.7904 95.0095C75.7904 94.2205 75.9045 93.5171 76.1326 92.8992C76.3639 92.2782 76.6871 91.7522 77.1022 91.3213C77.5173 90.8904 78.0005 90.5624 78.5518 90.3375C79.1031 90.1125 79.7004 90 80.3436 90C80.895 90 81.4083 90.0808 81.8835 90.2424C82.3588 90.4008 82.7803 90.6258 83.1478 90.9173C83.5185 91.2088 83.8211 91.5558 84.0556 91.9582C84.2901 92.3574 84.4406 92.7978 84.5071 93.2795H82.4159Z" fill="#D3DBE0"/>
<path d="M86.1433 99.8669V90.1331H92.7022V91.8298H88.2013V94.1492H92.3648V95.846H88.2013V98.1702H92.7212V99.8669H86.1433Z" fill="#D3DBE0"/>
</svg>
