<svg width="36" height="36" viewBox="0 0 36 36" fill="none" xmlns="http://www.w3.org/2000/svg">
<rect width="36" height="36" rx="6" fill="#C6F9D8"/>
<g clip-path="url(#clip0_7542_140707)">
<path d="M24.0484 11H11.9516C10.8754 11 10 11.8754 10 12.9516V23.7408C10 24.8167 10.8754 25.6921 11.9516 25.6921H24.0484C25.1246 25.6921 26 24.8167 26 23.7408V12.9516C26 11.8754 25.1246 11 24.0484 11ZM21.1163 22.7496V24.4048H18.6437V22.7496H21.1163ZM21.1163 19.4803V21.4622H18.6437V19.4803H21.1163ZM21.1163 16.2107V18.193H18.6437V16.2107H21.1163ZM17.3563 22.7496V24.4048H14.8837V22.7496H17.3563ZM17.3563 19.4803V21.4622H14.8837V19.4803H17.3563ZM17.3563 16.2107V18.193H14.8837V16.2107H17.3563ZM11.2874 12.9516C11.2874 12.5853 11.5853 12.2874 11.9516 12.2874H24.0484C24.4147 12.2874 24.7126 12.5853 24.7126 12.9516V14.9234H11.2874V12.9516ZM13.5963 16.2107V18.193H11.2874V16.2107H13.5963ZM13.5963 19.4803V21.4622H11.2874V19.4803H13.5963ZM13.5963 22.7496V24.4048H11.9516C11.5853 24.4048 11.2874 24.1068 11.2874 23.7408V22.7496H13.5963ZM22.4037 22.7496H24.7126V23.7408C24.7126 24.1071 24.4147 24.4048 24.0484 24.4048H22.4037V22.7496ZM24.7126 19.4803V21.4622H22.4037V19.4803H24.7126ZM24.7126 16.2107V18.193H22.4037V16.2107H24.7126Z" fill="#41C973"/>
</g>
<defs>
<clipPath id="clip0_7542_140707">
<rect width="16" height="14.6921" fill="white" transform="translate(10 11)"/>
</clipPath>
</defs>
</svg>
