<svg width="36" height="36" viewBox="0 0 36 36" fill="none" xmlns="http://www.w3.org/2000/svg">
<rect width="36" height="36" rx="6" fill="#DDF0FF"/>
<g clip-path="url(#clip0_7542_140706)">
<path d="M23.5479 13.954H23.272V12.4521C23.272 11.1001 22.172 10 20.8199 10H15.1801C13.828 10 12.728 11.1001 12.728 12.4521V13.954H12.4521C11.1001 13.954 10 15.0541 10 16.4061V20.0843C10 21.4363 11.1001 22.5364 12.4521 22.5364H12.728V24.4674C12.728 25.3125 13.4155 26 14.2605 26H21.7395C22.5845 26 23.272 25.3125 23.272 24.4674V22.5364H23.5479C24.8999 22.5364 26 21.4363 26 20.0843V16.4061C26 15.0541 24.8999 13.954 23.5479 13.954ZM21.7395 24.7739H14.2605C14.0916 24.7739 13.954 24.6363 13.954 24.4674V20.0843H22.046V24.4674C22.046 24.6363 21.9084 24.7739 21.7395 24.7739ZM15.1801 11.2261H20.8199C21.4961 11.2261 22.046 11.7759 22.046 12.4521V13.954H13.954V12.4521C13.954 11.7759 14.5039 11.2261 15.1801 11.2261ZM23.5479 21.3103H23.272V20.0843H23.3946C23.7327 20.0843 24.0077 19.8093 24.0077 19.4713C24.0077 19.1332 23.7327 18.8582 23.3946 18.8582H12.6054C12.2673 18.8582 11.9923 19.1332 11.9923 19.4713C11.9923 19.8093 12.2673 20.0843 12.6054 20.0843H12.728V21.3103H12.4521C11.7759 21.3103 11.2261 20.7605 11.2261 20.0843V16.4061C11.2261 15.73 11.7759 15.1801 12.4521 15.1801H23.5479C24.2241 15.1801 24.7739 15.73 24.7739 16.4061V20.0843C24.7739 20.7605 24.2241 21.3103 23.5479 21.3103Z" fill="#1A9DFD"/>
<path d="M19.2253 20.8203H16.7732C16.4351 20.8203 16.1602 21.0953 16.1602 21.4333C16.1602 21.7714 16.4351 22.0464 16.7732 22.0464H19.2253C19.5634 22.0464 19.8383 21.7714 19.8383 21.4333C19.8383 21.0953 19.5634 20.8203 19.2253 20.8203Z" fill="#1A9DFD"/>
<path d="M19.2253 22.7812H16.7732C16.4351 22.7812 16.1602 23.0562 16.1602 23.3943C16.1602 23.7324 16.4351 24.0073 16.7732 24.0073H19.2253C19.5634 24.0073 19.8383 23.7324 19.8383 23.3943C19.8383 23.0562 19.5634 22.7812 19.2253 22.7812Z" fill="#1A9DFD"/>
<path d="M14.0765 15.916H12.6052C12.2671 15.916 11.9922 16.191 11.9922 16.529C11.9922 16.8671 12.2671 17.1421 12.6052 17.1421H14.0765C14.4146 17.1421 14.6895 16.8671 14.6895 16.529C14.6895 16.191 14.4146 15.916 14.0765 15.916Z" fill="#1A9DFD"/>
</g>
<defs>
<clipPath id="clip0_7542_140706">
<rect width="16" height="16" fill="white" transform="translate(10 10)"/>
</clipPath>
</defs>
</svg>
