<svg width="24" height="24" viewBox="0 0 24 24" fill="none" xmlns="http://www.w3.org/2000/svg">
<g clip-path="url(#clip0_3486_4871)">
<rect width="24" height="24" rx="4" fill="#F4F8FB"/>
<path d="M5.5 4.5C5.5 3.675 6.175 3 7 3H11.0575V4.9425H5.5V4.5Z" fill="#53A7BA"/>
<path d="M20.5011 20.9996V9.22461C20.5011 8.39961 19.8261 7.72461 19.0011 7.72461H15.5586V20.9996H20.5011Z" fill="#81BFCC"/>
<path d="M5.5 6C4.675 6 4 6.675 4 7.5V20.25C4 20.6625 4.3375 21 4.75 21H14.4325V6H5.5ZM8.245 18.1125H7.1875V15.8625H8.245V18.1125ZM8.245 14.3625H7.1875V12.1125H8.245V14.3625ZM8.245 10.6125H7.1875V8.3625H8.245V10.6125ZM11.245 18.1125H10.1875V15.8625H11.245V18.1125ZM11.245 14.3625H10.1875V12.1125H11.245V14.3625ZM11.245 10.6125H10.1875V8.3625H11.245V10.6125Z" fill="#53A7BA"/>
</g>
<defs>
<clipPath id="clip0_3486_4871">
<rect width="24" height="24" rx="4" fill="white"/>
</clipPath>
</defs>
</svg>
