<svg width="24" height="24" viewBox="0 0 24 24" fill="none" xmlns="http://www.w3.org/2000/svg">
<path d="M0 4C0 1.79086 1.79086 0 4 0H20C22.2091 0 24 1.79086 24 4V20C24 22.2091 22.2091 24 20 24H4C1.79086 24 0 22.2091 0 20V4Z" fill="#F4F8FB"/>
<g clip-path="url(#clip0_14_945)">
<path d="M12.77 4.26999L4.53 3.01999C4.15 2.95999 3.76 3.05999 3.47 3.30999C3.18 3.56999 3 3.92999 3 4.31999V20.12C3 20.53 3.34 20.87 3.75 20.87H6.19V16.93C6.19 16.2 6.77 15.62 7.5 15.62H9.38C10.11 15.62 10.69 16.21 10.69 16.93V20.87H13.88V5.56999C13.88 4.91999 13.42 4.37999 12.78 4.26999H12.77ZM7.12 13.93H6C5.69 13.93 5.44 13.68 5.44 13.37C5.44 13.06 5.69 12.81 6 12.81H7.12C7.43 12.81 7.68 13.06 7.68 13.37C7.68 13.68 7.43 13.93 7.12 13.93ZM7.12 11.68H6C5.69 11.68 5.44 11.43 5.44 11.12C5.44 10.81 5.69 10.56 6 10.56H7.12C7.43 10.56 7.68 10.81 7.68 11.12C7.68 11.43 7.43 11.68 7.12 11.68ZM7.12 9.42999H6C5.69 9.42999 5.44 9.17999 5.44 8.86999C5.44 8.55999 5.69 8.30999 6 8.30999H7.12C7.43 8.30999 7.68 8.55999 7.68 8.86999C7.68 9.17999 7.43 9.42999 7.12 9.42999ZM7.12 7.17999H6C5.69 7.17999 5.44 6.92999 5.44 6.61999C5.44 6.30999 5.69 6.05999 6 6.05999H7.12C7.43 6.05999 7.68 6.30999 7.68 6.61999C7.68 6.92999 7.43 7.17999 7.12 7.17999ZM10.87 13.93H9.75C9.44 13.93 9.19 13.68 9.19 13.37C9.19 13.06 9.44 12.81 9.75 12.81H10.87C11.18 12.81 11.43 13.06 11.43 13.37C11.43 13.68 11.18 13.93 10.87 13.93ZM10.87 11.68H9.75C9.44 11.68 9.19 11.43 9.19 11.12C9.19 10.81 9.44 10.56 9.75 10.56H10.87C11.18 10.56 11.43 10.81 11.43 11.12C11.43 11.43 11.18 11.68 10.87 11.68ZM10.87 9.42999H9.75C9.44 9.42999 9.19 9.17999 9.19 8.86999C9.19 8.55999 9.44 8.30999 9.75 8.30999H10.87C11.18 8.30999 11.43 8.55999 11.43 8.86999C11.43 9.17999 11.18 9.42999 10.87 9.42999ZM10.87 7.17999H9.75C9.44 7.17999 9.19 6.92999 9.19 6.61999C9.19 6.30999 9.44 6.05999 9.75 6.05999H10.87C11.18 6.05999 11.43 6.30999 11.43 6.61999C11.43 6.92999 11.18 7.17999 10.87 7.17999Z" fill="#53A7BA"/>
<path d="M19.9699 11L14.6299 9.88V20.87H19.6899C20.4099 20.87 20.9999 20.28 20.9999 19.56V12.29C20.9999 11.67 20.5799 11.14 19.9699 11.01V11ZM18.1899 18.62H17.0699C16.7599 18.62 16.5099 18.37 16.5099 18.06C16.5099 17.75 16.7599 17.5 17.0699 17.5H18.1899C18.4999 17.5 18.7499 17.75 18.7499 18.06C18.7499 18.37 18.4999 18.62 18.1899 18.62ZM18.1899 16.37H17.0699C16.7599 16.37 16.5099 16.12 16.5099 15.81C16.5099 15.5 16.7599 15.25 17.0699 15.25H18.1899C18.4999 15.25 18.7499 15.5 18.7499 15.81C18.7499 16.12 18.4999 16.37 18.1899 16.37ZM18.1899 14.12H17.0699C16.7599 14.12 16.5099 13.87 16.5099 13.56C16.5099 13.25 16.7599 13 17.0699 13H18.1899C18.4999 13 18.7499 13.25 18.7499 13.56C18.7499 13.87 18.4999 14.12 18.1899 14.12Z" fill="#81BFCC"/>
<path d="M20.2701 6.63001C20.3101 6.30001 20.3101 6.34001 20.2701 6.01001L20.8701 5.56001C21.0001 5.46001 21.0401 5.27001 20.9601 5.13001L20.4201 4.20001C20.3401 4.06001 20.1601 3.99001 20.0001 4.06001L19.3101 4.35001C19.1401 4.22001 18.9601 4.11001 18.7701 4.03001L18.6801 3.30001C18.6601 3.13001 18.5201 3.01001 18.3501 3.01001H17.2801C17.1101 3.01001 16.9701 3.13001 16.9501 3.30001L16.8601 4.03001C16.6601 4.11001 16.4801 4.23001 16.3201 4.35001L15.6301 4.06001C15.4801 3.99001 15.3001 4.06001 15.2101 4.20001L14.6701 5.13001C14.5901 5.27001 14.6201 5.46001 14.7601 5.56001L15.3601 6.01001C15.3201 6.34001 15.3201 6.30001 15.3601 6.63001L14.7601 7.08001C14.6301 7.18001 14.5901 7.37001 14.6701 7.51001L15.2101 8.44001C15.2901 8.58001 15.4701 8.65001 15.6301 8.58001L16.3201 8.29001C16.4901 8.42001 16.6701 8.53001 16.8601 8.61001L16.9501 9.34001C16.9701 9.51001 17.1101 9.63001 17.2801 9.63001H18.3501C18.5201 9.63001 18.6601 9.51001 18.6801 9.34001L18.7701 8.61001C18.9701 8.53001 19.1501 8.41001 19.3101 8.29001L20.0001 8.58001C20.1501 8.65001 20.3301 8.58001 20.4201 8.44001L20.9601 7.51001C21.0401 7.37001 21.0101 7.18001 20.8701 7.08001L20.2701 6.63001ZM17.8101 7.65001C17.0801 7.65001 16.4801 7.06001 16.4801 6.32001C16.4801 5.58001 17.0701 4.99001 17.8101 4.99001C18.5501 4.99001 19.1401 5.58001 19.1401 6.32001C19.1401 7.06001 18.5501 7.65001 17.8101 7.65001Z" fill="#81BFCC"/>
</g>
<defs>
<clipPath id="clip0_14_945">
<rect width="18" height="17.87" fill="white" transform="translate(3 3)"/>
</clipPath>
</defs>
</svg>
