<svg width="24" height="24" viewBox="0 0 24 24" fill="none" xmlns="http://www.w3.org/2000/svg">
<g clip-path="url(#clip0_3007_78089)">
<rect width="24" height="24" rx="4" fill="#F4F8FB"/>
<g clip-path="url(#clip1_3007_78089)">
<path d="M12.77 4.26694L4.53 3.01694C4.15 2.95694 3.76 3.05694 3.47 3.30694C3.18 3.56694 3 3.92694 3 4.31694V20.1169C3 20.5269 3.34 20.8669 3.75 20.8669H6.19V16.9269C6.19 16.1969 6.77 15.6169 7.5 15.6169H9.38C10.11 15.6169 10.69 16.2069 10.69 16.9269V20.8669H13.88V5.56694C13.88 4.91694 13.42 4.37694 12.78 4.26694H12.77ZM7.12 13.9269H6C5.69 13.9269 5.44 13.6769 5.44 13.3669C5.44 13.0569 5.69 12.8069 6 12.8069H7.12C7.43 12.8069 7.68 13.0569 7.68 13.3669C7.68 13.6769 7.43 13.9269 7.12 13.9269ZM7.12 11.6769H6C5.69 11.6769 5.44 11.4269 5.44 11.1169C5.44 10.8069 5.69 10.5569 6 10.5569H7.12C7.43 10.5569 7.68 10.8069 7.68 11.1169C7.68 11.4269 7.43 11.6769 7.12 11.6769ZM7.12 9.42694H6C5.69 9.42694 5.44 9.17694 5.44 8.86694C5.44 8.55694 5.69 8.30694 6 8.30694H7.12C7.43 8.30694 7.68 8.55694 7.68 8.86694C7.68 9.17694 7.43 9.42694 7.12 9.42694ZM7.12 7.17694H6C5.69 7.17694 5.44 6.92694 5.44 6.61694C5.44 6.30694 5.69 6.05694 6 6.05694H7.12C7.43 6.05694 7.68 6.30694 7.68 6.61694C7.68 6.92694 7.43 7.17694 7.12 7.17694ZM10.87 13.9269H9.75C9.44 13.9269 9.19 13.6769 9.19 13.3669C9.19 13.0569 9.44 12.8069 9.75 12.8069H10.87C11.18 12.8069 11.43 13.0569 11.43 13.3669C11.43 13.6769 11.18 13.9269 10.87 13.9269ZM10.87 11.6769H9.75C9.44 11.6769 9.19 11.4269 9.19 11.1169C9.19 10.8069 9.44 10.5569 9.75 10.5569H10.87C11.18 10.5569 11.43 10.8069 11.43 11.1169C11.43 11.4269 11.18 11.6769 10.87 11.6769ZM10.87 9.42694H9.75C9.44 9.42694 9.19 9.17694 9.19 8.86694C9.19 8.55694 9.44 8.30694 9.75 8.30694H10.87C11.18 8.30694 11.43 8.55694 11.43 8.86694C11.43 9.17694 11.18 9.42694 10.87 9.42694ZM10.87 7.17694H9.75C9.44 7.17694 9.19 6.92694 9.19 6.61694C9.19 6.30694 9.44 6.05694 9.75 6.05694H10.87C11.18 6.05694 11.43 6.30694 11.43 6.61694C11.43 6.92694 11.18 7.17694 10.87 7.17694Z" fill="#53A7BA"/>
<path d="M19.9699 11.0028L14.6299 9.88281V20.8728H19.6899C20.4099 20.8728 20.9999 20.2828 20.9999 19.5628V12.2928C20.9999 11.6728 20.5799 11.1428 19.9699 11.0128V11.0028ZM18.1899 18.6228H17.0699C16.7599 18.6228 16.5099 18.3728 16.5099 18.0628C16.5099 17.7528 16.7599 17.5028 17.0699 17.5028H18.1899C18.4999 17.5028 18.7499 17.7528 18.7499 18.0628C18.7499 18.3728 18.4999 18.6228 18.1899 18.6228ZM18.1899 16.3728H17.0699C16.7599 16.3728 16.5099 16.1228 16.5099 15.8128C16.5099 15.5028 16.7599 15.2528 17.0699 15.2528H18.1899C18.4999 15.2528 18.7499 15.5028 18.7499 15.8128C18.7499 16.1228 18.4999 16.3728 18.1899 16.3728ZM18.1899 14.1228H17.0699C16.7599 14.1228 16.5099 13.8728 16.5099 13.5628C16.5099 13.2528 16.7599 13.0028 17.0699 13.0028H18.1899C18.4999 13.0028 18.7499 13.2528 18.7499 13.5628C18.7499 13.8728 18.4999 14.1228 18.1899 14.1228Z" fill="#81BFCC"/>
</g>
</g>
<defs>
<clipPath id="clip0_3007_78089">
<rect width="24" height="24" rx="4" fill="white"/>
</clipPath>
<clipPath id="clip1_3007_78089">
<rect width="18" height="17.87" fill="white" transform="translate(3 3)"/>
</clipPath>
</defs>
</svg>
