<svg width="32" height="32" viewBox="0 0 32 32" fill="none" xmlns="http://www.w3.org/2000/svg">
<rect width="32" height="32" rx="6" fill="#DDF0FF"/>
<g clip-path="url(#clip0_7221_24252)">
<path d="M23.4858 13.4516V13.4458L10.2731 7.22982C9.43669 6.82372 8.44855 6.96386 7.75569 7.58648C7.06078 8.21183 6.81903 9.1836 7.13989 10.0616L7.14228 10.0684C7.14978 10.0875 7.16001 10.1134 10.2963 16.0038C7.21695 21.8948 7.20808 21.9196 7.20024 21.9415C6.88075 22.8188 7.12352 23.7899 7.81945 24.4149C8.24021 24.792 8.78031 24.9997 9.34053 24.9997C9.68628 24.9997 10.0201 24.9223 10.3324 24.7698L23.3303 18.633C24.3621 18.1488 25.0025 17.1406 25.0018 16.0017C25.0018 14.9215 24.4255 13.9596 23.4858 13.4516ZM22.1039 16.9997L9.46635 22.9668L9.4626 22.9688C9.31564 23.0411 9.20789 22.9739 9.15709 22.9276L9.15436 22.9248C9.11754 22.8921 9.03809 22.8038 9.06741 22.6691L12.0332 17.0001H22.1042L22.1039 16.9997ZM22.0892 14.9992H12.0284L9.00501 9.3292C8.97978 9.21054 9.03809 9.12495 9.09401 9.07278C9.14754 9.02607 9.25699 8.96026 9.40054 9.03084L9.41248 9.0363C9.7197 9.18053 19.9455 13.991 22.0892 14.9992Z" fill="#1A9DFD"/>
</g>
<defs>
<clipPath id="clip0_7221_24252">
<rect width="18.0017" height="18" fill="white" transform="translate(7 7)"/>
</clipPath>
</defs>
</svg>
