<svg width="24" height="24" viewBox="0 0 24 24" fill="none" xmlns="http://www.w3.org/2000/svg">
<path d="M19.6087 6.78261H17.5217L16.3696 5.04348C15.9348 4.3913 15.1739 4 14.3913 4H9.6087C8.82609 4 8.06522 4.3913 7.63043 5.04348L6.47826 6.78261H4.3913C3.06522 6.78261 2 7.84783 2 9.17391V17.6087C2 18.9348 3.06522 20 4.3913 20H19.6087C20.9348 20 22 18.9348 22 17.6087V9.17391C22 7.84783 20.9348 6.78261 19.6087 6.78261ZM12 18.0435C9.02174 18.0435 6.6087 15.6304 6.6087 12.6522C6.6087 9.67391 9.02174 7.28261 12 7.28261C14.9783 7.28261 17.3913 9.69565 17.3913 12.6739C17.3913 15.6304 14.9783 18.0435 12 18.0435ZM19.3043 10.1522C19.2826 10.1522 19.2609 10.1522 19.2174 10.1522H18.3478C17.9565 10.1304 17.6522 9.80435 17.6739 9.41304C17.6957 9.04348 17.9783 8.76087 18.3478 8.73913H19.2174C19.6087 8.71739 19.9348 9.02174 19.9565 9.41304C19.9783 9.80435 19.6957 10.1304 19.3043 10.1522Z" fill="#FFFFFF"/>
<path d="M12 9.67407C10.3478 9.67407 9 11.0219 9 12.6741C9 14.3262 10.3478 15.6523 12 15.6523C13.6522 15.6523 15 14.3045 15 12.6523C15 11.0002 13.6522 9.67407 12 9.67407Z" fill="#FFFFFF"/>
</svg>
