<svg width="48" height="48" viewBox="0 0 48 48" fill="none" xmlns="http://www.w3.org/2000/svg">
<rect width="48" height="48" rx="16" fill="#F0F9FF"/>
<path d="M17.2406 12C14.3509 12 12 14.3509 12 17.2406V35.2653C12 35.6714 12.3286 36 12.7347 36H26.0211C25.5915 35.7934 25.1854 35.5481 24.804 35.2653C24.5106 35.0469 24.2312 34.8063 23.9695 34.5446C23.9648 34.5399 23.9601 34.5352 23.9554 34.5305C23.2758 33.8474 22.7418 33.0528 22.3674 32.1678C22.2735 31.946 22.1913 31.7218 22.1197 31.493H17.2406C16.8345 31.493 16.5059 31.1643 16.5059 30.7582C16.5059 30.3521 16.8345 30.0235 17.2406 30.0235H21.8181C21.7923 29.77 21.7793 29.5141 21.7793 29.2559C21.7793 28.4777 21.8979 27.7171 22.1303 26.9871H17.2406C16.8345 26.9871 16.5059 26.6585 16.5059 26.2523C16.5059 25.8462 16.8345 25.5176 17.2406 25.5176H22.7793C23.1045 24.9542 23.5023 24.4354 23.9695 23.9695C24.6561 23.2829 25.4554 22.7441 26.3462 22.3674C27.2688 21.9765 28.2488 21.7793 29.257 21.7793C29.5153 21.7793 29.7711 21.7923 30.0246 21.8181V12H17.2406ZM24.784 22.4812H17.2406C16.8345 22.4812 16.5059 22.1526 16.5059 21.7465C16.5059 21.3404 16.8345 21.0117 17.2406 21.0117H24.784C25.1901 21.0117 25.5188 21.3404 25.5188 21.7465C25.5188 22.1526 25.1901 22.4812 24.784 22.4812ZM26.2535 17.9754H17.2406C16.8345 17.9754 16.5059 17.6467 16.5059 17.2406C16.5059 16.8345 16.8345 16.5059 17.2406 16.5059H26.2523C26.6585 16.5059 26.9871 16.8345 26.9871 17.2406C26.9871 17.6467 26.6585 17.9754 26.2523 17.9754H26.2535Z" fill="#FF8585"/>
<path d="M31.4941 12.0516V17.9753H35.2653C35.6714 17.9753 36 17.6467 36 17.2406C36 14.5998 34.0376 12.4096 31.4941 12.0516V12.0516Z" fill="#FF8585"/>
<path fill-rule="evenodd" clip-rule="evenodd" d="M29.01 35.02C32.3292 35.02 35.02 32.3292 35.02 29.01C35.02 25.6908 32.3292 23 29.01 23C25.6908 23 23 25.6908 23 29.01C23 32.3292 25.6908 35.02 29.01 35.02ZM31.238 26.782C31.4727 27.0167 31.4727 27.3973 31.238 27.632L29.8599 29.01L31.238 30.388C31.4727 30.6227 31.4727 31.0033 31.238 31.238C31.0033 31.4727 30.6227 31.4727 30.388 31.238L29.01 29.8599L27.632 31.238C27.3973 31.4727 27.0167 31.4727 26.782 31.238C26.5473 31.0033 26.5473 30.6227 26.782 30.388L28.1601 29.01L26.782 27.632C26.5473 27.3973 26.5473 27.0167 26.782 26.782C27.0167 26.5473 27.3973 26.5473 27.632 26.782L29.01 28.1601L30.388 26.782C30.6227 26.5473 31.0033 26.5473 31.238 26.782Z" fill="#F24D4D"/>
</svg>
