<!-- <?xml version="1.0" encoding="UTF-8"?><svg xmlns="http://www.w3.org/2000/svg" viewBox="0 0 48 48"><defs><style>.d{fill:#919aab;}.e{fill:none;}</style></defs><g id="a"/><g id="b"><g id="c"><g><rect class="e" width="48" height="48"/><path class="d" d="M35.61,33.73l-9.73-9.73,9.73-9.73c.52-.52,.52-1.36,0-1.88-.52-.52-1.36-.52-1.88,0l-9.73,9.73L14.27,12.39c-.52-.52-1.36-.52-1.88,0-.52,.52-.52,1.36,0,1.88l9.73,9.73-9.73,9.73c-.52,.52-.52,1.36,0,1.88,.25,.25,.58,.39,.94,.39s.69-.14,.94-.39l9.73-9.73,9.73,9.73c.25,.25,.58,.39,.94,.39s.69-.14,.94-.39c.52-.52,.52-1.36,0-1.88Z"/></g></g></g></svg> -->
<?xml version="1.0" encoding="UTF-8"?><svg xmlns="http://www.w3.org/2000/svg" viewBox="0 0 48 48"><defs><style>.d{fill:#de0606;}.e{fill:none;}</style></defs><g id="a"/><g id="b"><g id="c"><g><rect class="e" width="48" height="48"/><path class="d" d="M35.61,33.73l-9.73-9.73,9.73-9.73c.52-.52,.52-1.36,0-1.88-.52-.52-1.36-.52-1.88,0l-9.73,9.73L14.27,12.39c-.52-.52-1.36-.52-1.88,0-.52,.52-.52,1.36,0,1.88l9.73,9.73-9.73,9.73c-.52,.52-.52,1.36,0,1.88,.25,.25,.58,.39,.94,.39s.69-.14,.94-.39l9.73-9.73,9.73,9.73c.25,.25,.58,.39,.94,.39s.69-.14,.94-.39c.52-.52,.52-1.36,0-1.88Z"/></g></g></g></svg>
