<svg width="24" height="24" viewBox="0 0 24 24" fill="none" xmlns="http://www.w3.org/2000/svg">
<path fill-rule="evenodd" clip-rule="evenodd" d="M15.9091 4.72727C15.9091 4.32561 15.5835 4 15.1818 4C14.7802 4 14.4545 4.32561 14.4545 4.72727V5.45455H10.0909V4.72727C10.0909 4.32561 9.7653 4 9.36364 4C8.96197 4 8.63636 4.32561 8.63636 4.72727V5.45455H7.18182C5.97683 5.45455 5 6.43138 5 7.63636V10.5455V17.8182C5 19.0232 5.97683 20 7.18182 20H17.3636C18.5686 20 19.5455 19.0232 19.5455 17.8182V10.5455V7.63636C19.5455 6.43138 18.5686 5.45455 17.3636 5.45455H15.9091V4.72727ZM18.0909 9.81818V7.63636C18.0909 7.2347 17.7653 6.90909 17.3636 6.90909H15.9091V7.63636C15.9091 8.03803 15.5835 8.36364 15.1818 8.36364C14.7802 8.36364 14.4545 8.03803 14.4545 7.63636V6.90909H10.0909V7.63636C10.0909 8.03803 9.7653 8.36364 9.36364 8.36364C8.96197 8.36364 8.63636 8.03803 8.63636 7.63636V6.90909H7.18182C6.78016 6.90909 6.45455 7.2347 6.45455 7.63636V9.81818H18.0909ZM6.45455 11.2727H18.0909V17.8182C18.0909 18.2198 17.7653 18.5455 17.3636 18.5455H7.18182C6.78016 18.5455 6.45455 18.2198 6.45455 17.8182V11.2727Z" fill="#AEB6BD"/>
</svg>
