<svg width="24" height="24" viewBox="0 0 24 24" fill="none" xmlns="http://www.w3.org/2000/svg">
<path d="M3 7.46484C3 4.99898 4.99898 3 7.46484 3H16.5352C19.001 3 21 4.99898 21 7.46484V16.5352C21 19.001 19.001 21 16.5352 21H7.46484C4.99898 21 3 19.001 3 16.5352V7.46484Z" fill="#1A9DFD"/>
<path d="M10.4679 15.75C10.2781 15.75 10.0891 15.678 9.94285 15.5355L7.8001 13.4355C7.5046 13.146 7.5001 12.6712 7.7896 12.375C8.07985 12.0787 8.55535 12.075 8.8501 12.3637L10.4679 13.95L15.2994 9.21447C15.5956 8.92497 16.0703 8.92797 16.3598 9.22497C16.6501 9.52047 16.6456 9.99597 16.3501 10.2855L10.9929 15.5355C10.8466 15.678 10.6576 15.75 10.4679 15.75Z" fill="white"/>
</svg>
