<svg width="24" height="24" viewBox="0 0 24 24" fill="none" xmlns="http://www.w3.org/2000/svg">
<path d="M19.6324 4.36759C18.7507 3.48553 17.578 3 16.3308 3H7.66917C6.42203 3 5.24932 3.48553 4.36759 4.36759C3.48553 5.24932 3 6.42203 3 7.66917V16.3308C3 17.578 3.48553 18.7507 4.36759 19.6324C5.24932 20.5141 6.42203 21 7.66917 21H16.3308C17.578 21 18.7507 20.5145 19.6324 19.6324C20.5141 18.7507 21 17.578 21 16.3308V7.66917C21 6.42203 20.5145 5.24932 19.6324 4.36759ZM5.12041 7.66917C5.12041 6.26368 6.26368 5.12041 7.66917 5.12041H16.3308C17.7363 5.12041 18.8796 6.26368 18.8796 7.66917V16.3308C18.8796 17.7363 17.7363 18.8796 16.3308 18.8796H7.66917C6.26368 18.8796 5.12041 17.7363 5.12041 16.3308V7.66917Z" fill="#AEB6BD"/>
</svg>
