<svg width="24" height="24" viewBox="0 0 24 24" fill="none" xmlns="http://www.w3.org/2000/svg">
<path d="M13.7289 15.0037L10.5169 11.7917L13.7289 8.57975C13.9024 8.40627 14 8.17094 14 7.92555C14 7.68016 13.9026 7.4448 13.7291 7.27124C13.5556 7.09769 13.3203 7.00017 13.0749 7.00012C12.8295 7.00008 12.5942 7.09752 12.4206 7.271L8.07099 11.6206C8.04849 11.6431 8.03063 11.6697 8.01845 11.6991C8.00627 11.7284 8 11.7599 8 11.7917C8 11.8235 8.00627 11.855 8.01845 11.8843C8.03063 11.9137 8.04849 11.9403 8.07099 11.9628L12.4206 16.3124C12.5065 16.3983 12.6086 16.4664 12.7208 16.5129C12.8331 16.5594 12.9534 16.5833 13.0749 16.5833C13.1964 16.5833 13.3167 16.5593 13.429 16.5128C13.5412 16.4663 13.6432 16.3981 13.7291 16.3122C13.815 16.2262 13.8832 16.1242 13.9296 16.012C13.9761 15.8997 14 15.7794 14 15.6579C14 15.4125 13.9024 15.1771 13.7289 15.0037Z" fill="#AEB6BD"/>
</svg>
