<svg width="24" height="24" viewBox="0 0 24 24" fill="none" xmlns="http://www.w3.org/2000/svg">
<path d="M15.2118 9.06275L11.9998 12.2747L8.78788 9.06275C8.6144 8.8892 8.37907 8.79167 8.13368 8.79163C7.88829 8.79158 7.65293 8.88902 7.47937 9.06251C7.30582 9.23599 7.2083 9.47132 7.20825 9.71671C7.20821 9.9621 7.30565 10.1975 7.47913 10.371L11.8287 14.7206C11.8512 14.7431 11.8779 14.761 11.9072 14.7732C11.9366 14.7854 11.968 14.7916 11.9998 14.7916C12.0316 14.7916 12.0631 14.7854 12.0924 14.7732C12.1218 14.761 12.1485 14.7431 12.1709 14.7206L16.5205 10.371C16.6064 10.2851 16.6746 10.1831 16.7211 10.0708C16.7675 9.95854 16.7914 9.83822 16.7914 9.71671C16.7914 9.59521 16.7674 9.47489 16.7209 9.36264C16.6744 9.2504 16.6062 9.14841 16.5203 9.06251C16.4344 8.9766 16.3323 8.90847 16.2201 8.86199C16.1078 8.81551 15.9875 8.7916 15.866 8.79163C15.6206 8.79167 15.3853 8.8892 15.2118 9.06275Z" fill="#AEB6BD"/>
</svg>
