<svg width="24" height="24" viewBox="0 0 24 24" fill="none" xmlns="http://www.w3.org/2000/svg">
<path d="M9.27112 8.57972L12.4831 11.7917L9.27112 15.0036C9.09757 15.1771 9.00005 15.4124 9 15.6578C8.99995 15.9032 9.09739 16.1386 9.27088 16.3121C9.44437 16.4857 9.67969 16.5832 9.92509 16.5833C10.1705 16.5833 10.4058 16.4859 10.5794 16.3124L14.929 11.9628C14.9515 11.9403 14.9694 11.9136 14.9815 11.8843C14.9937 11.8549 15 11.8235 15 11.7917C15 11.7599 14.9937 11.7284 14.9815 11.6991C14.9694 11.6697 14.9515 11.643 14.929 11.6206L10.5794 7.27097C10.4935 7.18507 10.3914 7.11693 10.2792 7.07045C10.1669 7.02398 10.0466 7.00006 9.92509 7.00009C9.80358 7.00011 9.68327 7.02406 9.57102 7.07058C9.45877 7.1171 9.35678 7.18528 9.27088 7.27121C9.18498 7.35714 9.11684 7.45916 9.07037 7.57142C9.02389 7.68369 8.99998 7.80401 9 7.92551C9.00004 8.17091 9.09757 8.40623 9.27112 8.57972Z" fill="#AEB6BD"/>
</svg>
