<svg width="24" height="24" viewBox="0 0 24 24" fill="none" xmlns="http://www.w3.org/2000/svg">
<path d="M8.78797 14.5205L11.9999 11.3086L15.2119 14.5205C15.3854 14.6941 15.6207 14.7916 15.8661 14.7916C16.1115 14.7917 16.3468 14.6942 16.5204 14.5207C16.6939 14.3473 16.7915 14.1119 16.7915 13.8665C16.7915 13.6211 16.6941 13.3858 16.5206 13.2122L12.171 8.86262C12.1486 8.84011 12.1219 8.82226 12.0925 8.81008C12.0632 8.7979 12.0317 8.79163 11.9999 8.79163C11.9681 8.79163 11.9367 8.7979 11.9073 8.81008C11.8779 8.82226 11.8513 8.84012 11.8288 8.86262L7.47922 13.2122C7.39332 13.2982 7.32518 13.4002 7.2787 13.5124C7.23223 13.6247 7.20832 13.745 7.20834 13.8665C7.20836 13.988 7.23232 14.1084 7.27883 14.2206C7.32535 14.3329 7.39353 14.4348 7.47946 14.5207C7.56539 14.6066 7.66741 14.6748 7.77967 14.7213C7.89194 14.7677 8.01226 14.7916 8.13377 14.7916C8.37916 14.7916 8.61448 14.6941 8.78797 14.5205Z" fill="#AEB6BD"/>
</svg>
