<svg width="49" height="48" viewBox="0 0 49 48" fill="none" xmlns="http://www.w3.org/2000/svg">
<rect x="0.75" width="48" height="48" rx="16" fill="#F4F8FB"/>
<g clip-path="url(#clip0_218_15491)">
<path d="M19.1719 27.8157V25.4775C19.1724 25.0125 19.3573 24.5666 19.6862 24.2378C20.015 23.9089 20.4609 23.724 20.9259 23.7235H22.6795C22.8346 23.7235 22.9832 23.6619 23.0929 23.5523C23.2025 23.4427 23.2641 23.294 23.2641 23.139V13.7527C23.2658 13.5208 23.3132 13.2915 23.4035 13.078C23.4938 12.8644 23.6253 12.6707 23.7905 12.5079C23.9557 12.3452 24.1513 12.2166 24.3662 12.1294C24.5811 12.0423 24.8111 11.9983 25.043 12C25.277 12.0015 25.5082 12.0502 25.723 12.143C25.9378 12.2359 26.1316 12.3711 26.293 12.5405C26.4544 12.71 26.5799 12.9102 26.6622 13.1293C26.7444 13.3484 26.7817 13.5817 26.7717 13.8155V23.139C26.7718 23.2159 26.787 23.292 26.8165 23.363C26.846 23.434 26.8893 23.4985 26.9437 23.5528C26.9982 23.6071 27.0628 23.6501 27.1339 23.6794C27.205 23.7087 27.2812 23.7237 27.3581 23.7235H29.1122C29.5772 23.724 30.023 23.909 30.3518 24.2378C30.6806 24.5667 30.8654 25.0125 30.8658 25.4775V27.8157H19.1719Z" fill="#6BC3FF"/>
<path d="M31.0285 28.9847H19.0084L17.7995 33.8208C17.737 34.0792 17.7336 34.3485 17.7898 34.6083C17.8459 34.8682 17.9601 35.112 18.1237 35.3216C18.2873 35.5311 18.4962 35.701 18.7347 35.8185C18.9732 35.936 19.2352 35.998 19.501 36.0001H21.0038L21.5171 32.4099C21.542 32.2594 21.6248 32.1245 21.7477 32.0342C21.8707 31.9439 22.0241 31.9052 22.1752 31.9264C22.3263 31.9477 22.4631 32.0271 22.5564 32.1479C22.6496 32.2686 22.692 32.421 22.6745 32.5726V32.5754L22.1851 36.0001H24.4351V32.4924C24.4351 32.337 24.4968 32.188 24.6067 32.0781C24.7166 31.9682 24.8656 31.9065 25.021 31.9065C25.1764 31.9065 25.3255 31.9682 25.4354 32.0781C25.5452 32.188 25.607 32.337 25.607 32.4924V36.0001H27.857L27.3676 32.5754C27.3461 32.4223 27.386 32.267 27.4787 32.1433C27.5714 32.0196 27.7093 31.9377 27.8623 31.9154C28.0152 31.8932 28.1708 31.9324 28.2949 32.0246C28.419 32.1167 28.5015 32.2542 28.5245 32.4071V32.4099L29.0331 36.0001H30.5364C30.8022 35.9979 31.064 35.9357 31.3024 35.8181C31.5409 35.7006 31.7496 35.5307 31.9132 35.3212C32.0768 35.1117 32.191 34.868 32.2472 34.6082C32.3034 34.3484 32.3002 34.0792 32.2379 33.8208L31.0285 28.9847Z" fill="#0599FF"/>
</g>
<defs>
<clipPath id="clip0_218_15491">
<rect width="24" height="24" fill="white" transform="translate(12.75 12)"/>
</clipPath>
</defs>
</svg>
