<svg width="48" height="48" viewBox="0 0 48 48" fill="none" xmlns="http://www.w3.org/2000/svg">
<rect width="48" height="48" rx="16" fill="#EEFFF4"/>
<path d="M17.2406 12C14.3509 12 12 14.3509 12 17.2406V35.2653C12 35.6714 12.3286 36 12.7347 36H26.0211C25.5915 35.7934 25.1854 35.5481 24.804 35.2653C24.5106 35.0469 24.2312 34.8063 23.9695 34.5446C23.9648 34.5399 23.9601 34.5352 23.9554 34.5305C23.2758 33.8474 22.7418 33.0528 22.3674 32.1678C22.2735 31.946 22.1913 31.7218 22.1197 31.493H17.2406C16.8345 31.493 16.5059 31.1643 16.5059 30.7582C16.5059 30.3521 16.8345 30.0235 17.2406 30.0235H21.8181C21.7923 29.77 21.7793 29.5141 21.7793 29.2559C21.7793 28.4777 21.8979 27.7171 22.1303 26.9871H17.2406C16.8345 26.9871 16.5059 26.6585 16.5059 26.2523C16.5059 25.8462 16.8345 25.5176 17.2406 25.5176H22.7793C23.1045 24.9542 23.5023 24.4354 23.9695 23.9695C24.6561 23.2829 25.4554 22.7441 26.3462 22.3674C27.2688 21.9765 28.2488 21.7793 29.257 21.7793C29.5153 21.7793 29.7711 21.7923 30.0246 21.8181V12H17.2406ZM24.784 22.4812H17.2406C16.8345 22.4812 16.5059 22.1526 16.5059 21.7465C16.5059 21.3404 16.8345 21.0117 17.2406 21.0117H24.784C25.1901 21.0117 25.5188 21.3404 25.5188 21.7465C25.5188 22.1526 25.1901 22.4812 24.784 22.4812ZM26.2535 17.9754H17.2406C16.8345 17.9754 16.5059 17.6467 16.5059 17.2406C16.5059 16.8345 16.8345 16.5059 17.2406 16.5059H26.2523C26.6585 16.5059 26.9871 16.8345 26.9871 17.2406C26.9871 17.6467 26.6585 17.9754 26.2523 17.9754H26.2535Z" fill="#70D595"/>
<path d="M31.4941 12V17.9237H35.2653C35.6714 17.9237 36 17.5951 36 17.189C36 14.5481 34.0376 12.358 31.4941 12Z" fill="#41C973"/>
<path d="M31.4943 23.6795C31.2561 23.5845 31.0119 23.5035 30.7596 23.4377C30.5202 23.3767 30.2748 23.3286 30.0248 23.2969C29.7737 23.2652 29.5178 23.2488 29.2572 23.2488C27.2971 23.2488 25.5554 24.1877 24.4591 25.6408C24.1493 26.0516 23.891 26.5035 23.6927 26.987C23.4063 27.6877 23.249 28.453 23.249 29.2558C23.249 29.5152 23.2655 29.7723 23.2971 30.0234C23.3605 30.5234 23.4861 31.0035 23.6645 31.4565C24.1821 32.7699 25.1493 33.8579 26.3758 34.5293C27.2314 34.9976 28.2126 35.264 29.2561 35.264C29.5155 35.264 29.7725 35.2476 30.0237 35.2159C30.2737 35.1842 30.519 35.1373 30.7584 35.0751C31.0096 35.0105 31.2549 34.9295 31.4932 34.8333C33.7032 33.946 35.2643 31.7828 35.2643 29.2558C35.2643 26.7288 33.7032 24.5657 31.4932 23.6784L31.4943 23.6795ZM31.8629 28.9636L29.6575 31.169C29.2643 31.5622 28.6258 31.5622 28.2326 31.169L27.1035 30.0399C26.7537 29.6901 26.7537 29.1244 27.1035 28.7746C27.4532 28.4248 28.019 28.4248 28.3687 28.7746L28.945 29.3509L30.5976 27.6983C30.9474 27.3485 31.5131 27.3485 31.8629 27.6983C32.2115 28.0481 32.2115 28.6138 31.8629 28.9636Z" fill="#41C973"/>
</svg>
