<svg width="24" height="24" viewBox="0 0 24 24" fill="none" xmlns="http://www.w3.org/2000/svg">
<g clip-path="url(#clip0_1638_37469)">
<path d="M8.50368 13.741H6.1338C5.70409 13.741 5.3003 13.5739 4.99678 13.2704C4.69326 12.9669 4.52615 12.5634 4.52649 12.1337C4.52649 11.2473 5.24744 10.5264 6.13346 10.5264H10.8742C11.3036 10.5264 11.707 10.6935 12.0106 10.997C12.3141 11.3005 12.4812 11.704 12.4812 12.1334C12.4812 12.5627 12.8236 12.8966 13.2444 12.8966C13.6653 12.8966 14.0077 12.5542 14.0077 12.1334C14.0077 10.4057 12.6019 9.00024 10.8742 9.00024H6.13312C4.40542 9.00024 3 10.4057 3 12.1334C3 12.9706 3.32535 13.7574 3.91739 14.3494C4.50909 14.9411 5.29621 15.2672 6.1338 15.2672H8.50402C8.92486 15.2672 9.26726 14.9248 9.26726 14.5039C9.26726 14.0831 8.92486 13.7407 8.50402 13.7407L8.50368 13.741Z" fill="#1A9DFD"/>
<path d="M17.8663 9H15.0227C14.6019 9 14.2595 9.3424 14.2595 9.76324C14.2595 10.1841 14.6019 10.5265 15.0227 10.5265H17.8663C18.2957 10.5265 18.6991 10.6936 19.003 10.9975C19.3065 11.301 19.474 11.7048 19.474 12.1341C19.474 13.0202 18.753 13.7411 17.867 13.7411H12.6525C12.2231 13.7411 11.8197 13.574 11.5162 13.2705C11.2126 12.967 11.0455 12.5635 11.0455 12.1341C11.0455 11.7048 10.7031 11.3709 10.2823 11.3709C9.86145 11.3709 9.51904 11.7133 9.51904 12.1341C9.51904 13.8618 10.9245 15.2673 12.6522 15.2673H17.8666C19.5943 15.2673 21.0001 13.8618 21.0001 12.1341C21.0001 10.4064 19.5943 9 17.8663 9Z" fill="#1A9DFD"/>
</g>
<defs>
<clipPath id="clip0_1638_37469">
<rect width="18" height="6.26726" fill="white" transform="translate(3 9)"/>
</clipPath>
</defs>
</svg>
