<svg width="24" height="24" viewBox="0 0 24 24" fill="none" xmlns="http://www.w3.org/2000/svg">
<g clip-path="url(#clip0_5648_86095)">
<path d="M10.049 15.4009L8.18709 17.2628C7.84948 17.6004 7.40094 17.7864 6.924 17.7864C6.44706 17.7864 5.99879 17.6007 5.66144 17.2628C4.96506 16.5664 4.96506 15.4335 5.66118 14.7374L9.38588 11.0127C9.72322 10.6754 10.1715 10.4897 10.6484 10.4897C11.1254 10.4897 11.5737 10.6754 11.911 11.0127C12.2483 11.3501 12.7797 11.3434 13.1103 11.0127C13.441 10.6821 13.441 10.144 13.1103 9.8134C11.7529 8.45599 9.54424 8.45625 8.18683 9.81366L4.46185 13.5386C3.10445 14.896 3.10445 17.1044 4.46186 18.4619C5.11966 19.1197 5.99343 19.4822 6.92373 19.4822C7.8535 19.4822 8.72808 19.1199 9.38615 18.4619L11.2484 16.5996C11.579 16.269 11.579 15.731 11.2484 15.4003C10.9177 15.0697 10.3797 15.0697 10.049 15.4003L10.049 15.4009Z" fill="#1A9DFD"/>
<path d="M13.68 4.31995L11.4459 6.55408C11.1153 6.88472 11.1153 7.42276 11.4459 7.7534C11.7766 8.08404 12.3146 8.08404 12.6452 7.7534L14.8794 5.51927C15.2167 5.18193 15.665 4.99625 16.1425 4.99625C16.6194 4.99625 17.0682 5.18193 17.4056 5.51927C18.1017 6.2154 18.1017 7.34827 17.4056 8.04439L13.3087 12.1413C12.9713 12.4786 12.5231 12.6643 12.0461 12.6643C11.5692 12.6643 11.1209 12.4786 10.7836 12.1413C10.4462 11.8039 9.91488 11.8106 9.58424 12.1413C9.2536 12.4719 9.2536 13.0099 9.58424 13.3406C10.9417 14.698 13.1501 14.698 14.5075 13.3406L18.6043 9.24371C19.9618 7.8863 19.962 5.67763 18.6046 4.32022C17.2472 2.96281 15.0377 2.96227 13.68 4.31995Z" fill="#1A9DFD"/>
</g>
<defs>
<clipPath id="clip0_5648_86095">
<rect width="20" height="6.96362" fill="white" transform="translate(2 16) rotate(-45)"/>
</clipPath>
</defs>
</svg>
