<svg width="25" height="24" viewBox="0 0 25 24" fill="none" xmlns="http://www.w3.org/2000/svg">
<path d="M12.667 21C17.6376 21 21.667 16.9706 21.667 12C21.667 7.02944 17.6376 3 12.667 3C7.69643 3 3.66699 7.02944 3.66699 12C3.66699 16.9706 7.69643 21 12.667 21Z" fill="#D9F0FF"/>
<path fill-rule="evenodd" clip-rule="evenodd" d="M12.1671 7.5C11.6148 7.5 11.1671 7.94772 11.1671 8.5V10.5H9.16699C8.61471 10.5 8.16699 10.9477 8.16699 11.5V12.5C8.16699 13.0523 8.61471 13.5 9.16699 13.5H11.1671V15.5C11.1671 16.0523 11.6148 16.5 12.1671 16.5H13.1671C13.7194 16.5 14.1671 16.0523 14.1671 15.5V13.5H16.167C16.7193 13.5 17.167 13.0523 17.167 12.5V11.5C17.167 10.9477 16.7193 10.5 16.167 10.5H14.1671V8.5C14.1671 7.94772 13.7194 7.5 13.1671 7.5H12.1671Z" fill="#0599FF"/>
</svg>
