<svg width="48" height="48" viewBox="0 0 48 48" fill="none" xmlns="http://www.w3.org/2000/svg">
<path d="M0 12C0 5.37258 5.37258 0 12 0H36C42.6274 0 48 5.37258 48 12V36C48 42.6274 42.6274 48 36 48H12C5.37258 48 0 42.6274 0 36V12Z" fill="white"/>
<path d="M24 48C37.2548 48 48 37.2548 48 24C48 10.7452 37.2548 0 24 0C10.7452 0 0 10.7452 0 24C0 37.2548 10.7452 48 24 48Z" fill="#F4F8FB"/>
<path d="M40.9704 7.02934C36.4376 2.49655 30.4105 0 23.9999 0C17.5893 0 11.5621 2.49655 7.02934 7.02934C2.49655 11.5621 0 17.5893 0 23.9999C0 30.4105 2.49655 36.4376 7.02934 40.9704C7.45402 41.3951 7.89371 41.7991 8.3437 42.1873C8.59027 39.3804 9.58682 36.6982 11.2415 34.4023C12.7106 32.3633 14.6315 30.7142 16.8477 29.5789C14.2968 27.4602 12.8062 24.3289 12.8062 20.9736C12.8062 14.8012 17.8274 9.77995 23.9999 9.77995C30.1723 9.77995 35.1936 14.8012 35.1936 20.9736C35.1936 24.3299 33.7039 27.4611 31.152 29.5789C33.3673 30.7142 35.2882 32.3642 36.7582 34.4023C38.4139 36.6992 39.4095 39.3804 39.656 42.1873C40.106 41.7991 40.5457 41.3951 40.9704 40.9704C45.5032 36.4376 47.9997 30.4105 47.9997 23.9999C47.9997 17.5893 45.5032 11.5621 40.9704 7.02934Z" fill="#DDE5EB"/>
<path d="M23.9999 27.8542C27.8003 27.8542 30.8811 24.7734 30.8811 20.973C30.8811 17.1726 27.8003 14.0918 23.9999 14.0918C20.1995 14.0918 17.1187 17.1726 17.1187 20.973C17.1187 24.7734 20.1995 27.8542 23.9999 27.8542Z" fill="#DDE5EB"/>
<path d="M35.3538 44.6437C35.3875 44.2847 35.4044 43.9237 35.4044 43.5722C35.4044 37.2835 30.2885 32.1666 23.9988 32.1666C17.7092 32.1666 12.5933 37.2835 12.5933 43.5722C12.5933 43.9237 12.6101 44.2847 12.6439 44.6437L12.6945 45.1819C16.1314 47.0222 19.9892 48 23.9979 48C28.0066 48 31.8644 47.0222 35.3013 45.1819L35.3519 44.6437H35.3538Z" fill="#DDE5EB"/>
</svg>
