<svg width="24" height="24" viewBox="0 0 24 24" fill="none" xmlns="http://www.w3.org/2000/svg">
<path fill-rule="evenodd" clip-rule="evenodd" d="M10.3039 5.66756C10.4403 5.53117 10.6253 5.45455 10.8182 5.45455H13.7273C13.9202 5.45455 14.1051 5.53117 14.2415 5.66756C14.3779 5.80395 14.4545 5.98893 14.4545 6.18182V6.90909H10.0909V6.18182C10.0909 5.98893 10.1675 5.80395 10.3039 5.66756ZM8.63636 6.90909V6.18182C8.63636 5.60316 8.86623 5.04821 9.2754 4.63904C9.68457 4.22987 10.2395 4 10.8182 4H13.7273C14.3059 4 14.8609 4.22987 15.2701 4.63904C15.6792 5.04821 15.9091 5.60316 15.9091 6.18182V6.90909H17.3636H18.8182C19.2198 6.90909 19.5455 7.2347 19.5455 7.63636C19.5455 8.03803 19.2198 8.36364 18.8182 8.36364H18.0909V17.8182C18.0909 18.3968 17.861 18.9518 17.4519 19.361C17.0427 19.7701 16.4877 20 15.9091 20H8.63636C8.05771 20 7.50276 19.7701 7.09359 19.361C6.68441 18.9518 6.45455 18.3968 6.45455 17.8182V8.36364H5.72727C5.32561 8.36364 5 8.03803 5 7.63636C5 7.2347 5.32561 6.90909 5.72727 6.90909H7.18182H8.63636ZM7.90909 8.36364V17.8182C7.90909 18.0111 7.98571 18.1961 8.1221 18.3324C8.25849 18.4688 8.44348 18.5455 8.63636 18.5455H15.9091C16.102 18.5455 16.287 18.4688 16.4234 18.3324C16.5597 18.1961 16.6364 18.0111 16.6364 17.8182V8.36364H7.90909ZM10.8182 10.5455C11.2198 10.5455 11.5455 10.8711 11.5455 11.2727V15.6364C11.5455 16.038 11.2198 16.3636 10.8182 16.3636C10.4165 16.3636 10.0909 16.038 10.0909 15.6364V11.2727C10.0909 10.8711 10.4165 10.5455 10.8182 10.5455ZM14.4545 15.6364V11.2727C14.4545 10.8711 14.1289 10.5455 13.7273 10.5455C13.3256 10.5455 13 10.8711 13 11.2727V15.6364C13 16.038 13.3256 16.3636 13.7273 16.3636C14.1289 16.3636 14.4545 16.038 14.4545 15.6364Z" fill="#1A9DFD"/>
</svg>
