<svg width="24" height="24" viewBox="0 0 24 24" fill="none" xmlns="http://www.w3.org/2000/svg">
<g clip-path="url(#clip0_134_8164)">
<path d="M17.0233 6.08135L15.9193 4.97601C15.6104 4.66556 15.2431 4.41944 14.8384 4.25191C14.4338 4.08438 13.9999 3.99876 13.562 4.00001H9.33333C8.4496 4.00107 7.60237 4.3526 6.97748 4.97749C6.35259 5.60239 6.00106 6.44962 6 7.33335V16.6667C6.00106 17.5504 6.35259 18.3976 6.97748 19.0225C7.60237 19.6474 8.4496 19.999 9.33333 20H14.6667C15.5504 19.999 16.3976 19.6474 17.0225 19.0225C17.6474 18.3976 17.9989 17.5504 18 16.6667V8.43801C18.0011 8.00014 17.9153 7.56639 17.7477 7.16188C17.58 6.75736 17.3338 6.3901 17.0233 6.08135ZM16.0807 7.02401C16.1752 7.11823 16.2599 7.22188 16.3333 7.33335H14.6667V5.66668C14.778 5.74089 14.8818 5.82574 14.9767 5.92001L16.0807 7.02401ZM16.6667 16.6667C16.6667 17.1971 16.456 17.7058 16.0809 18.0809C15.7058 18.456 15.1971 18.6667 14.6667 18.6667H9.33333C8.8029 18.6667 8.29419 18.456 7.91912 18.0809C7.54405 17.7058 7.33333 17.1971 7.33333 16.6667V7.33335C7.33333 6.80291 7.54405 6.29421 7.91912 5.91913C8.29419 5.54406 8.8029 5.33335 9.33333 5.33335H13.3333V7.33335C13.3333 7.68697 13.4738 8.02611 13.7239 8.27616C13.9739 8.52621 14.313 8.66668 14.6667 8.66668H16.6667V16.6667ZM14.6667 10C14.8435 10 15.013 10.0703 15.1381 10.1953C15.2631 10.3203 15.3333 10.4899 15.3333 10.6667C15.3333 10.8435 15.2631 11.0131 15.1381 11.1381C15.013 11.2631 14.8435 11.3333 14.6667 11.3333H9.33333C9.15652 11.3333 8.98695 11.2631 8.86193 11.1381C8.7369 11.0131 8.66667 10.8435 8.66667 10.6667C8.66667 10.4899 8.7369 10.3203 8.86193 10.1953C8.98695 10.0703 9.15652 10 9.33333 10H14.6667ZM15.3333 13.3333C15.3333 13.5102 15.2631 13.6797 15.1381 13.8048C15.013 13.9298 14.8435 14 14.6667 14H9.33333C9.15652 14 8.98695 13.9298 8.86193 13.8048C8.7369 13.6797 8.66667 13.5102 8.66667 13.3333C8.66667 13.1565 8.7369 12.987 8.86193 12.8619C8.98695 12.7369 9.15652 12.6667 9.33333 12.6667H14.6667C14.8435 12.6667 15.013 12.7369 15.1381 12.8619C15.2631 12.987 15.3333 13.1565 15.3333 13.3333ZM15.2053 15.6087C15.309 15.7512 15.3519 15.9291 15.3248 16.1032C15.2977 16.2774 15.2027 16.4337 15.0607 16.538C14.3852 17.0193 13.5852 17.2955 12.7567 17.3333C12.2726 17.331 11.8032 17.1667 11.4233 16.8667C11.2047 16.7167 11.1213 16.6667 10.9567 16.6667C10.511 16.7357 10.0904 16.9179 9.73533 17.196C9.5945 17.2964 9.42016 17.3381 9.24913 17.3124C9.0781 17.2867 8.92377 17.1955 8.81872 17.0581C8.71368 16.9207 8.66615 16.7478 8.68616 16.576C8.70618 16.4042 8.79218 16.2469 8.926 16.1373C9.51345 15.6813 10.2189 15.4024 10.9593 15.3333C11.4034 15.3404 11.8327 15.4939 12.1807 15.77C12.3393 15.9127 12.5434 15.9942 12.7567 16C13.3018 15.9592 13.826 15.7729 14.2747 15.4607C14.4177 15.357 14.5961 15.3143 14.7706 15.3421C14.9451 15.3698 15.1015 15.4657 15.2053 15.6087Z" fill="#AEB6BD"/>
</g>
<defs>
<clipPath id="clip0_134_8164">
<rect width="16" height="16" fill="white" transform="translate(4 4)"/>
</clipPath>
</defs>
</svg>
