<svg width="16" height="16" viewBox="0 0 16 16" fill="none" xmlns="http://www.w3.org/2000/svg">
<path d="M14.9717 14.0005H1.02831C0.894772 13.9964 0.761774 14.0192 0.637203 14.0676C0.512632 14.116 0.399026 14.1889 0.303122 14.2822C0.207218 14.3754 0.13097 14.4869 0.0789002 14.6103C0.0268308 14.7336 0 14.8661 0 15C0 15.1339 0.0268308 15.2664 0.0789002 15.3897C0.13097 15.5131 0.207218 15.6246 0.303122 15.7178C0.399026 15.8111 0.512632 15.884 0.637203 15.9324C0.761774 15.9808 0.894772 16.0036 1.02831 15.9995H14.9717C15.1052 16.0036 15.2382 15.9808 15.3628 15.9324C15.4874 15.884 15.601 15.8111 15.6969 15.7178C15.7928 15.6246 15.869 15.5131 15.9211 15.3897C15.9732 15.2664 16 15.1339 16 15C16 14.8661 15.9732 14.7336 15.9211 14.6103C15.869 14.4869 15.7928 14.3754 15.6969 14.2822C15.601 14.1889 15.4874 14.116 15.3628 14.0676C15.2382 14.0192 15.1052 13.9964 14.9717 14.0005Z" fill="#38D298"/>
<path d="M7.37429 11.7036C7.44448 11.795 7.53717 11.8697 7.64466 11.9212C7.75215 11.9728 7.87134 11.9998 7.99234 12C8.10847 12 8.22304 11.9752 8.32723 11.9276C8.43142 11.88 8.52244 11.8108 8.59328 11.7254L12.7778 7.84053C12.9203 7.70785 13.0003 7.52805 13 7.34067C12.9997 7.15329 12.9193 6.97368 12.7764 6.84136C12.6334 6.70903 12.4397 6.63483 12.2378 6.63508C12.036 6.63533 11.8425 6.71001 11.6999 6.84268L8.75153 9.57949L8.76437 0.706699C8.76446 0.613981 8.74488 0.522153 8.70674 0.43646C8.6686 0.350767 8.61265 0.272884 8.54209 0.207261C8.47152 0.141637 8.38773 0.0895563 8.29548 0.0539947C8.20323 0.0184332 8.10434 8.63564e-05 8.00446 -4.36724e-07C7.80254 -4.54377e-07 7.60889 0.0744538 7.46611 0.206986C7.32333 0.339518 7.24312 0.51927 7.24312 0.706699L7.23456 9.57816L4.299 6.85327C4.15616 6.72086 3.96251 6.64654 3.76064 6.64666C3.55877 6.64679 3.36522 6.72134 3.22258 6.85393C3.07993 6.98651 2.99987 7.16627 3 7.35365C3.00013 7.54103 3.08045 7.72069 3.22329 7.8531L7.37429 11.7036Z" fill="#38D298"/>
</svg>
