<svg width="24" height="24" viewBox="0 0 24 24" fill="none" xmlns="http://www.w3.org/2000/svg">
<path d="M20 15.9375V17.5C19.9992 18.1628 19.7356 18.7983 19.2669 19.2669C18.7983 19.7356 18.1628 19.9992 17.5 20H6.5C5.83719 19.9992 5.20174 19.7356 4.73306 19.2669C4.26439 18.7983 4.00075 18.1628 4 17.5V6.5C4.00075 5.83719 4.26439 5.20174 4.73306 4.73306C5.20174 4.26439 5.83719 4.00075 6.5 4H17.5C18.1628 4.00075 18.7983 4.26439 19.2669 4.73306C19.7356 5.20174 19.9992 5.83719 20 6.5V8.0625C20 8.26141 19.921 8.45218 19.7803 8.59283C19.6397 8.73348 19.4489 8.8125 19.25 8.8125C19.0511 8.8125 18.8603 8.73348 18.7197 8.59283C18.579 8.45218 18.5 8.26141 18.5 8.0625V6.5C18.4997 6.23487 18.3942 5.98069 18.2068 5.79322C18.0193 5.60575 17.7651 5.5003 17.5 5.5H6.5C6.23487 5.5003 5.98069 5.60575 5.79322 5.79322C5.60575 5.98069 5.5003 6.23487 5.5 6.5V17.5C5.50029 17.7651 5.60574 18.0193 5.79321 18.2068C5.98069 18.3943 6.23487 18.4997 6.5 18.5H17.5C17.7651 18.4997 18.0193 18.3943 18.2068 18.2068C18.3943 18.0193 18.4997 17.7651 18.5 17.5V15.9375C18.5 15.7386 18.579 15.5478 18.7197 15.4072C18.8603 15.2665 19.0511 15.1875 19.25 15.1875C19.4489 15.1875 19.6397 15.2665 19.7803 15.4072C19.921 15.5478 20 15.7386 20 15.9375ZM15.8956 15.3544C16.0362 15.4951 16.227 15.5741 16.4259 15.5741C16.6248 15.5741 16.8156 15.4951 16.9563 15.3544L19.7803 12.5303C19.85 12.4607 19.9052 12.378 19.9429 12.287C19.9806 12.196 20 12.0985 20 12C20 11.9015 19.9806 11.804 19.9429 11.713C19.9052 11.622 19.85 11.5393 19.7803 11.4697L16.9563 8.64556C16.8866 8.57592 16.8039 8.52067 16.7129 8.48298C16.6219 8.44529 16.5244 8.4259 16.4259 8.4259C16.3274 8.4259 16.2299 8.4453 16.1389 8.48299C16.0479 8.52069 15.9652 8.57593 15.8956 8.64558C15.8259 8.71522 15.7707 8.7979 15.733 8.8889C15.6953 8.9799 15.6759 9.07742 15.6759 9.17592C15.6759 9.27441 15.6953 9.37194 15.733 9.46293C15.7707 9.55393 15.8259 9.63661 15.8956 9.70625L17.4393 11.25H11.0351C10.8362 11.25 10.6454 11.329 10.5048 11.4697C10.3641 11.6103 10.2851 11.8011 10.2851 12C10.2851 12.1989 10.3641 12.3897 10.5048 12.5303C10.6454 12.671 10.8362 12.75 11.0351 12.75H17.4394L15.8956 14.2937C15.826 14.3634 15.7707 14.4461 15.733 14.5371C15.6953 14.6281 15.6759 14.7256 15.6759 14.8241C15.6759 14.9226 15.6953 15.0201 15.733 15.1111C15.7707 15.2021 15.8259 15.2848 15.8956 15.3544Z" fill="#1A9DFD"/>
</svg>
