<svg width="24" height="24" viewBox="0 0 24 24" fill="none" xmlns="http://www.w3.org/2000/svg">
<g clip-path="url(#clip0_1156_27758)">
<path d="M19.2 10.6999C18.76 10.6999 18.4 11.0599 18.4 11.4999V17.0399C18.4 17.8199 17.77 18.4499 16.99 18.4499H7.02C6.24 18.4499 5.61 17.8199 5.61 17.0399V7.07988C5.61 6.29988 6.24 5.66988 7.02 5.66988H12.56C13 5.66988 13.36 5.30988 13.36 4.86988C13.36 4.42988 13 4.06988 12.56 4.06988H7.02C5.35 4.05988 4 5.40988 4 7.07988V17.0399C4 18.6999 5.35 20.0599 7.02 20.0599H16.98C18.64 20.0599 20 18.7099 20 17.0399V11.5099C20 11.0699 19.64 10.7099 19.2 10.7099V10.6999Z" fill="#1A9DFD"/>
<path d="M7.77002 12.5499V15.3199C7.77002 15.7599 8.13002 16.1199 8.57002 16.1199H11.34C11.55 16.1199 11.76 16.0399 11.91 15.8799L19.66 8.12988C19.81 7.97988 19.9 7.77988 19.9 7.55988C19.9 7.33988 19.82 7.13988 19.66 6.98988L16.89 4.22988C16.59 3.92988 16.06 3.92988 15.75 4.22988L8.01002 11.9799C7.86002 12.1299 7.77002 12.3399 7.77002 12.5499V12.5499ZM15.8 6.45988L16.32 5.93988L17.95 7.56988L17.43 8.08988L15.8 6.45988ZM9.38002 14.5099V12.8799L14.66 7.58988L16.29 9.21988L11 14.5099H9.37002H9.38002Z" fill="#1A9DFD"/>
</g>
<defs>
<clipPath id="clip0_1156_27758">
<rect width="16" height="16.06" fill="white" transform="translate(4 4)"/>
</clipPath>
</defs>
</svg>
