<svg width="49" height="48" viewBox="0 0 49 48" fill="none" xmlns="http://www.w3.org/2000/svg">
<rect x="0.5" width="48" height="48" rx="16" fill="#FFFAE8"/>
<path d="M18.9962 13.1544L16.5159 24.9357C16.4207 25.3876 16.7655 25.8124 17.2273 25.8124H23.5025L21.9742 34.3491L23.0632 34.4565L31.9731 22.6404L25.0517 21.8373L27.6902 12.7745L27.1692 12H20.4189C19.7313 12 19.1378 12.4816 18.9962 13.1544Z" fill="#FFD978"/>
<path d="M32.8735 22.6221C33.2427 22.1442 32.9021 21.4506 32.2983 21.4506H25.7821L28.4005 12.9408C28.5443 12.4733 28.1948 12 27.7057 12H27.1694L24.3931 21.0229C24.2568 21.4641 24.3384 21.9433 24.6132 22.3142C24.8872 22.6855 25.321 22.9046 25.7824 22.9046H28.3842C29.3767 22.9046 29.9365 24.0445 29.3297 24.8299L21.9743 34.3491L21.7862 35.399C21.6924 35.9234 22.3647 36.2216 22.6904 35.8001L32.8735 22.6221Z" fill="#FFC632"/>
</svg>
