<svg width="24" height="24" viewBox="0 0 24 24" fill="none" xmlns="http://www.w3.org/2000/svg">
<path d="M17.6787 9.74583C17.6366 9.65293 17.5688 9.57404 17.4832 9.51851C17.3977 9.46299 17.298 9.43315 17.1961 9.43254H13.05L14.8204 4.7199C14.8505 4.63931 14.8607 4.55263 14.85 4.46726C14.8394 4.38189 14.8083 4.30036 14.7593 4.22964C14.7103 4.15891 14.6449 4.10109 14.5687 4.0611C14.4926 4.02111 14.4079 4.00015 14.3218 4H10.0224C9.91958 4.00044 9.81903 4.03064 9.73293 4.08693C9.64683 4.14323 9.57885 4.22323 9.53718 4.31729L6.04569 12.1961C6.00981 12.2771 5.99468 12.3658 6.00166 12.4541C6.00864 12.5425 6.03752 12.6276 6.08568 12.702C6.13384 12.7764 6.19977 12.8376 6.27751 12.88C6.35526 12.9225 6.44236 12.945 6.53096 12.9454H10.1304L9.38387 15.753L8.43468 19.3284C8.40336 19.4452 8.41264 19.5692 8.46102 19.68C8.50939 19.7908 8.59398 19.8818 8.70091 19.9382C8.80785 19.9946 8.93077 20.013 9.04954 19.9904C9.1683 19.9678 9.27585 19.9055 9.35454 19.8137L17.596 10.3151C17.6628 10.238 17.706 10.1434 17.7207 10.0426C17.7353 9.94166 17.7207 9.83869 17.6787 9.74583ZM10.0584 17.378L11.3303 12.5494C11.3425 12.4934 11.347 12.436 11.3436 12.3788C11.3351 12.2432 11.2752 12.116 11.1761 12.0231C11.077 11.9302 10.9462 11.8786 10.8103 11.8789H7.34417L10.3731 5.06651H13.5513L11.7809 9.78049C11.7507 9.86119 11.7406 9.94798 11.7513 10.0335C11.762 10.1189 11.7932 10.2005 11.8424 10.2713C11.8915 10.3421 11.9571 10.3999 12.0334 10.4397C12.1098 10.4796 12.1946 10.5005 12.2808 10.5004H16.0136L10.0584 17.378Z" fill="#AEB6BD"/>
</svg>
