<svg width="13" height="12" viewBox="0 0 13 12" fill="none" xmlns="http://www.w3.org/2000/svg">
<g clip-path="url(#clip0_6876_78334)">
<path d="M11.8383 3.30859L8.33075 6.81609C7.93966 7.2062 7.40981 7.42527 6.85742 7.42527C6.30503 7.42527 5.77518 7.2062 5.38409 6.81609L1.87659 3.30859C1.87076 3.37443 1.85742 3.43401 1.85742 3.49943V8.49942C1.85808 9.05175 2.07779 9.58127 2.46835 9.97183C2.8589 10.3624 3.38842 10.5821 3.94075 10.5828H9.77409C10.3264 10.5821 10.8559 10.3624 11.2465 9.97183C11.6371 9.58127 11.8568 9.05175 11.8574 8.49942V3.49943C11.8574 3.43401 11.8441 3.37443 11.8383 3.30859Z" fill="#6C757A"/>
<path d="M7.74214 6.22881L11.548 2.42255C11.3636 2.11685 11.1036 1.86382 10.793 1.68786C10.4824 1.5119 10.1316 1.41894 9.77464 1.41797H3.9413C3.58431 1.41894 3.2336 1.5119 2.92298 1.68786C2.61237 1.86382 2.35233 2.11685 2.16797 2.42255L5.97381 6.22881C6.20863 6.46269 6.52655 6.594 6.85797 6.594C7.1894 6.594 7.50732 6.46269 7.74214 6.22881Z" fill="#6C757A"/>
</g>
<defs>
<clipPath id="clip0_6876_78334">
<rect width="10" height="10" fill="white" transform="translate(1.85742 1)"/>
</clipPath>
</defs>
</svg>
