<svg width="49" height="48" viewBox="0 0 49 48" fill="none" xmlns="http://www.w3.org/2000/svg">
<rect x="0.75" width="48" height="48" rx="16" fill="#F4F8FB"/>
<path d="M24.8644 16.1603C24.8644 14.2775 23.7043 12.6656 22.06 12V15.3651L20.3774 16.4868L18.6949 15.4125V12C17.0506 12.6656 15.8906 14.2775 15.8906 16.1603C15.8906 17.9196 16.9036 19.4416 18.3776 20.1769V30.42C17.6763 30.9974 17.2291 31.8723 17.2291 32.8515C17.2291 34.5905 18.6387 36 20.3774 36C22.1164 36 23.5259 34.5905 23.5259 32.8515C23.5259 31.8723 23.0788 30.9974 22.3775 30.42V20.1769C23.8515 19.4416 24.8644 17.9196 24.8644 16.1603ZM21.0806 33.5546H19.6743V32.1484H21.0806V33.5546Z" fill="#ED995B"/>
<path d="M31.1166 21.8906V17.2912L32.1705 16.2372L31.4075 12H28.4194L27.6562 16.2372L28.7102 17.2912V21.8906H31.1166Z" fill="#ED995B"/>
<path d="M26.2109 23.2969V26.5298L27.2109 27.3735V27.9119L26.2109 28.9118V32.2969C26.2109 34.3389 27.8723 36 29.9141 36C31.9561 36 33.6172 34.3389 33.6172 32.2969V28.9118L32.6172 27.9119V27.3735L33.6172 26.5298V23.2969H26.2109Z" fill="#FABE91"/>
<rect x="0.75" width="48" height="48" rx="16" fill="#F4F8FB"/>
<g clip-path="url(#clip0_226_17095)">
<path d="M25.9553 19.3006L19.7422 25.5138L23.2345 29.0055L29.4476 22.793C30.4594 23.1319 31.5475 23.1715 32.5812 22.907C33.6149 22.6425 34.5503 22.0851 35.2749 21.3019C35.9996 20.5187 36.4827 19.543 36.6662 18.4919C36.8498 17.4407 36.7259 16.359 36.3096 15.3766L33.3717 18.3144L30.9218 17.8248L30.3905 15.4177L33.3717 12.4381C32.3892 12.0217 31.3074 11.8978 30.2562 12.0814C29.205 12.2649 28.2292 12.7481 27.4459 13.4728C26.6627 14.1976 26.1054 15.133 25.841 16.1669C25.5766 17.2007 25.6163 18.2888 25.9553 19.3006Z" fill="#ED995B"/>
<path d="M20.506 31.7362L22.416 29.8262L18.926 26.3322L17.016 28.2421C16.2189 28.164 15.4171 28.3341 14.7203 28.729C14.0235 29.124 13.4657 29.7246 13.1232 30.4486C12.7808 31.1727 12.6703 31.9848 12.807 32.774C12.9437 33.5632 13.3209 34.2909 13.8869 34.8576C14.4529 35.4243 15.1802 35.8023 15.9692 35.9399C16.7583 36.0775 17.5706 35.968 18.295 35.6264C19.0194 35.2847 19.6206 34.7277 20.0164 34.0313C20.4122 33.335 20.5832 32.5334 20.506 31.7362ZM16.6381 33.3399L15.4128 32.1124L16.641 30.8848L17.8656 32.1124L16.6381 33.3399Z" fill="#FABE91"/>
</g>
<defs>
<clipPath id="clip0_226_17095">
<rect width="24" height="24" fill="white" transform="translate(12.75 12)"/>
</clipPath>
</defs>
</svg>
