<svg width="24" height="24" viewBox="0 0 24 24" fill="none" xmlns="http://www.w3.org/2000/svg">
<path d="M12 21C16.9706 21 21 16.9706 21 12C21 7.02944 16.9706 3 12 3C7.02944 3 3 7.02944 3 12C3 16.9706 7.02944 21 12 21Z" fill="#F24D4D"/>
<path fill-rule="evenodd" clip-rule="evenodd" d="M15.6095 8.39052C16.1302 8.91122 16.1302 9.75544 15.6095 10.2761L10.2761 15.6095C9.75544 16.1302 8.91122 16.1302 8.39052 15.6095C7.86983 15.0888 7.86983 14.2446 8.39052 13.7239L13.7239 8.39052C14.2446 7.86983 15.0888 7.86983 15.6095 8.39052Z" fill="white"/>
<path fill-rule="evenodd" clip-rule="evenodd" d="M8.39052 8.39052C8.91122 7.86983 9.75544 7.86983 10.2761 8.39052L15.6095 13.7239C16.1302 14.2446 16.1302 15.0888 15.6095 15.6095C15.0888 16.1302 14.2446 16.1302 13.7239 15.6095L8.39052 10.2761C7.86983 9.75544 7.86983 8.91122 8.39052 8.39052Z" fill="white"/>
</svg>
