<svg width="24" height="24" viewBox="0 0 24 24" fill="none" xmlns="http://www.w3.org/2000/svg">
<path fill-rule="evenodd" clip-rule="evenodd" d="M4.88899 13.4805C5.37996 13.4805 5.77798 13.8784 5.77798 14.3694V17.5299C5.77798 17.7132 5.85083 17.8891 5.98049 18.0187C6.11016 18.1484 6.28603 18.2212 6.46941 18.2212H17.5324C17.7158 18.2212 17.8916 18.1484 18.0213 18.0187C18.151 17.8891 18.2238 17.7132 18.2238 17.5299V14.3694C18.2238 13.8784 18.6218 13.4805 19.1128 13.4805C19.6038 13.4805 20.0018 13.8784 20.0018 14.3694V17.5299C20.0018 18.1847 19.7416 18.8127 19.2785 19.2758C18.8154 19.7388 18.1873 19.999 17.5324 19.999H6.46941C5.81448 19.999 5.18638 19.7388 4.72327 19.2758C4.26017 18.8127 4 18.1847 4 17.5299V14.3694C4 13.8784 4.39801 13.4805 4.88899 13.4805Z" fill="#1A9DFD"/>
<path fill-rule="evenodd" clip-rule="evenodd" d="M7.42054 9.7916C7.76771 9.44447 8.33058 9.44447 8.67776 9.7916L12.0002 13.1137L15.3227 9.7916C15.6698 9.44447 16.2327 9.44447 16.5799 9.7916C16.9271 10.1387 16.9271 10.7015 16.5799 11.0487L12.6288 14.9993C12.2816 15.3464 11.7188 15.3464 11.3716 14.9993L7.42054 11.0487C7.07336 10.7015 7.07336 10.1387 7.42054 9.7916Z" fill="#1A9DFD"/>
<path fill-rule="evenodd" clip-rule="evenodd" d="M12.0002 4C12.4911 4 12.8891 4.39797 12.8891 4.88889V14.3704C12.8891 14.8613 12.4911 15.2593 12.0002 15.2593C11.5093 15.2593 11.1113 14.8613 11.1113 14.3704V4.88889C11.1113 4.39797 11.5093 4 12.0002 4Z" fill="#1A9DFD"/>
</svg>
