<svg width="36" height="36" viewBox="0 0 36 36" fill="none" xmlns="http://www.w3.org/2000/svg">
<rect width="36" height="36" rx="8" fill="#FFE5E2"/>
<path d="M21.5352 9V12.2143C21.5352 12.5815 21.8108 12.8571 22.178 12.8571H25.3923C25.3923 12.6868 25.3244 12.5233 25.2039 12.4027L21.9896 9.18844C21.869 9.0679 21.7055 9 21.5352 9Z" fill="#FFAA9E"/>
<path d="M17.6783 20.5753C18.7454 20.5753 19.6105 19.7102 19.6105 18.6431C19.6105 17.576 18.7454 16.7109 17.6783 16.7109C16.6112 16.7109 15.7461 17.576 15.7461 18.6431C15.7461 19.7102 16.6112 20.5753 17.6783 20.5753Z" fill="#FFAA9E"/>
<path d="M22.1786 14.1429C21.1211 14.1429 20.25 13.2718 20.25 12.2143V9H13.1786C12.1211 9 11.25 9.87107 11.25 10.9286V25.0714C11.25 26.1289 12.1211 27 13.1786 27H23.4643C24.5218 27 25.3929 26.1289 25.3929 25.0714V14.1429H22.1786ZM21.9901 22.9544C21.739 23.2055 21.332 23.2055 21.0813 22.9544L19.4492 21.3224C18.9402 21.6607 18.3323 21.8612 17.679 21.8612C15.9091 21.8612 14.4611 20.4131 14.4611 18.6433C14.4611 16.8734 15.9091 15.4254 17.679 15.4254C19.4488 15.4254 20.8969 16.8734 20.8969 18.6433C20.8969 19.297 20.698 19.9057 20.3593 20.4147L21.9901 22.0456C22.2413 22.2967 22.2413 22.7037 21.9901 22.9544Z" fill="#FF7D6B"/>
</svg>
