<svg width="24" height="24" viewBox="0 0 24 24" fill="none" xmlns="http://www.w3.org/2000/svg">
<rect width="24" height="24" rx="4" fill="#F4F8FB"/>
<g clip-path="url(#clip0_14_1087)">
<path d="M15.2856 3V6.21429C15.2856 6.58152 15.5613 6.85714 15.9285 6.85714H19.1428C19.1428 6.68679 19.0749 6.52326 18.9543 6.40272L15.7401 3.18844C15.6195 3.0679 15.456 3 15.2856 3Z" fill="#81BFCC"/>
<path d="M11.4285 14.5751C12.4956 14.5751 13.3607 13.71 13.3607 12.6429C13.3607 11.5758 12.4956 10.7107 11.4285 10.7107C10.3614 10.7107 9.49634 11.5758 9.49634 12.6429C9.49634 13.71 10.3614 14.5751 11.4285 14.5751Z" fill="#81BFCC"/>
<path d="M15.9286 8.14286C14.8711 8.14286 14 7.27179 14 6.21429V3H6.92857C5.87107 3 5 3.87107 5 4.92857V19.0714C5 20.1289 5.87107 21 6.92857 21H17.2143C18.2718 21 19.1429 20.1289 19.1429 19.0714V8.14286H15.9286ZM15.7401 16.9544C15.489 17.2055 15.082 17.2055 14.8313 16.9544L13.1992 15.3224C12.6902 15.6607 12.0823 15.8612 11.429 15.8612C9.65911 15.8612 8.21107 14.4131 8.21107 12.6433C8.21107 10.8734 9.65911 9.42536 11.429 9.42536C13.1988 9.42536 14.6469 10.8734 14.6469 12.6433C14.6469 13.297 14.448 13.9057 14.1093 14.4147L15.7401 16.0456C15.9913 16.2967 15.9913 16.7037 15.7401 16.9544Z" fill="#53A7BA"/>
</g>
<defs>
<clipPath id="clip0_14_1087">
<rect width="14.1429" height="18" fill="white" transform="translate(5 3)"/>
</clipPath>
</defs>
</svg>
