<svg width="37" height="38" viewBox="0 0 37 38" fill="none" xmlns="http://www.w3.org/2000/svg">
<path d="M24.3953 25.099L18.2963 19L12.1973 25.099" stroke="#1A9DFD" stroke-width="1.52475" stroke-linecap="round" stroke-linejoin="round"/>
<path d="M18.2959 19V32.7228" stroke="#1A9DFD" stroke-width="1.52475" stroke-linecap="round" stroke-linejoin="round"/>
<path d="M31.0887 28.7434C32.5759 27.9327 33.7507 26.6498 34.4277 25.0972C35.1048 23.5446 35.2455 21.8107 34.8277 20.1693C34.4099 18.5278 33.4574 17.0722 32.1205 16.0323C30.7835 14.9923 29.1383 14.4271 27.4445 14.426H25.5234C25.0618 12.6409 24.2016 10.9836 23.0074 9.57882C21.8132 8.174 20.3161 7.05819 18.6286 6.31526C16.9411 5.57234 15.1071 5.22163 13.2645 5.28952C11.422 5.35741 9.61877 5.84212 7.9905 6.70721C6.36223 7.5723 4.95126 8.79526 3.86367 10.2842C2.77608 11.773 2.04017 13.4891 1.71127 15.3034C1.38236 17.1176 1.46902 18.9828 1.96473 20.7587C2.46044 22.5346 3.3523 24.1751 4.57326 25.5567" stroke="#1A9DFD" stroke-width="1.52475" stroke-linecap="round" stroke-linejoin="round"/>
<path d="M24.3953 25.099L18.2963 19L12.1973 25.099" stroke="#1A9DFD" stroke-width="1.52475" stroke-linecap="round" stroke-linejoin="round"/>
</svg>
