<svg width="24" height="24" viewBox="0 0 24 24" fill="none" xmlns="http://www.w3.org/2000/svg">
<path d="M19.056 5.76467H11.533C11.0579 4.46798 9.6562 3.72581 8.29937 4.09449C7.45705 4.32333 6.77713 4.95304 6.47822 5.76467H4.94215C4.42281 5.76467 4 6.18748 4 6.70712C4 7.22676 4.42281 7.64927 4.94215 7.64927H6.47792C6.87065 8.72103 7.8961 9.41389 9.00605 9.41389C9.23911 9.41389 9.47607 9.38321 9.71154 9.31946C10.5538 9.09061 11.2338 8.46091 11.5327 7.64927H19.056C19.5757 7.64927 19.9982 7.22646 19.9982 6.70712C19.9982 6.18778 19.5754 5.76497 19.056 5.76497V5.76467ZM9.00515 8.13042C8.22028 8.13042 7.58185 7.492 7.58185 6.70712C7.58275 5.92285 8.22118 5.28473 9.00485 5.28383H9.00515C9.79002 5.28383 10.4284 5.92225 10.4284 6.70712C10.4284 7.492 9.79002 8.13042 9.00515 8.13042Z" fill="#1A9DFD"/>
<path d="M19.056 16.3509H11.533C11.0579 15.0542 9.65651 14.312 8.29937 14.6807C7.45705 14.9095 6.77713 15.5392 6.47822 16.3509H4.94215C4.42251 16.3509 4 16.7737 4 17.293C4 17.8123 4.42281 18.2352 4.94215 18.2352H6.47792C6.87065 19.3069 7.8961 19.9998 9.00605 19.9998C9.23911 19.9998 9.47607 19.9691 9.71154 19.9053C10.5538 19.6765 11.2338 19.0468 11.5327 18.2352H19.056C19.5757 18.2352 19.9982 17.8123 19.9982 17.293C19.9982 16.7737 19.5754 16.3509 19.056 16.3509ZM9.00515 18.7166C8.22028 18.7166 7.58185 18.0782 7.58185 17.2933C7.58275 16.509 8.22118 15.8709 9.00485 15.87H9.00515C9.79002 15.87 10.4284 16.5084 10.4284 17.2933C10.4284 18.0782 9.79002 18.7166 9.00515 18.7166Z" fill="#1A9DFD"/>
<path d="M4.94215 12.947H12.4652C12.9403 14.2437 14.3417 14.9859 15.6988 14.6172C16.5411 14.3883 17.2211 13.7586 17.52 12.947H19.0557C19.5754 12.947 19.9979 12.5242 19.9979 12.0049C19.9979 11.4855 19.5751 11.0627 19.0557 11.0627H17.52C17.1272 9.99095 16.1018 9.2981 14.9918 9.2981C14.7588 9.2981 14.5218 9.32877 14.2864 9.39252C13.444 9.62137 12.7641 10.2511 12.4652 11.0627H4.94215C4.42251 11.0627 4 11.4855 4 12.0049C4 12.5242 4.42281 12.947 4.94215 12.947ZM14.993 10.5813C15.7779 10.5813 16.4163 11.2197 16.4163 12.0046C16.4154 12.7888 15.777 13.427 14.9933 13.4279H14.993C14.2082 13.4279 13.5697 12.7894 13.5697 12.0046C13.5697 11.2197 14.2082 10.5813 14.993 10.5813Z" fill="#1A9DFD"/>
</svg>
