<svg width="145" height="149" viewBox="0 0 145 149" fill="none" xmlns="http://www.w3.org/2000/svg">
<path d="M187.349 147.052C172.242 150.345 156.625 146.261 141.691 142.21C123.917 137.384 106.149 132.567 88.3668 127.749C69.2542 122.564 49.5909 117.103 33.9309 104.713C9.69834 85.5376 -0.846321 52.1237 0.92737 20.8207C2.69382 -10.4903 15.2071 -40.1001 29.9687 -67.5448C35.8649 -78.5028 43.1415 -90.0818 54.7861 -93.8355C66.0994 -97.488 78.5089 -92.5654 88.0735 -85.3366C109.95 -68.8229 121.401 -41.7527 138.997 -20.5287C164.716 10.4993 205.283 31.7724 215.272 71.1723C222.46 99.5616 222.522 139.404 187.349 147.052Z" fill="#53DAA6"/>
</svg>
