<svg width="24" height="24" viewBox="0 0 24 24" fill="none" xmlns="http://www.w3.org/2000/svg">
<g clip-path="url(#clip0_1903_44385)">
<path d="M12.263 9.89468C12.728 9.89468 13.105 10.2717 13.105 10.7367V13.263H13.947C14.412 13.2602 14.7913 13.6348 14.7941 14.0998C14.7957 14.3304 14.7025 14.5514 14.5363 14.7113L12.7931 16.3957C12.6329 16.5504 12.4177 16.6349 12.1951 16.6313C11.9729 16.6282 11.7613 16.5374 11.6058 16.3787L9.97194 14.6943C9.64628 14.3624 9.6518 13.8291 9.98378 13.5034C10.1425 13.3479 10.356 13.2614 10.5783 13.2626H11.4202V10.7363C11.4202 10.2713 11.7972 9.89429 12.2622 9.89429L12.263 9.89468Z" fill="#1A9DFD"/>
<path d="M19 6.52634H13.1642C12.8823 6.52476 12.6202 6.38265 12.4651 6.14739L11.783 5.12856C11.3148 4.42316 10.5245 4 9.67782 4H5.52634C4.13093 4 3 5.13093 3 6.52634V17.4737C3 18.8691 4.13093 20 5.52634 20H19C20.3954 20 21.5263 18.8691 21.5263 17.4737V9.05267C21.5263 7.65727 20.3954 6.52634 19 6.52634ZM19.842 17.4737C19.842 17.9387 19.465 18.3156 19 18.3156H5.52634C5.06133 18.3156 4.68436 17.9387 4.68436 17.4737V6.52634C4.68436 6.06133 5.06133 5.68436 5.52634 5.68436H9.67782C9.95966 5.68593 10.2218 5.82804 10.3769 6.06331L11.059 7.08213C11.5276 7.78714 12.3178 8.21069 13.1642 8.21069H19C19.465 8.21069 19.842 8.58767 19.842 9.05267V17.4737Z" fill="#1A9DFD"/>
</g>
<defs>
<clipPath id="clip0_1903_44385">
<rect width="18.5263" height="16" fill="white" transform="translate(3 4)"/>
</clipPath>
</defs>
</svg>
