<svg width="24" height="24" viewBox="0 0 24 24" fill="none" xmlns="http://www.w3.org/2000/svg">
<g clip-path="url(#clip0_134_8193)">
<path d="M12.1747 18.8706C14.0722 18.7312 15.8106 17.6422 16.7809 15.9581C17.7512 14.274 17.7684 12.2862 16.8209 10.6522C16.8125 10.6381 16.8019 10.6209 16.7897 10.6028L12.2581 4.25621C12.2016 4.17694 12.1269 4.11231 12.0404 4.06773C11.9538 4.02314 11.8578 3.99988 11.7605 3.99988C11.6631 3.99988 11.5671 4.02314 11.4806 4.06773C11.394 4.11231 11.3194 4.17694 11.2628 4.25621L6.73156 10.6034C6.71906 10.6215 6.70875 10.6372 6.70031 10.6525C5.75281 12.2865 5.7675 14.2703 6.74031 15.9581C7.71312 17.6459 9.44875 18.7312 11.3463 18.8706H6V20H17.5212V18.8706H12.1747ZM9.35781 14.6122C8.95156 15.3131 8.91437 16.1472 9.245 16.8934C8.65106 16.496 8.15653 15.9672 7.79969 15.3481C7.0425 14.0331 7.02219 12.5543 7.74406 11.29L11.7606 5.66496L15.7769 11.29C16.4987 12.5543 16.4784 14.0331 15.7212 15.3475C15.3648 15.9668 14.8703 16.4956 14.2762 16.8928C14.6066 16.1472 14.5697 15.3128 14.1634 14.6115V14.6097C14.1565 14.5976 14.1489 14.5859 14.1406 14.5747L12.1406 11.7709C12.0978 11.7108 12.0412 11.6619 11.9756 11.6281C11.9099 11.5943 11.8372 11.5767 11.7634 11.5767C11.6896 11.5767 11.6169 11.5943 11.5513 11.6281C11.4857 11.6619 11.4291 11.7108 11.3863 11.7709L9.38313 14.5768C9.37219 14.5887 9.36437 14.6006 9.35781 14.6122ZM10.1784 16.6875C9.88063 16.1706 9.87031 15.5912 10.1497 15.0956L11.7606 12.839L13.3716 15.0937C13.6506 15.5893 13.6403 16.1687 13.3425 16.6856C13.1848 16.9665 12.9551 17.2003 12.677 17.3631C12.399 17.5258 12.0826 17.6116 11.7605 17.6116C11.4383 17.6116 11.1219 17.5258 10.8439 17.3631C10.5659 17.2003 10.3362 16.9665 10.1784 16.6856V16.6875Z" fill="#AEB6BD"/>
</g>
<defs>
<clipPath id="clip0_134_8193">
<rect width="11.5212" height="16" fill="white" transform="translate(6 4)"/>
</clipPath>
</defs>
</svg>
