<svg width="24" height="24" viewBox="0 0 24 24" fill="none" xmlns="http://www.w3.org/2000/svg">
<g clip-path="url(#clip0_1407_37099)">
<path d="M14.4848 12.3111H11.6385V9.46484C11.6385 9.03302 11.2874 8.68188 10.8556 8.68188C10.4238 8.68188 10.0726 9.03302 10.0726 9.46484V12.3111H7.2268C6.79498 12.3111 6.44385 12.6622 6.44385 13.094C6.44385 13.5258 6.79498 13.877 7.2268 13.877H10.0726V16.7228C10.0726 17.1546 10.4238 17.5057 10.8556 17.5057C11.2874 17.5057 11.6385 17.1546 11.6385 16.7228V13.877H14.4848C14.9166 13.877 15.2677 13.5254 15.2677 13.094C15.2677 12.6626 14.9166 12.3111 14.4848 12.3111Z" fill="#1A9DFD"/>
<path d="M18.9803 2H7.30833C5.90189 2.00189 4.70038 2.96061 4.37424 4.30871C3.73977 4.44811 3.16477 4.78939 2.7375 5.28295C2.26288 5.83144 2.00114 6.53258 2 7.25795V18.9299C2.00189 20.5932 3.35644 21.9477 5.0197 21.9496H16.6917C18.0977 21.9477 19.2992 20.989 19.6258 19.6409C20.2602 19.5015 20.8352 19.1602 21.2625 18.6667C21.7371 18.1182 21.9989 17.417 22 16.6917V5.0197C21.9981 3.35644 20.6436 2.00189 18.9803 2ZM18.1451 7.25833V18.9292C18.1443 19.7299 17.492 20.3822 16.6913 20.3833H5.02008C4.21932 20.3826 3.56705 19.7303 3.56591 18.9295V7.25833C3.56667 6.45758 4.21894 5.8053 5.0197 5.80417H16.6909C17.4917 5.80492 18.1439 6.45758 18.1451 7.25833ZM16.6913 4.23826H6.08447C6.34735 3.82955 6.80644 3.56667 7.30833 3.56591H18.9799C19.7807 3.56667 20.433 4.21894 20.4341 5.02008V16.6909C20.4333 17.2186 20.15 17.692 19.7114 17.9473V7.25795C19.7095 5.5947 18.3549 4.24015 16.6917 4.23826H16.6913Z" fill="#1A9DFD"/>
</g>
<defs>
<clipPath id="clip0_1407_37099">
<rect width="20" height="19.9496" fill="white" transform="translate(2 2)"/>
</clipPath>
</defs>
</svg>
