<svg width="24" height="24" viewBox="0 0 24 24" fill="none" xmlns="http://www.w3.org/2000/svg">
<g clip-path="url(#clip0_3486_4791)">
<rect width="24" height="24" rx="4" fill="#F4F8FB"/>
<path fill-rule="evenodd" clip-rule="evenodd" d="M8.2094 3.03855C7.63195 2.86531 7.05078 3.29771 7.05078 3.90059V20.8458H10.2008V17.6958C10.2008 17.1987 10.6037 16.7958 11.1008 16.7958H12.9008C13.3979 16.7958 13.8008 17.1987 13.8008 17.6958V20.8458H16.9508V6.33059C16.9508 5.93314 16.6901 5.58275 16.3094 5.46855L8.2094 3.03855ZM10.2008 8.24578C9.95226 8.24578 9.75078 8.44725 9.75078 8.69578V9.59578C9.75078 9.8443 9.95226 10.0458 10.2008 10.0458H11.1008C11.3493 10.0458 11.5508 9.8443 11.5508 9.59578V8.69578C11.5508 8.44725 11.3493 8.24578 11.1008 8.24578H10.2008ZM9.75078 11.3958C9.75078 11.1473 9.95226 10.9458 10.2008 10.9458H11.1008C11.3493 10.9458 11.5508 11.1473 11.5508 11.3958V12.2958C11.5508 12.5443 11.3493 12.7458 11.1008 12.7458H10.2008C9.95226 12.7458 9.75078 12.5443 9.75078 12.2958V11.3958ZM10.2008 13.6458C9.95226 13.6458 9.75078 13.8473 9.75078 14.0958V14.9958C9.75078 15.2443 9.95226 15.4458 10.2008 15.4458H11.1008C11.3493 15.4458 11.5508 15.2443 11.5508 14.9958V14.0958C11.5508 13.8473 11.3493 13.6458 11.1008 13.6458H10.2008ZM12.4508 8.69578C12.4508 8.44725 12.6523 8.24578 12.9008 8.24578H13.8008C14.0493 8.24578 14.2508 8.44725 14.2508 8.69578V9.59578C14.2508 9.8443 14.0493 10.0458 13.8008 10.0458H12.9008C12.6523 10.0458 12.4508 9.8443 12.4508 9.59578V8.69578ZM12.9008 10.9458C12.6523 10.9458 12.4508 11.1473 12.4508 11.3958V12.2958C12.4508 12.5443 12.6523 12.7458 12.9008 12.7458H13.8008C14.0493 12.7458 14.2508 12.5443 14.2508 12.2958V11.3958C14.2508 11.1473 14.0493 10.9458 13.8008 10.9458H12.9008ZM12.4508 14.0958C12.4508 13.8473 12.6523 13.6458 12.9008 13.6458H13.8008C14.0493 13.6458 14.2508 13.8473 14.2508 14.0958V14.9958C14.2508 15.2443 14.0493 15.4458 13.8008 15.4458H12.9008C12.6523 15.4458 12.4508 15.2443 12.4508 14.9958V14.0958Z" fill="#53A7BA"/>
<path d="M6.15 20.8449V5.54492H4.8C4.30295 5.54492 3.9 5.94787 3.9 6.44492V19.9449H3.45C3.20147 19.9449 3 20.1464 3 20.3949C3 20.6434 3.20147 20.8449 3.45 20.8449H6.15Z" fill="#81BFCC"/>
<path d="M20.5496 20.8461H17.8496V8.94922L19.6461 9.9758C19.9265 10.1361 20.0996 10.4343 20.0996 10.7573V19.9461H20.5496C20.7981 19.9461 20.9996 20.1476 20.9996 20.3961C20.9996 20.6446 20.7981 20.8461 20.5496 20.8461Z" fill="#81BFCC"/>
<path d="M12.8996 20.8453V17.6953H11.0996V20.8453H12.8996Z" fill="#81BFCC"/>
</g>
<defs>
<clipPath id="clip0_3486_4791">
<rect width="24" height="24" rx="4" fill="white"/>
</clipPath>
</defs>
</svg>
