<svg width="72" height="72" viewBox="0 0 72 72" fill="none" xmlns="http://www.w3.org/2000/svg">
<g filter="url(#filter0_d_4378_211176)">
<path d="M36.3952 60.9751L36.3976 60.975C50.7998 60.7647 62.0002 49.5494 62 35.4887C62.0002 21.7554 50.6024 10.2834 36.5367 10.0051L36.3952 60.9751ZM36.3952 60.9751C32.3215 61.0394 28.42 60.1989 24.7837 58.491C23.0776 57.6893 21.0412 58.0102 19.6704 59.3122C17.6429 61.2376 14.8652 62.1657 12.1272 61.976L36.3952 60.9751ZM12.0449 45.4163L12.0455 45.4178C12.0822 45.5028 12.1185 45.594 12.1528 45.6909C12.1531 45.6917 12.1534 45.6925 12.1537 45.6933L10.2682 46.3602L12.0449 45.4163ZM12.0449 45.4163C10.6795 42.2547 9.99154 38.897 10.0001 35.4261C10.0348 21.2604 22.0318 9.72213 36.5363 10.0051L12.0449 45.4163Z" fill="#F3F9FA" stroke="#53A7BA" stroke-width="4"/>
<path d="M36.0468 24.9221C30.6191 24.9221 26.2031 29.3381 26.2031 34.7658C26.2031 40.1935 30.6191 44.6095 36.0468 44.6095C41.4745 44.6095 45.8905 40.1935 45.8905 34.7658C45.8905 29.3381 41.4745 24.9221 36.0468 24.9221Z" fill="#53A7BA"/>
<path d="M49.9554 29.8817C47.9472 24.2265 42.5839 20.0998 36.2812 20.0016C29.6599 19.9072 24.1497 24.0989 22.1244 29.8832C20.2727 30.0798 18.8203 31.6324 18.8203 33.5354V35.9963C18.8203 38.0319 20.4762 39.6877 22.5117 39.6877H24.7852C24.1224 38.1777 23.7422 36.5176 23.7422 34.7659C23.7422 33.1695 24.0621 31.4927 24.7852 29.844H24.7849C26.6803 25.5058 30.9997 22.3949 36.2427 22.4625C42.9538 22.5675 48.3514 28.1501 48.3514 34.7659C48.3514 41.4314 42.9067 47.0705 36.0468 47.0705C35.3667 47.0705 34.8163 47.6208 34.8163 48.3009C34.8163 48.9811 35.3667 49.5314 36.0468 49.5314C42.4757 49.5314 47.9429 45.3948 49.9652 39.649C51.8187 39.4542 53.2733 37.9006 53.2733 35.9963V33.5354C53.2732 31.6279 51.8135 30.072 49.9554 29.8817Z" fill="#81BFCC"/>
<path fill-rule="evenodd" clip-rule="evenodd" d="M31.9334 61.9999C29.3571 61.6155 26.8644 60.8593 24.4841 59.7413C24.3149 59.6617 24.1397 59.6027 23.9619 59.5637C23.8197 59.1717 23.7422 58.749 23.7422 58.3085V54.5351C23.7422 50.4959 25.7249 46.8543 28.7401 44.6094C29.9442 45.506 31.322 46.1643 32.7992 46.583C32.5252 47.0985 32.3553 47.6774 32.3553 48.3008C32.3553 50.3363 34.0112 51.9922 36.0467 51.9922C40.0492 51.9922 43.7279 50.6082 46.6558 48.3098C47.7203 50.1167 48.3513 52.2872 48.3513 54.5351V58.3085C48.3513 58.7243 48.2822 59.1243 48.1549 59.4976C45.6733 60.722 42.961 61.5793 40.0876 61.9999H31.9334Z" fill="#53A7BA"/>
<circle cx="56" cy="16" r="8" fill="#F24D4D"/>
<path d="M53.125 20.0994C52.59 20.0994 52.1342 19.9538 51.7578 19.6626C51.3814 19.3691 51.0938 18.9441 50.8949 18.3878C50.696 17.8291 50.5966 17.1544 50.5966 16.3636C50.5966 15.5777 50.696 14.9065 50.8949 14.3501C51.0961 13.7914 51.3849 13.3653 51.7614 13.0717C52.1402 12.7758 52.5947 12.6278 53.125 12.6278C53.6553 12.6278 54.1087 12.7758 54.4851 13.0717C54.8639 13.3653 55.1527 13.7914 55.3516 14.3501C55.5528 14.9065 55.6534 15.5777 55.6534 16.3636C55.6534 17.1544 55.554 17.8291 55.3551 18.3878C55.1562 18.9441 54.8686 19.3691 54.4922 19.6626C54.1158 19.9538 53.66 20.0994 53.125 20.0994ZM53.125 19.3182C53.6553 19.3182 54.0672 19.0625 54.3608 18.5511C54.6544 18.0398 54.8011 17.3106 54.8011 16.3636C54.8011 15.7339 54.7337 15.1977 54.5987 14.755C54.4661 14.3123 54.2744 13.9749 54.0234 13.7429C53.7749 13.5109 53.4754 13.3949 53.125 13.3949C52.5994 13.3949 52.1887 13.6541 51.8928 14.1726C51.5968 14.6887 51.4489 15.419 51.4489 16.3636C51.4489 16.9934 51.5152 17.5284 51.6477 17.9688C51.7803 18.4091 51.9709 18.7441 52.2195 18.9737C52.4704 19.2034 52.7723 19.3182 53.125 19.3182ZM59.375 20.0994C58.84 20.0994 58.3842 19.9538 58.0078 19.6626C57.6314 19.3691 57.3438 18.9441 57.1449 18.3878C56.946 17.8291 56.8466 17.1544 56.8466 16.3636C56.8466 15.5777 56.946 14.9065 57.1449 14.3501C57.3461 13.7914 57.6349 13.3653 58.0114 13.0717C58.3902 12.7758 58.8447 12.6278 59.375 12.6278C59.9053 12.6278 60.3587 12.7758 60.7351 13.0717C61.1139 13.3653 61.4027 13.7914 61.6016 14.3501C61.8028 14.9065 61.9034 15.5777 61.9034 16.3636C61.9034 17.1544 61.804 17.8291 61.6051 18.3878C61.4062 18.9441 61.1186 19.3691 60.7422 19.6626C60.3658 19.9538 59.91 20.0994 59.375 20.0994ZM59.375 19.3182C59.9053 19.3182 60.3172 19.0625 60.6108 18.5511C60.9044 18.0398 61.0511 17.3106 61.0511 16.3636C61.0511 15.7339 60.9837 15.1977 60.8487 14.755C60.7161 14.3123 60.5244 13.9749 60.2734 13.7429C60.0249 13.5109 59.7254 13.3949 59.375 13.3949C58.8494 13.3949 58.4387 13.6541 58.1428 14.1726C57.8468 14.6887 57.6989 15.419 57.6989 16.3636C57.6989 16.9934 57.7652 17.5284 57.8977 17.9688C58.0303 18.4091 58.2209 18.7441 58.4695 18.9737C58.7204 19.2034 59.0223 19.3182 59.375 19.3182Z" fill="white"/>
</g>
<defs>
<filter id="filter0_d_4378_211176" x="0" y="0" width="72" height="72" filterUnits="userSpaceOnUse" color-interpolation-filters="sRGB">
<feFlood flood-opacity="0" result="BackgroundImageFix"/>
<feColorMatrix in="SourceAlpha" type="matrix" values="0 0 0 0 0 0 0 0 0 0 0 0 0 0 0 0 0 0 127 0" result="hardAlpha"/>
<feOffset/>
<feGaussianBlur stdDeviation="4"/>
<feComposite in2="hardAlpha" operator="out"/>
<feColorMatrix type="matrix" values="0 0 0 0 0.0630208 0 0 0 0 0.229167 0 0 0 0 0.219198 0 0 0 0.25 0"/>
<feBlend mode="normal" in2="BackgroundImageFix" result="effect1_dropShadow_4378_211176"/>
<feBlend mode="normal" in="SourceGraphic" in2="effect1_dropShadow_4378_211176" result="shape"/>
</filter>
</defs>
</svg>
