<svg width="24" height="24" viewBox="0 0 24 24" fill="none" xmlns="http://www.w3.org/2000/svg">
<g clip-path="url(#clip0_3781_206081)">
<path fill-rule="evenodd" clip-rule="evenodd" d="M12.0001 5.39998C8.35502 5.39998 5.4001 8.3549 5.4001 12C5.4001 15.6451 8.35502 18.6 12.0001 18.6C15.6452 18.6 18.6001 15.6451 18.6001 12C18.6001 8.3549 15.6452 5.39998 12.0001 5.39998ZM3.6001 12C3.6001 7.36078 7.36091 3.59998 12.0001 3.59998C16.6393 3.59998 20.4001 7.36078 20.4001 12C20.4001 16.6392 16.6393 20.4 12.0001 20.4C7.36091 20.4 3.6001 16.6392 3.6001 12Z" fill="#1A9DFD"/>
<path fill-rule="evenodd" clip-rule="evenodd" d="M12.1685 9.16612C11.8542 9.11222 11.5311 9.17127 11.2562 9.33281C10.9813 9.49435 10.7725 9.74795 10.6667 10.0487C10.5018 10.5176 9.98796 10.764 9.51907 10.599C9.05018 10.4341 8.80378 9.92027 8.96872 9.45138C9.21558 8.74963 9.70283 8.15789 10.3442 7.78097C10.9855 7.40405 11.7396 7.26626 12.4728 7.39203C13.206 7.51779 13.871 7.89898 14.3501 8.46808C14.8289 9.03695 15.0911 9.75687 15.0902 10.5004C15.09 11.728 14.1812 12.5252 13.5645 12.9364C13.2286 13.1603 12.8992 13.3243 12.6573 13.4318C12.5351 13.4862 12.432 13.5275 12.3573 13.5559C12.3199 13.5702 12.2894 13.5813 12.267 13.5892L12.2395 13.5989L12.2305 13.6019L12.2273 13.603L12.2259 13.6035C12.2257 13.6036 12.2248 13.6039 11.9478 12.7729L12.2248 13.6039C11.7533 13.761 11.2436 13.5062 11.0864 13.0346C10.9293 12.5633 11.1839 12.0537 11.6551 11.8964L11.654 11.8968L11.664 11.8933C11.6745 11.8895 11.6924 11.883 11.7165 11.8738C11.7649 11.8554 11.8376 11.8264 11.9263 11.787C12.1062 11.707 12.3393 11.5898 12.566 11.4387C13.0741 11.0999 13.2902 10.7723 13.2902 10.5L13.2902 10.4987C13.2907 10.1799 13.1783 9.87119 12.973 9.62729C12.7677 9.38338 12.4827 9.22002 12.1685 9.16612ZM15.0902 10.5004C15.0902 10.5008 15.0902 10.5011 15.0902 10.5014L14.1902 10.5L15.0902 10.5004C15.0902 10.5006 15.0902 10.5003 15.0902 10.5004ZM11.654 11.8968C11.6533 11.897 11.6537 11.8969 11.654 11.8968V11.8968Z" fill="#1A9DFD"/>
<path fill-rule="evenodd" clip-rule="evenodd" d="M11.1001 15.75C11.1001 15.2529 11.503 14.85 12.0001 14.85H12.0068C12.5039 14.85 12.9068 15.2529 12.9068 15.75C12.9068 16.247 12.5039 16.65 12.0068 16.65H12.0001C11.503 16.65 11.1001 16.247 11.1001 15.75Z" fill="#1A9DFD"/>
</g>
<defs>
<clipPath id="clip0_3781_206081">
<rect width="18" height="18" fill="white" transform="translate(3 3)"/>
</clipPath>
</defs>
</svg>
