<svg width="48" height="48" viewBox="0 0 48 48" fill="none" xmlns="http://www.w3.org/2000/svg">
<rect width="48" height="48" rx="16" fill="#E4FAF2"/>
<g clip-path="url(#clip0_4760_144906)">
<path d="M31.6353 12H16.3635C16.1022 12.0031 15.8506 12.0997 15.6543 12.2725C17.242 12.8309 18.3669 14.2529 18.5448 15.927C18.5617 16.0722 18.5617 16.2185 18.5448 16.3632V34.9075C18.5438 35.3335 18.7908 35.721 19.1773 35.9C19.5649 36.0785 20.021 36.0145 20.3447 35.7364L23.4536 33.0749L26.5624 35.7364C26.9705 36.0856 27.5723 36.0856 27.9804 35.7364L31.0892 33.0749L34.1981 35.7364C34.3955 35.9051 34.647 35.9982 34.9073 35.9982C35.0653 35.9972 35.2213 35.9634 35.3655 35.9C35.752 35.721 35.999 35.3335 35.998 34.9075V16.3632C35.9985 13.9538 34.0452 12 31.6353 12ZM30.5447 27.2718H23.9997C23.3973 27.2718 22.909 26.7835 22.909 26.1812C22.909 25.5788 23.3973 25.0905 23.9997 25.0905H30.5447C31.147 25.0905 31.6353 25.5788 31.6353 26.1812C31.6353 26.7835 31.147 27.2718 30.5447 27.2718ZM30.5447 22.9087H23.9997C23.3973 22.9087 22.909 22.4204 22.909 21.818C22.909 21.2157 23.3973 20.7274 23.9997 20.7274H30.5447C31.147 20.7274 31.6353 21.2157 31.6353 21.818C31.6353 22.4204 31.147 22.9087 30.5447 22.9087ZM30.5447 18.5455H23.9997C23.3973 18.5455 22.909 18.0572 22.909 17.4549C22.909 16.8525 23.3973 16.3642 23.9997 16.3642H30.5447C31.147 16.3642 31.6353 16.8525 31.6353 17.4549C31.6353 18.0572 31.147 18.5455 30.5447 18.5455Z" fill="#38D298"/>
<path d="M16.3632 16.3639V25.0907H13.0907C12.4883 25.0907 12 24.6024 12 24V15.9277C12.1207 14.723 13.195 13.8435 14.3997 13.9642C15.6044 14.0849 16.4838 15.1592 16.3632 16.3639Z" fill="#53DAA6"/>
</g>
<defs>
<clipPath id="clip0_4760_144906">
<rect width="23.998" height="24" fill="white" transform="translate(12 12)"/>
</clipPath>
</defs>
</svg>
