<svg width="24" height="24" viewBox="0 0 24 24" fill="none" xmlns="http://www.w3.org/2000/svg">
<g clip-path="url(#clip0_5027_5679)">
<rect width="24" height="24" rx="4" fill="#F4F8FB"/>
<g clip-path="url(#clip1_5027_5679)">
<path d="M20.6004 10.4339L18.5362 9.92617C18.4183 9.55436 18.2684 9.19232 18.0876 8.84469L19.1639 7.05098C19.2886 6.84346 19.2556 6.57771 19.0846 6.40675L17.5932 4.91535C17.4217 4.74284 17.1555 4.71193 16.949 4.83604L15.1553 5.91234C14.8076 5.73157 14.4456 5.58173 14.0738 5.46379L13.566 3.39959C13.5074 3.16481 13.2967 3 13.0547 3H10.9453C10.7033 3 10.4926 3.16481 10.4339 3.39962L9.92617 5.46382C9.55436 5.58173 9.19232 5.73161 8.84469 5.91238L7.05098 4.83607C6.84346 4.71246 6.57771 4.74442 6.40675 4.91538L4.91535 6.40675C4.74438 6.57771 4.71141 6.84346 4.83604 7.05098L5.91234 8.84469C5.73157 9.19232 5.58173 9.55436 5.46379 9.92617L3.39959 10.4339C3.16481 10.4926 3 10.7033 3 10.9453V13.0547C3 13.2967 3.16481 13.5074 3.39962 13.5661L5.46382 14.0738C5.58173 14.4456 5.73161 14.8077 5.91238 15.1553L4.83607 16.949C4.71144 17.1565 4.74442 17.4223 4.91538 17.5933L6.40678 19.0847C6.57673 19.2561 6.84296 19.2875 7.05102 19.164L8.84473 18.0877C9.19235 18.2684 9.55439 18.4183 9.9262 18.5362L10.434 20.6004C10.4926 20.8352 10.7033 21 10.9453 21H13.0547C13.2967 21 13.5074 20.8352 13.5661 20.6004L14.0738 18.5362C14.4456 18.4183 14.8077 18.2684 15.1553 18.0876L16.949 19.1639C17.1561 19.288 17.4223 19.2551 17.5933 19.0846L19.0847 17.5932C19.2556 17.4223 19.2886 17.1565 19.164 16.949L18.0877 15.1553C18.2684 14.8076 18.4183 14.4456 18.5362 14.0738L20.6004 13.566C20.8352 13.5074 21 13.2967 21 13.0547V10.9453C21 10.7033 20.8352 10.4926 20.6004 10.4339ZM12 16.7461C9.38286 16.7461 7.25391 14.6171 7.25391 12C7.25391 9.38286 9.38286 7.25391 12 7.25391C14.6171 7.25391 16.7461 9.38286 16.7461 12C16.7461 14.6171 14.6171 16.7461 12 16.7461Z" fill="#53A7BA"/>
<path d="M12 9.36328C10.5462 9.36328 9.36328 10.5462 9.36328 12C9.36328 13.4538 10.5462 14.6367 12 14.6367C13.4538 14.6367 14.6367 13.4538 14.6367 12C14.6367 10.5462 13.4538 9.36328 12 9.36328Z" fill="#81BFCC"/>
</g>
</g>
<defs>
<clipPath id="clip0_5027_5679">
<rect width="24" height="24" rx="4" fill="white"/>
</clipPath>
<clipPath id="clip1_5027_5679">
<rect width="18" height="18" fill="white" transform="translate(3 3)"/>
</clipPath>
</defs>
</svg>
