<svg width="328" height="112" viewBox="0 0 328 112" fill="none" xmlns="http://www.w3.org/2000/svg">
<path d="M380.547 39.2113C376.539 60.3162 362.822 78.0588 349.519 94.9459C333.68 115.044 317.856 135.137 302.023 155.249C284.998 176.861 267.32 199.028 242.96 212.307C205.264 232.854 156.812 228.157 117.759 208.861C78.6925 189.569 47.647 157.464 20.5923 123.663C9.7912 110.164 -1.05272 94.5628 0.483276 77.6343C1.96853 61.1846 15.0124 47.9982 29.4568 39.7034C62.4687 20.7202 103.304 20.8084 140.01 9.85883C193.667 -6.14087 242.931 -46.4279 298.733 -37.7638C338.937 -31.5094 389.905 -9.91349 380.547 39.2113Z" fill="#53DAA6"/>
</svg>
