<svg width="24" height="24" viewBox="0 0 24 24" fill="none" xmlns="http://www.w3.org/2000/svg">
<path d="M0 4C0 1.79086 1.79086 0 4 0H20C22.2091 0 24 1.79086 24 4V20C24 22.2091 22.2091 24 20 24H4C1.79086 24 0 22.2091 0 20V4Z" fill="#F4F8FB"/>
<path d="M9.94 3H4.31C3.59 3 3 3.59 3 4.31V7.68C3 8.4 3.59 8.99 4.31 8.99H9.93C10.65 8.99 11.24 8.4 11.24 7.68V4.31C11.24 3.59 10.65 3 9.93 3H9.94Z" fill="#53A7BA"/>
<path d="M9.94 10.5H4.31C3.59 10.5 3 11.09 3 11.81V19.68C3 20.4 3.59 20.99 4.31 20.99H9.93C10.65 20.99 11.24 20.4 11.24 19.68V11.81C11.24 11.09 10.65 10.5 9.93 10.5H9.94Z" fill="#53A7BA"/>
<path d="M19.69 15H14.07C13.35 15 12.76 15.59 12.76 16.31V19.68C12.76 20.4 13.35 20.99 14.07 20.99H19.69C20.41 20.99 21 20.4 21 19.68V16.31C21 15.59 20.41 15 19.69 15Z" fill="#53A7BA"/>
<path d="M19.69 3H14.07C13.35 3 12.76 3.59 12.76 4.31V12.18C12.76 12.9 13.35 13.49 14.07 13.49H19.69C20.41 13.49 21 12.9 21 12.18V4.31C21 3.59 20.41 3 19.69 3Z" fill="#81BFCC"/>
</svg>
