<svg width="186" height="115" viewBox="0 0 186 115" fill="none" xmlns="http://www.w3.org/2000/svg">
<path d="M7.18218 16.6918C15.3212 5.8104 28.0441 -0.463887 40.2948 -6.3666C54.8777 -13.3901 69.4511 -20.4149 84.0349 -27.448C99.7134 -35.0026 115.916 -42.6911 133.448 -43.4728C160.578 -44.6816 186.811 -28.5559 203.646 -6.74349C220.491 15.0701 229.219 41.9381 235.208 68.6618C237.598 79.3333 239.428 91.2115 233.853 100.406C228.441 109.342 217.366 113.214 206.853 113.916C182.819 115.537 159.636 104.146 135.734 100.175C100.796 94.3667 61.6093 103.581 32.3014 83.16C11.1899 68.4402 -11.7792 42.0118 7.18218 16.6918Z" fill="#1FA3FF"/>
</svg>
