<svg width="24" height="24" viewBox="0 0 24 24" fill="none" xmlns="http://www.w3.org/2000/svg">
<path d="M0 4C0 1.79086 1.79086 0 4 0H20C22.2091 0 24 1.79086 24 4V20C24 22.2091 22.2091 24 20 24H4C1.79086 24 0 22.2091 0 20V4Z" fill="#F4F8FB"/>
<path d="M5.76005 6.54436C5.76005 6.29971 5.85724 6.06507 6.03023 5.89207C6.20323 5.71908 6.43787 5.62189 6.68252 5.62189H18.6276V4.46176C18.6276 4.41514 18.6091 4.37043 18.5761 4.33747C18.5432 4.3045 18.4985 4.28598 18.4518 4.28598H9.39827C9.26363 4.28606 9.1306 4.2566 9.00857 4.19969C8.88654 4.14277 8.77848 4.05979 8.692 3.95658L7.90277 3.01793C7.89041 3.00651 7.87424 3.00012 7.85741 3H3.17578C3.12916 3 3.08445 3.01852 3.05148 3.05148C3.01852 3.08445 3 3.12916 3 3.17578V20.3249C3 20.6831 3.27667 20.9855 3.6328 20.9995C3.72135 21.0028 3.80967 20.9883 3.89247 20.9567C3.97527 20.9251 4.05087 20.8772 4.11475 20.8158C4.17863 20.7544 4.22949 20.6807 4.26428 20.5992C4.29907 20.5177 4.3171 20.43 4.31727 20.3414V8.92895C4.31746 8.68432 4.41469 8.44976 4.58764 8.27674C4.76059 8.10373 4.99512 8.0064 5.23975 8.00612H5.76005V6.54436Z" fill="#53A7BA"/>
<path d="M6.8147 8.00609H19.5582V6.85229C19.5582 6.80567 19.5396 6.76096 19.5067 6.728C19.4737 6.69503 19.429 6.67651 19.3824 6.67651H6.8147V8.00609Z" fill="#53A7BA"/>
<path d="M20.8237 9.06079H5.37182C5.37182 21.3451 5.42596 20.5566 5.23999 20.9995H20.8237C20.8703 20.9995 20.915 20.981 20.9479 20.9481C20.9809 20.9151 20.9994 20.8704 20.9994 20.8238V9.23657C20.9994 9.18995 20.9809 9.14524 20.9479 9.11228C20.915 9.07931 20.8703 9.06079 20.8237 9.06079ZM16.7829 18.5239C16.7826 18.7275 16.7016 18.9226 16.5577 19.0665C16.4138 19.2104 16.2187 19.2914 16.0151 19.2917H10.3551C10.1515 19.2915 9.95634 19.2106 9.81239 19.0666C9.66844 18.9227 9.58749 18.7275 9.5873 18.5239V17.9235C9.58783 17.258 9.77269 16.6058 10.1214 16.039C10.4701 15.4723 10.969 15.0132 11.5627 14.7127C11.2375 14.3912 11.0153 13.9802 10.9242 13.5321C10.8332 13.084 10.8773 12.6189 11.0512 12.196C11.225 11.773 11.5206 11.4113 11.9005 11.1567C12.2803 10.9021 12.7273 10.7662 13.1846 10.7662C13.6419 10.7662 14.0888 10.9021 14.4687 11.1567C14.8485 11.4113 15.1442 11.773 15.318 12.196C15.4918 12.6189 15.536 13.084 15.4449 13.5321C15.3538 13.9802 15.1316 14.3912 14.8065 14.7127C15.4002 15.0132 15.8991 15.4723 16.2478 16.039C16.5965 16.6058 16.7813 17.258 16.7818 17.9235L16.7829 18.5239Z" fill="#81BFCC"/>
<path d="M13.153 14.3264H13.2177C13.5467 14.3179 13.8591 14.1801 14.0873 13.9429C14.3155 13.7057 14.441 13.3882 14.4368 13.0591C14.4325 12.73 14.2988 12.4158 14.0646 12.1846C13.8304 11.9534 13.5145 11.8237 13.1854 11.8237C12.8562 11.8237 12.5404 11.9534 12.3061 12.1846C12.0719 12.4158 11.9382 12.73 11.9339 13.0591C11.9297 13.3882 12.0552 13.7057 12.2834 13.9429C12.5116 14.1801 12.824 14.3179 13.153 14.3264Z" fill="#53A7BA"/>
<path d="M13.2168 15.381H13.1542C12.4856 15.39 11.8474 15.6618 11.3775 16.1375C10.9077 16.6132 10.6438 17.2548 10.6431 17.9234V18.237H15.7283V17.9234C15.7274 17.2547 15.4635 16.6132 14.9936 16.1375C14.5237 15.6618 13.8854 15.39 13.2168 15.381Z" fill="#53A7BA"/>
</svg>
