<svg width="48" height="48" viewBox="0 0 48 48" fill="none" xmlns="http://www.w3.org/2000/svg">
<rect width="47.9999" height="48.0006" rx="16" fill="#F4F8FB"/>
<path d="M15.6802 16.7259C15.6802 16.3997 15.8097 16.0869 16.0404 15.8562C16.2711 15.6255 16.5839 15.4959 16.9102 15.4959H32.8373V13.9491C32.8373 13.8869 32.8127 13.8273 32.7687 13.7833C32.7247 13.7394 32.6651 13.7147 32.603 13.7147H20.5312C20.3517 13.7148 20.1743 13.6755 20.0116 13.5996C19.8489 13.5237 19.7048 13.4131 19.5895 13.2755L18.5372 12.0239C18.5207 12.0087 18.4991 12.0002 18.4767 12H12.2344C12.1722 12 12.1126 12.0247 12.0686 12.0686C12.0247 12.1126 12 12.1722 12 12.2344V35.1005C12 35.5781 12.3689 35.9813 12.8438 36C12.9618 36.0044 13.0796 35.985 13.19 35.9429C13.3004 35.9008 13.4012 35.8369 13.4864 35.755C13.5715 35.6731 13.6394 35.5749 13.6857 35.4662C13.7321 35.3576 13.7562 35.2407 13.7564 35.1225V19.9055C13.7567 19.5793 13.8863 19.2665 14.1169 19.0358C14.3475 18.8051 14.6602 18.6754 14.9864 18.675H15.6802V16.7259Z" fill="#54B0D7"/>
<path d="M17.0864 18.675H34.0781V17.1366C34.0781 17.0744 34.0534 17.0148 34.0095 16.9709C33.9655 16.9269 33.9059 16.9022 33.8438 16.9022H17.0864V18.675Z" fill="#54B0D7"/>
<path d="M35.7656 20.0813H15.1626C15.1626 36.4608 15.2348 35.4094 14.9868 36H35.7656C35.8277 36 35.8873 35.9754 35.9313 35.9314C35.9752 35.8874 35.9999 35.8278 35.9999 35.7657V20.3157C35.9999 20.2535 35.9752 20.1939 35.9313 20.1499C35.8873 20.106 35.8277 20.0813 35.7656 20.0813ZM30.3778 32.6991C30.3774 32.9705 30.2694 33.2307 30.0775 33.4226C29.8856 33.6145 29.6254 33.7225 29.354 33.7229H21.8071C21.5357 33.7226 21.2754 33.6147 21.0835 33.4227C20.8916 33.2308 20.7836 32.9706 20.7834 32.6991V31.8985C20.7841 31.0112 21.0306 30.1415 21.4955 29.3858C21.9604 28.6301 22.6256 28.018 23.4173 27.6174C22.9838 27.1887 22.6875 26.6407 22.566 26.0432C22.4446 25.4457 22.5035 24.8256 22.7352 24.2616C22.967 23.6977 23.3612 23.2153 23.8677 22.8759C24.3742 22.5364 24.9701 22.3552 25.5799 22.3552C26.1896 22.3552 26.7856 22.5364 27.292 22.8759C27.7985 23.2153 28.1927 23.6977 28.4245 24.2616C28.6562 24.8256 28.7152 25.4457 28.5937 26.0432C28.4723 26.6407 28.176 27.1887 27.7424 27.6174C28.5341 28.018 29.1993 28.6301 29.6642 29.3858C30.1292 30.1415 30.3756 31.0112 30.3763 31.8985L30.3778 32.6991Z" fill="#8DD2F0"/>
<path d="M25.5377 27.1022H25.624C26.0627 27.0909 26.4793 26.9072 26.7835 26.5909C27.0877 26.2746 27.2551 25.8513 27.2495 25.4124C27.2438 24.9736 27.0655 24.5547 26.7532 24.2464C26.4409 23.9381 26.0197 23.7653 25.5809 23.7653C25.142 23.7653 24.7208 23.9381 24.4085 24.2464C24.0962 24.5547 23.9179 24.9736 23.9122 25.4124C23.9066 25.8513 24.074 26.2746 24.3782 26.5909C24.6825 26.9072 25.099 27.0909 25.5377 27.1022Z" fill="#54B0D7"/>
<path d="M25.6226 28.5084H25.5392C24.6477 28.5205 23.7968 28.8828 23.1702 29.5172C22.5437 30.1515 22.1919 31.0069 22.1909 31.8984V32.3165H28.9714V31.8984C28.9702 31.0068 28.6184 30.1514 27.9918 29.5171C27.3652 28.8828 26.5142 28.5205 25.6226 28.5084Z" fill="#54B0D7"/>
</svg>
