<svg width="49" height="48" viewBox="0 0 49 48" fill="none" xmlns="http://www.w3.org/2000/svg">
<rect x="0.75" width="48" height="48" rx="16" fill="#F4F8FB"/>
<path fill-rule="evenodd" clip-rule="evenodd" d="M24.75 29.0882C27.5114 29.0882 29.75 26.8299 29.75 24.0441C29.75 21.2583 27.5114 19 24.75 19C21.9886 19 19.75 21.2583 19.75 24.0441C19.75 26.8299 21.9886 29.0882 24.75 29.0882ZM25.3757 21.2418C25.5414 21.2418 25.6757 21.3761 25.6757 21.5418V23.1101H27.228C27.3937 23.1101 27.528 23.2445 27.528 23.4101V24.6783C27.528 24.844 27.3937 24.9783 27.228 24.9783H25.6757V26.5464C25.6757 26.712 25.5414 26.8464 25.3757 26.8464H24.1239C23.9582 26.8464 23.8239 26.712 23.8239 26.5464V24.9783H22.2724C22.1067 24.9783 21.9724 24.844 21.9724 24.6783V23.4101C21.9724 23.2445 22.1067 23.1101 22.2724 23.1101H23.8239L23.8239 21.5418C23.8239 21.3761 23.9582 21.2418 24.1239 21.2418H25.3757Z" fill="#FFAA9E"/>
<path d="M34.8842 18.5118L34.8835 18.4931C34.8732 18.2626 34.8663 18.0187 34.8621 17.7473C34.8427 16.424 33.7991 15.3294 32.4861 15.2555C29.7486 15.1015 27.6309 14.2017 25.8215 12.4239L25.806 12.4091C25.2158 11.8636 24.3256 11.8636 23.7352 12.4091L23.7198 12.4239C21.9103 14.2017 19.7926 15.1015 17.0551 15.2557C15.7423 15.3294 14.6986 16.424 14.6791 17.7475C14.6751 18.0171 14.668 18.261 14.6577 18.4931L14.6566 18.5365C14.6034 21.3503 14.5373 24.8522 15.6995 28.0307C16.3385 29.7786 17.3064 31.298 18.5759 32.547C20.0219 33.9694 21.9158 35.0986 24.2049 35.9031C24.2794 35.9293 24.3568 35.9506 24.4356 35.9665C24.5468 35.9888 24.6587 36 24.7706 36C24.8825 36 24.9946 35.9888 25.1056 35.9665C25.1844 35.9506 25.2623 35.9291 25.3372 35.9028C27.6236 35.0967 29.5155 33.967 30.9602 32.5448C32.2292 31.2955 33.1971 29.7757 33.8367 28.0274C35.0032 24.8394 34.9373 21.3309 34.8842 18.5118ZM24.7702 29.9815C21.4983 29.9815 18.8366 27.2985 18.8366 24.0004C18.8366 20.7023 21.4983 18.0193 24.7702 18.0193C28.042 18.0193 30.7039 20.7023 30.7039 24.0004C30.7039 27.2985 28.042 29.9815 24.7702 29.9815Z" fill="#FF7D6B"/>
</svg>
