<svg width="48" height="48" viewBox="0 0 48 48" fill="none" xmlns="http://www.w3.org/2000/svg">
<rect width="48" height="48" rx="16" fill="#F4F8FB"/>
<g clip-path="url(#clip0_3472_199211)">
<path d="M14.9041 16.3441V25.0342H11.645C11.0455 25.0342 10.5586 24.5482 10.5586 23.9478V15.91C10.6791 14.7101 11.7485 13.8348 12.9484 13.9543C14.1483 14.0748 15.0236 15.1442 14.9031 16.3441H14.9041Z" fill="#FF8585"/>
<path d="M25.0392 29.6381C25.0392 28.7867 25.1836 27.9692 25.4454 27.2074H22.5069C21.9075 27.2074 21.4205 26.7215 21.4205 26.121C21.4205 25.5206 21.9065 25.0346 22.5069 25.0346H26.6274C27.9946 23.291 30.1186 22.1688 32.5064 22.1688C33.1806 22.1688 33.8328 22.2594 34.4542 22.4267V16.3436C34.4542 13.9448 32.5094 11.999 30.1096 11.999H14.9042C14.6443 12.002 14.3934 12.0986 14.1982 12.2709C15.7795 12.8265 16.8998 14.2425 17.076 15.9094C17.0929 16.0538 17.0929 16.1992 17.076 16.3436V34.8091C17.076 35.2333 17.1915 35.7969 17.9055 35.7969L28.3859 35.8636C26.3695 34.5263 25.0392 32.237 25.0392 29.6361V29.6381ZM22.5079 16.3456H29.0252C29.6247 16.3456 30.1116 16.8315 30.1116 17.4319C30.1116 18.0324 29.6257 18.5183 29.0252 18.5183H22.5079C21.9085 18.5183 21.4215 18.0324 21.4215 17.4319C21.4215 16.8315 21.9075 16.3456 22.5079 16.3456ZM22.5079 20.6901H29.0252C29.6247 20.6901 30.1116 21.176 30.1116 21.7765C30.1116 22.3769 29.6257 22.8629 29.0252 22.8629H22.5079C21.9085 22.8629 21.4215 22.3769 21.4215 21.7765C21.4215 21.176 21.9075 20.6901 22.5079 20.6901Z" fill="#FF8585"/>
<path fill-rule="evenodd" clip-rule="evenodd" d="M32.6035 35.6338C35.9035 35.6338 38.5781 32.9592 38.5781 29.6592C38.5781 26.3592 35.9035 23.6846 32.6035 23.6846C29.3035 23.6846 26.6289 26.3592 26.6289 29.6592C26.6289 32.9592 29.3035 35.6338 32.6035 35.6338ZM34.8181 27.4446C35.0511 27.6776 35.0511 28.056 34.8181 28.29L33.4479 29.6602L34.8181 31.0304C35.0511 31.2634 35.0511 31.6418 34.8181 31.8758C34.5851 32.1088 34.2067 32.1088 33.9727 31.8758L32.6025 30.5056L31.2323 31.8758C30.9993 32.1088 30.6209 32.1088 30.3869 31.8758C30.1539 31.6427 30.1539 31.2644 30.3869 31.0304L31.7571 29.6602L30.3869 28.29C30.1539 28.057 30.1539 27.6786 30.3869 27.4446C30.6199 27.2116 30.9983 27.2116 31.2323 27.4446L32.6025 28.8148L33.9727 27.4446C34.2057 27.2116 34.5841 27.2116 34.8181 27.4446Z" fill="#F24D4D"/>
</g>
<defs>
<clipPath id="clip0_3472_199211">
<rect width="28.5785" height="24" fill="white" transform="translate(10 12)"/>
</clipPath>
</defs>
</svg>
