<svg width="48" height="48" viewBox="0 0 48 48" fill="none" xmlns="http://www.w3.org/2000/svg">
<rect width="48" height="48" rx="16" fill="#F4F8FB"/>
<g clip-path="url(#clip0_3469_198519)">
<path d="M14.7939 13.9975C14.7939 12.8939 15.6878 12 16.7914 12H22.1907V14.5908H14.7939V13.9975Z" fill="#6BC3FF"/>
<path d="M19.091 29.9537C19.091 28.0151 19.8271 26.2493 21.0356 24.919V24.1329H21.8686C23.1559 23.0892 24.7959 22.463 26.5817 22.463C26.6156 22.463 26.6496 22.465 26.6845 22.466V15.9951H14.7934C13.6898 15.9951 12.7959 16.889 12.7959 17.9926V34.9714C12.7959 35.5227 13.2433 35.9701 13.7946 35.9701H22.1192C20.2815 34.6049 19.091 32.4186 19.091 29.9537ZM21.0356 19.1392H22.4398V22.1354H21.0356V19.1392ZM18.4448 32.123H17.0406V29.1267H18.4448V32.123ZM18.4448 27.1292H17.0406V24.1329H18.4448V27.1292ZM18.4448 22.1354H17.0406V19.1392H18.4448V22.1354Z" fill="#0599FF"/>
<path d="M28.963 24.4441C28.7253 24.3492 28.4806 24.2683 28.2299 24.2034C27.9912 24.1425 27.7465 24.0945 27.4968 24.0626C27.2461 24.0306 26.9915 24.0146 26.7308 24.0146C24.7752 24.0146 23.0384 24.9515 21.9448 26.4007C21.6362 26.8102 21.3785 27.2616 21.1807 27.743C20.8951 28.4421 20.7383 29.2052 20.7383 30.0062C20.7383 30.2648 20.7543 30.5215 20.7862 30.7722C20.8491 31.2706 20.975 31.75 21.1528 32.2014C21.6691 33.5118 22.6339 34.5964 23.8574 35.2666C24.7113 35.734 25.6891 35.9997 26.7308 35.9997C26.9895 35.9997 27.2461 35.9837 27.4968 35.9517C27.7465 35.9198 27.9912 35.8728 28.2299 35.8109C28.4806 35.746 28.7253 35.6661 28.963 35.5702C31.1672 34.6853 32.7243 32.527 32.7243 30.0072C32.7243 27.4873 31.1672 25.329 28.963 24.4441ZM29.5702 30.7472C29.5702 31.1148 29.2726 31.4124 28.9051 31.4124H26.4521C26.0846 31.4124 25.787 31.1148 25.787 30.7472V28.3392C25.787 27.9467 26.1046 27.6301 26.4961 27.6301C26.8876 27.6301 27.2052 27.9477 27.2052 28.3392V29.9932H28.9041C29.2716 29.9932 29.5692 30.2908 29.5692 30.6583V30.7472H29.5702Z" fill="#1A9DFD"/>
<path d="M30.6796 23.6843V20.2866C30.6796 19.1829 29.7857 18.2891 28.6821 18.2891H28.0889V22.6147C29.0287 22.8064 29.9036 23.176 30.6796 23.6843Z" fill="#0599FF"/>
</g>
<defs>
<clipPath id="clip0_3469_198519">
<rect width="23.97" height="24" fill="white" transform="translate(12 12)"/>
</clipPath>
</defs>
</svg>
