<svg width="48" height="48" viewBox="0 0 48 48" fill="none" xmlns="http://www.w3.org/2000/svg">
<rect width="48" height="48" rx="16" fill="#F4F8FB"/>
<g clip-path="url(#clip0_4032_77916)">
<path d="M15.5625 23.25C16.1298 23.25 16.6432 23.0224 17.0226 22.6569L19.1039 23.6975C19.0935 23.7823 19.0781 23.8656 19.0781 23.9531C19.0781 25.1162 20.0244 26.0625 21.1875 26.0625C22.3506 26.0625 23.2969 25.1162 23.2969 23.9531C23.2969 23.6285 23.217 23.3245 23.0854 23.0495L25.9089 20.226C26.1839 20.3577 26.4879 20.4375 26.8125 20.4375C27.9756 20.4375 28.9219 19.4912 28.9219 18.3281C28.9219 18.1091 28.8788 17.902 28.8166 17.7034L31.2698 15.8639C31.6046 16.0875 32.0057 16.2188 32.4375 16.2188C33.6006 16.2188 34.5469 15.2725 34.5469 14.1094C34.5469 12.9463 33.6006 12 32.4375 12C31.2744 12 30.3281 12.9463 30.3281 14.1094C30.3281 14.3284 30.3712 14.5355 30.4334 14.7341L27.9802 16.5736C27.6454 16.35 27.2443 16.2188 26.8125 16.2188C25.6494 16.2188 24.7031 17.165 24.7031 18.3281C24.7031 18.6528 24.783 18.9567 24.9146 19.2318L22.0911 22.0552C21.8161 21.9236 21.5121 21.8438 21.1875 21.8438C20.6202 21.8438 20.1068 22.0714 19.7274 22.4368L17.6461 21.3962C17.6565 21.3115 17.6719 21.2281 17.6719 21.1406C17.6719 19.9775 16.7256 19.0312 15.5625 19.0312C14.3994 19.0312 13.4531 19.9775 13.4531 21.1406C13.4531 22.3037 14.3994 23.25 15.5625 23.25Z" fill="#53B5FD"/>
<path d="M35.2969 34.5938H34.5469V19.7344C34.5469 19.3458 34.2323 19.0312 33.8438 19.0312H31.0312C30.6427 19.0312 30.3281 19.3458 30.3281 19.7344V34.5938H28.9219V23.9531C28.9219 23.5646 28.6073 23.25 28.2188 23.25H25.4062C25.0177 23.25 24.7031 23.5646 24.7031 23.9531V34.5938H23.2969V29.5781C23.2969 29.1896 22.9823 28.875 22.5938 28.875H19.7812C19.3927 28.875 19.0781 29.1896 19.0781 29.5781V34.5938H17.6719V26.7656C17.6719 26.3771 17.3573 26.0625 16.9688 26.0625H14.1562C13.7677 26.0625 13.4531 26.3771 13.4531 26.7656V34.5938H12.7031C12.3146 34.5938 12 34.9083 12 35.2969C12 35.6854 12.3146 36 12.7031 36H35.2969C35.6854 36 36 35.6854 36 35.2969C36 34.9083 35.6854 34.5938 35.2969 34.5938Z" fill="#1A9DFD"/>
</g>
<defs>
<clipPath id="clip0_4032_77916">
<rect width="24" height="24" fill="white" transform="translate(12 12)"/>
</clipPath>
</defs>
</svg>
