<svg width="48" height="48" viewBox="0 0 48 48" fill="none" xmlns="http://www.w3.org/2000/svg">
<rect width="47.9999" height="48.0006" rx="16" fill="#F4F8FB"/>
<path d="M15.6802 16.7259C15.6802 16.3997 15.8097 16.0869 16.0404 15.8562C16.2711 15.6255 16.5839 15.4959 16.9102 15.4959H32.8373V13.9491C32.8373 13.8869 32.8127 13.8273 32.7687 13.7833C32.7247 13.7394 32.6651 13.7147 32.603 13.7147H20.5312C20.3517 13.7148 20.1743 13.6755 20.0116 13.5996C19.8489 13.5237 19.7048 13.4131 19.5895 13.2755L18.5372 12.0239C18.5207 12.0087 18.4991 12.0002 18.4767 12H12.2344C12.1722 12 12.1126 12.0247 12.0686 12.0686C12.0247 12.1126 12 12.1722 12 12.2344V35.1005C12 35.5781 12.3689 35.9813 12.8438 36C12.9618 36.0044 13.0796 35.985 13.19 35.9429C13.3004 35.9008 13.4012 35.8369 13.4864 35.755C13.5715 35.6731 13.6394 35.5749 13.6857 35.4662C13.7321 35.3576 13.7562 35.2407 13.7564 35.1225V19.9055C13.7567 19.5793 13.8863 19.2665 14.1169 19.0358C14.3475 18.8051 14.6602 18.6754 14.9864 18.675H15.6802V16.7259Z" fill="#54B0D7"/>
<path d="M17.0864 18.6752H34.0781V17.1367C34.0781 17.0746 34.0534 17.0149 34.0095 16.971C33.9655 16.927 33.9059 16.9023 33.8438 16.9023H17.0864V18.6752Z" fill="#54B0D7"/>
<path d="M35.7656 20.082H15.1626C15.1626 36.4616 15.2348 35.4102 14.9868 36.0008H35.7656C35.8277 36.0008 35.8873 35.9761 35.9313 35.9321C35.9752 35.8882 35.9999 35.8286 35.9999 35.7664V20.3164C35.9999 20.2542 35.9752 20.1946 35.9313 20.1507C35.8873 20.1067 35.8277 20.082 35.7656 20.082ZM30.3778 32.6998C30.3774 32.9712 30.2694 33.2314 30.0775 33.4233C29.8856 33.6152 29.6254 33.7232 29.354 33.7236H21.8071C21.5357 33.7233 21.2754 33.6154 21.0835 33.4235C20.8916 33.2315 20.7836 32.9713 20.7834 32.6998V31.8992C20.7841 31.012 21.0306 30.1422 21.4955 29.3866C21.9604 28.6309 22.6256 28.0188 23.4173 27.6181C22.9838 27.1894 22.6875 26.6415 22.566 26.0439C22.4446 25.4464 22.5035 24.8263 22.7352 24.2624C22.967 23.6984 23.3612 23.2161 23.8677 22.8766C24.3742 22.5372 24.9701 22.3559 25.5799 22.3559C26.1896 22.3559 26.7856 22.5372 27.292 22.8766C27.7985 23.2161 28.1927 23.6984 28.4245 24.2624C28.6562 24.8263 28.7152 25.4464 28.5937 26.0439C28.4723 26.6415 28.176 27.1894 27.7424 27.6181C28.5341 28.0188 29.1993 28.6309 29.6642 29.3866C30.1292 30.1422 30.3756 31.012 30.3763 31.8992L30.3778 32.6998Z" fill="#8DD2F0"/>
<path d="M25.5377 27.1026H25.624C26.0627 27.0912 26.4793 26.9075 26.7835 26.5913C27.0877 26.275 27.2551 25.8516 27.2495 25.4128C27.2438 24.974 27.0655 24.5551 26.7532 24.2468C26.4409 23.9385 26.0197 23.7656 25.5809 23.7656C25.142 23.7656 24.7208 23.9385 24.4085 24.2468C24.0962 24.5551 23.9179 24.974 23.9122 25.4128C23.9066 25.8516 24.074 26.275 24.3782 26.5913C24.6825 26.9075 25.099 27.0912 25.5377 27.1026Z" fill="#54B0D7"/>
<path d="M25.6226 28.5078H25.5392C24.6477 28.5199 23.7968 28.8822 23.1702 29.5166C22.5437 30.1509 22.1919 31.0062 22.1909 31.8978V32.3159H28.9714V31.8978C28.9702 31.0062 28.6184 30.1508 27.9918 29.5165C27.3652 28.8822 26.5142 28.5199 25.6226 28.5078Z" fill="#54B0D7"/>
</svg>
