<svg width="37" height="36" viewBox="0 0 37 36" fill="none" xmlns="http://www.w3.org/2000/svg">
<rect x="0.5" width="36" height="36" rx="8" fill="#FFE5E2"/>
<path d="M22.0356 9V12.2143C22.0356 12.5815 22.3113 12.8571 22.6785 12.8571H25.8928C25.8928 12.6868 25.8249 12.5233 25.7043 12.4027L22.4901 9.18844C22.3695 9.0679 22.206 9 22.0356 9Z" fill="#FFAA9E"/>
<path d="M18.1785 20.5753C19.2456 20.5753 20.1107 19.7102 20.1107 18.6431C20.1107 17.576 19.2456 16.7109 18.1785 16.7109C17.1114 16.7109 16.2463 17.576 16.2463 18.6431C16.2463 19.7102 17.1114 20.5753 18.1785 20.5753Z" fill="#FFAA9E"/>
<path d="M22.6786 14.1429C21.6211 14.1429 20.75 13.2718 20.75 12.2143V9H13.6786C12.6211 9 11.75 9.87107 11.75 10.9286V25.0714C11.75 26.1289 12.6211 27 13.6786 27H23.9643C25.0218 27 25.8929 26.1289 25.8929 25.0714V14.1429H22.6786ZM22.4901 22.9544C22.239 23.2055 21.832 23.2055 21.5813 22.9544L19.9492 21.3224C19.4402 21.6607 18.8323 21.8612 18.179 21.8612C16.4091 21.8612 14.9611 20.4131 14.9611 18.6433C14.9611 16.8734 16.4091 15.4254 18.179 15.4254C19.9488 15.4254 21.3969 16.8734 21.3969 18.6433C21.3969 19.297 21.198 19.9057 20.8593 20.4147L22.4901 22.0456C22.7413 22.2967 22.7413 22.7037 22.4901 22.9544Z" fill="#FF7D6B"/>
</svg>
