<svg width="49" height="48" viewBox="0 0 49 48" fill="none" xmlns="http://www.w3.org/2000/svg">
<rect x="0.5" width="48" height="48" rx="16" fill="#F4F8FB"/>
<path d="M24.5001 19C21.743 19 19.5 21.243 19.5 23.9999C19.5 26.757 21.743 29 24.5001 29C27.257 29 29.5 26.757 29.5 23.9999C29.5 21.243 27.257 19 24.5001 19ZM27.4686 23.0583L23.8866 26.6403C23.7363 26.7907 23.5391 26.8659 23.3421 26.8659C23.1451 26.8659 22.9481 26.7909 22.7977 26.6403L21.4288 25.2714C21.1281 24.9709 21.1281 24.4834 21.4288 24.1827C21.7294 23.882 22.2169 23.882 22.5176 24.1827L23.3421 25.0072L26.3799 21.9695C26.6804 21.6688 27.1679 21.6688 27.4686 21.9695C27.7694 22.2701 27.7694 22.7576 27.4686 23.0583Z" fill="#8D95F0"/>
<path d="M34.6323 18.5118L34.6316 18.4931C34.6212 18.2626 34.6143 18.0187 34.6101 17.7473C34.5907 16.424 33.5471 15.3294 32.2341 15.2555C29.4966 15.1015 27.3789 14.2017 25.5695 12.4239L25.5541 12.4091C24.9639 11.8636 24.0736 11.8636 23.4832 12.4091L23.4678 12.4239C21.6584 14.2017 19.5407 15.1015 16.8032 15.2557C15.4904 15.3294 14.4466 16.424 14.4272 17.7475C14.4232 18.0171 14.4161 18.261 14.4057 18.4931L14.4046 18.5365C14.3514 21.3503 14.2853 24.8522 15.4475 28.0307C16.0866 29.7786 17.0544 31.298 18.324 32.547C19.7699 33.9694 21.6638 35.0986 23.953 35.9031C24.0275 35.9293 24.1049 35.9506 24.1837 35.9665C24.2949 35.9888 24.4068 36 24.5187 36C24.6306 36 24.7426 35.9888 24.8536 35.9665C24.9325 35.9506 25.0104 35.9291 25.0852 35.9028C27.3717 35.0967 29.2636 33.967 30.7083 32.5448C31.9773 31.2955 32.9451 29.7757 33.5847 28.0274C34.7513 24.8394 34.6853 21.3309 34.6323 18.5118ZM24.5183 29.9815C21.2464 29.9815 18.5846 27.2985 18.5846 24.0004C18.5846 20.7023 21.2464 18.0193 24.5183 18.0193C27.79 18.0193 30.4519 20.7023 30.4519 24.0004C30.4519 27.2985 27.79 29.9815 24.5183 29.9815Z" fill="#545ED7"/>
</svg>
