<svg width="24" height="24" viewBox="0 0 24 24" fill="none" xmlns="http://www.w3.org/2000/svg">
<path d="M15.7123 12.0001H22.0001C22.0001 6.47697 17.523 2 12 2C14.7614 2 15.7124 6.9999 15.7123 12.0001Z" fill="#BB2029"/>
<path d="M2 12.0001H16.1419C16.1421 6.9999 14.7613 2 11.9999 2C6.47714 2 2 6.47697 2 12.0001Z" fill="#CD2029"/>
<path d="M15.5018 12.0001C15.5018 17 14.7616 22 12 22C17.523 22 22.0001 17.5228 22.0001 12.0001H15.5018Z" fill="#E4E4E4"/>
<path d="M16.1419 12.0001H2C2 17.5228 6.47714 22 11.9999 22C14.7613 22 16.1419 17 16.1419 12.0001Z" fill="#F3F4F5"/>
</svg>
