<svg width="120" height="120" viewBox="0 0 120 120" fill="none" xmlns="http://www.w3.org/2000/svg">
<rect width="120" height="120" fill="#EEF2F5"/>
<g clip-path="url(#clip0_1792_42017)">
<path d="M66.6667 61.3333L53.3333 48L40 61.3333L30 51.3333V73.3333C30 77 33 80 36.6667 80H83.3334C87 80 90 77 90 73.3333V58L80 48L66.6667 61.3333Z" fill="#D3DBE0"/>
<path d="M83.3333 20H36.6667C33 20 30 23 30 26.6667V42L40 52L53.3333 38.6667L66.6666 52L80 38.6667L90 48.6667V26.6667C90 23 87 20 83.3333 20Z" fill="#D3DBE0"/>
</g>
<path d="M20.3693 95.1193V103.847H18V95.1193H20.3693Z" fill="#D3DBE0"/>
<path d="M21.4922 95.1193H24.4411L26.4695 100.062H26.5717L28.6001 95.1193H31.549V103.847H29.2308V98.8011H29.1626L27.2195 103.778H25.8217L23.8786 98.767H23.8104V103.847H21.4922V95.1193Z" fill="#D3DBE0"/>
<path d="M34.9389 103.847H32.3821L35.2628 95.1193H38.5014L41.3821 103.847H38.8253L36.9162 97.5227H36.848L34.9389 103.847ZM34.4616 100.403H39.2685V102.176H34.4616V100.403Z" fill="#D3DBE0"/>
<path d="M47.4801 98C47.4432 97.8494 47.3849 97.7173 47.3054 97.6037C47.2259 97.4872 47.1264 97.3892 47.0071 97.3097C46.8906 97.2273 46.7543 97.1662 46.598 97.1264C46.4446 97.0838 46.2756 97.0625 46.0909 97.0625C45.6932 97.0625 45.3537 97.1577 45.0724 97.348C44.794 97.5384 44.581 97.8125 44.4332 98.1705C44.2884 98.5284 44.2159 98.9602 44.2159 99.4659C44.2159 99.9773 44.2855 100.415 44.4247 100.778C44.5639 101.142 44.7713 101.42 45.0469 101.614C45.3224 101.807 45.6648 101.903 46.0739 101.903C46.4347 101.903 46.7344 101.851 46.973 101.746C47.2145 101.641 47.3949 101.491 47.5142 101.298C47.6335 101.105 47.6932 100.878 47.6932 100.616L48.1023 100.659H46.108V98.9716H49.9773V100.182C49.9773 100.977 49.8082 101.658 49.4702 102.223C49.1349 102.786 48.6719 103.217 48.081 103.518C47.4929 103.817 46.8182 103.966 46.0568 103.966C45.2074 103.966 44.4616 103.786 43.8196 103.425C43.1776 103.064 42.6761 102.55 42.3153 101.882C41.9574 101.214 41.7784 100.42 41.7784 99.5C41.7784 98.7784 41.8878 98.1392 42.1065 97.5824C42.3281 97.0256 42.6349 96.5554 43.027 96.1719C43.419 95.7855 43.8722 95.4943 44.3864 95.2983C44.9006 95.0994 45.4517 95 46.0398 95C46.5568 95 47.0369 95.0739 47.4801 95.2216C47.9261 95.3665 48.3196 95.5739 48.6605 95.8438C49.0043 96.1108 49.2813 96.4276 49.4915 96.794C49.7017 97.1605 49.8295 97.5625 49.875 98H47.4801Z" fill="#D3DBE0"/>
<path d="M51.082 103.847V95.1193H57.3718V97.0284H53.4514V98.5284H57.0479V100.438H53.4514V101.938H57.3548V103.847H51.082Z" fill="#D3DBE0"/>
<path d="M60.9375 103.847V95.1193H67.2273V97.0284H63.3068V98.5284H66.9034V100.438H63.3068V101.938H67.2102V103.847H60.9375Z" fill="#D3DBE0"/>
<path d="M68.4023 103.847V95.1193H72.1694C72.8171 95.1193 73.3839 95.2372 73.8697 95.473C74.3555 95.7088 74.7333 96.0483 75.0032 96.4915C75.2731 96.9347 75.408 97.4659 75.408 98.0852C75.408 98.7102 75.2688 99.2372 74.9904 99.6662C74.7148 100.095 74.3271 100.419 73.8271 100.638C73.3299 100.857 72.7489 100.966 72.0842 100.966H69.8342V99.125H71.6069C71.8853 99.125 72.1225 99.0909 72.3185 99.0227C72.5174 98.9517 72.6694 98.8395 72.7745 98.6861C72.8825 98.5327 72.9364 98.3324 72.9364 98.0852C72.9364 97.8352 72.8825 97.6321 72.7745 97.4759C72.6694 97.3168 72.5174 97.2003 72.3185 97.1264C72.1225 97.0497 71.8853 97.0114 71.6069 97.0114H70.7717V103.847H68.4023ZM73.516 99.8409L75.6978 103.847H73.1239L70.9933 99.8409H73.516Z" fill="#D3DBE0"/>
<path d="M76.418 103.847V95.1193H80.185C80.8327 95.1193 81.3995 95.2372 81.8853 95.473C82.3711 95.7088 82.7489 96.0483 83.0188 96.4915C83.2887 96.9347 83.4237 97.4659 83.4237 98.0852C83.4237 98.7102 83.2844 99.2372 83.006 99.6662C82.7305 100.095 82.3427 100.419 81.8427 100.638C81.3455 100.857 80.7646 100.966 80.0998 100.966H77.8498V99.125H79.6225C79.9009 99.125 80.1381 99.0909 80.3342 99.0227C80.533 98.9517 80.685 98.8395 80.7901 98.6861C80.8981 98.5327 80.9521 98.3324 80.9521 98.0852C80.9521 97.8352 80.8981 97.6321 80.7901 97.4759C80.685 97.3168 80.533 97.2003 80.3342 97.1264C80.1381 97.0497 79.9009 97.0114 79.6225 97.0114H78.7873V103.847H76.418ZM81.5316 99.8409L83.7134 103.847H81.1396L79.0089 99.8409H81.5316Z" fill="#D3DBE0"/>
<path d="M92.8881 99.483C92.8881 100.455 92.6992 101.274 92.3214 101.942C91.9435 102.607 91.4336 103.111 90.7915 103.455C90.1495 103.795 89.4336 103.966 88.6438 103.966C87.8484 103.966 87.1296 103.794 86.4876 103.45C85.8484 103.104 85.3398 102.598 84.962 101.933C84.587 101.266 84.3995 100.449 84.3995 99.483C84.3995 98.5114 84.587 97.6932 84.962 97.0284C85.3398 96.3608 85.8484 95.8565 86.4876 95.5156C87.1296 95.1719 87.8484 95 88.6438 95C89.4336 95 90.1495 95.1719 90.7915 95.5156C91.4336 95.8565 91.9435 96.3608 92.3214 97.0284C92.6992 97.6932 92.8881 98.5114 92.8881 99.483ZM90.4506 99.483C90.4506 98.9602 90.381 98.5199 90.2418 98.1619C90.1055 97.8011 89.9023 97.5284 89.6325 97.3438C89.3654 97.1563 89.0359 97.0625 88.6438 97.0625C88.2518 97.0625 87.9208 97.1563 87.6509 97.3438C87.3839 97.5284 87.1808 97.8011 87.0415 98.1619C86.9052 98.5199 86.837 98.9602 86.837 99.483C86.837 100.006 86.9052 100.447 87.0415 100.808C87.1808 101.166 87.3839 101.439 87.6509 101.626C87.9208 101.811 88.2518 101.903 88.6438 101.903C89.0359 101.903 89.3654 101.811 89.6325 101.626C89.9023 101.439 90.1055 101.166 90.2418 100.808C90.381 100.447 90.4506 100.006 90.4506 99.483Z" fill="#D3DBE0"/>
<path d="M93.9844 103.847V95.1193H97.7514C98.3991 95.1193 98.9659 95.2372 99.4517 95.473C99.9375 95.7088 100.315 96.0483 100.585 96.4915C100.855 96.9347 100.99 97.4659 100.99 98.0852C100.99 98.7102 100.851 99.2372 100.572 99.6662C100.297 100.095 99.9091 100.419 99.4091 100.638C98.9119 100.857 98.331 100.966 97.6662 100.966H95.4162V99.125H97.1889C97.4673 99.125 97.7045 99.0909 97.9006 99.0227C98.0994 98.9517 98.2514 98.8395 98.3565 98.6861C98.4645 98.5327 98.5185 98.3324 98.5185 98.0852C98.5185 97.8352 98.4645 97.6321 98.3565 97.4759C98.2514 97.3168 98.0994 97.2003 97.9006 97.1264C97.7045 97.0497 97.4673 97.0114 97.1889 97.0114H96.3537V103.847H93.9844ZM99.098 99.8409L101.28 103.847H98.706L96.5753 99.8409H99.098Z" fill="#D3DBE0"/>
<defs>
<clipPath id="clip0_1792_42017">
<rect width="60" height="60" fill="white" transform="translate(30 20)"/>
</clipPath>
</defs>
</svg>
