<svg width="24" height="24" viewBox="0 0 24 24" fill="none" xmlns="http://www.w3.org/2000/svg">
<g clip-path="url(#clip0_1066_24807)">
<path d="M20 6.5V17.5C19.9993 18.1628 19.7356 18.7983 19.2669 19.2669C18.7983 19.7356 18.1628 19.9993 17.5 20H6.5C5.83719 19.9993 5.20173 19.7356 4.73306 19.2669C4.26438 18.7983 4.00074 18.1628 4 17.5V15.9375C4 15.7386 4.07902 15.5478 4.21967 15.4072C4.36032 15.2665 4.55109 15.1875 4.75 15.1875C4.94891 15.1875 5.13968 15.2665 5.28033 15.4072C5.42098 15.5478 5.5 15.7386 5.5 15.9375V17.5C5.50029 17.7651 5.60574 18.0193 5.79321 18.2068C5.98069 18.3943 6.23487 18.4997 6.5 18.5H17.5C17.7651 18.4997 18.0193 18.3943 18.2068 18.2068C18.3943 18.0193 18.4997 17.7651 18.5 17.5V6.5C18.4997 6.23487 18.3943 5.98069 18.2068 5.79321C18.0193 5.60574 17.7651 5.50029 17.5 5.5H6.5C6.23487 5.5003 5.98069 5.60575 5.79322 5.79322C5.60575 5.98069 5.5003 6.23487 5.5 6.5V8.0625C5.5 8.26141 5.42098 8.45218 5.28033 8.59283C5.13968 8.73348 4.94891 8.8125 4.75 8.8125C4.55109 8.8125 4.36032 8.73348 4.21967 8.59283C4.07902 8.45218 4 8.26141 4 8.0625V6.5C4.00075 5.83719 4.26439 5.20174 4.73306 4.73306C5.20174 4.26439 5.83719 4.00075 6.5 4H17.5C18.1628 4.00074 18.7983 4.26438 19.2669 4.73306C19.7356 5.20173 19.9993 5.83719 20 6.5ZM4 12C4 12.1989 4.07902 12.3897 4.21967 12.5303C4.36032 12.671 4.55109 12.75 4.75 12.75H11.1543L9.6105 14.2937C9.54085 14.3634 9.48561 14.4461 9.44792 14.5371C9.41022 14.6281 9.39082 14.7256 9.39082 14.8241C9.39082 15.023 9.46983 15.2138 9.61048 15.3544C9.75114 15.4951 9.9419 15.5741 10.1408 15.5741C10.3397 15.5741 10.5305 15.4951 10.6712 15.3544L13.4952 12.5303C13.5649 12.4607 13.6201 12.378 13.6578 12.287C13.6955 12.196 13.7149 12.0985 13.7149 12C13.7149 11.9015 13.6955 11.804 13.6578 11.713C13.6201 11.622 13.5649 11.5393 13.4952 11.4697L10.6712 8.64556C10.5305 8.50491 10.3397 8.42589 10.1408 8.42589C9.9419 8.42589 9.75112 8.50491 9.61047 8.64556C9.46981 8.78622 9.39079 8.97699 9.39079 9.17591C9.39079 9.37482 9.46981 9.56559 9.61047 9.70625L11.1542 11.25H4.75C4.55109 11.25 4.36032 11.329 4.21967 11.4697C4.07902 11.6103 4 11.8011 4 12H4Z" fill="#1A9DFD"/>
</g>
<defs>
<clipPath id="clip0_1066_24807">
<rect width="16" height="16" fill="white" transform="translate(4 4)"/>
</clipPath>
</defs>
</svg>
