<svg width="25" height="24" viewBox="0 0 25 24" fill="none" xmlns="http://www.w3.org/2000/svg">
<path d="M12.667 21C17.6376 21 21.667 16.9706 21.667 12C21.667 7.02944 17.6376 3 12.667 3C7.69643 3 3.66699 7.02944 3.66699 12C3.66699 16.9706 7.69643 21 12.667 21Z" fill="#FCF1DB"/>
<g clip-path="url(#clip0_5991_89759)">
<path d="M10.7855 12.8202L10.802 12.7932C10.937 12.5723 10.955 12.3395 10.8511 12.1543C10.7439 11.9627 10.5238 11.8532 10.2471 11.8532H9.93401C9.99288 11.2071 10.2726 10.6091 10.7364 10.1475C11.2441 9.64209 11.916 9.3665 12.6284 9.36913C13.3434 9.3725 14.0371 9.66009 14.5313 10.1588L14.7135 10.3425L16.0603 9.04329L15.8728 8.85432C15.0075 7.98106 13.8556 7.5 12.6299 7.5C10.192 7.5 8.1905 9.42912 8.05176 11.8524H7.71281C7.43647 11.8524 7.21638 11.9623 7.10877 12.1535C7.0049 12.3387 7.0229 12.5716 7.15788 12.7928L7.17438 12.8198L8.46346 14.0976C8.64231 14.2761 8.81104 14.3657 8.98014 14.3657C9.14924 14.3657 9.31759 14.2765 9.4957 14.0987L10.7855 12.8202Z" fill="#F2BA4D"/>
<path d="M18.1753 11.4553L18.1588 11.4283L16.8701 10.1535C16.7542 10.0376 16.575 9.88391 16.3433 9.88878C16.1258 9.89291 15.959 10.0324 15.8386 10.1528L14.5488 11.4287L14.5323 11.4557C14.3969 11.6765 14.3789 11.9094 14.4828 12.0946C14.59 12.2862 14.8101 12.3957 15.0864 12.3957H15.3962C15.2574 13.7744 14.1071 14.8524 12.7171 14.8524C12.713 14.8524 12.7089 14.8524 12.7048 14.8524C11.9901 14.8494 11.2964 14.5622 10.8019 14.0639L10.6197 13.8805L9.27246 15.1782L9.46031 15.3672C10.3268 16.2389 11.4787 16.7193 12.7036 16.7193C13.9286 16.7193 15.0718 16.2423 15.9368 15.3766C16.7392 14.5734 17.2105 13.5232 17.2799 12.3961H17.6215C17.8982 12.3961 18.1183 12.2858 18.2255 12.0942C18.329 11.909 18.311 11.6762 18.1757 11.4557L18.1753 11.4553Z" fill="#F2BA4D"/>
</g>
<defs>
<clipPath id="clip0_5991_89759">
<rect width="11.25" height="9.21889" fill="white" transform="translate(7.04199 7.5)"/>
</clipPath>
</defs>
</svg>
