<svg width="36" height="36" viewBox="0 0 36 36" fill="none" xmlns="http://www.w3.org/2000/svg">
<rect width="36" height="36" rx="8" fill="#E9EBFF"/>
<g clip-path="url(#clip0_3353_261494)">
<path d="M27.3465 14.2695H18.448C17.907 16.7176 15.8355 18.5973 13.293 18.8496V24.7141C13.293 25.075 13.5855 25.3676 13.9465 25.3676H23.2484C23.4941 25.3676 23.7137 25.5207 23.7984 25.7512L24.4239 27.4524C24.4802 27.6054 24.6259 27.707 24.7889 27.707C24.9519 27.707 25.0975 27.6054 25.1538 27.4524L25.7793 25.7512C25.8641 25.5207 26.0836 25.3676 26.3293 25.3676H27.3465C27.7074 25.3676 28 25.075 28 24.7141V14.923C28 14.5629 27.707 14.2695 27.3465 14.2695ZM24.6613 22.234H16.6316C16.3078 22.234 16.0457 21.9715 16.0457 21.648C16.0457 21.3246 16.3078 21.0621 16.6316 21.0621H24.6613C24.9852 21.0621 25.2473 21.3246 25.2473 21.648C25.2473 21.9715 24.9852 22.234 24.6613 22.234ZM24.6613 18.575H18.7961C18.4727 18.575 18.2102 18.3129 18.2102 17.9891C18.2102 17.6656 18.4727 17.4031 18.7961 17.4031H24.6613C24.9852 17.4031 25.2473 17.6656 25.2473 17.9891C25.2473 18.3129 24.9852 18.575 24.6613 18.575Z" fill="#545ED7"/>
<path fill-rule="evenodd" clip-rule="evenodd" d="M12.707 8.29297C15.3023 8.29297 17.4141 10.4047 17.4141 13C17.4141 15.8375 14.9227 18.018 12.1211 17.6707C9.80078 17.3816 8 15.3969 8 13C8 10.4047 10.1113 8.29297 12.707 8.29297ZM10.7348 10.7828C10.1039 10.8484 10.0086 11.7395 10.6223 11.9262C10.9152 12.0195 11.2484 11.8637 11.3531 11.5359C11.4738 11.1398 11.1492 10.7406 10.7348 10.7828ZM14.1047 11.6418C14.3566 12.1129 15.0367 12.023 15.1816 11.5359C15.282 11.2285 15.0941 10.866 14.7359 10.7914C14.2344 10.6973 13.8781 11.218 14.1047 11.6418Z" fill="#8D95F0"/>
</g>
<defs>
<clipPath id="clip0_3353_261494">
<rect width="20" height="20" fill="white" transform="translate(8 8)"/>
</clipPath>
</defs>
</svg>
