<svg width="48" height="48" viewBox="0 0 48 48" fill="none" xmlns="http://www.w3.org/2000/svg">
<rect width="48" height="48" rx="16" fill="#E4FAF2"/>
<g clip-path="url(#clip0_45_5890)">
<path d="M31.6348 12H16.363C16.1017 12.0031 15.8502 12.0997 15.6538 12.2725C17.2415 12.8309 18.3664 14.2529 18.5443 15.927C18.5612 16.0722 18.5612 16.2185 18.5443 16.3632V34.9075C18.5433 35.3335 18.7903 35.721 19.1769 35.9C19.5644 36.0785 20.0205 36.0145 20.3442 35.7364L23.4531 33.0749L26.562 35.7364C26.97 36.0856 27.5718 36.0856 27.9799 35.7364L31.0887 33.0749L34.1976 35.7364C34.395 35.9051 34.6466 35.9982 34.9068 35.9982C35.0648 35.9972 35.2208 35.9634 35.365 35.9C35.7515 35.721 35.9985 35.3335 35.9975 34.9075V16.3632C35.998 13.9538 34.0447 12 31.6348 12ZM30.5442 27.2718H23.9992C23.3968 27.2718 22.9085 26.7835 22.9085 26.1812C22.9085 25.5788 23.3968 25.0905 23.9992 25.0905H30.5442C31.1465 25.0905 31.6348 25.5788 31.6348 26.1812C31.6348 26.7835 31.1465 27.2718 30.5442 27.2718ZM30.5442 22.9087H23.9992C23.3968 22.9087 22.9085 22.4204 22.9085 21.818C22.9085 21.2157 23.3968 20.7274 23.9992 20.7274H30.5442C31.1465 20.7274 31.6348 21.2157 31.6348 21.818C31.6348 22.4204 31.1465 22.9087 30.5442 22.9087ZM30.5442 18.5455H23.9992C23.3968 18.5455 22.9085 18.0572 22.9085 17.4549C22.9085 16.8525 23.3968 16.3642 23.9992 16.3642H30.5442C31.1465 16.3642 31.6348 16.8525 31.6348 17.4549C31.6348 18.0572 31.1465 18.5455 30.5442 18.5455Z" fill="#52B690"/>
<path d="M16.3632 16.3631V25.09H13.0907C12.4883 25.09 12 24.6016 12 23.9993V15.927C12.1207 14.7223 13.195 13.8428 14.3997 13.9635C15.6044 14.0841 16.4838 15.1584 16.3632 16.3631Z" fill="#86CFB3"/>
</g>
<defs>
<clipPath id="clip0_45_5890">
<rect width="23.998" height="24" fill="white" transform="translate(12 12)"/>
</clipPath>
</defs>
</svg>
