<svg width="48" height="48" viewBox="0 0 48 48" fill="none" xmlns="http://www.w3.org/2000/svg">
<rect width="48" height="48" rx="16" fill="#F4F8FB"/>
<path d="M16 21.25H14C13.0335 21.25 12.25 22.0335 12.25 23V25C12.25 25.9665 13.0335 26.75 14 26.75H16C16.9665 26.75 17.75 25.9665 17.75 25V23C17.75 22.0335 16.9665 21.25 16 21.25Z" fill="#53B5FD"/>
<path d="M32 21.25H21C20.0335 21.25 19.25 22.0335 19.25 23V25C19.25 25.9665 20.0335 26.75 21 26.75H32C32.9665 26.75 33.75 25.9665 33.75 25V23C33.75 22.0335 32.9665 21.25 32 21.25Z" fill="#1A9DFD"/>
<path d="M16 13.25H14C13.0335 13.25 12.25 14.0335 12.25 15V17C12.25 17.9665 13.0335 18.75 14 18.75H16C16.9665 18.75 17.75 17.9665 17.75 17V15C17.75 14.0335 16.9665 13.25 16 13.25Z" fill="#53B5FD"/>
<path d="M34 13.25H21C20.0335 13.25 19.25 14.0335 19.25 15V17C19.25 17.9665 20.0335 18.75 21 18.75H34C34.9665 18.75 35.75 17.9665 35.75 17V15C35.75 14.0335 34.9665 13.25 34 13.25Z" fill="#1A9DFD"/>
<path d="M16 29.25H14C13.0335 29.25 12.25 30.0335 12.25 31V33C12.25 33.9665 13.0335 34.75 14 34.75H16C16.9665 34.75 17.75 33.9665 17.75 33V31C17.75 30.0335 16.9665 29.25 16 29.25Z" fill="#53B5FD"/>
<path d="M34 29.25H21C20.0335 29.25 19.25 30.0335 19.25 31V33C19.25 33.9665 20.0335 34.75 21 34.75H34C34.9665 34.75 35.75 33.9665 35.75 33V31C35.75 30.0335 34.9665 29.25 34 29.25Z" fill="#1A9DFD"/>
</svg>
