<svg width="120" height="120" viewBox="0 0 120 120" fill="none" xmlns="http://www.w3.org/2000/svg">
<rect width="120" height="120" fill="#EEF2F5"/>
<path fill-rule="evenodd" clip-rule="evenodd" d="M39 20C34.5817 20 31 23.5817 31 28V72C31 76.4183 34.5817 80 39 80H83C87.4183 80 91 76.4183 91 72V28C91 23.5817 87.4183 20 83 20H39ZM75.8284 61.1162C76.4405 60.0597 76.6826 58.8799 76.5532 57.7282C76.6827 58.88 76.4407 60.0601 75.8285 61.1167C74.816 62.8662 73.0152 63.9108 71.0094 63.9108H50.9642C48.9648 63.9108 47.1768 62.879 46.1771 61.1616C45.8258 60.559 45.5956 59.9147 45.4866 59.2571C45.5957 59.9145 45.8258 60.5586 46.1771 61.1611C47.1768 62.8785 48.9647 63.9102 50.9641 63.9102H71.0094C73.0152 63.9102 74.8159 62.8657 75.8284 61.1162ZM45.8204 61.3696C44.7333 59.5049 44.7268 57.2649 45.7994 55.3879L45.8003 55.3862L55.8478 37.9891L55.8482 37.9883C56.9151 36.1236 58.8459 35 61.006 35C63.1653 35 65.0968 36.1166 66.1641 37.9953L66.1649 37.9967L76.1988 55.3734C77.2731 57.2326 77.2653 59.4603 76.1858 61.3237C75.1002 63.1993 73.1641 64.3237 71.0094 64.3237H50.9642C48.8178 64.3237 46.8941 63.2139 45.8204 61.3696ZM58.385 39.4437L48.3367 56.836C48.0603 57.3182 47.9241 57.8456 47.9266 58.372C47.924 57.8454 48.0601 57.3178 48.3367 56.8354L58.3849 39.4432C58.9297 38.4884 59.9037 37.9244 61.006 37.9244C62.1018 37.9244 63.0823 38.4948 63.627 39.4496L73.6688 56.8418C73.8281 57.1186 73.9396 57.4123 74.0035 57.7133C73.9396 57.4125 73.828 57.119 73.6689 56.8424L63.627 39.4502C63.0823 38.4953 62.1018 37.925 61.006 37.925C59.9038 37.925 58.9297 38.4889 58.385 39.4437ZM73.3111 57.0485L73.311 57.0483L63.2684 39.6548C62.7969 38.8283 61.9531 38.3379 61.006 38.3379C60.0514 38.3379 59.2145 38.8229 58.7437 39.6483L58.7425 39.6503L48.6949 57.0413L48.6946 57.0419C48.2175 57.8746 48.2227 58.8582 48.7008 59.6863C49.1706 60.4986 50.0136 60.9794 50.9577 60.9794H71.003C71.9569 60.9794 72.8082 60.4884 73.2925 59.6535C73.7712 58.8235 73.774 57.8532 73.3111 57.0485ZM58.9953 57.6595C58.9953 56.5719 59.9177 55.6602 61.018 55.6602C62.1264 55.6602 63.0407 56.5639 62.9922 57.7075C63.0407 58.7472 62.0779 59.6589 61.018 59.6589C59.9177 59.6589 58.9953 58.7472 58.9953 57.6595ZM60.5235 42.3841C59.5813 42.6405 58.9953 43.4548 58.9953 44.4425C59.0191 44.7403 59.0408 45.0399 59.0626 45.3396L59.0626 45.3397C59.0844 45.6394 59.1062 45.9391 59.1299 46.2369C59.197 47.3684 59.2642 48.4887 59.3313 49.609L59.3318 49.6184C59.3991 50.7419 59.4665 51.8653 59.5338 53C59.5813 53.769 60.2068 54.327 61.0145 54.327C61.8221 54.327 62.4556 53.7313 62.4952 52.9547C62.4952 52.4873 62.4952 52.0575 62.5427 51.5825C62.5862 50.8557 62.6317 50.1289 62.6771 49.402L62.6773 49.3998L62.6774 49.3977C62.7229 48.6708 62.7684 47.9439 62.8119 47.2171C62.8356 46.7458 62.8693 46.2746 62.9029 45.8034C62.9366 45.3321 62.9703 44.8609 62.994 44.3897C62.994 44.0504 62.9465 43.7488 62.8119 43.4472C62.4081 42.6028 61.4658 42.173 60.5235 42.3841Z" fill="#D3DBE0"/>
<path d="M12 99.9999V91.2726H17.9574V92.9857H14.1094V94.7755H17.5781V96.4928H14.1094V99.9999H12Z" fill="#D3DBE0"/>
<path d="M19.8175 99.9999H17.5504L20.495 91.2726H23.3033L26.2479 99.9999H23.9808L21.9311 93.4715H21.8629L19.8175 99.9999ZM19.5149 96.5653H24.2536V98.1675H19.5149V96.5653Z" fill="#D3DBE0"/>
<path d="M29.2969 91.2726V99.9999H27.1875V91.2726H29.2969Z" fill="#D3DBE0"/>
<path d="M30.6211 99.9999V91.2726H32.7305V98.2868H36.3612V99.9999H30.6211Z" fill="#D3DBE0"/>
<path d="M37.4531 99.9999V91.2726H43.5384V92.9857H39.5625V94.7755H43.2273V96.4928H39.5625V98.2868H43.5384V99.9999H37.4531Z" fill="#D3DBE0"/>
<path d="M48.0852 99.9999H44.8594V91.2726H48.081C48.9702 91.2726 49.7358 91.4474 50.3778 91.7968C51.0227 92.1434 51.5199 92.6434 51.8693 93.2968C52.2188 93.9474 52.3935 94.7258 52.3935 95.632C52.3935 96.5411 52.2188 97.3224 51.8693 97.9758C51.5227 98.6292 51.027 99.1306 50.3821 99.48C49.7372 99.8266 48.9716 99.9999 48.0852 99.9999ZM46.9688 98.2016H48.0043C48.4929 98.2016 48.9063 98.1192 49.2443 97.9545C49.5852 97.7868 49.8423 97.5155 50.0156 97.1405C50.1918 96.7627 50.2798 96.2599 50.2798 95.632C50.2798 95.0042 50.1918 94.5042 50.0156 94.132C49.8395 93.757 49.5795 93.4871 49.2358 93.3224C48.8949 93.1547 48.4744 93.0709 47.9744 93.0709H46.9688V98.2016Z" fill="#D3DBE0"/>
<path d="M55.9176 92.9857V91.2726H63.294V92.9857H60.6477V99.9999H58.5682V92.9857H55.9176Z" fill="#D3DBE0"/>
<path d="M72.163 95.6363C72.163 96.5965 71.9783 97.4104 71.609 98.078C71.2397 98.7456 70.7397 99.2528 70.109 99.5993C69.4812 99.9459 68.7766 100.119 67.9954 100.119C67.2113 100.119 66.5053 99.9445 65.8775 99.5951C65.2496 99.2456 64.7511 98.7385 64.3817 98.0738C64.0153 97.4062 63.832 96.5937 63.832 95.6363C63.832 94.676 64.0153 93.8621 64.3817 93.1945C64.7511 92.5269 65.2496 92.0198 65.8775 91.6732C66.5053 91.3266 67.2113 91.1533 67.9954 91.1533C68.7766 91.1533 69.4812 91.3266 70.109 91.6732C70.7397 92.0198 71.2397 92.5269 71.609 93.1945C71.9783 93.8621 72.163 94.676 72.163 95.6363ZM70.0067 95.6363C70.0067 95.0681 69.9258 94.588 69.7639 94.1959C69.6048 93.8039 69.3746 93.507 69.0735 93.3053C68.7752 93.1036 68.4158 93.0028 67.9954 93.0028C67.5778 93.0028 67.2184 93.1036 66.9173 93.3053C66.6161 93.507 66.3846 93.8039 66.2227 94.1959C66.0636 94.588 65.984 95.0681 65.984 95.6363C65.984 96.2045 66.0636 96.6846 66.2227 97.0766C66.3846 97.4687 66.6161 97.7655 66.9173 97.9672C67.2184 98.1689 67.5778 98.2698 67.9954 98.2698C68.4158 98.2698 68.7752 98.1689 69.0735 97.9672C69.3746 97.7655 69.6048 97.4687 69.7639 97.0766C69.9258 96.6846 70.0067 96.2045 70.0067 95.6363Z" fill="#D3DBE0"/>
<path d="M75.9727 99.9999V91.2726H78.082V98.2868H81.7127V99.9999H75.9727Z" fill="#D3DBE0"/>
<path d="M90.7021 95.6363C90.7021 96.5965 90.5174 97.4104 90.1481 98.078C89.7788 98.7456 89.2788 99.2528 88.6481 99.5993C88.0202 99.9459 87.3157 100.119 86.5344 100.119C85.7503 100.119 85.0444 99.9445 84.4165 99.5951C83.7887 99.2456 83.2901 98.7385 82.9208 98.0738C82.5543 97.4062 82.3711 96.5937 82.3711 95.6363C82.3711 94.676 82.5543 93.8621 82.9208 93.1945C83.2901 92.5269 83.7887 92.0198 84.4165 91.6732C85.0444 91.3266 85.7503 91.1533 86.5344 91.1533C87.3157 91.1533 88.0202 91.3266 88.6481 91.6732C89.2788 92.0198 89.7788 92.5269 90.1481 93.1945C90.5174 93.8621 90.7021 94.676 90.7021 95.6363ZM88.5458 95.6363C88.5458 95.0681 88.4648 94.588 88.3029 94.1959C88.1438 93.8039 87.9137 93.507 87.6126 93.3053C87.3143 93.1036 86.9549 93.0028 86.5344 93.0028C86.1168 93.0028 85.7575 93.1036 85.4563 93.3053C85.1552 93.507 84.9237 93.8039 84.7617 94.1959C84.6026 94.588 84.5231 95.0681 84.5231 95.6363C84.5231 96.2045 84.6026 96.6846 84.7617 97.0766C84.9237 97.4687 85.1552 97.7655 85.4563 97.9672C85.7575 98.1689 86.1168 98.2698 86.5344 98.2698C86.9549 98.2698 87.3143 98.1689 87.6126 97.9672C87.9137 97.7655 88.1438 97.4687 88.3029 97.0766C88.4648 96.6846 88.5458 96.2045 88.5458 95.6363Z" fill="#D3DBE0"/>
<path d="M93.3057 99.9999H91.0387L93.9833 91.2726H96.7915L99.7361 99.9999H97.4691L95.4194 93.4715H95.3512L93.3057 99.9999ZM93.0032 96.5653H97.7418V98.1675H93.0032V96.5653Z" fill="#D3DBE0"/>
<path d="M103.902 99.9999H100.676V91.2726H103.897C104.787 91.2726 105.552 91.4474 106.194 91.7968C106.839 92.1434 107.336 92.6434 107.686 93.2968C108.035 93.9474 108.21 94.7258 108.21 95.632C108.21 96.5411 108.035 97.3224 107.686 97.9758C107.339 98.6292 106.843 99.1306 106.199 99.48C105.554 99.8266 104.788 99.9999 103.902 99.9999ZM102.785 98.2016H103.821C104.309 98.2016 104.723 98.1192 105.061 97.9545C105.402 97.7868 105.659 97.5155 105.832 97.1405C106.008 96.7627 106.096 96.2599 106.096 95.632C106.096 95.0042 106.008 94.5042 105.832 94.132C105.656 93.757 105.396 93.4871 105.052 93.3224C104.711 93.1547 104.291 93.0709 103.791 93.0709H102.785V98.2016Z" fill="#D3DBE0"/>
</svg>
