<svg width="24" height="24" viewBox="0 0 24 24" fill="none" xmlns="http://www.w3.org/2000/svg">
<g clip-path="url(#clip0_4156_206770)">
<path d="M13.1562 2H5.34375C4.05156 2 3 3.05156 3 4.34375V19.6562C3 20.9484 4.05156 22 5.34375 22H11.2187C11.6504 22 12 21.6504 12 21.2188C12 20.7871 11.6504 20.4375 11.2187 20.4375H5.34375C4.91289 20.4375 4.5625 20.0871 4.5625 19.6562V4.34375C4.5625 3.91289 4.91289 3.5625 5.34375 3.5625H10.8125V4.34375C10.8125 5.63594 11.8641 6.6875 13.1562 6.6875H15.5V10.3242C15.5 10.7559 15.8496 11.1055 16.2812 11.1055C16.7129 11.1055 17.0625 10.7559 17.0625 10.3242V5.90625C17.0625 3.75234 15.3102 2 13.1562 2ZM12.375 4.34375V3.5625H13.1562C14.1746 3.5625 15.043 4.21563 15.3656 5.125H13.1562C12.7254 5.125 12.375 4.77461 12.375 4.34375Z" fill="#1A9DFD"/>
<path d="M13.1562 11.0625H6.90625C6.47461 11.0625 6.125 10.7129 6.125 10.2812C6.125 9.84961 6.47461 9.5 6.90625 9.5H13.1562C13.5879 9.5 13.9375 9.84961 13.9375 10.2812C13.9375 10.7129 13.5879 11.0625 13.1562 11.0625Z" fill="#1A9DFD"/>
<path d="M10.8125 14.1875H6.90625C6.47461 14.1875 6.125 13.8379 6.125 13.4062C6.125 12.9746 6.47461 12.625 6.90625 12.625H10.8125C11.2441 12.625 11.5937 12.9746 11.5937 13.4062C11.5937 13.8379 11.2441 14.1875 10.8125 14.1875Z" fill="#1A9DFD"/>
<path d="M10.0312 17.3125H6.90625C6.47461 17.3125 6.125 16.9629 6.125 16.5312C6.125 16.0996 6.47461 15.75 6.90625 15.75H10.0312C10.4629 15.75 10.8125 16.0996 10.8125 16.5312C10.8125 16.9629 10.4629 17.3125 10.0312 17.3125Z" fill="#1A9DFD"/>
<path d="M17.2907 21.2981C17.2974 21.2578 17.3005 21.2168 17.3009 21.1758V21.1715C17.2974 20.768 16.9931 20.425 16.597 20.3735C15.7825 20.2543 15.063 19.825 14.5712 19.1645C14.0794 18.5043 13.8747 17.6918 13.9935 16.8774C14.2396 15.1957 15.8079 14.0282 17.4892 14.2742C18.3036 14.3934 19.0231 14.8227 19.5149 15.4832C20.0067 16.1434 20.2118 16.9555 20.0927 17.7703C20.022 18.2547 19.8376 18.7121 19.556 19.1086L19.3392 18.8918C19.0966 18.6492 18.7021 18.6496 18.4595 18.8918C18.3438 19.0074 18.2774 19.168 18.2774 19.3309V21.0297C18.2774 21.3727 18.5563 21.6516 18.8993 21.6516H20.5966C20.7626 21.6516 20.9188 21.5867 21.0364 21.4692C21.154 21.3516 21.2185 21.1957 21.2185 21.0297C21.2185 20.8637 21.1536 20.7074 21.0364 20.5899L20.7067 20.2602C22.2556 18.325 22.029 15.4852 20.1536 13.8235C19.2161 12.993 18.0114 12.5774 16.7614 12.6528C15.5114 12.7285 14.3657 13.2864 13.5353 14.2235C12.7688 15.0883 12.356 16.1805 12.356 17.3262C12.356 17.4223 12.3587 17.5188 12.3646 17.6157C12.4403 18.8657 12.9981 20.0114 13.9353 20.8418C14.6192 21.4481 15.4587 21.8383 16.3599 21.9707C16.8021 22.0418 17.2196 21.7399 17.2903 21.2981H17.2907Z" fill="#1A9DFD"/>
</g>
<defs>
<clipPath id="clip0_4156_206770">
<rect width="18.7312" height="20" fill="white" transform="translate(3 2)"/>
</clipPath>
</defs>
</svg>
