<svg width="24" height="24" viewBox="0 0 24 24" fill="none" xmlns="http://www.w3.org/2000/svg">
<rect width="24" height="24" rx="4" fill="#F4F8FB"/>
<path d="M12 4C9.18859 4 6.84375 6.26469 6.84375 9.15625C6.84375 10.2563 7.17431 11.2373 7.80872 12.1564L11.6054 18.0808C11.7896 18.3688 12.2108 18.3683 12.3946 18.0808L16.2078 12.1363C16.8285 11.2588 17.1562 10.2283 17.1562 9.15625C17.1562 6.31309 14.8432 4 12 4ZM12 11.5C10.7077 11.5 9.65625 10.4485 9.65625 9.15625C9.65625 7.86397 10.7077 6.8125 12 6.8125C13.2923 6.8125 14.3438 7.86397 14.3438 9.15625C14.3438 10.4485 13.2923 11.5 12 11.5Z" fill="#81BFCC"/>
<path d="M15.6645 14.7717L13.3042 18.4619C12.6932 19.4145 11.3034 19.4114 10.6954 18.4629L8.33119 14.7727C6.25106 15.2536 4.96875 16.1347 4.96875 17.1875C4.96875 19.0144 8.5915 20 12 20C15.4085 20 19.0312 19.0144 19.0312 17.1875C19.0312 16.1339 17.7472 15.2524 15.6645 14.7717Z" fill="#53A7BA"/>
</svg>
