<svg width="24" height="24" viewBox="0 0 24 24" fill="none" xmlns="http://www.w3.org/2000/svg">
<path d="M0 4C0 1.79086 1.79086 0 4 0H20C22.2091 0 24 1.79086 24 4V20C24 22.2091 22.2091 24 20 24H4C1.79086 24 0 22.2091 0 20V4Z" fill="#F4F8FB"/>
<path d="M5.97589 14.915L4 16.8909L8.10913 21.0001L10.085 19.0242L5.97589 14.915ZM8.47785 19.861C8.21935 19.861 8.00978 19.6514 8.00978 19.3929C8.00975 19.1344 8.21931 18.9248 8.47785 18.9248C8.73636 18.9248 8.94592 19.1344 8.94592 19.3929C8.94592 19.6514 8.73636 19.861 8.47785 19.861Z" fill="#53A7BA"/>
<path d="M20.2077 10.4342C19.7158 9.9761 18.9414 10.0113 18.4661 10.4866L15.7162 13.2365L15.7107 13.2373C15.8248 13.0599 15.8945 12.8519 15.9025 12.6271C15.9275 11.9218 15.3632 11.3422 14.6636 11.3422H11.6968C10.8505 11.3422 10.0388 11.6784 9.4403 12.2769L7.14087 14.5763L9.88668 17.3221L10.375 16.8339H14.3034C15.1497 16.8339 15.9615 16.4976 16.5599 15.8992L20.2403 12.2188C20.735 11.724 20.7242 10.9152 20.2077 10.4342Z" fill="#81BFCC"/>
<path d="M17.1006 7.10832C17.0112 6.74203 16.8665 6.39743 16.6759 6.08384L17.5818 4.96334L16.5697 3.95133L15.4492 4.85723C15.1357 4.66658 14.791 4.52191 14.4248 4.43255L14.2731 3H12.8418L12.6901 4.43255C12.3239 4.52191 11.9793 4.66658 11.6657 4.85723L10.5452 3.95133L9.53312 4.96337L10.439 6.08387C10.2484 6.39746 10.1037 6.74207 10.0143 7.10836L8.58179 7.26006V8.6913L10.0143 8.843C10.1037 9.20926 10.2484 9.55386 10.439 9.86746L9.69353 10.7895C9.81612 10.724 9.94233 10.6644 10.072 10.6107C10.5897 10.3962 11.1364 10.2875 11.6968 10.2875H14.6636C15.2919 10.2875 15.8782 10.5365 16.3146 10.9887C16.3405 11.0156 16.3658 11.043 16.3902 11.0709L17.0862 10.3749L16.6759 9.86746C16.8665 9.55386 17.0112 9.20926 17.1006 8.84297L18.5331 8.69127V7.26002L17.1006 7.10832ZM13.5575 9.65234C12.6314 9.65234 11.8808 8.90168 11.8808 7.97566C11.8808 7.04965 12.6315 6.29899 13.5575 6.29899C14.4834 6.29899 15.2341 7.04965 15.2341 7.97566C15.2341 8.90168 14.4835 9.65234 13.5575 9.65234Z" fill="#53A7BA"/>
</svg>
