<svg width="36" height="36" viewBox="0 0 36 36" fill="none" xmlns="http://www.w3.org/2000/svg">
<path d="M0 12C0 5.37258 5.37258 0 12 0H24C30.6274 0 36 5.37258 36 12V24C36 30.6274 30.6274 36 24 36H12C5.37258 36 0 30.6274 0 24V12Z" fill="white"/>
<path d="M12.2432 22.4972H23.9527C24.3131 22.4972 24.6682 22.4102 24.9879 22.2435C25.3077 22.0768 25.5827 21.8354 25.7896 21.5396C25.9966 21.2438 26.1295 20.9024 26.177 20.5443C26.2245 20.1861 26.1853 19.8218 26.0627 19.482L23.9296 13.5695C23.5653 12.2556 22.7817 11.0974 21.6987 10.2722C20.6157 9.44702 19.293 9.00016 17.9327 9V9C16.5166 8.99998 15.1429 9.48409 14.0384 10.3724C12.9338 11.2607 12.1644 12.5001 11.8573 13.886L10.0996 19.5848C9.99614 19.9212 9.97288 20.2773 10.0317 20.6244C10.0905 20.9716 10.2298 21.3 10.4383 21.5833C10.6468 21.8666 10.9188 22.0969 11.2323 22.2556C11.5457 22.4143 11.892 22.4971 12.2432 22.4972Z" fill="#AEB6BD"/>
<path d="M14.511 23.9968C14.6826 24.8444 15.1413 25.6064 15.8092 26.1537C16.4771 26.701 17.3132 27 18.1758 27C19.0385 27 19.8746 26.701 20.5425 26.1537C21.2104 25.6064 21.669 24.8444 21.8407 23.9968H14.511Z" fill="#6C757A"/>
</svg>
