<svg width="48" height="48" viewBox="0 0 48 48" fill="none" xmlns="http://www.w3.org/2000/svg">
<rect width="48" height="48" rx="16" fill="#E9EBFF"/>
<g clip-path="url(#clip0_4995_28337)">
<path d="M14.7969 14C14.7969 12.8954 15.6923 12 16.7969 12H22.2031V14.5937H14.7969V14Z" fill="#8D95F0"/>
<path d="M28.1094 27.156C28.8718 26.6583 29.7543 26.33 30.7031 26.2246V20.2969C30.7031 19.1923 29.8077 18.2969 28.7031 18.2969H28.1094V27.156Z" fill="#545ED7"/>
<path d="M21.0938 32.9627V29.0937H24.9628C25.3732 29.0937 25.7707 29.1499 26.1483 29.2546C26.3106 28.9645 26.4964 28.6893 26.7031 28.4315V16H14.7969C13.6923 16 12.7969 16.8954 12.7969 18V35C12.7969 35.5523 13.2446 36 13.7969 36H22.297C21.5513 35.2049 21.0938 34.1363 21.0938 32.9627ZM22.4531 22.1485H21.0469V19.1485H22.4531V22.1485ZM18.4531 32.1484H17.0469V29.1484H18.4531V32.1484ZM18.4531 27.1485H17.0469V24.1485H18.4531V27.1485ZM18.4531 22.1485H17.0469V19.1485H18.4531V22.1485ZM21.0469 24.1485H22.4531V27.1485H21.0469V24.1485Z" fill="#545ED7"/>
<path d="M27.4316 29.8442C28.3496 30.4597 29.0265 31.4081 29.2881 32.5152L31.584 30.2192L32.5784 31.2136L29.4069 34.385V36H30.6335C33.1536 36 35.2038 33.9498 35.2038 31.4297V27.5938H31.3678C29.6941 27.5938 28.2279 28.4984 27.4316 29.8442Z" fill="#8D95F0"/>
<path d="M28 33.5373C28 31.8625 26.6375 30.5 24.9628 30.5H22.5V32.9628C22.5 34.6375 23.8625 36 25.5373 36H28V33.5373H28Z" fill="#8D95F0"/>
</g>
<defs>
<clipPath id="clip0_4995_28337">
<rect width="24" height="24" fill="white" transform="translate(12 12)"/>
</clipPath>
</defs>
</svg>
