<svg width="142" height="123" viewBox="0 0 142 123" fill="none" xmlns="http://www.w3.org/2000/svg">
<path d="M188.943 26.8718C191.338 39.0673 188.024 51.5995 184.742 63.5822C180.833 77.8443 176.931 92.1006 173.028 106.369C168.828 121.705 164.409 137.481 154.674 149.966C139.608 169.284 113.672 177.441 89.4919 175.702C65.3055 173.968 42.5422 163.599 21.4751 151.442C13.0635 146.586 4.18576 140.613 1.40097 131.2C-1.30884 122.056 2.62105 112.114 8.30514 104.486C21.2902 87.0374 42.3312 78.088 58.9144 64.1322C83.1581 43.7347 100.01 11.2868 130.567 3.63678C152.585 -1.86807 183.385 -1.52139 188.943 26.8718Z" fill="#FF8A7A"/>
</svg>
