<svg width="24" height="24" viewBox="0 0 24 24" fill="none" xmlns="http://www.w3.org/2000/svg">
<g clip-path="url(#clip0_1407_37077)">
<path d="M18.6981 2.53117C18.2444 2.32308 17.7118 2.40433 17.343 2.73655L16.331 3.63255L14.8658 2.32263C14.3855 1.89246 13.661 1.89246 13.1808 2.32263L11.7183 3.63074L10.2562 2.32263C9.77597 1.89246 9.05149 1.89246 8.57122 2.32263L7.10557 3.633L6.09266 2.737C5.57447 2.27659 4.77822 2.32353 4.31781 2.84172C4.11062 3.07464 3.99778 3.37436 4.00003 3.6831V20.3144C3.99597 21.0086 4.55704 21.5765 5.25127 21.5806C5.56318 21.5824 5.86245 21.4695 6.09446 21.2628L7.10647 20.3663L8.57122 21.6767C8.81135 21.892 9.11243 21.9994 9.41395 21.9994C9.71548 21.9994 10.0161 21.892 10.2562 21.6767L11.7187 20.3686L13.1812 21.6762C13.6615 22.1064 14.3864 22.1064 14.8662 21.6762L16.3319 20.3659L17.3448 21.2619C17.5958 21.4849 17.9185 21.5968 18.2539 21.5774C18.5893 21.5575 18.8967 21.4086 19.1201 21.1576C19.3273 20.9247 19.4401 20.625 19.4379 20.3158V3.68536C19.4433 3.18703 19.1531 2.73474 18.6985 2.53117H18.6981ZM5.62096 4.48612L6.27141 5.06254C6.75123 5.48774 7.47299 5.48549 7.95056 5.05803L9.41441 3.74901L10.8764 5.05667C11.3567 5.48684 12.0812 5.48684 12.5615 5.05667L14.024 3.74856L15.4878 5.05712C15.9645 5.48549 16.6853 5.48775 17.1642 5.06164L17.8129 4.48567V15.1167L17.8165 19.5123L17.1665 18.9363C16.6867 18.5111 15.9649 18.5134 15.4873 18.9404L14.024 20.2499L12.5619 18.9422C12.0816 18.512 11.3572 18.512 10.8769 18.9422L9.41441 20.2503L7.95056 18.9417C7.71133 18.7269 7.41025 18.619 7.10963 18.619C6.80901 18.619 6.51245 18.7251 6.27411 18.9368L5.62547 19.5123V17.9094L5.62141 4.48567L5.62096 4.48612Z" fill="#1A9DFD"/>
<path d="M7.43994 12.8125H15.9978C16.4455 12.8125 16.8103 12.4482 16.8103 12C16.8103 11.5518 16.4455 11.1875 15.9978 11.1875H7.43994C6.99171 11.1875 6.62744 11.5518 6.62744 12C6.62744 12.4482 6.99171 12.8125 7.43994 12.8125Z" fill="#1A9DFD"/>
<path d="M7.43994 10.1042H11.9353C12.3831 10.1042 12.7478 9.73997 12.7478 9.29174C12.7478 8.84352 12.3831 8.47925 11.9353 8.47925H7.43994C6.99171 8.47925 6.62744 8.84352 6.62744 9.29174C6.62744 9.73997 6.99171 10.1042 7.43994 10.1042Z" fill="#1A9DFD"/>
<path d="M15.9973 13.896H7.43994C6.99171 13.896 6.62744 14.2607 6.62744 14.7085C6.62744 15.1563 6.99171 15.521 7.43994 15.521H15.9978C16.4455 15.521 16.8103 15.1563 16.8103 14.7085C16.8103 14.2607 16.4455 13.896 15.9978 13.896H15.9973Z" fill="#1A9DFD"/>
</g>
<defs>
<clipPath id="clip0_1407_37077">
<rect width="15.4374" height="20" fill="white" transform="translate(4 2)"/>
</clipPath>
</defs>
</svg>
