<svg width="19" height="18" viewBox="0 0 19 18" fill="none" xmlns="http://www.w3.org/2000/svg">
<g clip-path="url(#clip0_3050_50303)">
<path d="M15.3051 0H3.85124C3.65528 0.00230098 3.4666 0.0747818 3.31934 0.204404C4.51009 0.623182 5.35378 1.68969 5.48724 2.94525C5.49989 3.05417 5.49989 3.16385 5.48724 3.27237V17.1806C5.48647 17.5001 5.6717 17.7908 5.96162 17.925C6.25231 18.0588 6.59439 18.0109 6.83714 17.8023L9.16879 15.8062L11.5004 17.8023C11.8065 18.0642 12.2578 18.0642 12.5639 17.8023L14.8955 15.8062L17.2272 17.8023C17.3752 17.9288 17.5639 17.9986 17.7591 17.9986C17.8776 17.9979 17.9946 17.9726 18.1027 17.925C18.3926 17.7908 18.5779 17.5001 18.5771 17.1806V3.27237C18.5775 1.46534 17.1125 0 15.3051 0ZM14.4871 11.4539H9.57837C9.12661 11.4539 8.76037 11.0876 8.76037 10.6359C8.76037 10.1841 9.12661 9.81789 9.57837 9.81789H14.4871C14.9389 9.81789 15.3051 10.1841 15.3051 10.6359C15.3051 11.0876 14.9389 11.4539 14.4871 11.4539V11.4539ZM14.4871 8.18151H9.57837C9.12661 8.18151 8.76037 7.81527 8.76037 7.36351C8.76037 6.91175 9.12661 6.54552 9.57837 6.54552H14.4871C14.9389 6.54552 15.3051 6.91175 15.3051 7.36351C15.3051 7.81527 14.9389 8.18151 14.4871 8.18151V8.18151ZM14.4871 4.90914H9.57837C9.12661 4.90914 8.76037 4.5429 8.76037 4.09114C8.76037 3.63938 9.12661 3.27314 9.57837 3.27314H14.4871C14.9389 3.27314 15.3051 3.63938 15.3051 4.09114C15.3051 4.5429 14.9389 4.90914 14.4871 4.90914V4.90914Z" fill="#1A9DFD"/>
<path d="M3.85148 3.27241V9.81753H1.3971C0.945341 9.81753 0.579102 9.4513 0.579102 8.99954V2.94528C0.669607 2.04177 1.47533 1.38215 2.37885 1.47266C3.28237 1.56317 3.94198 2.36889 3.85148 3.27241Z" fill="#1A9DFD"/>
</g>
<defs>
<clipPath id="clip0_3050_50303">
<rect width="17.9985" height="18" fill="white" transform="translate(0.579102)"/>
</clipPath>
</defs>
</svg>
