<svg width="24" height="24" viewBox="0 0 24 24" fill="none" xmlns="http://www.w3.org/2000/svg">
<path d="M0 4C0 1.79086 1.79086 0 4 0H20C22.2091 0 24 1.79086 24 4V20C24 22.2091 22.2091 24 20 24H4C1.79086 24 0 22.2091 0 20V4Z" fill="#F4F8FB"/>
<g clip-path="url(#clip0_14_844)">
<path fill-rule="evenodd" clip-rule="evenodd" d="M14.3201 10.76C13.9101 10.76 13.5801 10.43 13.5801 10.02C13.5801 9.61003 13.9101 9.28003 14.3201 9.28003H17.6201C18.0301 9.28003 18.3601 9.61003 18.3601 10.02C18.3601 10.43 18.0301 10.76 17.6201 10.76H14.3201Z" fill="#1A9DFD"/>
<path fill-rule="evenodd" clip-rule="evenodd" d="M14.09 3H4.65C3.74 3 3 3.74 3 4.65V16.71C3 17.62 3.74 18.36 4.65 18.36H10.73C10.14 16.94 10.32 15.41 11.07 14.08C11.22 13.81 11.39 13.54 11.57 13.27C11.47 13.2 11.4 13.08 11.4 12.95V12.46C11.4 12.25 11.57 12.08 11.78 12.08H12.47C12.78 11.7 13.1 11.33 13.42 10.98C13.33 10.89 13.24 10.79 13.18 10.67H11.79C11.58 10.67 11.41 10.5 11.41 10.29V9.8C11.41 9.59 11.58 9.42 11.79 9.42H13.16C13.28 9.19 13.46 9 13.68 8.87L13.29 8.48C13.05 8.24 12.92 7.93 12.9 7.62H5.2C4.99 7.62 4.82 7.45 4.82 7.24V5.75C4.82 5.54 4.99 5.37 5.2 5.37H13.54C13.75 5.37 13.92 5.54 13.92 5.75V6.23C14.19 6.17 14.47 6.19 14.73 6.3C14.91 5.88 15.29 5.57 15.74 5.49V4.66C15.74 3.75 15 3.01 14.09 3.01V3ZM8.28 9.8C8.28 9.59 8.45 9.42 8.66 9.42H10.08C10.29 9.42 10.46 9.59 10.46 9.8V10.29C10.46 10.5 10.29 10.67 10.08 10.67H8.66C8.45 10.67 8.28 10.5 8.28 10.29V9.8ZM8.28 12.46C8.28 12.25 8.45 12.08 8.66 12.08H10.08C10.29 12.08 10.46 12.25 10.46 12.46V12.95C10.46 13.16 10.29 13.33 10.08 13.33H8.66C8.45 13.33 8.28 13.16 8.28 12.95V12.46ZM8.28 15.12C8.28 14.91 8.45 14.74 8.66 14.74H10.08C10.29 14.74 10.46 14.91 10.46 15.12V15.61C10.46 15.82 10.29 15.99 10.08 15.99H8.66C8.45 15.99 8.28 15.82 8.28 15.61V15.12ZM5.17 9.8C5.17 9.59 5.34 9.42 5.55 9.42H6.97C7.18 9.42 7.35 9.59 7.35 9.8V10.29C7.35 10.5 7.18 10.67 6.97 10.67H5.55C5.34 10.67 5.17 10.5 5.17 10.29V9.8ZM5.17 12.46C5.17 12.25 5.34 12.08 5.55 12.08H6.97C7.18 12.08 7.35 12.25 7.35 12.46V12.95C7.35 13.16 7.18 13.33 6.97 13.33H5.55C5.34 13.33 5.17 13.16 5.17 12.95V12.46ZM5.17 15.12C5.17 14.91 5.34 14.74 5.55 14.74H6.97C7.18 14.74 7.35 14.91 7.35 15.12V15.61C7.35 15.82 7.18 15.99 6.97 15.99H5.55C5.34 15.99 5.17 15.82 5.17 15.61V15.12Z" fill="#1A9DFD"/>
<path fill-rule="evenodd" clip-rule="evenodd" d="M20.38 14.37C19.86 13.46 19.08 12.45 18.03 11.29C17.9 11.33 17.77 11.35 17.63 11.35H14.33C14.19 11.35 14.06 11.33 13.93 11.29C12.88 12.46 12.09 13.47 11.58 14.37C9.69002 17.69 12.38 21.06 15.98 21C19.58 21.06 22.27 17.69 20.38 14.37ZM17.13 17.84C16.9 18.02 16.6 18.12 16.3 18.17V18.42C16.3 18.61 16.15 18.76 15.96 18.76C15.77 18.76 15.62 18.61 15.62 18.42V18.16C15.38 18.12 15.15 18.03 14.95 17.9C14.66 17.71 14.44 17.42 14.34 17.05C14.3 16.87 14.41 16.69 14.59 16.64C14.77 16.6 14.95 16.71 15 16.89C15.05 17.09 15.17 17.24 15.32 17.35C15.49 17.46 15.71 17.53 15.93 17.53H15.95H15.99C15.99 17.53 16.08 17.53 16.14 17.52C16.35 17.49 16.56 17.43 16.7 17.32C16.82 17.23 16.9 17.1 16.89 16.94C16.89 16.93 16.89 16.91 16.89 16.88C16.86 16.67 16.75 16.53 16.59 16.44C16.39 16.32 16.14 16.26 15.89 16.22C15.59 16.17 15.26 16.08 15 15.91C14.7 15.71 14.48 15.42 14.46 14.98C14.44 14.54 14.63 14.19 14.92 13.95C15.11 13.79 15.35 13.69 15.61 13.63V13.36C15.61 13.17 15.76 13.02 15.95 13.02C16.14 13.02 16.29 13.17 16.29 13.36V13.62C16.29 13.62 16.36 13.63 16.39 13.64C16.83 13.75 17.23 14.04 17.45 14.55C17.52 14.72 17.45 14.92 17.27 14.99C17.1 15.06 16.9 14.99 16.83 14.81C16.71 14.52 16.48 14.36 16.23 14.3C16.15 14.28 16.07 14.27 15.98 14.27H15.94C15.88 14.27 15.82 14.27 15.76 14.29C15.61 14.32 15.47 14.38 15.36 14.47C15.22 14.58 15.13 14.74 15.14 14.95C15.14 15.14 15.25 15.26 15.38 15.35C15.55 15.46 15.79 15.53 16.01 15.56C16.32 15.61 16.66 15.7 16.94 15.87C17.26 16.06 17.51 16.36 17.56 16.81C17.56 16.85 17.56 16.89 17.56 16.93C17.56 17.34 17.38 17.65 17.1 17.86L17.13 17.84Z" fill="#1A9DFD"/>
<path fill-rule="evenodd" clip-rule="evenodd" d="M14.3201 8.70004L13.6901 8.07004C13.3901 7.77004 13.3901 7.29004 13.6901 6.99004C13.9401 6.74004 14.3401 6.70004 14.6401 6.89004C14.7501 6.96004 14.8801 6.97004 15.0001 6.92004C15.1201 6.87004 15.2001 6.77004 15.2301 6.64004C15.3001 6.30004 15.6101 6.04004 15.9701 6.04004C16.3301 6.04004 16.6401 6.29004 16.7101 6.64004C16.7401 6.77004 16.8201 6.87004 16.9401 6.92004C17.0601 6.97004 17.1901 6.96004 17.3001 6.89004C17.5901 6.70004 17.9901 6.74004 18.2501 6.99004C18.5501 7.29004 18.5501 7.77004 18.2501 8.07004L17.6201 8.70004H14.3101H14.3201Z" fill="#1A9DFD"/>
</g>
<defs>
<clipPath id="clip0_14_844">
<rect width="18" height="18" fill="white" transform="translate(3 3)"/>
</clipPath>
</defs>
</svg>
