<svg width="49" height="48" viewBox="0 0 49 48" fill="none" xmlns="http://www.w3.org/2000/svg">
<rect x="0.75" width="48.0023" height="48" rx="16" fill="#F4F8FB"/>
<g clip-path="url(#clip0_226_17707)">
<path d="M24.8673 31.8136L24.7515 31.8329L24.6357 31.8136C23.7108 31.6596 22.8374 31.2826 22.0909 30.7152C21.3444 30.1479 20.7474 29.4072 20.3513 28.5574L18.6435 28.2841L17.4851 29.4392L16.4871 28.4406L18.1536 26.7745L19.8882 27.0516C19.8372 26.7426 19.8114 26.43 19.8113 26.1168V24.7072C19.8114 24.5359 19.8271 24.365 19.8582 24.1966L18.6435 24.0012L17.4851 25.1591L16.4885 24.161L18.155 22.4944L20.4939 22.8695C20.7012 22.6285 20.9475 22.4239 21.2224 22.2643V21.464L15.7843 16.026C11.598 20.7238 11.7293 27.9479 16.2663 32.4864C18.4305 34.6508 21.3401 35.9063 24.3996 35.9958C27.4592 36.0853 30.4372 35.002 32.7243 32.9678L28.86 29.1035C28.4297 29.8169 27.85 30.4285 27.1608 30.8963C26.4715 31.3642 25.689 31.6771 24.8673 31.8136Z" fill="#86CFB3"/>
<path d="M21.2227 24.7067V26.1187C21.2199 27.1318 21.5709 28.1141 22.2153 28.8959C22.8596 29.6777 23.7568 30.21 24.7518 30.4007C25.4088 30.2734 26.0276 29.9961 26.5598 29.5903C27.092 29.1846 27.5233 28.6613 27.82 28.0614L23.0538 23.2952H22.6342C22.26 23.2957 21.9013 23.4445 21.6367 23.7091C21.372 23.9738 21.2232 24.3325 21.2227 24.7067Z" fill="#86CFB3"/>
<path d="M33.2375 15.516C28.7005 10.9809 21.4816 10.8482 16.7852 15.0298L21.52 19.7647C21.7472 19.2468 22.0951 18.7909 22.5347 18.4351C22.9742 18.0792 23.4925 17.8338 24.0463 17.7193V17.649C24.046 17.2748 23.8971 16.9159 23.6325 16.6513C23.3679 16.3867 23.009 16.2378 22.6348 16.2375V14.8254C23.0357 14.8254 23.4319 14.911 23.7971 15.0764C24.1623 15.2418 24.488 15.4833 24.7523 15.7846C25.0167 15.4832 25.3423 15.2417 25.7075 15.0763C26.0727 14.9109 26.469 14.8254 26.8699 14.8254V16.2375C26.4956 16.2377 26.1366 16.3865 25.8719 16.6511C25.6071 16.9158 25.4582 17.2747 25.4579 17.649V17.7193C26.2551 17.8819 26.9717 18.315 27.4863 18.9453C28.0008 19.5757 28.2817 20.3644 28.2814 21.1781V22.2634C28.5723 22.432 28.831 22.6509 29.0456 22.9098L31.3488 22.5414L33.0153 24.2079L32.0187 25.206L30.8603 24.0481L29.6541 24.2412C29.6799 24.3947 29.6929 24.5501 29.693 24.7058V26.1178C29.6926 26.4462 29.6644 26.774 29.6086 27.0976L31.3497 26.8233L33.0153 28.489L32.0187 29.4861L30.8607 28.3286L30.1904 28.4355L33.7237 31.9707C37.9058 27.2715 37.7727 20.0525 33.2375 15.516Z" fill="#52B690"/>
<path d="M24.7507 19.0605C24.2378 19.0613 23.7426 19.2479 23.3568 19.5858C22.971 19.9237 22.7207 20.3899 22.6523 20.8982L23.6368 21.8827H26.8673V21.1781C26.8675 20.9 26.8129 20.6247 26.7066 20.3677C26.6003 20.1108 26.4444 19.8773 26.2478 19.6807C26.0512 19.484 25.8178 19.328 25.561 19.2216C25.3041 19.1152 25.0287 19.0605 24.7507 19.0605Z" fill="#52B690"/>
<path d="M25.0508 23.2952L28.263 26.5078C28.2939 26.1708 28.2761 26.055 28.2813 24.7067C28.2808 24.3325 28.1319 23.9738 27.8673 23.7091C27.6027 23.4445 27.2439 23.2957 26.8697 23.2952H25.0508Z" fill="#52B690"/>
</g>
<defs>
<clipPath id="clip0_226_17707">
<rect width="24.0023" height="24" fill="white" transform="translate(12.75 12)"/>
</clipPath>
</defs>
</svg>
