<svg width="24" height="24" viewBox="0 0 24 24" fill="none" xmlns="http://www.w3.org/2000/svg">
<g clip-path="url(#clip0_4167_206799)">
<path d="M13.1465 2H5.34151C4.05056 2 3 3.05056 3 4.34151V19.6394C3 20.9303 4.05056 21.9809 5.34151 21.9809H11.2109C11.6421 21.9809 11.9914 21.6316 11.9914 21.2004C11.9914 20.7691 11.6421 20.4199 11.2109 20.4199H5.34151C4.91106 20.4199 4.56101 20.0698 4.56101 19.6394V4.34151C4.56101 3.91106 4.91106 3.56101 5.34151 3.56101H10.805V4.34151C10.805 5.63246 11.8556 6.68302 13.1465 6.68302H15.488V10.3163C15.488 10.7475 15.8373 11.0968 16.2686 11.0968C16.6998 11.0968 17.0491 10.7475 17.0491 10.3163V5.90252C17.0491 3.75067 15.2984 2 13.1465 2ZM12.366 4.34151V3.56101H13.1465C14.1639 3.56101 15.0315 4.21351 15.3538 5.12201H13.1465C12.7161 5.12201 12.366 4.77196 12.366 4.34151Z" fill="#1A9DFD"/>
<path d="M13.1466 11.0539H6.90257C6.47135 11.0539 6.12207 10.7047 6.12207 10.2734C6.12207 9.8422 6.47135 9.49292 6.90257 9.49292H13.1466C13.5778 9.49292 13.9271 9.8422 13.9271 10.2734C13.9271 10.7047 13.5778 11.0539 13.1466 11.0539Z" fill="#1A9DFD"/>
<path d="M10.8051 14.1758H6.90257C6.47135 14.1758 6.12207 13.8265 6.12207 13.3952C6.12207 12.964 6.47135 12.6147 6.90257 12.6147H10.8051C11.2363 12.6147 11.5856 12.964 11.5856 13.3952C11.5856 13.8265 11.2363 14.1758 10.8051 14.1758Z" fill="#1A9DFD"/>
<path d="M10.0246 17.2978H6.90257C6.47135 17.2978 6.12207 16.9485 6.12207 16.5173C6.12207 16.0861 6.47135 15.7368 6.90257 15.7368H10.0246C10.4558 15.7368 10.8051 16.0861 10.8051 16.5173C10.8051 16.9485 10.4558 17.2978 10.0246 17.2978Z" fill="#1A9DFD"/>
<path d="M18.3514 16.7294H17.6177V15.9957C17.6177 15.6718 17.3543 15.408 17.03 15.408C16.7057 15.408 16.4422 15.6714 16.4422 15.9957V16.7294H15.7086C15.3847 16.7294 15.1208 16.9928 15.1208 17.3171C15.1208 17.6414 15.3843 17.9048 15.7086 17.9048H16.4422V18.6385C16.4422 18.9624 16.7057 19.2262 17.03 19.2262C17.3543 19.2262 17.6177 18.9628 17.6177 18.6385V17.9048H18.3514C18.6753 17.9048 18.9391 17.6414 18.9391 17.3171C18.9391 16.9928 18.6757 16.7294 18.3514 16.7294Z" fill="#1A9DFD"/>
<path d="M21.345 15.4937C21.1089 14.936 20.7714 14.4353 20.3417 14.0053C19.9117 13.5756 19.411 13.238 18.8533 13.0019C18.2753 12.7576 17.6622 12.6335 17.0304 12.6335C16.3986 12.6335 15.7851 12.7576 15.2076 13.0019C14.6499 13.238 14.1488 13.5756 13.7191 14.0053C13.2891 14.4353 12.9515 14.936 12.7158 15.4937C12.4715 16.0713 12.3474 16.6847 12.3474 17.3166C12.3474 17.9484 12.4715 18.5619 12.7158 19.1394C12.9515 19.6971 13.2895 20.1978 13.7191 20.6278C14.1492 21.0579 14.6499 21.3955 15.2076 21.6312C15.7855 21.8755 16.3986 21.9996 17.0304 21.9996C17.8866 21.9996 18.7245 21.7662 19.4539 21.3244C19.7544 21.1426 19.8508 20.75 19.6685 20.4499C19.4867 20.1494 19.0941 20.0534 18.794 20.2353C18.264 20.5564 17.6541 20.7262 17.0304 20.7262C15.1506 20.7262 13.6212 19.1968 13.6212 17.317C13.6212 15.4371 15.1506 13.9077 17.0304 13.9077C18.9103 13.9077 20.4397 15.4371 20.4397 17.317C20.4397 17.989 20.2399 18.643 19.8613 19.2089C19.7669 19.3502 19.7329 19.5199 19.7661 19.687C19.7993 19.854 19.8953 19.998 20.0369 20.0924C20.3288 20.2875 20.7249 20.2087 20.9205 19.9168C21.4395 19.1406 21.7138 18.2415 21.7138 17.317C21.7138 16.6851 21.5897 16.0717 21.3454 15.4941L21.345 15.4937Z" fill="#1A9DFD"/>
</g>
<defs>
<clipPath id="clip0_4167_206799">
<rect width="18.7133" height="20" fill="white" transform="translate(3 2)"/>
</clipPath>
</defs>
</svg>
