<svg width="24" height="24" viewBox="0 0 24 24" fill="none" xmlns="http://www.w3.org/2000/svg">
<path d="M17.5479 7.95402H17.272V6.45211C17.272 5.10008 16.172 4 14.8199 4H9.18008C7.82805 4 6.72797 5.10008 6.72797 6.45211V7.95402H6.45211C5.10008 7.95402 4 9.0541 4 10.4061V14.0843C4 15.4363 5.10008 16.5364 6.45211 16.5364H6.72797V18.4674C6.72797 19.3125 7.41548 20 8.26054 20H15.7395C16.5845 20 17.272 19.3125 17.272 18.4674V16.5364H17.5479C18.8999 16.5364 20 15.4363 20 14.0843V10.4061C20 9.0541 18.8999 7.95402 17.5479 7.95402ZM15.7395 18.7739H8.26054C8.09165 18.7739 7.95402 18.6363 7.95402 18.4674V14.0843H16.046V18.4674C16.046 18.6363 15.9084 18.7739 15.7395 18.7739ZM9.18008 5.22605H14.8199C15.4961 5.22605 16.046 5.77594 16.046 6.45211V7.95402H7.95402V6.45211C7.95402 5.77594 8.50391 5.22605 9.18008 5.22605ZM17.5479 15.3103H17.272V14.0843H17.3946C17.7327 14.0843 18.0077 13.8093 18.0077 13.4713C18.0077 13.1332 17.7327 12.8582 17.3946 12.8582H6.60536C6.26728 12.8582 5.99234 13.1332 5.99234 13.4713C5.99234 13.8093 6.26728 14.0843 6.60536 14.0843H6.72797V15.3103H6.45211C5.77594 15.3103 5.22605 14.7605 5.22605 14.0843V10.4061C5.22605 9.72996 5.77594 9.18008 6.45211 9.18008H17.5479C18.2241 9.18008 18.7739 9.72996 18.7739 10.4061V14.0843C18.7739 14.7605 18.2241 15.3103 17.5479 15.3103Z" fill="#1A9DFD"/>
<path d="M13.226 14.8199H10.7739C10.4358 14.8199 10.1609 15.0949 10.1609 15.433C10.1609 15.7711 10.4358 16.046 10.7739 16.046H13.226C13.5641 16.046 13.839 15.7711 13.839 15.433C13.839 15.0949 13.5641 14.8199 13.226 14.8199Z" fill="#1A9DFD"/>
<path d="M13.226 16.7816H10.7739C10.4358 16.7816 10.1609 17.0566 10.1609 17.3946C10.1609 17.7327 10.4358 18.0077 10.7739 18.0077H13.226C13.5641 18.0077 13.839 17.7327 13.839 17.3946C13.839 17.0566 13.5641 16.7816 13.226 16.7816Z" fill="#1A9DFD"/>
<path d="M8.07672 9.91565H6.60546C6.26737 9.91565 5.99243 10.1906 5.99243 10.5287C5.99243 10.8668 6.26737 11.1417 6.60546 11.1417H8.07672C8.41481 11.1417 8.68975 10.8668 8.68975 10.5287C8.68975 10.1906 8.41481 9.91565 8.07672 9.91565Z" fill="#1A9DFD"/>
</svg>
