<svg width="24" height="24" viewBox="0 0 24 24" fill="none" xmlns="http://www.w3.org/2000/svg">
<path d="M18.3639 5.636C16.6641 3.93621 14.4039 3 12 3C9.59598 3 7.3358 3.93621 5.636 5.636C3.93621 7.3358 3 9.59598 3 12C3 14.4039 3.93621 16.6641 5.636 18.3639C5.79526 18.5232 5.96014 18.6747 6.12889 18.8202C6.22135 17.7677 6.59506 16.7618 7.21557 15.9009C7.76646 15.1362 8.48681 14.5178 9.3179 14.0921C8.3613 13.2976 7.80232 12.1234 7.80232 10.8651C7.80232 8.55044 9.68528 6.66748 12 6.66748C14.3146 6.66748 16.1976 8.55044 16.1976 10.8651C16.1976 12.1237 15.639 13.2979 14.682 14.0921C15.5128 14.5178 16.2331 15.1366 16.7843 15.9009C17.4052 16.7622 17.7786 17.7677 17.871 18.8202C18.0398 18.6747 18.2047 18.5232 18.3639 18.3639C20.0637 16.6641 20.9999 14.4039 20.9999 12C20.9999 9.59598 20.0637 7.3358 18.3639 5.636Z" fill="#53A7BA"/>
<path d="M11.9999 13.4453C13.425 13.4453 14.5803 12.29 14.5803 10.8649C14.5803 9.43973 13.425 8.28442 11.9999 8.28442C10.5747 8.28442 9.41943 9.43973 9.41943 10.8649C9.41943 12.29 10.5747 13.4453 11.9999 13.4453Z" fill="#81BFCC"/>
<path d="M16.2576 19.7414C16.2703 19.6068 16.2766 19.4714 16.2766 19.3396C16.2766 16.9813 14.3581 15.0625 11.9995 15.0625C9.64088 15.0625 7.72241 16.9813 7.72241 19.3396C7.72241 19.4714 7.72874 19.6068 7.7414 19.7414L7.76038 19.9432C9.0492 20.6333 10.4959 21 11.9991 21C13.5024 21 14.9491 20.6333 16.2379 19.9432L16.2569 19.7414H16.2576Z" fill="#53A7BA"/>
</svg>
