<svg width="19" height="18" viewBox="0 0 19 18" fill="none" xmlns="http://www.w3.org/2000/svg">
<path d="M9.6665 18C14.6371 18 18.6665 13.9706 18.6665 9C18.6665 4.02944 14.6371 0 9.6665 0C4.69594 0 0.666504 4.02944 0.666504 9C0.666504 13.9706 4.69594 18 9.6665 18Z" fill="#D9F0FF"/>
<path fill-rule="evenodd" clip-rule="evenodd" d="M9.1666 4.5C8.61431 4.5 8.1666 4.94772 8.1666 5.5V7.49999H6.1665C5.61422 7.49999 5.1665 7.9477 5.1665 8.49999V9.49999C5.1665 10.0523 5.61422 10.5 6.1665 10.5H8.1666V12.5C8.1666 13.0523 8.61431 13.5 9.1666 13.5H10.1666C10.7189 13.5 11.1666 13.0523 11.1666 12.5V10.5H13.1665C13.7188 10.5 14.1665 10.0523 14.1665 9.49999V8.49999C14.1665 7.9477 13.7188 7.49999 13.1665 7.49999H11.1666V5.5C11.1666 4.94772 10.7189 4.5 10.1666 4.5H9.1666Z" fill="#0599FF"/>
</svg>
