<svg width="19" height="18" viewBox="0 0 19 18" fill="none" xmlns="http://www.w3.org/2000/svg">
<path d="M9.6665 18C14.6371 18 18.6665 13.9706 18.6665 9C18.6665 4.02944 14.6371 0 9.6665 0C4.69594 0 0.666504 4.02944 0.666504 9C0.666504 13.9706 4.69594 18 9.6665 18Z" fill="#FCF1DB"/>
<g clip-path="url(#clip0_3185_34475)">
<path d="M7.78503 9.82016L7.80153 9.79317C7.93651 9.57232 7.95451 9.33948 7.85065 9.15425C7.74341 8.96265 7.52332 8.85317 7.24661 8.85317H6.93352C6.99239 8.20713 7.2721 7.60909 7.73592 7.14752C8.2436 6.64209 8.91551 6.3665 9.62791 6.36913C10.3429 6.3725 11.0366 6.66009 11.5308 7.15877L11.713 7.3425L13.0598 6.04329L12.8724 5.85432C12.007 4.98106 10.8551 4.5 9.62941 4.5C7.19149 4.5 5.19001 6.42912 5.05128 8.85242H4.71232C4.43598 8.85242 4.21589 8.96228 4.10828 9.1535C4.00442 9.33873 4.02241 9.57157 4.1574 9.79279L4.17389 9.81979L5.46297 11.0976C5.64182 11.2761 5.81055 11.3657 5.97965 11.3657C6.14875 11.3657 6.31711 11.2765 6.49521 11.0987L7.78503 9.82016Z" fill="#F2BA4D"/>
<path d="M15.1753 8.45728L15.1588 8.43028L13.8701 7.15545C13.7542 7.03959 13.575 6.88586 13.3433 6.89074C13.1258 6.89486 12.959 7.03434 12.8386 7.1547L11.5488 8.43066L11.5323 8.45766C11.3969 8.6785 11.3789 8.91135 11.4828 9.09657C11.59 9.28817 11.8101 9.39766 12.0864 9.39766H12.3962C12.2574 10.7763 11.1071 11.8543 9.71713 11.8543C9.71301 11.8543 9.70888 11.8543 9.70476 11.8543C8.9901 11.8513 8.29645 11.5641 7.80189 11.0658L7.61966 10.8825L6.27246 12.1802L6.46031 12.3691C7.32682 13.2409 8.47867 13.7212 9.70364 13.7212C10.9286 13.7212 12.0718 13.2443 12.9368 12.3785C13.7392 11.5754 14.2105 10.5251 14.2799 9.39803H14.6215C14.8982 9.39803 15.1183 9.2878 15.2255 9.0962C15.329 8.91097 15.311 8.67813 15.1757 8.45766L15.1753 8.45728Z" fill="#F2BA4D"/>
</g>
<defs>
<clipPath id="clip0_3185_34475">
<rect width="11.25" height="9.21889" fill="white" transform="translate(4.0415 4.5)"/>
</clipPath>
</defs>
</svg>
