<svg width="48" height="48" viewBox="0 0 48 48" fill="none" xmlns="http://www.w3.org/2000/svg">
<rect width="48" height="48" rx="16" fill="#F4F6F9"/>
<path d="M16.2255 36C17.3456 36 18.2536 35.0919 18.2536 33.9718C18.2536 32.8517 17.3456 31.9436 16.2255 31.9436C15.1053 31.9436 14.1973 32.8517 14.1973 33.9718C14.1973 35.0919 15.1053 36 16.2255 36Z" fill="#8D95F0"/>
<path d="M28.3942 12.676V15.3802H26.366V12.676H23.3237V19.4366H31.4364V12.676H28.3942Z" fill="#8D95F0"/>
<path d="M28.3943 21.4648V24.1691H26.3662V21.4648H21.6338V29.5775H33.1267V21.4648H28.3943Z" fill="#545ED7"/>
<path d="M19.5171 31.6057C19.9356 32.1862 20.2043 32.8809 20.2668 33.6339H35.8312V31.6057H19.5171Z" fill="#545ED7"/>
<path d="M15.5492 12H12.1689V14.0282H15.5492C16.1084 14.0282 16.5633 14.4831 16.5633 15.0423V29.9307C17.3162 29.9932 18.011 30.2618 18.5915 30.6804V15.0422C18.5915 13.3648 17.2267 12 15.5492 12Z" fill="#545ED7"/>
</svg>
