<svg width="16" height="16" viewBox="0 0 16 16" fill="none" xmlns="http://www.w3.org/2000/svg">
<g clip-path="url(#clip0_1170_29221)">
<path d="M0 15.9998H7.27271V8.72705H0V15.9998ZM1.45443 10.1817H5.81812V14.5341H1.45443V10.1817Z" fill="#AEB6BD"/>
<path d="M4.36369 11.6362H2.90918V13.0909H4.36369V11.6362Z" fill="#AEB6BD"/>
<path d="M13.0909 14.5454H11.636V16H13.0909V14.5454Z" fill="#AEB6BD"/>
<path d="M16 14.5454H14.5452V16H16V14.5454Z" fill="#AEB6BD"/>
<path d="M14.5453 10.1817H13.0909V8.72705H8.72705V15.9998H10.1817V11.6361H11.636V13.0909H15.9998V8.72705H14.5453V10.1817Z" fill="#AEB6BD"/>
<path d="M0 7.27286H7.27271V0H0V7.27286ZM1.45443 1.45443H5.81812V5.81812H1.45443V1.45443Z" fill="#AEB6BD"/>
<path d="M4.36369 2.90906H2.90918V4.36369H4.36369V2.90906Z" fill="#AEB6BD"/>
<path d="M8.72705 0V7.27286H16V0H8.72705ZM14.5453 5.81812H10.1817V1.45443H14.5453V5.81812Z" fill="#AEB6BD"/>
<path d="M13.0909 2.90906H11.636V4.36369H13.0909V2.90906Z" fill="#AEB6BD"/>
</g>
<defs>
<clipPath id="clip0_1170_29221">
<rect width="16" height="16" fill="white"/>
</clipPath>
</defs>
</svg>
