<svg width="24" height="24" viewBox="0 0 24 24" fill="none" xmlns="http://www.w3.org/2000/svg">
<path d="M0 4C0 1.79086 1.79086 0 4 0H20C22.2091 0 24 1.79086 24 4V20C24 22.2091 22.2091 24 20 24H4C1.79086 24 0 22.2091 0 20V4Z" fill="#F4F8FB"/>
<path d="M21 19.9453H17.8008V14.6367H6.19922V19.9453H3V21H21V19.9453ZM12.5273 17.8008H11.4727V16.7461H12.5273V17.8008Z" fill="#53A7BA"/>
<path d="M9.89062 6.69141C10.5251 6.69141 12 6.53742 12 5.10938H13.0547C13.0547 5.98174 13.7644 6.69141 14.6367 6.69141H15.1641V5.63672C15.1641 4.15204 13.4574 3 11.9892 3C10.7949 3 10.0307 3.45935 9.35657 3.86467C8.71648 4.24987 8.16389 4.58203 7.25391 4.58203H6.72656C6.72656 4.58203 6.72656 5.12186 6.72663 5.12811C6.73215 6.01388 7.53495 6.69141 8.42081 6.69141H9.89062Z" fill="#53A7BA"/>
<path d="M13.582 11.8935V11.5611C14.5238 11.013 15.1641 9.9689 15.1641 8.80073V7.74604H14.6367C13.7728 7.74604 13.0115 7.32265 12.5303 6.67859C11.9933 7.35218 11.0722 7.74607 9.89062 7.74607H8.83594V8.80076C8.83594 9.96893 9.4762 11.013 10.418 11.5612V11.8935L12 12.9481L13.582 11.8935Z" fill="#81BFCC"/>
<path d="M15.2192 12.0698L12.9509 13.5821H17.0426C16.7093 12.8288 16.0399 12.2563 15.2192 12.0698Z" fill="#53A7BA"/>
<path d="M8.781 12.0698C7.96032 12.2563 7.29077 12.8287 6.95752 13.5821H11.0493L8.781 12.0698Z" fill="#53A7BA"/>
</svg>
