<svg width="24" height="24" viewBox="0 0 24 24" fill="none" xmlns="http://www.w3.org/2000/svg">
<path d="M12 5.99319C13.5913 5.99855 15.1157 6.63373 16.24 7.75986L14.6573 9.34253H18.544C18.7466 9.34253 18.941 9.26203 19.0842 9.11876C19.2275 8.97548 19.308 8.78115 19.308 8.57853V4.69186L17.6473 6.35253C16.5311 5.23102 15.1069 4.46637 13.5554 4.15557C12.0038 3.84478 10.395 4.00186 8.93288 4.60689C7.47078 5.21191 6.22135 6.23761 5.34311 7.55384C4.46487 8.87008 3.9974 10.4175 4.00001 11.9999H5.99334C5.99511 10.4073 6.62852 8.88054 7.75461 7.75445C8.88069 6.62837 10.4075 5.99496 12 5.99319Z" fill="#1A9DFD"/>
<path d="M18.0066 12C18.0088 13.1881 17.6579 14.3502 16.9985 15.3386C16.3392 16.327 15.401 17.0972 14.3032 17.5515C13.2053 18.0058 11.9972 18.1237 10.8322 17.8902C9.66723 17.6567 8.59789 17.0823 7.75989 16.24L9.34256 14.6573H5.32856C5.15976 14.6575 4.99792 14.7246 4.87856 14.844C4.7592 14.9634 4.69207 15.1252 4.69189 15.294V19.308L6.35256 17.6473C7.46881 18.7688 8.89304 19.5335 10.4446 19.8443C11.9961 20.1551 13.6049 19.998 15.067 19.393C16.5291 18.788 17.7786 17.7623 18.6568 16.446C19.535 15.1298 20.0025 13.5823 19.9999 12H18.0066Z" fill="#1A9DFD"/>
</svg>
