<svg width="24" height="24" viewBox="0 0 24 24" fill="none" xmlns="http://www.w3.org/2000/svg">
<g clip-path="url(#clip0_2149_44732)">
<path d="M4 18.6892V13.4392C4.00199 11.6496 4.71378 9.93384 5.97922 8.6684C7.24466 7.40296 8.9604 6.69117 10.75 6.68918H14.3725V5.49968C14.3726 5.20305 14.4606 4.91311 14.6254 4.66649C14.7902 4.41988 15.0245 4.22767 15.2985 4.11416C15.5726 4.00066 15.8741 3.97095 16.165 4.02881C16.456 4.08666 16.7232 4.22947 16.933 4.43918L21.343 8.84843C21.7648 9.27037 22.0018 9.84256 22.0018 10.4392C22.0018 11.0358 21.7648 11.608 21.343 12.0299L16.933 16.4392C16.7232 16.6489 16.456 16.7917 16.165 16.8496C15.8741 16.9074 15.5726 16.8777 15.2985 16.7642C15.0245 16.6507 14.7902 16.4585 14.6254 16.2119C14.4606 15.9653 14.3726 15.6753 14.3725 15.3787V14.1892H10C8.80689 14.1904 7.66299 14.6649 6.81934 15.5085C5.97568 16.3522 5.50119 17.4961 5.5 18.6892C5.5 18.8881 5.42098 19.0789 5.28033 19.2195C5.13968 19.3602 4.94891 19.4392 4.75 19.4392C4.55109 19.4392 4.36032 19.3602 4.21967 19.2195C4.07902 19.0789 4 18.8881 4 18.6892ZM15.8725 7.43918C15.8725 7.63809 15.7935 7.82886 15.6528 7.96951C15.5122 8.11016 15.3214 8.18918 15.1225 8.18918H10.75C9.3581 8.19077 8.02367 8.7444 7.03944 9.72862C6.05522 10.7128 5.50159 12.0473 5.5 13.4392V14.7247C6.06218 14.0849 6.75437 13.5724 7.53036 13.2214C8.30636 12.8704 9.14831 12.6889 10 12.6892H15.1225C15.3214 12.6892 15.5122 12.7682 15.6528 12.9089C15.7935 13.0495 15.8725 13.2403 15.8725 13.4392V15.3787L20.2817 10.9694C20.4224 10.8288 20.5013 10.6381 20.5013 10.4392C20.5013 10.2403 20.4224 10.0496 20.2817 9.90893L15.8725 5.49968V7.43918Z" fill="#1A9DFD"/>
</g>
<defs>
<clipPath id="clip0_2149_44732">
<rect width="18" height="18" fill="white" transform="translate(4 3)"/>
</clipPath>
</defs>
</svg>
