<svg width="18" height="18" viewBox="0 0 18 18" fill="none" xmlns="http://www.w3.org/2000/svg">
<path d="M7.16081 11.966C7.20934 11.9913 7.26383 12.0028 7.31843 11.9994C7.37303 11.996 7.42568 11.9779 7.47072 11.9468L11.3709 9.24667C11.4108 9.21906 11.4434 9.1822 11.4658 9.13925C11.4883 9.0963 11.5001 9.04854 11.5001 9.00006C11.5001 8.95157 11.4883 8.90381 11.4658 8.86086C11.4434 8.81791 11.4108 8.78105 11.3709 8.75344L7.47072 6.0533C7.42571 6.02216 7.37304 6.00392 7.31841 6.00056C7.26378 5.99721 7.20927 6.00886 7.16079 6.03426C7.1123 6.05966 7.07169 6.09784 7.04335 6.14467C7.01501 6.19149 7.00002 6.24518 7 6.29991V11.7002C6.99999 11.755 7.01497 11.8087 7.04332 11.8555C7.07167 11.9024 7.1123 11.9406 7.16081 11.966Z" fill="#AEB6BD"/>
</svg>
