<svg width="24" height="24" viewBox="0 0 24 24" fill="none" xmlns="http://www.w3.org/2000/svg">
<path fill-rule="evenodd" clip-rule="evenodd" d="M5.77778 11.2099C5.77778 8.20981 8.20981 5.77778 11.2099 5.77778C14.2099 5.77778 16.642 8.20981 16.642 11.2099C16.642 12.6708 16.0653 13.9969 15.1271 14.9732C15.0988 14.9954 15.0716 15.0195 15.0455 15.0455C15.0195 15.0716 14.9954 15.0988 14.9732 15.1271C13.9969 16.0653 12.6708 16.642 11.2099 16.642C8.20981 16.642 5.77778 14.2099 5.77778 11.2099ZM15.6408 16.8979C14.4183 17.8516 12.8805 18.4197 11.2099 18.4197C7.22797 18.4197 4 15.1918 4 11.2099C4 7.22797 7.22797 4 11.2099 4C15.1918 4 18.4197 7.22797 18.4197 11.2099C18.4197 12.8805 17.8516 14.4183 16.8979 15.6408L19.7396 18.4825C20.0868 18.8297 20.0868 19.3925 19.7396 19.7396C19.3925 20.0868 18.8297 20.0868 18.4825 19.7396L15.6408 16.8979Z" fill="#AEB6BD"/>
</svg>
