<svg width="49" height="48" viewBox="0 0 49 48" fill="none" xmlns="http://www.w3.org/2000/svg">
<rect x="0.75" width="48" height="48" rx="16" fill="#F4F8FB"/>
<path d="M24.7501 19C21.993 19 19.75 21.243 19.75 23.9999C19.75 26.757 21.993 29 24.7501 29C27.507 29 29.75 26.757 29.75 23.9999C29.75 21.243 27.507 19 24.7501 19ZM27.7186 23.0583L24.1366 26.6403C23.9863 26.7907 23.7891 26.8659 23.5921 26.8659C23.3951 26.8659 23.1981 26.7909 23.0477 26.6403L21.6788 25.2714C21.3781 24.9709 21.3781 24.4834 21.6788 24.1827C21.9794 23.882 22.4669 23.882 22.7676 24.1827L23.5921 25.0072L26.6299 21.9695C26.9304 21.6688 27.4179 21.6688 27.7186 21.9695C28.0194 22.2701 28.0194 22.7576 27.7186 23.0583Z" fill="#8D95F0"/>
<path d="M34.8823 18.5118L34.8816 18.4931C34.8712 18.2626 34.8643 18.0187 34.8601 17.7473C34.8407 16.424 33.7971 15.3294 32.4841 15.2555C29.7466 15.1015 27.6289 14.2017 25.8195 12.4239L25.8041 12.4091C25.2139 11.8636 24.3236 11.8636 23.7332 12.4091L23.7178 12.4239C21.9084 14.2017 19.7907 15.1015 17.0532 15.2557C15.7404 15.3294 14.6966 16.424 14.6772 17.7475C14.6732 18.0171 14.6661 18.261 14.6557 18.4931L14.6546 18.5365C14.6014 21.3503 14.5353 24.8522 15.6975 28.0307C16.3366 29.7786 17.3044 31.298 18.574 32.547C20.0199 33.9694 21.9138 35.0986 24.203 35.9031C24.2775 35.9293 24.3549 35.9506 24.4337 35.9665C24.5449 35.9888 24.6568 36 24.7687 36C24.8806 36 24.9926 35.9888 25.1036 35.9665C25.1825 35.9506 25.2604 35.9291 25.3352 35.9028C27.6217 35.0967 29.5136 33.967 30.9583 32.5448C32.2273 31.2955 33.1951 29.7757 33.8347 28.0274C35.0013 24.8394 34.9353 21.3309 34.8823 18.5118ZM24.7683 29.9815C21.4964 29.9815 18.8346 27.2985 18.8346 24.0004C18.8346 20.7023 21.4964 18.0193 24.7683 18.0193C28.04 18.0193 30.7019 20.7023 30.7019 24.0004C30.7019 27.2985 28.04 29.9815 24.7683 29.9815Z" fill="#545ED7"/>
</svg>
