<svg width="24" height="25" viewBox="0 0 24 25" fill="none" xmlns="http://www.w3.org/2000/svg">
<path d="M5.5 5C5.5 4.175 6.175 3.5 7 3.5H11.0575V5.4425H5.5V5Z" fill="#1A9DFD"/>
<path d="M20.5011 21.4996V9.72461C20.5011 8.89961 19.8261 8.22461 19.0011 8.22461H15.5586V21.4996H20.5011Z" fill="#1A9DFD"/>
<path d="M5.5 6.5C4.675 6.5 4 7.175 4 8V20.75C4 21.1625 4.3375 21.5 4.75 21.5H14.4325V6.5H5.5ZM8.245 18.6125H7.1875V16.3625H8.245V18.6125ZM8.245 14.8625H7.1875V12.6125H8.245V14.8625ZM8.245 11.1125H7.1875V8.8625H8.245V11.1125ZM11.245 18.6125H10.1875V16.3625H11.245V18.6125ZM11.245 14.8625H10.1875V12.6125H11.245V14.8625ZM11.245 11.1125H10.1875V8.8625H11.245V11.1125Z" fill="#1A9DFD"/>
</svg>
