<svg width="25" height="24" viewBox="0 0 25 24" fill="none" xmlns="http://www.w3.org/2000/svg">
<path fill-rule="evenodd" clip-rule="evenodd" d="M15.2126 10.6264C14.7598 10.6264 14.3896 10.2563 14.3896 9.80345C14.3896 9.35063 14.7598 8.98047 15.2126 8.98047H18.8844C19.3372 8.98047 19.7074 9.35063 19.7074 9.80345C19.7074 10.2563 19.3372 10.6264 18.8844 10.6264H15.2126Z" fill="#86C8BC"/>
<path fill-rule="evenodd" clip-rule="evenodd" d="M14.9593 2H4.4653C3.45684 2 2.63184 2.825 2.63184 3.83347V17.2355C2.63184 18.244 3.45684 19.069 4.4653 19.069H11.2161C10.5564 17.4923 10.756 15.7863 11.5968 14.3105C11.7685 14.0089 11.9568 13.7101 12.1576 13.4149C12.0415 13.3399 11.9645 13.2089 11.9645 13.0609V12.5129C11.9645 12.2806 12.154 12.0915 12.3859 12.0915H13.1504C13.4919 11.6718 13.8476 11.2629 14.2032 10.8681C14.0984 10.7685 14.008 10.6536 13.9359 10.527H12.3859C12.1536 10.527 11.9645 10.3375 11.9645 10.1056V9.55766C11.9645 9.3254 12.154 9.13629 12.3859 9.13629H13.9056C14.0367 8.88105 14.2399 8.66895 14.4887 8.52742L14.0508 8.08952C13.7843 7.82298 13.6403 7.47903 13.6181 7.12903H5.07619C4.84393 7.12903 4.65482 6.93952 4.65482 6.70766V5.05363C4.65482 4.82137 4.84434 4.63226 5.07619 4.63226H14.3484C14.5806 4.63226 14.7697 4.82177 14.7697 5.05363V5.58387C15.0673 5.51573 15.3834 5.53831 15.6726 5.65685C15.8681 5.18911 16.2919 4.84879 16.7927 4.76129V3.83387C16.7927 2.8254 15.9677 2.0004 14.9593 2.0004V2ZM8.50321 9.55726C8.50321 9.325 8.69272 9.13589 8.92458 9.13589H10.5C10.7322 9.13589 10.9214 9.3254 10.9214 9.55726V10.1052C10.9214 10.3375 10.7318 10.5266 10.5 10.5266H8.92458C8.69232 10.5266 8.50321 10.3371 8.50321 10.1052V9.55726ZM8.50321 12.5125C8.50321 12.2802 8.69272 12.0911 8.92458 12.0911H10.5C10.7322 12.0911 10.9214 12.2806 10.9214 12.5125V13.0605C10.9214 13.2927 10.7318 13.4819 10.5 13.4819H8.92458C8.69232 13.4819 8.50321 13.2923 8.50321 13.0605V12.5125ZM8.50321 15.4681C8.50321 15.2359 8.69272 15.0468 8.92458 15.0468H10.5C10.7322 15.0468 10.9214 15.2363 10.9214 15.4681V16.0161C10.9214 16.2484 10.7318 16.4375 10.5 16.4375H8.92458C8.69232 16.4375 8.50321 16.248 8.50321 16.0161V15.4681ZM5.04192 9.55726C5.04192 9.325 5.23143 9.13589 5.46329 9.13589H7.03869C7.27095 9.13589 7.46006 9.3254 7.46006 9.55726V10.1052C7.46006 10.3375 7.27055 10.5266 7.03869 10.5266H5.46329C5.23103 10.5266 5.04192 10.3371 5.04192 10.1052V9.55726ZM5.04192 12.5129C5.04192 12.2806 5.23143 12.0915 5.46329 12.0915H7.03869C7.27095 12.0915 7.46006 12.281 7.46006 12.5129V13.0609C7.46006 13.2931 7.27055 13.4823 7.03869 13.4823H5.46329C5.23103 13.4823 5.04192 13.2927 5.04192 13.0609V12.5129ZM5.04192 15.4685C5.04192 15.2363 5.23143 15.0472 5.46329 15.0472H7.03869C7.27095 15.0472 7.46006 15.2367 7.46006 15.4685V16.0165C7.46006 16.2488 7.27055 16.4379 7.03869 16.4379H5.46329C5.23103 16.4379 5.04192 16.2484 5.04192 16.0165V15.4685Z" fill="#86C8BC"/>
<path d="M21.9398 14.6295C21.366 13.6222 20.4946 12.4984 19.3261 11.2032C19.1866 11.2476 19.0382 11.2714 18.8845 11.2714H15.2128C15.0591 11.2714 14.9108 11.2476 14.7712 11.2032C13.6027 12.4984 12.7313 13.6218 12.1575 14.6295C10.0563 18.319 13.0454 22.0665 17.0487 21.9988C21.0519 22.0661 24.0414 18.319 21.9398 14.6295ZM18.3241 18.4819C18.064 18.6794 17.7325 18.798 17.4071 18.8476V19.1307C17.4071 19.3371 17.2398 19.5048 17.0329 19.5048C16.8261 19.5048 16.6587 19.3375 16.6587 19.1307V18.8403C16.391 18.7932 16.1353 18.6964 15.9152 18.5496C15.593 18.3351 15.3458 18.0186 15.2418 17.5996C15.1926 17.3996 15.3148 17.1972 15.5152 17.148C15.7152 17.0988 15.9176 17.221 15.9668 17.4214C16.022 17.6432 16.1543 17.8117 16.3277 17.927C16.5192 18.0544 16.7591 18.1214 17.0067 18.1278C17.0156 18.127 17.0245 18.127 17.0333 18.127C17.0438 18.127 17.0547 18.1274 17.0648 18.1282H17.0825C17.1293 18.1266 17.1841 18.1226 17.247 18.1149C17.4781 18.0867 17.7095 18.0133 17.8741 17.8883C18.0055 17.7883 18.093 17.6492 18.089 17.4661C18.089 17.452 18.0866 17.4294 18.0829 17.3988C18.0551 17.1686 17.9241 17.0149 17.7499 16.9097C17.5321 16.7782 17.2454 16.7085 16.9773 16.6645C16.643 16.6097 16.2809 16.5101 15.9858 16.3174C15.647 16.0964 15.4043 15.7698 15.3805 15.2823C15.3571 14.7972 15.566 14.4085 15.8954 14.1407C16.1099 13.9665 16.3761 13.8468 16.6595 13.7895V13.494C16.6595 13.2875 16.8269 13.1198 17.0337 13.1198C17.2406 13.1198 17.4079 13.2871 17.4079 13.494V13.7839C17.4446 13.7907 17.4809 13.7988 17.5168 13.8081C18.0079 13.9327 18.4551 14.2557 18.6898 14.8149C18.7696 15.0053 18.6801 15.2246 18.4898 15.3045C18.2995 15.3843 18.0801 15.2948 18.0003 15.1045C17.8668 14.7867 17.614 14.6036 17.3358 14.5331C17.2454 14.5101 17.1527 14.4984 17.0608 14.4972C17.0519 14.498 17.043 14.498 17.0341 14.498C17.0265 14.498 17.0192 14.498 17.012 14.4972C16.9426 14.4988 16.8737 14.5069 16.8067 14.5202C16.6406 14.5536 16.487 14.6218 16.3668 14.7194C16.2132 14.844 16.116 15.0242 16.1269 15.2472C16.137 15.4532 16.2438 15.5944 16.393 15.692C16.5858 15.8178 16.8487 15.8871 17.0983 15.9282C17.4442 15.9851 17.822 16.0799 18.137 16.2698C18.4954 16.4863 18.7656 16.8113 18.8265 17.3113C18.8313 17.3504 18.8341 17.3964 18.8353 17.4488C18.8462 17.9049 18.6382 18.2448 18.3253 18.4819H18.3241Z" fill="#86C8BC"/>
<path fill-rule="evenodd" clip-rule="evenodd" d="M15.209 8.33491L14.5065 7.63249C14.1775 7.30346 14.1775 6.76516 14.5065 6.43653C14.7864 6.15669 15.2291 6.10951 15.5622 6.32322C15.686 6.40266 15.8279 6.41516 15.9634 6.35911C16.0989 6.30306 16.1904 6.19338 16.2219 6.04983C16.3049 5.66999 16.6449 5.3837 17.0485 5.3833C17.4449 5.3833 17.7904 5.66274 17.8751 6.04983C17.9065 6.19338 17.9981 6.30266 18.1336 6.35911C18.2695 6.41516 18.4114 6.40266 18.5348 6.32322C18.8618 6.11314 19.3049 6.15104 19.5904 6.43653C19.9195 6.76556 19.9195 7.30387 19.5904 7.6329L18.888 8.33532H15.209V8.33491Z" fill="#86C8BC"/>
</svg>
