<svg width="24" height="24" viewBox="0 0 24 24" fill="none" xmlns="http://www.w3.org/2000/svg">
<g clip-path="url(#clip0_4762_219549)">
<path d="M15.6068 5.50464C14.6519 5.50464 13.8752 6.28132 13.8752 7.23621C13.8752 8.19109 14.6519 8.96777 15.6068 8.96777C16.5617 8.96777 17.3384 8.19109 17.3384 7.23621C17.3384 6.28132 16.5617 5.50464 15.6068 5.50464ZM15.6068 7.81339C15.2886 7.81339 15.0296 7.55474 15.0296 7.23621C15.0296 6.91767 15.2886 6.65902 15.6068 6.65902C15.925 6.65902 16.184 6.91767 16.184 7.23621C16.184 7.55474 15.925 7.81339 15.6068 7.81339Z" fill="#41C973"/>
<path d="M17.6793 3H12.2115C11.6686 3 11.1376 3.22041 10.7555 3.60424L3.60091 10.7726C2.7997 11.5756 2.7997 12.8822 3.60091 13.6852L8.52902 18.6238C8.6928 18.7879 8.91033 18.8781 9.14192 18.8781C9.37244 18.8781 9.5896 18.7883 9.75374 18.6252C10.0914 18.2876 10.0918 17.7385 9.75483 17.4012L4.82671 12.4623C4.69829 12.3335 4.69829 12.1239 4.82671 11.9951L11.9813 4.82716C12.0419 4.7662 12.126 4.73157 12.2115 4.73157H17.6793C17.8593 4.73157 18.0057 4.87911 18.0057 5.06056V9.2441C18.0057 9.72137 18.3943 10.1099 18.8715 10.1099C19.3488 10.1099 19.7373 9.72137 19.7373 9.2441V5.06056C19.7373 3.92458 18.8142 3 17.6793 3Z" fill="#41C973"/>
<path d="M15.5889 9.92383C12.6052 9.92383 10.1777 12.3513 10.1777 15.335C10.1777 18.3187 12.6052 20.7461 15.5889 20.7461C18.5726 20.7461 21 18.3187 21 15.335C21 12.3513 18.5726 9.92383 15.5889 9.92383ZM15.5889 19.1589C13.4803 19.1589 11.765 17.4435 11.765 15.335C11.765 13.2264 13.4803 11.5111 15.5889 11.5111C17.6974 11.5111 19.4128 13.2264 19.4128 15.335C19.4128 17.4435 17.6974 19.1589 15.5889 19.1589Z" fill="#41C973"/>
<path d="M15.5887 13.6034C15.9069 13.6034 16.1659 13.862 16.1659 14.1806C16.1659 14.4991 16.4242 14.7578 16.7431 14.7578C17.062 14.7578 17.3203 14.4995 17.3203 14.1806C17.3203 13.4292 16.8362 12.7942 16.1659 12.5554V12.449C16.1659 12.1301 15.9076 11.8718 15.5887 11.8718C15.2698 11.8718 15.0116 12.1301 15.0116 12.449V12.5554C14.3413 12.7946 13.8572 13.4292 13.8572 14.1806C13.8572 15.1355 14.6339 15.9121 15.5887 15.9121C15.9069 15.9121 16.1659 16.1708 16.1659 16.4893C16.1659 16.8079 15.9069 17.0665 15.5887 17.0665C15.2706 17.0665 15.0116 16.8079 15.0116 16.4893C15.0116 16.1708 14.7533 15.9121 14.4344 15.9121C14.1155 15.9121 13.8572 16.1704 13.8572 16.4893C13.8572 17.2408 14.3413 17.8757 15.0116 18.1145V18.2209C15.0116 18.5398 15.2698 18.7981 15.5887 18.7981C15.9076 18.7981 16.1659 18.5398 16.1659 18.2209V18.1145C16.8362 17.8753 17.3203 17.2408 17.3203 16.4893C17.3203 15.5345 16.5436 14.7578 15.5887 14.7578C15.2706 14.7578 15.0116 14.4991 15.0116 14.1806C15.0116 13.862 15.2706 13.6034 15.5887 13.6034Z" fill="#41C973"/>
</g>
<defs>
<clipPath id="clip0_4762_219549">
<rect width="18" height="17.746" fill="white" transform="translate(3 3)"/>
</clipPath>
</defs>
</svg>
