<svg width="49" height="48" viewBox="0 0 49 48" fill="none" xmlns="http://www.w3.org/2000/svg">
<rect x="0.5" width="48" height="48" rx="16" fill="#F4F8FB"/>
<g clip-path="url(#clip0_202_16369)">
<path d="M13.2021 30.3284H31.5779C31.7427 30.3284 31.902 30.2707 32.0283 30.1656C32.2048 30.0178 36.231 26.5543 36.4765 19.0779H16.7412C16.4966 25.8645 12.7888 29.0544 12.7502 29.0862C12.5243 29.2771 12.4412 29.5889 12.5428 29.8663C12.6438 30.143 12.9068 30.3284 13.2021 30.3284Z" fill="#1A9DFD"/>
<path d="M35.7977 14.8589H32.2819V14.1558C32.2819 13.762 31.9726 13.4526 31.5788 13.4526C31.185 13.4526 30.8756 13.762 30.8756 14.1558V14.8589H27.313V14.1558C27.313 13.762 27.0036 13.4526 26.6098 13.4526C26.2161 13.4526 25.9067 13.762 25.9067 14.1558V14.8589H22.3909V14.1558C22.3909 13.762 22.0815 13.4526 21.6877 13.4526C21.294 13.4526 20.9846 13.762 20.9846 14.1558V14.8589H17.4688C17.075 14.8589 16.7656 15.1683 16.7656 15.5621V17.6716H36.5009V15.5621C36.5009 15.1683 36.1915 14.8589 35.7977 14.8589Z" fill="#53B5FD"/>
<path d="M32.9322 31.2438C32.5504 31.5617 32.0711 31.7348 31.5788 31.7348H16.7656V33.8442C16.7656 34.2329 17.0801 34.5474 17.4688 34.5474H35.7977C36.1864 34.5474 36.5009 34.2329 36.5009 33.8442V25.962C35.1452 29.288 33.2534 30.9749 32.9322 31.2438Z" fill="#53B5FD"/>
</g>
<defs>
<clipPath id="clip0_202_16369">
<rect width="24" height="24" fill="white" transform="translate(12.5 12)"/>
</clipPath>
</defs>
</svg>
