<svg width="24" height="24" viewBox="0 0 24 24" fill="none" xmlns="http://www.w3.org/2000/svg">
<path d="M12 21C16.9706 21 21 16.9706 21 12C21 7.02944 16.9706 3 12 3C7.02944 3 3 7.02944 3 12C3 16.9706 7.02944 21 12 21Z" fill="#41C973"/>
<path d="M12.6711 13.9491C12.9704 14.2484 12.9704 14.7615 12.6711 15.0608L12.0511 15.6808C11.7518 15.9801 11.2388 15.9801 10.9395 15.6808L8.22447 12.9444C7.92518 12.6451 7.92518 12.132 8.22447 11.8327L8.84443 11.2128C9.14373 10.9135 9.6568 10.9135 9.95609 11.2128L12.6711 13.9491Z" fill="white"/>
<path d="M15.0439 9.22447C15.3432 8.92518 15.8562 8.92518 16.1555 9.22447L16.7755 9.84443C17.0748 10.1437 17.0748 10.6568 16.7755 10.9561L12.0723 15.6379C11.773 15.9372 11.2599 15.9372 10.9606 15.6379L10.3407 15.0179C10.0414 14.7186 10.0414 14.2056 10.3407 13.9063L15.0439 9.22447Z" fill="white"/>
</svg>
