<svg width="24" height="24" viewBox="0 0 24 24" fill="none" xmlns="http://www.w3.org/2000/svg">
<g clip-path="url(#clip0_560_4845)">
<path d="M18.0484 5H5.95157C4.8754 5 4 5.8754 4 6.95157V17.7408C4 18.8167 4.8754 19.6921 5.95157 19.6921H18.0484C19.1246 19.6921 20 18.8167 20 17.7408V6.95157C20 5.8754 19.1246 5 18.0484 5ZM15.1163 16.7496V18.4048H12.6437V16.7496H15.1163ZM15.1163 13.4803V15.4622H12.6437V13.4803H15.1163ZM15.1163 10.2107V12.193H12.6437V10.2107H15.1163ZM11.3563 16.7496V18.4048H8.88368V16.7496H11.3563ZM11.3563 13.4803V15.4622H8.88368V13.4803H11.3563ZM11.3563 10.2107V12.193H8.88368V10.2107H11.3563ZM5.28736 6.95157C5.28736 6.58529 5.58529 6.28736 5.95157 6.28736H18.0484C18.4147 6.28736 18.7126 6.58529 18.7126 6.95157V8.92337H5.28736V6.95157ZM7.59632 10.2107V12.193H5.28736V10.2107H7.59632ZM7.59632 13.4803V15.4622H5.28736V13.4803H7.59632ZM7.59632 16.7496V18.4048H5.95157C5.58529 18.4048 5.28736 18.1068 5.28736 17.7408V16.7496H7.59632ZM16.4037 16.7496H18.7126V17.7408C18.7126 18.1071 18.4147 18.4048 18.0484 18.4048H16.4037V16.7496ZM18.7126 13.4803V15.4622H16.4037V13.4803H18.7126ZM18.7126 10.2107V12.193H16.4037V10.2107H18.7126Z" fill="#41C973"/>
</g>
<defs>
<clipPath id="clip0_560_4845">
<rect width="16" height="14.6921" fill="white" transform="translate(4 5)"/>
</clipPath>
</defs>
</svg>
