<svg width="13" height="12" viewBox="0 0 13 12" fill="none" xmlns="http://www.w3.org/2000/svg">
<g clip-path="url(#clip0_6876_78329)">
<path d="M11.4399 5.58406C11.3294 5.58406 11.2234 5.54017 11.1453 5.46203C11.0671 5.38389 11.0232 5.2779 11.0232 5.1674C11.0224 4.28361 10.6709 3.43628 10.0459 2.81135C9.42102 2.18642 8.57369 1.83495 7.6899 1.83407C7.5794 1.83407 7.47341 1.79017 7.39527 1.71203C7.31713 1.63389 7.27324 1.52791 7.27324 1.4174C7.27324 1.30689 7.31713 1.20091 7.39527 1.12277C7.47341 1.04463 7.5794 1.00073 7.6899 1.00073C8.7946 1.00195 9.8537 1.44132 10.6348 2.22246C11.416 3.0036 11.8554 4.0627 11.8566 5.1674C11.8566 5.2779 11.8127 5.38389 11.7345 5.46203C11.6564 5.54017 11.5504 5.58406 11.4399 5.58406ZM10.1899 5.1674C10.1899 4.50436 9.92651 3.86847 9.45767 3.39963C8.98883 2.93079 8.35294 2.6674 7.6899 2.6674C7.5794 2.6674 7.47341 2.7113 7.39527 2.78944C7.31713 2.86758 7.27324 2.97356 7.27324 3.08407C7.27324 3.19457 7.31713 3.30055 7.39527 3.37869C7.47341 3.45683 7.5794 3.50073 7.6899 3.50073C8.13193 3.50073 8.55585 3.67633 8.86841 3.98889C9.18097 4.30145 9.35657 4.72537 9.35657 5.1674C9.35657 5.2779 9.40047 5.38389 9.47861 5.46203C9.55675 5.54017 9.66273 5.58406 9.77324 5.58406C9.88374 5.58406 9.98972 5.54017 10.0679 5.46203C10.146 5.38389 10.1899 5.2779 10.1899 5.1674ZM11.0995 10.2357L11.4787 9.79865C11.72 9.55653 11.8555 9.22862 11.8555 8.88677C11.8555 8.54492 11.72 8.21701 11.4787 7.9749C11.4657 7.96198 10.4632 7.19073 10.4632 7.19073C10.2226 6.9617 9.90304 6.83417 9.57086 6.83464C9.23868 6.8351 8.91945 6.96353 8.67949 7.19323L7.88532 7.8624C7.23706 7.5941 6.64819 7.20039 6.15252 6.70386C5.65685 6.20734 5.26416 5.61779 4.99699 4.96906L5.66365 4.1774C5.89353 3.93747 6.02211 3.61818 6.02265 3.2859C6.0232 2.95362 5.89566 2.63391 5.66657 2.39323C5.66657 2.39323 4.89449 1.39198 4.88157 1.37907C4.64384 1.13979 4.32152 1.00366 3.98425 1.00007C3.64697 0.996486 3.32183 1.12574 3.07907 1.3599L2.5999 1.77657C-0.230932 5.06073 5.8649 11.1095 9.2574 11.0007C9.59998 11.0027 9.93948 10.936 10.2559 10.8047C10.5722 10.6733 10.8591 10.4798 11.0995 10.2357Z" fill="#6C757A"/>
</g>
<defs>
<clipPath id="clip0_6876_78329">
<rect width="10" height="10" fill="white" transform="translate(1.85742 1)"/>
</clipPath>
</defs>
</svg>
