<svg width="24" height="24" viewBox="0 0 24 24" fill="none" xmlns="http://www.w3.org/2000/svg">
<path d="M0 4C0 1.79086 1.79086 0 4 0H20C22.2091 0 24 1.79086 24 4V20C24 22.2091 22.2091 24 20 24H4C1.79086 24 0 22.2091 0 20V4Z" fill="#F4F8FB"/>
<path d="M16.5 16.125C17.1213 16.125 17.625 15.6213 17.625 15C17.625 14.3787 17.1213 13.875 16.5 13.875C15.8787 13.875 15.375 14.3787 15.375 15C15.375 15.6213 15.8787 16.125 16.5 16.125Z" fill="#53A7BA"/>
<path d="M12.375 20.25C12.375 18.675 13.2 17.4 14.475 16.65C14.1 16.2 13.875 15.6 13.875 15C13.875 13.575 15.075 12.375 16.5 12.375C17.25 12.375 17.925 12.675 18.375 13.2V6C18.375 4.35 17.025 3 15.375 3H7.875C6.225 3 4.875 4.35 4.875 6V18C4.875 19.65 6.225 21 7.875 21H12.375V20.25ZM7.875 12.75C7.875 12.3 8.175 12 8.625 12H11.625C12.075 12 12.375 12.3 12.375 12.75C12.375 13.2 12.075 13.5 11.625 13.5H8.625C8.175 13.5 7.875 13.2 7.875 12.75ZM14.625 10.5H8.625C8.175 10.5 7.875 10.2 7.875 9.75C7.875 9.3 8.175 9 8.625 9H14.625C15.075 9 15.375 9.3 15.375 9.75C15.375 10.2 15.075 10.5 14.625 10.5ZM14.625 7.5H8.625C8.175 7.5 7.875 7.2 7.875 6.75C7.875 6.3 8.175 6 8.625 6H14.625C15.075 6 15.375 6.3 15.375 6.75C15.375 7.2 15.075 7.5 14.625 7.5Z" fill="#81BFCC"/>
<path d="M16.5 17.625C15.075 17.625 13.875 18.825 13.875 20.25V21H19.125V20.25C19.125 18.825 17.925 17.625 16.5 17.625Z" fill="#53A7BA"/>
</svg>
