<svg width="24" height="24" viewBox="0 0 24 24" fill="none" xmlns="http://www.w3.org/2000/svg">
<path d="M0 4C0 1.79086 1.79086 0 4 0H20C22.2091 0 24 1.79086 24 4V20C24 22.2091 22.2091 24 20 24H4C1.79086 24 0 22.2091 0 20V4Z" fill="#F4F8FB"/>
<path d="M20.4118 8.64258H12.4032C11.9163 10.8458 10.052 12.5375 7.76367 12.7646V18.0427C7.76367 18.3675 8.02699 18.6308 8.35184 18.6308H16.7236C16.9447 18.6308 17.1423 18.7686 17.2186 18.9761L17.7816 20.5072C17.8322 20.6449 17.9633 20.7363 18.11 20.7363C18.2567 20.7363 18.3878 20.6449 18.4384 20.5072L19.0014 18.9761C19.0777 18.7686 19.2752 18.6308 19.4964 18.6308H20.4118C20.7367 18.6308 21 18.3675 21 18.0427V9.23074C21 8.9066 20.7363 8.64258 20.4118 8.64258ZM17.9952 15.8106H10.7685C10.477 15.8106 10.2411 15.5743 10.2411 15.2832C10.2411 14.9921 10.477 14.7559 10.7685 14.7559H17.9952C18.2866 14.7559 18.5225 14.9921 18.5225 15.2832C18.5225 15.5743 18.2866 15.8106 17.9952 15.8106ZM17.9952 12.5175H12.7165C12.4254 12.5175 12.1891 12.2816 12.1891 11.9902C12.1891 11.6991 12.4254 11.4628 12.7165 11.4628H17.9952C18.2866 11.4628 18.5225 11.6991 18.5225 11.9902C18.5225 12.2816 18.2866 12.5175 17.9952 12.5175Z" fill="#53A7BA"/>
<path fill-rule="evenodd" clip-rule="evenodd" d="M7.23633 3.26367C9.57211 3.26367 11.4727 5.16422 11.4727 7.5C11.4727 10.0537 9.23039 12.0162 6.70898 11.7036C4.6207 11.4435 3 9.65719 3 7.5C3 5.16422 4.9002 3.26367 7.23633 3.26367ZM5.46129 5.50453C4.89352 5.56359 4.80773 6.36551 5.36004 6.53355C5.62371 6.61758 5.92359 6.4773 6.01781 6.18234C6.12645 5.82586 5.8343 5.46656 5.46129 5.50453ZM8.49422 6.27762C8.72098 6.7016 9.33305 6.62074 9.46348 6.18234C9.55383 5.90566 9.38473 5.57941 9.06234 5.51227C8.61094 5.42754 8.29031 5.89617 8.49422 6.27762Z" fill="#81BFCC"/>
</svg>
