<svg width="48" height="48" viewBox="0 0 48 48" fill="none" xmlns="http://www.w3.org/2000/svg">
<rect width="48" height="48" rx="16" fill="#E9EBFF"/>
<path d="M35.2158 19.5234H24.5377C23.8884 22.4611 21.4027 24.7167 18.3516 25.0195V32.0569C18.3516 32.49 18.7027 32.8411 19.1358 32.8411H30.2981C30.593 32.8411 30.8564 33.0248 30.9581 33.3014L31.7087 35.3429C31.7762 35.5265 31.951 35.6484 32.1466 35.6484C32.3423 35.6484 32.517 35.5265 32.5845 35.3429L33.3352 33.3014C33.4369 33.0248 33.7003 32.8411 33.9952 32.8411H35.2158C35.6489 32.8411 36 32.49 36 32.0569V20.3077C36 19.8755 35.6484 19.5234 35.2158 19.5234ZM31.9936 29.0808H22.358C21.9694 29.0808 21.6548 28.7658 21.6548 28.3777C21.6548 27.9895 21.9694 27.6745 22.358 27.6745H31.9936C32.3822 27.6745 32.6967 27.9895 32.6967 28.3777C32.6967 28.7658 32.3822 29.0808 31.9936 29.0808ZM31.9936 24.69H24.9553C24.5672 24.69 24.2522 24.3755 24.2522 23.9869C24.2522 23.5988 24.5672 23.2838 24.9553 23.2838H31.9936C32.3822 23.2838 32.6967 23.5988 32.6967 23.9869C32.6967 24.3755 32.3822 24.69 31.9936 24.69Z" fill="#545ED7"/>
<path fill-rule="evenodd" clip-rule="evenodd" d="M17.6484 12.3516C20.7628 12.3516 23.2969 14.8856 23.2969 18C23.2969 21.405 20.3072 24.0216 16.9453 23.6048C14.1609 23.258 12 20.8763 12 18C12 14.8856 14.5336 12.3516 17.6484 12.3516ZM15.2817 15.3394C14.5247 15.4181 14.4103 16.4873 15.1467 16.7114C15.4983 16.8234 15.8981 16.6364 16.0237 16.2431C16.1686 15.7678 15.7791 15.2887 15.2817 15.3394ZM19.3256 16.3702C19.628 16.9355 20.4441 16.8277 20.618 16.2431C20.7384 15.8742 20.513 15.4392 20.0831 15.3497C19.4813 15.2367 19.0538 15.8616 19.3256 16.3702Z" fill="#8D95F0"/>
</svg>
