<svg width="48" height="48" viewBox="0 0 48 48" fill="none" xmlns="http://www.w3.org/2000/svg">
<rect width="48" height="48" rx="16" fill="#FFEFED"/>
<path d="M28.7144 12V16.2857C28.7144 16.7754 29.0819 17.1429 29.5715 17.1429H33.8572C33.8572 16.9157 33.7667 16.6977 33.606 16.537L29.3202 12.2512C29.1595 12.0905 28.9415 12 28.7144 12Z" fill="#FFAA9E"/>
<path d="M23.5714 27.4334C24.9942 27.4334 26.1476 26.28 26.1476 24.8571C26.1476 23.4343 24.9942 22.2809 23.5714 22.2809C22.1485 22.2809 20.9951 23.4343 20.9951 24.8571C20.9951 26.28 22.1485 27.4334 23.5714 27.4334Z" fill="#FFAA9E"/>
<path d="M29.5714 18.8571C28.1614 18.8571 27 17.6957 27 16.2857V12H17.5714C16.1614 12 15 13.1614 15 14.5714V33.4286C15 34.8386 16.1614 36 17.5714 36H31.2857C32.6957 36 33.8571 34.8386 33.8571 33.4286V18.8571H29.5714ZM29.3202 30.6059C28.9854 30.9407 28.4427 30.9407 28.1084 30.6059L25.9323 28.4298C25.2536 28.8809 24.443 29.1482 23.572 29.1482C21.2121 29.1482 19.2814 27.2175 19.2814 24.8577C19.2814 22.4979 21.2121 20.5671 23.572 20.5671C25.9318 20.5671 27.8625 22.4979 27.8625 24.8577C27.8625 25.7293 27.5973 26.5409 27.1457 27.2196L29.3202 29.3941C29.655 29.7289 29.655 30.2716 29.3202 30.6059Z" fill="#FF7D6B"/>
</svg>
