<svg width="24" height="24" viewBox="0 0 24 24" fill="none" xmlns="http://www.w3.org/2000/svg">
<g clip-path="url(#clip0_4631_225674)">
<path d="M13.1465 2H5.34151C4.05056 2 3 3.05056 3 4.34151V19.6394C3 20.9303 4.05056 21.9809 5.34151 21.9809H11.2109C11.6421 21.9809 11.9914 21.6316 11.9914 21.2004C11.9914 20.7691 11.6421 20.4199 11.2109 20.4199H5.34151C4.91106 20.4199 4.56101 20.0698 4.56101 19.6394V4.34151C4.56101 3.91106 4.91106 3.56101 5.34151 3.56101H10.805V4.34151C10.805 5.63246 11.8556 6.68302 13.1465 6.68302H15.488V10.3163C15.488 10.7475 15.8373 11.0968 16.2686 11.0968C16.6998 11.0968 17.0491 10.7475 17.0491 10.3163V5.90252C17.0491 3.75067 15.2984 2 13.1465 2ZM12.366 4.34151V3.56101H13.1465C14.1639 3.56101 15.0315 4.21351 15.3538 5.12201H13.1465C12.7161 5.12201 12.366 4.77196 12.366 4.34151Z" fill="#1A9DFD"/>
<path d="M13.1466 11.0539H6.90257C6.47135 11.0539 6.12207 10.7047 6.12207 10.2734C6.12207 9.8422 6.47135 9.49292 6.90257 9.49292H13.1466C13.5778 9.49292 13.9271 9.8422 13.9271 10.2734C13.9271 10.7047 13.5778 11.0539 13.1466 11.0539Z" fill="#1A9DFD"/>
<path d="M10.8051 14.1758H6.90257C6.47135 14.1758 6.12207 13.8265 6.12207 13.3952C6.12207 12.964 6.47135 12.6147 6.90257 12.6147H10.8051C11.2363 12.6147 11.5856 12.964 11.5856 13.3952C11.5856 13.8265 11.2363 14.1758 10.8051 14.1758Z" fill="#1A9DFD"/>
<path d="M10.0246 17.2978H6.90257C6.47135 17.2978 6.12207 16.9485 6.12207 16.5173C6.12207 16.0861 6.47135 15.7368 6.90257 15.7368H10.0246C10.4558 15.7368 10.8051 16.0861 10.8051 16.5173C10.8051 16.9485 10.4558 17.2978 10.0246 17.2978Z" fill="#1A9DFD"/>
<path fill-rule="evenodd" clip-rule="evenodd" d="M16.0126 17.0001L13.2047 19.808C12.9319 20.0807 12.9319 20.5226 13.2047 20.7954C13.4775 21.0682 13.9194 21.0682 14.1921 20.7954L17 17.9875L19.808 20.7954C20.0807 21.0682 20.5226 21.0682 20.7954 20.7954C21.0682 20.5227 21.0682 20.0808 20.7954 19.808L17.9875 17.0001L20.7955 14.192C21.0683 13.9192 21.0683 13.4774 20.7955 13.2046C20.5227 12.9318 20.0808 12.9318 19.8081 13.2046L17 16.0126L14.192 13.2046C13.9192 12.9318 13.4774 12.9318 13.2046 13.2046C12.9318 13.4774 12.9318 13.9193 13.2046 14.1921L16.0126 17.0001Z" fill="#F24D4D"/>
</g>
<defs>
<clipPath id="clip0_4631_225674">
<rect width="18.7133" height="20" fill="white" transform="translate(3 2)"/>
</clipPath>
</defs>
</svg>
