<svg width="16" height="16" viewBox="0 0 16 16" fill="none" xmlns="http://www.w3.org/2000/svg">
<path d="M14.9717 0.000468631H1.02831C0.894772 -0.00363003 0.761774 0.019191 0.637203 0.067578C0.512632 0.115965 0.399026 0.188933 0.303122 0.282153C0.207218 0.375373 0.13097 0.486946 0.0789002 0.610257C0.0268308 0.733567 0 0.866102 0 1C0 1.1339 0.0268308 1.26643 0.0789002 1.38974C0.13097 1.51305 0.207218 1.62463 0.303122 1.71785C0.399026 1.81107 0.512632 1.88403 0.637203 1.93242C0.761774 1.98081 0.894772 2.00363 1.02831 1.99953H14.9717C15.1052 2.00363 15.2382 1.98081 15.3628 1.93242C15.4874 1.88403 15.601 1.81107 15.6969 1.71785C15.7928 1.62463 15.869 1.51305 15.9211 1.38974C15.9732 1.26643 16 1.1339 16 1C16 0.866102 15.9732 0.733567 15.9211 0.610257C15.869 0.486946 15.7928 0.375373 15.6969 0.282153C15.601 0.188933 15.4874 0.115965 15.3628 0.067578C15.2382 0.019191 15.1052 -0.00363003 14.9717 0.000468631Z" fill="#38D298"/>
<path d="M8.62571 4.29644C8.55552 4.20496 8.46283 4.13035 8.35534 4.07879C8.24785 4.02723 8.12866 4.00022 8.00766 4C7.89153 4.00001 7.77696 4.02478 7.67277 4.07239C7.56858 4.12 7.47756 4.18919 7.40672 4.27461L3.22222 8.15947C3.07967 8.29215 2.99973 8.47195 3 8.65933C3.00027 8.84671 3.08072 9.02632 3.22365 9.15864C3.36658 9.29097 3.56029 9.36517 3.76215 9.36492C3.96402 9.36467 4.15752 9.28999 4.30007 9.15732L7.24847 6.42051L7.23563 15.2933C7.23554 15.386 7.25512 15.4778 7.29326 15.5635C7.3314 15.6492 7.38735 15.7271 7.45791 15.7927C7.52848 15.8584 7.61227 15.9104 7.70452 15.946C7.79677 15.9816 7.89566 15.9999 7.99555 16C8.19746 16 8.39111 15.9255 8.53389 15.793C8.67667 15.6605 8.75688 15.4807 8.75688 15.2933L8.76544 6.42184L11.701 9.14673C11.8438 9.27914 12.0375 9.35346 12.2394 9.35334C12.4412 9.35321 12.6348 9.27866 12.7774 9.14607C12.9201 9.01349 13.0001 8.83373 13 8.64635C12.9999 8.45897 12.9195 8.27931 12.7767 8.1469L8.62571 4.29644Z" fill="#38D298"/>
</svg>
