<svg width="37" height="38" viewBox="0 0 37 38" fill="none" xmlns="http://www.w3.org/2000/svg">
<path d="M24.3953 25.098L18.2963 18.999L12.1973 25.098" stroke="#1A9DFD" stroke-width="1.52475" stroke-linecap="round" stroke-linejoin="round"/>
<path d="M18.2959 18.999V32.7218" stroke="#1A9DFD" stroke-width="1.52475" stroke-linecap="round" stroke-linejoin="round"/>
<path d="M31.0887 28.7425C32.5759 27.9317 33.7507 26.6488 34.4277 25.0962C35.1048 23.5436 35.2455 21.8098 34.8277 20.1683C34.4099 18.5269 33.4574 17.0713 32.1205 16.0313C30.7835 14.9913 29.1383 14.4262 27.4445 14.425H25.5234C25.0618 12.6399 24.2016 10.9827 23.0074 9.57784C21.8132 8.17302 20.3161 7.05721 18.6286 6.31428C16.9411 5.57136 15.1071 5.22066 13.2645 5.28855C11.422 5.35643 9.61877 5.84114 7.9905 6.70623C6.36223 7.57133 4.95126 8.79429 3.86367 10.2832C2.77608 11.7721 2.04017 13.4881 1.71127 15.3024C1.38236 17.1166 1.46902 18.9818 1.96473 20.7577C2.46044 22.5337 3.3523 24.1741 4.57326 25.5557" stroke="#1A9DFD" stroke-width="1.52475" stroke-linecap="round" stroke-linejoin="round"/>
<path d="M24.3953 25.098L18.2963 18.999L12.1973 25.098" stroke="#1A9DFD" stroke-width="1.52475" stroke-linecap="round" stroke-linejoin="round"/>
</svg>
