<svg width="24" height="24" viewBox="0 0 24 24" fill="none" xmlns="http://www.w3.org/2000/svg">
<g clip-path="url(#clip0_53_1897)">
<path d="M20.4532 10.0642C19.2899 8.16971 16.6439 4.99121 11.9999 4.99121C7.35592 4.99121 4.70992 8.16971 3.54667 10.0642C3.18706 10.6458 2.99658 11.3161 2.99658 12C2.99658 12.6838 3.18706 13.3541 3.54667 13.9357C4.70992 15.8302 7.35592 19.0087 11.9999 19.0087C16.6439 19.0087 19.2899 15.8302 20.4532 13.9357C20.8128 13.3541 21.0033 12.6838 21.0033 12C21.0033 11.3161 20.8128 10.6458 20.4532 10.0642ZM19.1744 13.1505C18.1754 14.775 15.9142 17.5087 11.9999 17.5087C8.08567 17.5087 5.82442 14.775 4.82542 13.1505C4.61177 12.8047 4.4986 12.4064 4.4986 12C4.4986 11.5936 4.61177 11.1952 4.82542 10.8495C5.82442 9.22496 8.08567 6.49121 11.9999 6.49121C15.9142 6.49121 18.1754 9.22196 19.1744 10.8495C19.3881 11.1952 19.5012 11.5936 19.5012 12C19.5012 12.4064 19.3881 12.8047 19.1744 13.1505Z" fill="#AEB6BD"/>
<path d="M12 8.25C11.2583 8.25 10.5333 8.46993 9.91661 8.88199C9.29993 9.29404 8.81928 9.87971 8.53545 10.5649C8.25162 11.2502 8.17736 12.0042 8.32206 12.7316C8.46675 13.459 8.8239 14.1272 9.34835 14.6517C9.8728 15.1761 10.541 15.5333 11.2684 15.6779C11.9958 15.8226 12.7498 15.7484 13.4351 15.4645C14.1203 15.1807 14.706 14.7001 15.118 14.0834C15.5301 13.4667 15.75 12.7417 15.75 12C15.7488 11.0058 15.3533 10.0527 14.6503 9.34966C13.9473 8.64666 12.9942 8.25119 12 8.25ZM12 14.25C11.555 14.25 11.12 14.118 10.75 13.8708C10.38 13.6236 10.0916 13.2722 9.92127 12.861C9.75098 12.4499 9.70642 11.9975 9.79323 11.561C9.88005 11.1246 10.0943 10.7237 10.409 10.409C10.7237 10.0943 11.1246 9.88005 11.561 9.79323C11.9975 9.70642 12.4499 9.75097 12.861 9.92127C13.2722 10.0916 13.6236 10.38 13.8708 10.75C14.118 11.12 14.25 11.555 14.25 12C14.25 12.5967 14.0129 13.169 13.591 13.591C13.169 14.0129 12.5967 14.25 12 14.25Z" fill="#AEB6BD"/>
</g>
<defs>
<clipPath id="clip0_53_1897">
<rect width="18" height="18" fill="white" transform="translate(3 3)"/>
</clipPath>
</defs>
</svg>
